<svg width="653" height="372" viewBox="0 0 653 372" fill="none" xmlns="http://www.w3.org/2000/svg">
<path opacity="0.2" fill-rule="evenodd" clip-rule="evenodd" d="M238.261 320L482.765 320C484.335 320 485.688 321.089 485.949 322.583C486.226 324.076 485.352 325.528 483.87 326.045C452.109 337.128 386.859 359.896 376.495 363.511C375.564 363.832 374.592 364 373.603 364C361.154 364 162.488 364 109.113 364C106.819 364 106.453 360.767 108.644 360.089L238.261 320Z" fill="#003434"/>
<path fill-rule="evenodd" clip-rule="evenodd" d="M282.272 143.676C283.841 138.526 288.604 135 294.013 135H525.393C528.427 135 531.287 136.419 533.104 138.848C534.937 141.276 535.493 144.422 534.643 147.334C524.221 182.77 494.391 284.249 485.801 313.466C484.321 318.47 480.555 322.464 475.629 324.22C456.888 330.906 409.352 347.878 387.432 355.705C379.877 358.403 371.94 359.773 363.918 359.773H122.336C115.548 359.773 113.98 350.273 120.407 348.091L214.402 316.179C215.799 315.704 217.229 315.334 218.68 315.07L227.5 313.466C227.5 313.466 272.466 175.806 282.272 143.676Z" fill="#A6A6A6"/>
<path fill-rule="evenodd" clip-rule="evenodd" d="M477.138 312.808L379.827 346.051C373.677 348.152 367.227 349.24 360.728 349.272L125.153 350.44C122.89 350.451 122.352 347.284 124.493 346.548L214.725 315.525C219.957 313.726 225.45 312.808 230.982 312.808H477.138Z" fill="#CCCCCC"/>
<path fill-rule="evenodd" clip-rule="evenodd" d="M447.371 315.332L393.004 334.708H172.413L229.195 315.332H447.371Z" fill="#A6A6A6"/>
<path fill-rule="evenodd" clip-rule="evenodd" d="M291.124 149.849C291.769 147.874 293.6 146.542 295.682 146.542C322.287 146.542 493.1 146.542 519.807 146.542C520.643 146.542 521.419 146.922 521.917 147.595C522.416 148.254 522.577 149.117 522.342 149.907C515.717 172.717 477.606 303.779 477.606 303.779H241.007C241.007 303.779 283.751 172.483 291.124 149.849Z" fill="#3996ED"/>
<path fill-rule="evenodd" clip-rule="evenodd" d="M302.999 160.367C303.648 158.4 305.479 157.067 307.552 157.067C331.919 157.067 476.628 157.067 501.083 157.067C501.91 157.067 502.685 157.46 503.194 158.121C503.69 158.781 503.843 159.631 503.614 160.431C497.472 181.552 464.521 294.918 464.521 294.918H259.239C259.239 294.918 296.183 181.337 302.999 160.367Z" fill="#125096"/>
<path fill-rule="evenodd" clip-rule="evenodd" d="M303.012 160.393C303.648 158.413 305.492 157.067 307.565 157.067C331.969 157.067 476.627 157.067 501.083 157.067C501.909 157.067 502.685 157.46 503.194 158.121C503.69 158.781 503.843 159.631 503.614 160.431C502.635 163.82 501.262 168.542 501.262 168.542L300.443 168.352C300.443 168.352 301.943 163.718 303.012 160.393Z" fill="#F5F5F5"/>
<path d="M312.395 165.345C313.537 165.345 314.63 164.421 314.834 163.28C315.039 162.14 314.279 161.215 313.137 161.215C311.994 161.215 310.902 162.14 310.697 163.28C310.492 164.421 311.252 165.345 312.395 165.345Z" fill="#E02D38"/>
<path d="M320.335 165.345C321.477 165.345 322.57 164.421 322.775 163.28C322.979 162.14 322.219 161.215 321.077 161.215C319.934 161.215 318.842 162.14 318.637 163.28C318.432 164.421 319.192 165.345 320.335 165.345Z" fill="#EDA62B"/>
<path d="M328.163 165.345C329.305 165.345 330.398 164.421 330.602 163.28C330.807 162.14 330.047 161.215 328.905 161.215C327.762 161.215 326.67 162.14 326.465 163.28C326.26 164.421 327.02 165.345 328.163 165.345Z" fill="#4CA375"/>
<path d="M414.183 192.81L413.438 195.311H410.828L411.573 192.81H414.183ZM411.573 192.81L410.828 195.311H408.218L408.963 192.81H411.573ZM408.963 192.81L408.218 195.311H405.609L406.353 192.81H408.963ZM406.353 192.81L405.609 195.311H402.999L403.743 192.81H406.353ZM403.743 192.81L402.999 195.311H400.389L401.134 192.81H403.743ZM402.999 195.311L402.254 197.813H399.644L400.389 195.311H402.999ZM405.609 195.311L404.864 197.813H402.254L402.999 195.311H405.609ZM404.864 197.813L404.119 200.314H401.509L402.254 197.813H404.864ZM408.218 195.311L407.474 197.813H404.864L405.609 195.311H408.218ZM410.828 195.311L410.083 197.813H407.474L408.218 195.311H410.828ZM413.438 195.311L412.693 197.813H410.083L410.828 195.311H413.438ZM407.474 197.813L406.729 200.314H404.119L404.864 197.813H407.474ZM402.254 197.813L401.509 200.314H398.9L399.644 197.813H402.254ZM400.389 195.311L399.644 197.813H397.035L397.779 195.311H400.389ZM397.779 195.311L397.035 197.813H394.425L395.17 195.311H397.779ZM397.035 197.813L396.29 200.314H393.68L394.425 197.813H397.035ZM394.425 197.813L393.68 200.314H391.07L391.815 197.813H394.425ZM393.68 200.314L392.935 202.815H390.326L391.07 200.314H393.68ZM391.07 200.314L390.326 202.815H387.716L388.461 200.314H391.07ZM390.326 202.815L389.581 205.316H386.971L387.716 202.815H390.326ZM389.581 205.316L388.836 207.818H386.226L386.971 205.316H389.581ZM386.971 205.316L386.226 207.818H383.617L384.361 205.316H386.971ZM392.191 205.316L391.446 207.818H388.836L389.581 205.316H392.191ZM394.8 205.316L394.056 207.818H391.446L392.191 205.316H394.8ZM397.41 205.316L396.666 207.818H394.056L394.8 205.316H397.41ZM400.02 205.316L399.275 207.818H396.666L397.41 205.316H400.02ZM400.765 202.815L400.02 205.316H397.41L398.155 202.815H400.765ZM401.509 200.314L400.765 202.815H398.155L398.9 200.314H401.509ZM404.119 200.314L403.374 202.815H400.765L401.509 200.314H404.119ZM399.644 197.813L398.9 200.314H396.29L397.035 197.813H399.644ZM398.9 200.314L398.155 202.815H395.545L396.29 200.314H398.9ZM398.155 202.815L397.41 205.316H394.8L395.545 202.815H398.155ZM395.545 202.815L394.8 205.316H392.191L392.935 202.815H395.545ZM392.935 202.815L392.191 205.316H389.581L390.326 202.815H392.935ZM396.29 200.314L395.545 202.815H392.935L393.68 200.314H396.29ZM393.331 262.845L392.586 265.346H389.976L390.721 262.845H393.331ZM392.586 265.346L391.841 267.848H389.232L389.976 265.346H392.586ZM389.976 265.346L389.232 267.848H386.622L387.367 265.346H389.976ZM387.367 265.346L386.622 267.848H384.012L384.757 265.346H387.367ZM384.757 265.346L384.012 267.848H381.402L382.147 265.346H384.757ZM382.147 265.346L381.402 267.848H378.793L379.537 265.346H382.147ZM385.502 262.845L384.757 265.346H382.147L382.892 262.845H385.502ZM388.111 262.845L387.367 265.346H384.757L385.502 262.845H388.111ZM390.721 262.845L389.976 265.346H387.367L388.111 262.845H390.721ZM386.246 260.344L385.502 262.845H382.892L383.636 260.344H386.246ZM388.856 260.344L388.111 262.845H385.502L386.246 260.344H388.856ZM382.892 262.845L382.147 265.346H379.537L380.282 262.845H382.892ZM380.282 262.845L379.537 265.346H376.928L377.672 262.845H380.282ZM377.672 262.845L376.928 265.346H374.318L375.063 262.845H377.672ZM378.417 260.344L377.672 262.845H375.063L375.807 260.344H378.417ZM375.807 260.344L375.063 262.845H372.453L373.197 260.344H375.807ZM376.552 257.843L375.807 260.344H373.197L373.942 257.843H376.552ZM373.942 257.843L373.197 260.344H370.588L371.332 257.843H373.942ZM374.687 255.341L373.942 257.843H371.332L372.077 255.341H374.687ZM375.432 252.84L374.687 255.341H372.077L372.822 252.84H375.432ZM372.822 252.84L372.077 255.341H369.467L370.212 252.84H372.822ZM378.041 252.84L377.297 255.341H374.687L375.432 252.84H378.041ZM380.651 252.84L379.906 255.341H377.297L378.041 252.84H380.651ZM383.261 252.84L382.516 255.341H379.906L380.651 252.84H383.261ZM385.871 252.84L385.126 255.341H382.516L383.261 252.84H385.871ZM385.126 255.341L384.381 257.843H381.771L382.516 255.341H385.126ZM384.381 257.843L383.636 260.344H381.027L381.771 257.843H384.381ZM386.991 257.843L386.246 260.344H383.636L384.381 257.843H386.991ZM383.636 260.344L382.892 262.845H380.282L381.027 260.344H383.636ZM381.027 260.344L380.282 262.845H377.672L378.417 260.344H381.027ZM381.771 257.843L381.027 260.344H378.417L379.162 257.843H381.771ZM382.516 255.341L381.771 257.843H379.162L379.906 255.341H382.516ZM379.906 255.341L379.162 257.843H376.552L377.297 255.341H379.906ZM379.162 257.843L378.417 260.344H375.807L376.552 257.843H379.162ZM377.297 255.341L376.552 257.843H373.942L374.687 255.341H377.297ZM373.567 250.339L372.822 252.84H370.212L370.957 250.339H373.567ZM374.311 247.838L373.567 250.339H370.957L371.701 247.838H374.311ZM375.056 245.336L374.311 247.838H371.701L372.446 245.336H375.056ZM375.801 242.835L375.056 245.336H372.446L373.191 242.835H375.801ZM376.545 240.334L375.801 242.835H373.191L373.936 240.334H376.545ZM379.155 240.334L378.41 242.835H375.801L376.545 240.334H379.155ZM379.9 237.833L379.155 240.334H376.545L377.29 237.833H379.9ZM380.645 235.331L379.9 237.833H377.29L378.035 235.331H380.645ZM381.389 232.83L380.645 235.331H378.035L378.779 232.83H381.389ZM383.999 232.83L383.254 235.331H380.645L381.389 232.83H383.999ZM384.744 230.329L383.999 232.83H381.389L382.134 230.329H384.744ZM387.353 230.329L386.609 232.83H383.999L384.744 230.329H387.353ZM389.963 230.329L389.218 232.83H386.609L387.353 230.329H389.963ZM389.218 232.83L388.474 235.331H385.864L386.609 232.83H389.218ZM388.474 235.331L387.729 237.833H385.119L385.864 235.331H388.474ZM387.729 237.833L386.984 240.334H384.375L385.119 237.833H387.729ZM386.984 240.334L386.24 242.835H383.63L384.375 240.334H386.984ZM386.24 242.835L385.495 245.336H382.885L383.63 242.835H386.24ZM385.495 245.336L384.75 247.838H382.14L382.885 245.336H385.495ZM384.75 247.838L384.006 250.339H381.396L382.14 247.838H384.75ZM384.006 250.339L383.261 252.84H380.651L381.396 250.339H384.006ZM378.786 250.339L378.041 252.84H375.432L376.176 250.339H378.786ZM376.176 250.339L375.432 252.84H372.822L373.567 250.339H376.176ZM376.921 247.838L376.176 250.339H373.567L374.311 247.838H376.921ZM377.666 245.336L376.921 247.838H374.311L375.056 245.336H377.666ZM380.275 245.336L379.531 247.838H376.921L377.666 245.336H380.275ZM382.885 245.336L382.14 247.838H379.531L380.275 245.336H382.885ZM383.63 242.835L382.885 245.336H380.275L381.02 242.835H383.63ZM384.375 240.334L383.63 242.835H381.02L381.765 240.334H384.375ZM385.119 237.833L384.375 240.334H381.765L382.51 237.833H385.119ZM385.864 235.331L385.119 237.833H382.51L383.254 235.331H385.864ZM386.609 232.83L385.864 235.331H383.254L383.999 232.83H386.609ZM383.254 235.331L382.51 237.833H379.9L380.645 235.331H383.254ZM382.51 237.833L381.765 240.334H379.155L379.9 237.833H382.51ZM378.41 242.835L377.666 245.336H375.056L375.801 242.835H378.41ZM381.02 242.835L380.275 245.336H377.666L378.41 242.835H381.02ZM381.765 240.334L381.02 242.835H378.41L379.155 240.334H381.765ZM379.531 247.838L378.786 250.339H376.176L376.921 247.838H379.531ZM381.396 250.339L380.651 252.84H378.041L378.786 250.339H381.396ZM382.14 247.838L381.396 250.339H378.786L379.531 247.838H382.14ZM377.29 237.833L376.545 240.334H373.936L374.68 237.833H377.29ZM378.035 235.331L377.29 237.833H374.68L375.425 235.331H378.035ZM378.779 232.83L378.035 235.331H375.425L376.17 232.83H378.779ZM379.524 230.329L378.779 232.83H376.17L376.914 230.329H379.524ZM380.269 227.828L379.524 230.329H376.914L377.659 227.828H380.269ZM381.014 225.326L380.269 227.828H377.659L378.404 225.326H381.014ZM381.758 222.825L381.014 225.326H378.404L379.149 222.825H381.758ZM384.368 222.825L383.623 225.326H381.014L381.758 222.825H384.368ZM385.113 220.324L384.368 222.825H381.758L382.503 220.324H385.113ZM385.857 217.823L385.113 220.324H382.503L383.248 217.823H385.857ZM383.623 225.326L382.879 227.828H380.269L381.014 225.326H383.623ZM385.488 227.828L384.744 230.329H382.134L382.879 227.828H385.488ZM382.879 227.828L382.134 230.329H379.524L380.269 227.828H382.879ZM382.134 230.329L381.389 232.83H378.779L379.524 230.329H382.134ZM386.233 225.326L385.488 227.828H382.879L383.623 225.326H386.233ZM388.843 225.326L388.098 227.828H385.488L386.233 225.326H388.843ZM391.453 225.326L390.708 227.828H388.098L388.843 225.326H391.453ZM390.708 227.828L389.963 230.329H387.353L388.098 227.828H390.708ZM388.098 227.828L387.353 230.329H384.744L385.488 227.828H388.098ZM392.197 222.825L391.453 225.326H388.843L389.588 222.825H392.197ZM392.942 220.324L392.197 222.825H389.588L390.332 220.324H392.942ZM393.687 217.823L392.942 220.324H390.332L391.077 217.823H393.687ZM394.431 215.321L393.687 217.823H391.077L391.822 215.321H394.431ZM392.566 212.82L391.822 215.321H389.212L389.957 212.82H392.566ZM393.311 210.319L392.566 212.82H389.957L390.701 210.319H393.311ZM395.921 210.319L395.176 212.82H392.566L393.311 210.319H395.921ZM396.666 207.818L395.921 210.319H393.311L394.056 207.818H396.666ZM395.176 212.82L394.431 215.321H391.822L392.566 212.82H395.176ZM394.056 207.818L393.311 210.319H390.701L391.446 207.818H394.056ZM391.446 207.818L390.701 210.319H388.092L388.836 207.818H391.446ZM388.836 207.818L388.092 210.319H385.482L386.226 207.818H388.836ZM386.226 207.818L385.482 210.319H382.872L383.617 207.818H386.226ZM385.482 210.319L384.737 212.82H382.127L382.872 210.319H385.482ZM384.737 212.82L383.992 215.321H381.383L382.127 212.82H384.737ZM383.992 215.321L383.248 217.823H380.638L381.383 215.321H383.992ZM383.248 217.823L382.503 220.324H379.893L380.638 217.823H383.248ZM382.503 220.324L381.758 222.825H379.149L379.893 220.324H382.503ZM387.722 220.324L386.978 222.825H384.368L385.113 220.324H387.722ZM388.467 217.823L387.722 220.324H385.113L385.857 217.823H388.467ZM386.978 222.825L386.233 225.326H383.623L384.368 222.825H386.978ZM389.588 222.825L388.843 225.326H386.233L386.978 222.825H389.588ZM390.332 220.324L389.588 222.825H386.978L387.722 220.324H390.332ZM391.077 217.823L390.332 220.324H387.722L388.467 217.823H391.077ZM391.822 215.321L391.077 217.823H388.467L389.212 215.321H391.822ZM389.957 212.82L389.212 215.321H386.602L387.347 212.82H389.957ZM389.212 215.321L388.467 217.823H385.857L386.602 215.321H389.212ZM386.602 215.321L385.857 217.823H383.248L383.992 215.321H386.602ZM387.347 212.82L386.602 215.321H383.992L384.737 212.82H387.347ZM388.092 210.319L387.347 212.82H384.737L385.482 210.319H388.092ZM390.701 210.319L389.957 212.82H387.347L388.092 210.319H390.701Z" fill="white"/>
<path d="M349.311 252.84L348.566 255.341H345.957L346.701 252.84H349.311ZM351.921 252.84L351.176 255.341H348.566L349.311 252.84H351.921ZM354.53 252.84L353.786 255.341H351.176L351.921 252.84H354.53ZM357.14 252.84L356.396 255.341H353.786L354.53 252.84H357.14ZM357.885 250.339L357.14 252.84H354.53L355.275 250.339H357.885ZM358.63 247.838L357.885 250.339H355.275L356.02 247.838H358.63ZM359.374 245.336L358.63 247.838H356.02L356.765 245.336H359.374ZM361.984 245.336L361.239 247.838H358.63L359.374 245.336H361.984ZM361.239 247.838L360.495 250.339H357.885L358.63 247.838H361.239ZM360.495 250.339L359.75 252.84H357.14L357.885 250.339H360.495ZM359.75 252.84L359.005 255.341H356.396L357.14 252.84H359.75ZM362.729 242.835L361.984 245.336H359.374L360.119 242.835H362.729ZM360.119 242.835L359.374 245.336H356.765L357.509 242.835H360.119ZM357.509 242.835L356.765 245.336H354.155L354.9 242.835H357.509ZM354.9 242.835L354.155 245.336H351.545L352.29 242.835H354.9ZM354.155 245.336L353.41 247.838H350.8L351.545 245.336H354.155ZM352.29 242.835L351.545 245.336H348.935L349.68 242.835H352.29ZM351.545 245.336L350.8 247.838H348.191L348.935 245.336H351.545ZM350.8 247.838L350.056 250.339H347.446L348.191 247.838H350.8ZM350.056 250.339L349.311 252.84H346.701L347.446 250.339H350.056ZM352.665 250.339L351.921 252.84H349.311L350.056 250.339H352.665ZM355.275 250.339L354.53 252.84H351.921L352.665 250.339H355.275ZM356.02 247.838L355.275 250.339H352.665L353.41 247.838H356.02ZM356.765 245.336L356.02 247.838H353.41L354.155 245.336H356.765ZM353.41 247.838L352.665 250.339H350.056L350.8 247.838H353.41ZM361.971 210.319L361.226 212.82H358.616L359.361 210.319H361.971ZM364.581 210.319L363.836 212.82H361.226L361.971 210.319H364.581ZM367.19 210.319L366.446 212.82H363.836L364.581 210.319H367.19ZM369.8 210.319L369.055 212.82H366.446L367.19 210.319H369.8ZM370.545 207.818L369.8 210.319H367.19L367.935 207.818H370.545ZM371.29 205.316L370.545 207.818H367.935L368.68 205.316H371.29ZM373.899 205.316L373.155 207.818H370.545L371.29 205.316H373.899ZM373.155 207.818L372.41 210.319H369.8L370.545 207.818H373.155ZM372.41 210.319L371.665 212.82H369.055L369.8 210.319H372.41ZM363.46 205.316L362.716 207.818H360.106L360.851 205.316H363.46ZM362.716 207.818L361.971 210.319H359.361L360.106 207.818H362.716ZM365.325 207.818L364.581 210.319H361.971L362.716 207.818H365.325ZM367.935 207.818L367.19 210.319H364.581L365.325 207.818H367.935ZM368.68 205.316L367.935 207.818H365.325L366.07 205.316H368.68ZM366.07 205.316L365.325 207.818H362.716L363.46 205.316H366.07ZM361.226 212.82L360.482 215.321H357.872L358.616 212.82H361.226ZM363.836 212.82L363.091 215.321H360.482L361.226 212.82H363.836ZM366.446 212.82L365.701 215.321H363.091L363.836 212.82H366.446ZM369.055 212.82L368.311 215.321H365.701L366.446 212.82H369.055ZM371.665 212.82L370.921 215.321H368.311L369.055 212.82H371.665ZM370.921 215.321L370.176 217.823H367.566L368.311 215.321H370.921ZM368.311 215.321L367.566 217.823H364.956L365.701 215.321H368.311ZM365.701 215.321L364.956 217.823H362.347L363.091 215.321H365.701ZM363.091 215.321L362.347 217.823H359.737L360.482 215.321H363.091ZM360.482 215.321L359.737 217.823H357.127L357.872 215.321H360.482Z" fill="white"/>
<path fill-rule="evenodd" clip-rule="evenodd" d="M231.768 57.66C231.768 57.66 233.926 116.878 243.641 130.233L174.475 139.014C158.809 120.123 159.552 49.4438 159.552 49.4438L213.779 42.3609L231.768 57.66Z" fill="#EFEFEF"/>
<path d="M214.981 61.3654C215.391 55.2629 215.12 50.9916 214.007 42.3311L231.643 57.6763L214.981 61.3654Z" fill="#D9DBDD"/>
<path d="M195.806 100.162L195.747 99.7135C195.397 96.7839 195.384 94.4182 195.708 92.6162C196.048 90.8121 196.668 89.3075 197.566 88.1024C198.464 86.8973 199.587 85.7589 200.935 84.6871C201.801 83.9661 202.563 83.1867 203.221 82.3489C203.879 81.5111 204.366 80.5837 204.681 79.5668C204.996 78.5498 205.078 77.4594 204.926 76.2955C204.743 74.8957 204.254 73.7278 203.46 72.7918C202.666 71.8557 201.683 71.1843 200.51 70.7777C199.351 70.3532 198.103 70.2283 196.766 70.4029C195.555 70.5611 194.432 70.9637 193.396 71.6108C192.361 72.2579 191.552 73.1635 190.968 74.3275C190.382 75.4758 190.143 76.8907 190.25 78.5723L183.078 79.509C182.819 76.6636 183.222 74.1794 184.289 72.0566C185.353 69.918 186.905 68.2037 188.944 66.9136C190.998 65.6214 193.347 64.8028 195.989 64.4576C198.883 64.0797 201.486 64.2915 203.799 65.0933C206.109 65.8793 207.988 67.1615 209.436 68.94C210.898 70.7006 211.796 72.8628 212.131 75.4265C212.361 77.188 212.293 78.8125 211.927 80.2999C211.56 81.7716 210.937 83.1248 210.058 84.3593C209.195 85.5917 208.112 86.725 206.807 87.7592C205.579 88.7674 204.607 89.7742 203.89 90.7796C203.19 91.783 202.731 92.9227 202.513 94.1988C202.296 95.4749 202.29 97.0193 202.495 98.8322L202.553 99.2804L195.806 100.162ZM201.242 114.041C199.952 114.209 198.784 113.898 197.737 113.107C196.687 112.3 196.078 111.244 195.907 109.938C195.739 108.649 196.059 107.487 196.868 106.454C197.674 105.404 198.723 104.796 200.012 104.627C201.286 104.461 202.448 104.781 203.497 105.588C204.56 106.377 205.175 107.416 205.344 108.706C205.457 109.571 205.34 110.394 204.995 111.175C204.662 111.938 204.17 112.578 203.518 113.095C202.865 113.612 202.107 113.928 201.242 114.041Z" fill="#D9DBDD"/>
<path fill-rule="evenodd" clip-rule="evenodd" d="M50.9468 157C26.1234 157 6 177.123 6 201.947C6 226.77 26.1233 246.893 50.9468 246.893H163.54C171.492 258.382 185.785 264.98 200.769 262.04C194.694 257.31 189.957 251.232 186.85 244.401C204.404 238.284 217 221.586 217 201.947C217 177.123 196.877 157 172.053 157H50.9468Z" fill="white"/>
<path fill-rule="evenodd" clip-rule="evenodd" d="M50.9468 158.5C26.9518 158.5 7.5 177.952 7.5 201.947C7.5 225.942 26.9518 245.393 50.9468 245.393H164.326L164.773 246.04C171.83 256.235 184.084 262.409 197.25 261.051C192.218 256.537 188.233 251.065 185.484 245.022L184.803 243.526L186.356 242.985C203.326 237.071 215.5 220.928 215.5 201.947C215.5 177.952 196.048 158.5 172.053 158.5H50.9468ZM4.5 201.947C4.5 176.295 25.2949 155.5 50.9468 155.5H172.053C197.705 155.5 218.5 176.295 218.5 201.947C218.5 221.655 206.227 238.492 188.91 245.239C191.911 251.259 196.245 256.617 201.691 260.856L204.287 262.878L201.058 263.512C185.741 266.518 171.12 259.945 162.764 248.393H50.9468C25.2949 248.393 4.5 227.599 4.5 201.947Z" fill="#2F3031"/>
<path d="M137.749 218.91V209.726L157.711 178.272H165.872V190.74H161.137L149.455 209.25V209.631H178.363V218.91H137.749ZM161.28 227V216.103L161.518 212.082V178.272H172.534V227H161.28Z" fill="#65686C"/>
<path d="M110.994 228.19C106.743 228.19 103.079 227.182 100.002 225.168C96.9246 223.138 94.5532 220.227 92.8877 216.436C91.2223 212.629 90.3974 208.053 90.4133 202.708C90.4292 197.362 91.2619 192.826 92.9115 189.098C94.577 185.355 96.9404 182.508 100.002 180.557C103.079 178.59 106.743 177.606 110.994 177.606C115.245 177.606 118.909 178.59 121.986 180.557C125.079 182.508 127.458 185.355 129.124 189.098C130.789 192.842 131.614 197.378 131.598 202.708C131.598 208.069 130.766 212.653 129.1 216.46C127.435 220.267 125.063 223.177 121.986 225.192C118.925 227.19 115.261 228.19 110.994 228.19ZM110.994 218.554C113.532 218.554 115.586 217.261 117.156 214.675C118.727 212.074 119.504 208.085 119.488 202.708C119.488 199.186 119.131 196.284 118.417 194C117.703 191.7 116.712 189.987 115.443 188.86C114.174 187.734 112.691 187.171 110.994 187.171C108.472 187.171 106.434 188.448 104.879 191.002C103.325 193.54 102.54 197.442 102.524 202.708C102.508 206.277 102.849 209.235 103.547 211.582C104.261 213.93 105.26 215.683 106.545 216.84C107.83 217.983 109.313 218.554 110.994 218.554Z" fill="#65686C"/>
<path d="M44.0535 218.91V209.726L64.0155 178.272H72.1763V190.74H67.4416L55.7594 209.25V209.631H84.6675V218.91H44.0535ZM67.5844 227V216.103L67.8223 212.082V178.272H78.8383V227H67.5844Z" fill="#65686C"/>
<path fill-rule="evenodd" clip-rule="evenodd" d="M609.837 172.738C609.837 172.738 593.541 200.895 594.156 209.942L559.439 193.818C557.675 180.46 578.668 147.822 578.668 147.822L605.945 160.371L609.837 172.738Z" fill="#EFEFEF"/>
<path d="M600.951 169.556C602.925 166.839 604.047 164.775 606.059 160.424L609.775 172.709L600.951 169.556Z" fill="#D9DBDD"/>
<path fill-rule="evenodd" clip-rule="evenodd" d="M624.045 242.168C624.045 242.168 638.1 285.806 648.141 293.708L598.488 314.786C582.852 304.013 568.547 251.231 568.547 251.231L607.434 234.558L624.045 242.168Z" fill="#EFEFEF"/>
<path d="M612.324 248.456C611.347 243.826 610.247 240.703 607.598 234.488L623.955 242.207L612.324 248.456Z" fill="#D9DBDD"/>
<path fill-rule="evenodd" clip-rule="evenodd" d="M119.194 270.432C119.194 270.432 136.409 298.038 144.686 301.741L114.155 324.829C101.532 320.117 82.5644 286.261 82.5644 286.261L106.447 268.066L119.194 270.432Z" fill="#EFEFEF"/>
<path d="M112.215 276.785C110.742 273.768 109.445 271.808 106.548 267.989L119.14 270.474L112.215 276.785Z" fill="#D9DBDD"/>
<path fill-rule="evenodd" clip-rule="evenodd" d="M511.584 35.4625C511.584 35.4625 497.323 87.9604 502.197 102.318L439.172 91.1489C430.592 70.3161 450.522 8.56218 450.522 8.56218L499.988 17.1448L511.584 35.4625Z" fill="#EFEFEF"/>
<path d="M495.858 34.1319C497.882 28.8945 498.809 25.0763 500.196 17.1812L511.47 35.443L495.858 34.1319Z" fill="#D9DBDD"/>
<path d="M352.578 81.8431L309.289 38.5924L316.404 31.4404L359.692 74.7288L352.578 81.8431ZM316.404 81.8431L309.289 74.7288L352.578 31.4404L359.692 38.5924L316.404 81.8431Z" fill="#E02D38"/>
<path d="M529.101 324.299L528.986 323.869C528.264 321.053 527.945 318.745 528.028 316.943C528.127 315.137 528.537 313.588 529.258 312.295C529.979 311.001 530.928 309.744 532.105 308.523C532.857 307.707 533.5 306.847 534.034 305.943C534.569 305.04 534.924 304.071 535.1 303.037C535.276 302.004 535.214 300.928 534.915 299.811C534.555 298.468 533.927 297.391 533.03 296.58C532.133 295.769 531.086 295.24 529.888 294.995C528.701 294.731 527.466 294.771 526.183 295.114C525.021 295.426 523.976 295.965 523.049 296.731C522.122 297.497 521.449 298.486 521.03 299.698C520.606 300.895 520.556 302.308 520.879 303.936L513.997 305.78C513.375 303.035 513.447 300.557 514.213 298.346C514.975 296.12 516.268 294.245 518.092 292.721C519.931 291.193 522.119 290.089 524.654 289.409C527.431 288.665 530.001 288.535 532.363 289.018C534.72 289.486 536.721 290.495 538.366 292.044C540.021 293.574 541.179 295.569 541.838 298.029C542.291 299.72 542.435 301.315 542.271 302.815C542.103 304.299 541.669 305.701 540.972 307.021C540.289 308.336 539.377 309.583 538.237 310.762C537.169 311.906 536.35 313.015 535.78 314.089C535.226 315.16 534.926 316.332 534.879 317.607C534.832 318.881 535.026 320.39 535.461 322.134L535.576 322.564L529.101 324.299ZM536.208 337.147C534.971 337.479 533.789 337.326 532.664 336.69C531.535 336.038 530.803 335.085 530.467 333.833C530.136 332.595 530.298 331.419 530.954 330.305C531.605 329.176 532.55 328.446 533.788 328.114C535.01 327.787 536.186 327.949 537.315 328.601C538.455 329.234 539.191 330.169 539.523 331.406C539.745 332.236 539.738 333.055 539.501 333.863C539.276 334.651 538.878 335.34 538.308 335.929C537.738 336.519 537.038 336.925 536.208 337.147Z" fill="#E02D38"/>
<path d="M615.929 102.192L615.957 101.66C616.179 98.1878 616.672 95.4421 617.435 93.4226C618.217 91.404 619.258 89.7926 620.559 88.5883C621.859 87.384 623.405 86.3052 625.198 85.3519C626.356 84.7019 627.407 83.9619 628.35 83.1319C629.294 82.3019 630.057 81.3312 630.641 80.2198C631.224 79.1085 631.553 77.8617 631.627 76.4797C631.715 74.8175 631.4 73.3586 630.68 72.1028C629.96 70.8471 628.964 69.8575 627.692 69.1342C626.439 68.3932 625.019 67.9804 623.431 67.8958C621.993 67.8192 620.604 68.0448 619.265 68.5728C617.926 69.1008 616.793 69.9769 615.866 71.2011C614.941 72.4066 614.36 73.9957 614.123 75.9684L605.607 75.5146C605.917 72.1598 606.918 69.3663 608.61 67.1341C610.303 64.8832 612.47 63.2287 615.111 62.1708C617.771 61.1139 620.67 60.669 623.807 60.8362C627.244 61.0193 630.216 61.8239 632.725 63.2499C635.235 64.6572 637.138 66.5473 638.435 68.9201C639.751 71.2752 640.329 73.9749 640.166 77.0191C640.055 79.1108 639.628 80.9797 638.884 82.6257C638.142 84.253 637.129 85.688 635.846 86.9307C634.581 88.1743 633.081 89.2556 631.346 90.1745C629.706 91.0798 628.363 92.0383 627.316 93.0501C626.288 94.0629 625.511 95.2857 624.985 96.7186C624.46 98.1514 624.121 99.9407 623.969 102.086L623.941 102.619L615.929 102.192ZM619.251 119.45C617.72 119.368 616.432 118.756 615.388 117.615C614.344 116.454 613.864 115.099 613.947 113.548C614.028 112.017 614.649 110.739 615.809 109.715C616.969 108.671 618.315 108.191 619.847 108.272C621.359 108.353 622.637 108.973 623.681 110.134C624.743 111.277 625.234 112.614 625.152 114.146C625.098 115.173 624.786 116.102 624.217 116.933C623.668 117.747 622.96 118.383 622.093 118.843C621.226 119.302 620.278 119.505 619.251 119.45Z" fill="#E02D38"/>
<path fill-rule="evenodd" clip-rule="evenodd" d="M31.4726 330.731C23.6692 322.928 23.6692 310.276 31.4726 302.473C39.2761 294.669 51.9279 294.669 59.7314 302.473C67.5348 310.276 67.5348 322.928 59.7314 330.731C51.9279 338.535 39.2761 338.535 31.4726 330.731ZM37.1295 308.13C32.4502 312.809 32.4502 320.395 37.1295 325.075C41.8087 329.754 49.3953 329.754 54.0745 325.075C58.7538 320.395 58.7538 312.809 54.0745 308.13C49.3953 303.45 41.8087 303.45 37.1295 308.13Z" fill="#E02D38"/>
<path fill-rule="evenodd" clip-rule="evenodd" d="M54.0744 325.075C55.6365 323.512 58.1692 323.512 59.7313 325.075L74.7992 340.142C76.3613 341.705 76.3613 344.237 74.7992 345.799C73.2371 347.361 70.7044 347.361 69.1423 345.799L54.0744 330.731C52.5123 329.169 52.5123 326.637 54.0744 325.075Z" fill="#E02D38"/>
</svg>
