<svg width="380" height="380" viewBox="0 0 380 380" fill="none" xmlns="http://www.w3.org/2000/svg">
<path d="M163.575 162.919C160.056 172.655 156.685 182.695 157.306 193.029C157.466 195.693 157.796 198.35 158.295 200.983C164.865 235.664 215.135 235.682 221.705 201.001C222.206 198.356 222.537 195.688 222.696 193.013C223.311 182.678 219.931 172.638 216.4 162.905C211.554 149.548 208.197 135.696 206.389 121.602L196.514 44.625C195.154 37.4471 184.749 37.4503 183.393 44.6291L173.551 121.617C171.75 135.709 168.404 149.559 163.575 162.919Z" fill="#F4B10B"/>
<path d="M80 116.476C80 129.627 82.319 142.237 86.5703 153.918C88.1361 158.22 95.181 155.89 95.7978 151.354C98.3364 132.682 111.758 119.512 133.513 111.017C143.134 107.261 150.822 99.7669 154.824 90.2458L175.435 28.8496C175.612 28.3206 175.829 27.8057 176.084 27.3092C178.99 21.6394 184.495 18.8045 190 18.8045C195.505 18.8045 201.01 21.6394 203.916 27.3092C204.171 27.8057 204.388 28.3206 204.565 28.8496L225.176 90.2458C229.178 99.7669 236.866 107.261 246.487 111.017C268.242 119.512 281.664 132.682 284.202 151.354C284.819 155.89 291.864 158.22 293.43 153.918C297.681 142.237 300 129.627 300 116.476C300 57.3121 251.829 7.5008 190.916 7.00615C190.611 6.99499 190.305 7.00243 190 7.00243C189.695 7.00243 189.389 6.99499 189.084 7.00615C128.17 7.50076 80 57.3121 80 116.476Z" fill="#297BBF"/>
<path fill-rule="evenodd" clip-rule="evenodd" d="M14.5327 303.821C11.5109 309.149 10 315.431 10 322.668V365.693C10 369.006 12.6863 371.693 16 371.693H22.8465C26.1602 371.693 28.8465 369.006 28.8465 365.693V350.699H65.943V365.693C65.943 369.006 68.6293 371.693 71.943 371.693H78.7895C82.1032 371.693 84.7895 369.006 84.7895 365.693V322.668C84.7895 315.431 83.2389 309.149 80.1375 303.821C77.1157 298.414 72.7818 294.279 67.1358 291.416C61.5694 288.474 54.9294 287.003 47.2158 287.003C39.5818 287.003 32.9816 288.474 27.4151 291.416C21.8486 294.279 17.5545 298.414 14.5327 303.821ZM60.9332 308.235C64.2731 311.734 65.943 316.545 65.943 322.668V336.027H28.8465V322.668C28.8465 316.545 30.4767 311.734 33.737 308.235C37.0769 304.656 41.6096 302.867 47.3351 302.867C53.0606 302.867 57.5933 304.656 60.9332 308.235Z" fill="#6A6A6A"/>
<path d="M107.672 294.195C107.672 290.882 110.358 288.195 113.672 288.195H120.518C123.832 288.195 126.518 290.882 126.518 294.195V327.916L159.316 290.255C160.456 288.947 162.106 288.195 163.841 288.195H174.034C177.504 288.195 179.328 292.311 176.998 294.882L151.54 322.971L180.77 365.424C182.597 368.078 180.697 371.693 177.475 371.693H165.677C163.713 371.693 161.873 370.731 160.751 369.118L138.595 337.255L126.518 350.58V365.693C126.518 369.006 123.832 371.693 120.518 371.693H113.672C110.358 371.693 107.672 369.006 107.672 365.693V294.195Z" fill="#6A6A6A"/>
<path d="M224.127 351.892C220.708 348.313 218.998 343.463 218.998 337.339V294.195C218.998 290.882 216.312 288.195 212.998 288.195H206.151C202.838 288.195 200.151 290.882 200.151 294.195V337.339C200.151 344.576 201.662 350.898 204.684 356.305C207.706 361.633 212 365.768 217.567 368.71C223.213 371.573 229.853 373.005 237.487 373.005C245.121 373.005 251.681 371.573 257.168 368.71C262.735 365.768 266.989 361.633 269.931 356.305C272.953 350.898 274.464 344.576 274.464 337.339V294.195C274.464 290.882 271.778 288.195 268.464 288.195H261.617C258.304 288.195 255.617 290.882 255.617 294.195V337.339C255.617 343.463 253.947 348.313 250.608 351.892C247.347 355.391 243.013 357.14 237.606 357.14C232.039 357.14 227.546 355.391 224.127 351.892Z" fill="#6A6A6A"/>
<path fill-rule="evenodd" clip-rule="evenodd" d="M358.907 295.829C352.943 290.74 344.514 288.195 333.619 288.195H303.358C300.044 288.195 297.358 290.882 297.358 294.195V365.693C297.358 369.006 300.044 371.693 303.358 371.693H310.204C313.518 371.693 316.204 369.006 316.204 365.693V347.598H333.619C334.169 347.598 334.713 347.591 335.251 347.577L346.934 368.606C347.992 370.511 350 371.693 352.179 371.693H362.621C365.796 371.693 367.706 368.17 365.973 365.509L352.022 344.092C354.598 342.9 356.893 341.405 358.907 339.606C364.95 334.198 367.972 326.684 367.972 317.062C367.972 307.917 364.95 300.839 358.907 295.829ZM345.667 328.751C342.804 331.137 338.788 332.33 333.619 332.33H316.204V303.344H333.619C338.788 303.344 342.804 304.537 345.667 306.923C348.609 309.308 350.08 312.887 350.08 317.658C350.08 322.588 348.609 326.286 345.667 328.751Z" fill="#6A6A6A"/>
</svg>
