<svg width="638" height="220" viewBox="0 0 638 220" fill="none" xmlns="http://www.w3.org/2000/svg">
<path d="M83.5749 155.919C80.0559 165.655 76.6849 175.695 77.3061 186.029C77.4662 188.693 77.7957 191.35 78.2946 193.983C84.865 228.664 135.135 228.682 141.705 194.001C142.206 191.356 142.537 188.688 142.696 186.013C143.311 175.678 139.931 165.638 136.4 155.905V155.905C131.554 142.548 128.197 128.696 126.389 114.602L116.514 37.625C115.154 30.4471 104.749 30.4503 103.393 37.6291L93.5511 114.617C91.7496 128.709 88.4041 142.559 83.5749 155.919V155.919Z" fill="#F4B10B"/>
<path d="M0 109.476C2.90849e-06 122.627 2.31897 135.237 6.57032 146.918C8.13612 151.22 15.181 148.89 15.7978 144.354C18.3364 125.682 31.7582 112.512 53.5133 104.017C63.1339 100.261 70.8223 92.7669 74.8242 83.2458L95.4347 21.8496C95.6123 21.3206 95.8293 20.8057 96.0838 20.3092C98.99 14.6394 104.495 11.8045 110 11.8045C115.505 11.8045 121.01 14.6394 123.916 20.3092C124.171 20.8057 124.388 21.3206 124.565 21.8496L145.176 83.2458C149.178 92.7669 156.866 100.261 166.487 104.017C188.242 112.512 201.664 125.682 204.202 144.354C204.819 148.89 211.864 151.22 213.43 146.918C217.681 135.237 220 122.627 220 109.476C220 50.3121 171.829 0.500795 110.916 0.00614638C110.611 -0.00501109 110.305 0.00243038 110 0.00243038C109.695 0.00243038 109.389 -0.00500998 109.084 0.00614587C48.1705 0.500761 -1.30846e-05 50.3121 0 109.476Z" fill="#297BBF"/>
<path fill-rule="evenodd" clip-rule="evenodd" d="M284.533 83.8192C281.511 89.1471 280 95.4293 280 102.666V145.69C280 149.004 282.686 151.69 286 151.69H292.846C296.16 151.69 298.846 149.004 298.846 145.69V130.697H335.943V145.69C335.943 149.004 338.629 151.69 341.943 151.69H348.79C352.103 151.69 354.79 149.004 354.79 145.69V102.666C354.79 95.4293 353.239 89.1471 350.138 83.8192C347.116 78.4118 342.782 74.2767 337.136 71.4139C331.569 68.4716 324.929 67.0005 317.216 67.0005C309.582 67.0005 302.982 68.4716 297.415 71.4139C291.849 74.2767 287.554 78.4118 284.533 83.8192ZM330.933 88.2326C334.273 91.7315 335.943 96.5425 335.943 102.666V116.025H298.846V102.666C298.846 96.5425 300.477 91.7315 303.737 88.2326C307.077 84.6542 311.61 82.8649 317.335 82.8649C323.061 82.8649 327.593 84.6542 330.933 88.2326Z" fill="#6A6A6A"/>
<path d="M377.672 74.1933C377.672 70.8796 380.358 68.1933 383.672 68.1933H390.518C393.832 68.1933 396.518 70.8796 396.518 74.1933V107.914L429.316 70.2528C430.456 68.9444 432.106 68.1933 433.841 68.1933H444.034C447.504 68.1933 449.328 72.3085 446.998 74.8794L421.54 102.969L450.77 145.422C452.597 148.076 450.697 151.69 447.475 151.69H435.677C433.713 151.69 431.873 150.729 430.751 149.116L408.595 117.253L396.518 130.578V145.69C396.518 149.004 393.832 151.69 390.518 151.69H383.672C380.358 151.69 377.672 149.004 377.672 145.69V74.1933Z" fill="#6A6A6A"/>
<path d="M494.127 131.89C490.708 128.311 488.998 123.46 488.998 117.337V74.1933C488.998 70.8796 486.312 68.1933 482.998 68.1933H476.151C472.838 68.1933 470.151 70.8796 470.151 74.1933V117.337C470.151 124.574 471.662 130.896 474.684 136.303C477.706 141.631 482 145.766 487.567 148.708C493.213 151.571 499.853 153.002 507.487 153.002C515.121 153.002 521.681 151.571 527.168 148.708C532.735 145.766 536.989 141.631 539.931 136.303C542.953 130.896 544.464 124.574 544.464 117.337V74.1933C544.464 70.8796 541.778 68.1933 538.464 68.1933H531.617C528.304 68.1933 525.617 70.8796 525.617 74.1933V117.337C525.617 123.46 523.947 128.311 520.608 131.89C517.347 135.389 513.013 137.138 507.606 137.138C502.039 137.138 497.546 135.389 494.127 131.89Z" fill="#6A6A6A"/>
<path fill-rule="evenodd" clip-rule="evenodd" d="M628.907 75.8273C622.943 70.7379 614.514 68.1933 603.619 68.1933H573.358C570.044 68.1933 567.358 70.8796 567.358 74.1933V145.69C567.358 149.004 570.044 151.69 573.358 151.69H580.204C583.518 151.69 586.204 149.004 586.204 145.69V127.595H603.619C604.169 127.595 604.713 127.589 605.251 127.575L616.934 148.604C617.992 150.509 620 151.69 622.179 151.69H632.621C635.796 151.69 637.706 148.168 635.973 145.507L622.022 124.089C624.598 122.898 626.893 121.403 628.907 119.604C634.95 114.196 637.972 106.681 637.972 97.0594C637.972 87.9145 634.95 80.8371 628.907 75.8273ZM615.667 108.749C612.804 111.135 608.788 112.327 603.619 112.327H586.204V83.342H603.619C608.788 83.342 612.804 84.5348 615.667 86.9205C618.609 89.3061 620.08 92.8845 620.08 97.6558C620.08 102.586 618.609 106.284 615.667 108.749Z" fill="#6A6A6A"/>
<path d="M467.654 186.818L472.46 195.972L477.387 186.818H484.835L477.25 199.909L485.04 213H477.625L472.46 203.949L467.381 213H459.881L467.654 199.909L460.154 186.818H467.654Z" fill="#6A6A6A"/>
<path d="M444.915 213.511C442.267 213.511 439.977 212.949 438.046 211.824C436.125 210.687 434.642 209.108 433.597 207.085C432.551 205.051 432.029 202.693 432.029 200.011C432.029 197.307 432.551 194.943 433.597 192.92C434.642 190.886 436.125 189.307 438.046 188.182C439.977 187.045 442.267 186.477 444.915 186.477C447.563 186.477 449.847 187.045 451.767 188.182C453.699 189.307 455.188 190.886 456.233 192.92C457.279 194.943 457.801 197.307 457.801 200.011C457.801 202.693 457.279 205.051 456.233 207.085C455.188 209.108 453.699 210.687 451.767 211.824C449.847 212.949 447.563 213.511 444.915 213.511ZM444.949 207.886C446.154 207.886 447.159 207.545 447.966 206.863C448.773 206.17 449.381 205.227 449.79 204.034C450.21 202.841 450.421 201.483 450.421 199.96C450.421 198.437 450.21 197.079 449.79 195.886C449.381 194.693 448.773 193.75 447.966 193.057C447.159 192.363 446.154 192.017 444.949 192.017C443.733 192.017 442.71 192.363 441.881 193.057C441.063 193.75 440.443 194.693 440.023 195.886C439.614 197.079 439.409 198.437 439.409 199.96C439.409 201.483 439.614 202.841 440.023 204.034C440.443 205.227 441.063 206.17 441.881 206.863C442.71 207.545 443.733 207.886 444.949 207.886Z" fill="#6A6A6A"/>
<path d="M402.706 213V178.091H409.967V191.216H410.189C410.507 190.511 410.967 189.795 411.57 189.068C412.183 188.329 412.979 187.716 413.956 187.227C414.945 186.727 416.172 186.477 417.638 186.477C419.547 186.477 421.308 186.977 422.922 187.977C424.536 188.966 425.825 190.46 426.791 192.46C427.757 194.449 428.24 196.943 428.24 199.943C428.24 202.864 427.769 205.329 426.825 207.341C425.894 209.341 424.621 210.858 423.007 211.892C421.405 212.915 419.609 213.426 417.621 213.426C416.212 213.426 415.013 213.193 414.024 212.727C413.047 212.261 412.246 211.676 411.621 210.972C410.996 210.256 410.519 209.534 410.189 208.807H409.865V213H402.706ZM409.814 199.909C409.814 201.466 410.03 202.824 410.462 203.983C410.894 205.142 411.519 206.045 412.337 206.693C413.155 207.329 414.149 207.648 415.32 207.648C416.502 207.648 417.502 207.324 418.32 206.676C419.138 206.017 419.757 205.108 420.178 203.949C420.609 202.778 420.825 201.432 420.825 199.909C420.825 198.398 420.615 197.068 420.195 195.92C419.774 194.773 419.155 193.875 418.337 193.227C417.519 192.579 416.513 192.256 415.32 192.256C414.138 192.256 413.138 192.568 412.32 193.193C411.513 193.818 410.894 194.704 410.462 195.852C410.03 197 409.814 198.352 409.814 199.909Z" fill="#6A6A6A"/>
<path d="M381.702 213.426C379.713 213.426 377.912 212.915 376.298 211.892C374.696 210.858 373.423 209.341 372.48 207.341C371.548 205.329 371.083 202.864 371.083 199.943C371.083 196.943 371.565 194.449 372.531 192.46C373.497 190.46 374.781 188.966 376.384 187.977C377.997 186.977 379.764 186.477 381.685 186.477C383.151 186.477 384.372 186.727 385.35 187.227C386.338 187.716 387.134 188.329 387.736 189.068C388.35 189.795 388.815 190.511 389.134 191.216H389.355V178.091H396.6V213H389.44V208.807H389.134C388.793 209.534 388.31 210.256 387.685 210.972C387.071 211.676 386.27 212.261 385.281 212.727C384.304 213.193 383.111 213.426 381.702 213.426ZM384.003 207.648C385.173 207.648 386.162 207.329 386.969 206.693C387.787 206.045 388.412 205.142 388.844 203.983C389.287 202.824 389.509 201.466 389.509 199.909C389.509 198.352 389.293 197 388.861 195.852C388.429 194.704 387.804 193.818 386.986 193.193C386.168 192.568 385.173 192.256 384.003 192.256C382.81 192.256 381.804 192.579 380.986 193.227C380.168 193.875 379.548 194.773 379.128 195.92C378.708 197.068 378.497 198.398 378.497 199.909C378.497 201.432 378.708 202.778 379.128 203.949C379.56 205.108 380.179 206.017 380.986 206.676C381.804 207.324 382.81 207.648 384.003 207.648Z" fill="#6A6A6A"/>
<path d="M349.456 197.863V213H342.195V186.818H349.115V191.437H349.422C350.002 189.915 350.973 188.71 352.337 187.824C353.701 186.926 355.354 186.477 357.297 186.477C359.115 186.477 360.701 186.875 362.053 187.67C363.405 188.466 364.456 189.602 365.206 191.079C365.956 192.545 366.331 194.295 366.331 196.329V213H359.07V197.625C359.081 196.023 358.672 194.773 357.843 193.875C357.013 192.966 355.871 192.511 354.416 192.511C353.439 192.511 352.576 192.721 351.826 193.142C351.087 193.562 350.507 194.176 350.087 194.983C349.678 195.778 349.468 196.738 349.456 197.863Z" fill="#6A6A6A"/>
<path d="M321.817 213.494C320.147 213.494 318.658 213.204 317.351 212.625C316.044 212.034 315.01 211.165 314.249 210.017C313.499 208.858 313.124 207.415 313.124 205.687C313.124 204.233 313.391 203.011 313.925 202.023C314.459 201.034 315.186 200.238 316.107 199.636C317.027 199.034 318.073 198.579 319.243 198.273C320.425 197.966 321.664 197.75 322.959 197.625C324.482 197.466 325.709 197.318 326.641 197.182C327.573 197.034 328.249 196.818 328.669 196.534C329.09 196.25 329.3 195.829 329.3 195.273V195.17C329.3 194.091 328.959 193.255 328.277 192.665C327.607 192.074 326.652 191.778 325.414 191.778C324.107 191.778 323.067 192.068 322.294 192.648C321.522 193.216 321.01 193.932 320.76 194.795L314.044 194.25C314.385 192.659 315.056 191.284 316.056 190.125C317.056 188.954 318.345 188.057 319.925 187.432C321.516 186.795 323.357 186.477 325.448 186.477C326.902 186.477 328.294 186.648 329.624 186.988C330.965 187.329 332.152 187.858 333.186 188.574C334.232 189.29 335.056 190.21 335.658 191.335C336.26 192.449 336.561 193.784 336.561 195.341V213H329.675V209.369H329.47C329.05 210.187 328.487 210.909 327.783 211.534C327.078 212.148 326.232 212.63 325.243 212.983C324.254 213.324 323.112 213.494 321.817 213.494ZM323.897 208.483C324.965 208.483 325.908 208.273 326.726 207.852C327.544 207.42 328.186 206.841 328.652 206.113C329.118 205.386 329.351 204.562 329.351 203.642V200.863C329.124 201.011 328.811 201.148 328.414 201.273C328.027 201.386 327.59 201.494 327.101 201.596C326.612 201.687 326.124 201.773 325.635 201.852C325.147 201.92 324.703 201.983 324.306 202.04C323.453 202.165 322.709 202.363 322.073 202.636C321.436 202.909 320.942 203.278 320.59 203.744C320.237 204.199 320.061 204.767 320.061 205.449C320.061 206.437 320.419 207.193 321.135 207.716C321.862 208.227 322.783 208.483 323.897 208.483Z" fill="#6A6A6A"/>
<path d="M301.972 188.131C301.835 186.756 301.25 185.687 300.216 184.926C299.182 184.165 297.778 183.784 296.006 183.784C294.801 183.784 293.784 183.954 292.955 184.295C292.125 184.625 291.489 185.085 291.046 185.676C290.614 186.267 290.398 186.937 290.398 187.687C290.375 188.312 290.506 188.858 290.79 189.324C291.085 189.79 291.489 190.193 292 190.534C292.511 190.864 293.102 191.153 293.773 191.403C294.443 191.642 295.159 191.846 295.921 192.017L299.057 192.767C300.58 193.108 301.977 193.562 303.25 194.131C304.523 194.699 305.625 195.398 306.557 196.227C307.489 197.057 308.21 198.034 308.722 199.159C309.244 200.284 309.511 201.574 309.523 203.028C309.511 205.165 308.966 207.017 307.886 208.585C306.818 210.142 305.273 211.352 303.25 212.216C301.239 213.068 298.813 213.494 295.972 213.494C293.153 213.494 290.699 213.062 288.608 212.199C286.528 211.335 284.903 210.057 283.733 208.364C282.574 206.659 281.966 204.551 281.909 202.04H289.051C289.131 203.21 289.466 204.187 290.057 204.971C290.659 205.744 291.46 206.329 292.46 206.727C293.472 207.114 294.614 207.307 295.886 207.307C297.136 207.307 298.222 207.125 299.142 206.761C300.074 206.398 300.796 205.892 301.307 205.244C301.818 204.596 302.074 203.852 302.074 203.011C302.074 202.227 301.841 201.568 301.375 201.034C300.921 200.5 300.25 200.045 299.364 199.67C298.489 199.295 297.415 198.954 296.142 198.648L292.341 197.693C289.398 196.977 287.074 195.858 285.369 194.335C283.665 192.812 282.818 190.761 282.83 188.182C282.818 186.068 283.381 184.221 284.517 182.642C285.665 181.062 287.239 179.829 289.239 178.943C291.239 178.057 293.511 177.614 296.057 177.614C298.648 177.614 300.909 178.057 302.841 178.943C304.784 179.829 306.296 181.062 307.375 182.642C308.455 184.221 309.011 186.051 309.046 188.131H301.972Z" fill="#6A6A6A"/>
</svg>
