<svg width="640" height="220" viewBox="0 0 640 220" fill="none" xmlns="http://www.w3.org/2000/svg">
<path d="M83.5749 155.918C80.0559 165.653 76.6849 175.694 77.3061 186.027C77.4662 188.691 77.7957 191.348 78.2946 193.981C84.865 228.662 135.135 228.68 141.705 193.999C142.206 191.355 142.537 188.687 142.696 186.011C143.311 175.676 139.931 165.637 136.4 155.904C131.554 142.546 128.197 128.694 126.389 114.6L116.514 37.6233C115.154 30.4454 104.749 30.4486 103.393 37.6274L93.5511 114.615C91.7496 128.707 88.4041 142.558 83.5749 155.918Z" fill="#F4B10B"/>
<path d="M0 109.475C2.90849e-06 122.626 2.31897 135.235 6.57032 146.917C8.13612 151.219 15.181 148.889 15.7978 144.352C18.3364 125.68 31.7582 112.511 53.5133 104.016C63.1339 100.259 70.8223 92.7655 74.8242 83.2444L95.4347 21.8481C95.6123 21.3192 95.8293 20.8042 96.0838 20.3077C98.99 14.638 104.495 11.8031 110 11.8031C115.505 11.8031 121.01 14.6379 123.916 20.3077C124.171 20.8042 124.388 21.3192 124.565 21.8481L145.176 83.2444C149.178 92.7654 156.866 100.259 166.487 104.016C188.242 112.511 201.664 125.68 204.202 144.352C204.819 148.889 211.864 151.219 213.43 146.917C217.681 135.235 220 122.626 220 109.475C220 50.3106 171.829 0.499331 110.916 0.00468154C110.611 -0.00647593 110.305 0.000965541 110 0.000965541C109.695 0.000965541 109.389 -0.00647483 109.084 0.00468103C48.1705 0.499296 -1.30846e-05 50.3106 0 109.475Z" fill="#297BBF"/>
<path fill-rule="evenodd" clip-rule="evenodd" d="M284.533 83.8177C281.511 89.1456 280 95.4278 280 102.664V145.689C280 149.003 282.686 151.689 286 151.689H292.846C296.16 151.689 298.846 149.003 298.846 145.689V130.695H335.943V145.689C335.943 149.003 338.629 151.689 341.943 151.689H348.79C352.103 151.689 354.79 149.003 354.79 145.689V102.664C354.79 95.4278 353.239 89.1456 350.138 83.8177C347.116 78.4103 342.782 74.2752 337.136 71.4124C331.569 68.4702 324.929 66.999 317.216 66.999C309.582 66.999 302.982 68.4702 297.415 71.4124C291.849 74.2752 287.554 78.4103 284.533 83.8177ZM330.933 88.2311C334.273 91.7301 335.943 96.5411 335.943 102.664V116.024H298.846V102.664C298.846 96.5411 300.477 91.7301 303.737 88.2311C307.077 84.6527 311.61 82.8635 317.335 82.8635C323.061 82.8635 327.593 84.6527 330.933 88.2311Z" fill="#6A6A6A"/>
<path d="M377.672 74.1918C377.672 70.8781 380.358 68.1918 383.672 68.1918H390.518C393.832 68.1918 396.518 70.8781 396.518 74.1918V107.913L429.316 70.2514C430.456 68.9429 432.106 68.1918 433.841 68.1918H444.034C447.504 68.1918 449.328 72.3071 446.998 74.878L421.54 102.968L450.77 145.42C452.597 148.074 450.697 151.689 447.475 151.689H435.677C433.713 151.689 431.873 150.727 430.751 149.114L408.595 117.251L396.518 130.576V145.689C396.518 149.003 393.832 151.689 390.518 151.689H383.672C380.358 151.689 377.672 149.003 377.672 145.689V74.1918Z" fill="#6A6A6A"/>
<path d="M494.127 131.888C490.708 128.31 488.998 123.459 488.998 117.336V74.1918C488.998 70.8781 486.312 68.1918 482.998 68.1918H476.151C472.838 68.1918 470.151 70.8781 470.151 74.1918V117.336C470.151 124.572 471.662 130.894 474.684 136.302C477.706 141.629 482 145.765 487.567 148.707C493.213 151.57 499.853 153.001 507.487 153.001C515.121 153.001 521.681 151.57 527.168 148.707C532.735 145.765 536.989 141.629 539.931 136.302C542.953 130.894 544.464 124.572 544.464 117.336V74.1918C544.464 70.8781 541.778 68.1918 538.464 68.1918H531.617C528.304 68.1918 525.617 70.8781 525.617 74.1918V117.336C525.617 123.459 523.947 128.31 520.608 131.888C517.347 135.387 513.013 137.137 507.606 137.137C502.039 137.137 497.546 135.387 494.127 131.888Z" fill="#6A6A6A"/>
<path fill-rule="evenodd" clip-rule="evenodd" d="M628.907 75.8258C622.943 70.7365 614.514 68.1918 603.619 68.1918H573.358C570.044 68.1918 567.358 70.8781 567.358 74.1918V145.689C567.358 149.003 570.044 151.689 573.358 151.689H580.204C583.518 151.689 586.204 149.003 586.204 145.689V127.594H603.619C604.169 127.594 604.713 127.587 605.251 127.574L616.934 148.603C617.992 150.508 620 151.689 622.179 151.689H632.621C635.796 151.689 637.706 148.167 635.973 145.506L622.022 124.088C624.598 122.896 626.893 121.401 628.907 119.602C634.95 114.195 637.972 106.68 637.972 97.0579C637.972 87.913 634.95 80.8356 628.907 75.8258ZM615.667 108.748C612.804 111.133 608.788 112.326 603.619 112.326H586.204V83.3406H603.619C608.788 83.3406 612.804 84.5334 615.667 86.919C618.609 89.3046 620.08 92.8831 620.08 97.6543C620.08 102.585 618.609 106.282 615.667 108.748Z" fill="#6A6A6A"/>
</svg>
