<svg width="321" height="320" viewBox="0 0 321 320" fill="none" xmlns="http://www.w3.org/2000/svg">
<path d="M122.343 226.79C117.225 240.951 112.321 255.555 113.225 270.585C113.458 274.46 113.937 278.325 114.663 282.155C124.22 332.6 197.34 332.626 206.897 282.181C207.625 278.334 208.106 274.454 208.337 270.563C209.233 255.529 204.315 240.927 199.179 226.769V226.769C192.131 207.34 187.248 187.192 184.618 166.692L170.255 54.7253C168.276 44.2847 153.142 44.2894 151.17 54.7312L136.854 166.714C134.234 187.21 129.367 207.357 122.343 226.79V226.79Z" fill="#F4B10B"/>
<path d="M0.779541 159.236C0.779545 178.365 4.1526 196.706 10.3364 213.697C12.6139 219.955 22.861 216.566 23.7582 209.967C27.4507 182.808 46.9733 163.652 78.6171 151.296C92.6107 145.832 103.794 134.932 109.615 121.083L139.594 31.7793C139.852 31.0099 140.168 30.2609 140.538 29.5386C144.765 21.2917 152.772 17.1683 160.78 17.1683C168.787 17.1683 176.794 21.2917 181.021 29.5386C181.391 30.2609 181.707 31.0099 181.965 31.7793L211.944 121.083C217.765 134.932 228.948 145.832 242.942 151.296C274.586 163.652 294.108 182.808 297.801 209.967C298.698 216.566 308.945 219.955 311.223 213.697C317.407 196.706 320.78 178.365 320.78 159.236C320.78 73.1793 250.713 0.726477 162.111 0.00698707C161.668 -0.00924199 161.223 0.00158198 160.78 0.00158198C160.336 0.00158198 159.891 -0.00924038 159.448 0.00698633C70.8457 0.726427 0.779522 73.1793 0.779541 159.236Z" fill="#297BBF"/>
</svg>
