<svg width="360" height="445" viewBox="0 0 360 445" fill="none" xmlns="http://www.w3.org/2000/svg">
<path d="M153.575 155.919C150.056 165.655 146.685 175.695 147.306 186.029C147.466 188.693 147.796 191.35 148.295 193.983C154.865 228.664 205.135 228.682 211.705 194.001C212.206 191.356 212.537 188.688 212.696 186.013C213.311 175.678 209.931 165.638 206.4 155.905V155.905C201.554 142.548 198.197 128.696 196.389 114.602L186.514 37.625C185.154 30.4471 174.749 30.4503 173.393 37.6291L163.551 114.617C161.75 128.709 158.404 142.559 153.575 155.919V155.919Z" fill="#F4B10B"/>
<path d="M70 109.476C70 122.627 72.319 135.237 76.5703 146.918C78.1361 151.22 85.181 148.89 85.7978 144.354C88.3364 125.682 101.758 112.512 123.513 104.017C133.134 100.261 140.822 92.7669 144.824 83.2458L165.435 21.8496C165.612 21.3206 165.829 20.8057 166.084 20.3092C168.99 14.6394 174.495 11.8045 180 11.8045C185.505 11.8045 191.01 14.6394 193.916 20.3092C194.171 20.8057 194.388 21.3206 194.565 21.8496L215.176 83.2458C219.178 92.7669 226.866 100.261 236.487 104.017C258.242 112.512 271.664 125.682 274.202 144.354C274.819 148.89 281.864 151.22 283.43 146.918C287.681 135.237 290 122.627 290 109.476C290 50.3121 241.829 0.500795 180.916 0.00614638C180.611 -0.00501109 180.305 0.00243038 180 0.00243038C179.695 0.00243038 179.389 -0.00500998 179.084 0.00614587C118.17 0.500761 70 50.3121 70 109.476Z" fill="#297BBF"/>
<path fill-rule="evenodd" clip-rule="evenodd" d="M4.5327 296.821C1.5109 302.149 0 308.431 0 315.668V358.693C0 362.006 2.68629 364.693 6 364.693H12.8465C16.1602 364.693 18.8465 362.006 18.8465 358.693V343.699H55.943V358.693C55.943 362.006 58.6293 364.693 61.943 364.693H68.7895C72.1032 364.693 74.7895 362.006 74.7895 358.693V315.668C74.7895 308.431 73.2389 302.149 70.1375 296.821C67.1157 291.414 62.7818 287.279 57.1358 284.416C51.5694 281.474 44.9294 280.003 37.2158 280.003C29.5818 280.003 22.9816 281.474 17.4151 284.416C11.8486 287.279 7.5545 291.414 4.5327 296.821ZM50.9332 301.235C54.2731 304.734 55.943 309.545 55.943 315.668V329.027H18.8465V315.668C18.8465 309.545 20.4767 304.734 23.737 301.235C27.0769 297.656 31.6096 295.867 37.3351 295.867C43.0606 295.867 47.5933 297.656 50.9332 301.235Z" fill="#6A6A6A"/>
<path d="M97.6719 287.195C97.6719 283.882 100.358 281.195 103.672 281.195H110.518C113.832 281.195 116.518 283.882 116.518 287.195V320.916L149.316 283.255C150.456 281.947 152.106 281.195 153.841 281.195H164.034C167.504 281.195 169.328 285.311 166.998 287.882L141.54 315.971L170.77 358.424C172.597 361.078 170.697 364.693 167.475 364.693H155.677C153.713 364.693 151.873 363.731 150.751 362.118L128.595 330.255L116.518 343.58V358.693C116.518 362.006 113.832 364.693 110.518 364.693H103.672C100.358 364.693 97.6719 362.006 97.6719 358.693V287.195Z" fill="#6A6A6A"/>
<path d="M214.127 344.892C210.708 341.313 208.998 336.463 208.998 330.339V287.195C208.998 283.882 206.312 281.195 202.998 281.195H196.151C192.838 281.195 190.151 283.882 190.151 287.195V330.339C190.151 337.576 191.662 343.898 194.684 349.305C197.706 354.633 202 358.768 207.567 361.71C213.213 364.573 219.853 366.005 227.487 366.005C235.121 366.005 241.681 364.573 247.168 361.71C252.735 358.768 256.989 354.633 259.931 349.305C262.953 343.898 264.464 337.576 264.464 330.339V287.195C264.464 283.882 261.778 281.195 258.464 281.195H251.617C248.304 281.195 245.617 283.882 245.617 287.195V330.339C245.617 336.463 243.947 341.313 240.608 344.892C237.347 348.391 233.013 350.14 227.606 350.14C222.039 350.14 217.546 348.391 214.127 344.892Z" fill="#6A6A6A"/>
<path fill-rule="evenodd" clip-rule="evenodd" d="M348.907 288.829C342.943 283.74 334.514 281.195 323.619 281.195H293.358C290.044 281.195 287.358 283.882 287.358 287.195V358.693C287.358 362.006 290.044 364.693 293.358 364.693H300.204C303.518 364.693 306.204 362.006 306.204 358.693V340.598H323.619C324.169 340.598 324.713 340.591 325.251 340.577L336.934 361.606C337.992 363.511 340 364.693 342.179 364.693H352.621C355.796 364.693 357.706 361.17 355.973 358.509L342.022 337.092C344.598 335.9 346.893 334.405 348.907 332.606C354.95 327.198 357.972 319.684 357.972 310.062C357.972 300.917 354.95 293.839 348.907 288.829ZM335.667 321.751C332.804 324.137 328.788 325.33 323.619 325.33H306.204V296.344H323.619C328.788 296.344 332.804 297.537 335.667 299.923C338.609 302.308 340.08 305.887 340.08 310.658C340.08 315.588 338.609 319.286 335.667 321.751Z" fill="#6A6A6A"/>
<path d="M284.139 412.364L289.947 423.424L295.899 412.364H304.9L295.735 428.182L305.147 444H296.188L289.947 433.063L283.809 444H274.747L284.139 428.182L275.076 412.364H284.139Z" fill="#6A6A6A"/>
<path d="M256.663 444.618C253.463 444.618 250.697 443.938 248.362 442.579C246.042 441.206 244.25 439.297 242.987 436.853C241.723 434.395 241.092 431.546 241.092 428.305C241.092 425.037 241.723 422.181 242.987 419.737C244.25 417.279 246.042 415.371 248.362 414.011C250.697 412.638 253.463 411.952 256.663 411.952C259.862 411.952 262.622 412.638 264.943 414.011C267.277 415.371 269.076 417.279 270.339 419.737C271.602 422.181 272.234 425.037 272.234 428.305C272.234 431.546 271.602 434.395 270.339 436.853C269.076 439.297 267.277 441.206 264.943 442.579C262.622 443.938 259.862 444.618 256.663 444.618ZM256.704 437.821C258.16 437.821 259.375 437.409 260.35 436.585C261.325 435.748 262.059 434.608 262.553 433.166C263.062 431.724 263.316 430.084 263.316 428.244C263.316 426.404 263.062 424.763 262.553 423.321C262.059 421.879 261.325 420.74 260.35 419.902C259.375 419.064 258.16 418.646 256.704 418.646C255.235 418.646 253.999 419.064 252.997 419.902C252.008 420.74 251.26 421.879 250.752 423.321C250.257 424.763 250.01 426.404 250.01 428.244C250.01 430.084 250.257 431.724 250.752 433.166C251.26 434.608 252.008 435.748 252.997 436.585C253.999 437.409 255.235 437.821 256.704 437.821Z" fill="#6A6A6A"/>
<path d="M205.66 444V401.818H214.435V417.677H214.702C215.087 416.826 215.643 415.961 216.371 415.082C217.112 414.19 218.073 413.448 219.254 412.858C220.449 412.254 221.932 411.952 223.703 411.952C226.01 411.952 228.138 412.556 230.088 413.764C232.038 414.959 233.596 416.764 234.763 419.181C235.931 421.584 236.514 424.598 236.514 428.223C236.514 431.752 235.944 434.731 234.805 437.162C233.679 439.579 232.141 441.412 230.191 442.661C228.255 443.897 226.085 444.515 223.682 444.515C221.98 444.515 220.531 444.233 219.337 443.67C218.156 443.107 217.188 442.4 216.432 441.549C215.677 440.684 215.101 439.812 214.702 438.933H214.311V444H205.66ZM214.249 428.182C214.249 430.063 214.51 431.704 215.032 433.104C215.554 434.505 216.309 435.597 217.297 436.379C218.286 437.148 219.488 437.533 220.902 437.533C222.33 437.533 223.538 437.141 224.527 436.359C225.516 435.562 226.264 434.464 226.772 433.063C227.294 431.649 227.555 430.022 227.555 428.182C227.555 426.356 227.301 424.749 226.792 423.362C226.284 421.975 225.536 420.891 224.547 420.108C223.559 419.325 222.344 418.934 220.902 418.934C219.474 418.934 218.266 419.311 217.277 420.067C216.302 420.822 215.554 421.893 215.032 423.28C214.51 424.667 214.249 426.301 214.249 428.182Z" fill="#6A6A6A"/>
<path d="M180.28 444.515C177.877 444.515 175.701 443.897 173.751 442.661C171.815 441.412 170.277 439.579 169.137 437.162C168.011 434.731 167.448 431.752 167.448 428.223C167.448 424.598 168.032 421.584 169.199 419.181C170.366 416.764 171.918 414.959 173.854 413.764C175.804 412.556 177.939 411.952 180.26 411.952C182.031 411.952 183.507 412.254 184.688 412.858C185.882 413.448 186.844 414.19 187.571 415.082C188.313 415.961 188.876 416.826 189.26 417.677H189.528V401.818H198.282V444H189.631V438.933H189.26C188.848 439.812 188.265 440.684 187.51 441.549C186.768 442.4 185.8 443.107 184.605 443.67C183.425 444.233 181.983 444.515 180.28 444.515ZM183.061 437.533C184.475 437.533 185.67 437.148 186.645 436.379C187.633 435.597 188.388 434.505 188.91 433.104C189.446 431.704 189.713 430.063 189.713 428.182C189.713 426.301 189.453 424.667 188.931 423.28C188.409 421.893 187.654 420.822 186.665 420.067C185.676 419.311 184.475 418.934 183.061 418.934C181.619 418.934 180.404 419.325 179.415 420.108C178.426 420.891 177.678 421.975 177.17 423.362C176.662 424.749 176.408 426.356 176.408 428.182C176.408 430.022 176.662 431.649 177.17 433.063C177.692 434.464 178.44 435.562 179.415 436.359C180.404 437.141 181.619 437.533 183.061 437.533Z" fill="#6A6A6A"/>
<path d="M141.317 425.71V444H132.542V412.364H140.905V417.945H141.275C141.976 416.105 143.15 414.65 144.797 413.579C146.445 412.494 148.443 411.952 150.791 411.952C152.988 411.952 154.904 412.432 156.538 413.393C158.172 414.355 159.442 415.728 160.348 417.513C161.254 419.284 161.707 421.399 161.707 423.856V444H152.933V425.422C152.947 423.486 152.453 421.975 151.45 420.891C150.448 419.792 149.068 419.243 147.31 419.243C146.129 419.243 145.086 419.497 144.18 420.005C143.287 420.513 142.587 421.254 142.079 422.229C141.584 423.191 141.33 424.351 141.317 425.71Z" fill="#6A6A6A"/>
<path d="M107.919 444.597C105.901 444.597 104.102 444.247 102.523 443.547C100.944 442.833 99.6944 441.782 98.7744 440.396C97.8682 438.995 97.415 437.251 97.415 435.164C97.415 433.406 97.7377 431.93 98.3831 430.736C99.0284 429.541 99.9072 428.58 101.019 427.852C102.132 427.124 103.395 426.575 104.809 426.205C106.237 425.834 107.734 425.573 109.299 425.422C111.139 425.23 112.622 425.051 113.748 424.886C114.874 424.708 115.691 424.447 116.199 424.104C116.707 423.76 116.961 423.252 116.961 422.58V422.456C116.961 421.151 116.549 420.142 115.725 419.428C114.915 418.714 113.762 418.357 112.265 418.357C110.686 418.357 109.43 418.707 108.496 419.408C107.562 420.094 106.944 420.959 106.642 422.003L98.5273 421.344C98.9392 419.421 99.7493 417.76 100.958 416.359C102.166 414.945 103.724 413.86 105.633 413.105C107.555 412.336 109.78 411.952 112.306 411.952C114.064 411.952 115.746 412.158 117.353 412.57C118.973 412.981 120.408 413.62 121.657 414.485C122.92 415.35 123.916 416.462 124.644 417.822C125.371 419.167 125.735 420.781 125.735 422.662V444H117.414V439.613H117.167C116.659 440.602 115.979 441.473 115.128 442.229C114.277 442.97 113.254 443.554 112.059 443.979C110.865 444.391 109.485 444.597 107.919 444.597ZM110.432 438.542C111.723 438.542 112.862 438.288 113.851 437.78C114.84 437.258 115.616 436.558 116.179 435.679C116.742 434.8 117.023 433.805 117.023 432.692V429.335C116.748 429.514 116.371 429.678 115.89 429.83C115.423 429.967 114.895 430.097 114.304 430.221C113.714 430.331 113.123 430.434 112.533 430.53C111.942 430.612 111.407 430.688 110.926 430.756C109.897 430.907 108.997 431.148 108.228 431.477C107.459 431.807 106.862 432.253 106.436 432.816C106.011 433.365 105.798 434.052 105.798 434.876C105.798 436.07 106.23 436.983 107.095 437.615C107.974 438.233 109.086 438.542 110.432 438.542Z" fill="#6A6A6A"/>
<path d="M83.9397 413.95C83.7749 412.288 83.0678 410.997 81.8182 410.077C80.5687 409.157 78.8729 408.697 76.7309 408.697C75.2754 408.697 74.0465 408.903 73.0441 409.315C72.0417 409.714 71.2728 410.27 70.7373 410.984C70.2155 411.698 69.9546 412.508 69.9546 413.414C69.9272 414.169 70.0851 414.828 70.4283 415.391C70.7853 415.954 71.2728 416.442 71.8907 416.854C72.5086 417.252 73.2226 417.602 74.0327 417.904C74.8429 418.192 75.7079 418.44 76.6279 418.646L80.4177 419.552C82.2576 419.964 83.9466 420.513 85.4844 421.2C87.0223 421.886 88.3542 422.731 89.4802 423.733C90.6061 424.735 91.478 425.916 92.0959 427.276C92.7276 428.635 93.0503 430.193 93.064 431.951C93.0503 434.532 92.3912 436.771 91.0867 438.665C89.796 440.547 87.9286 442.009 85.4844 443.053C83.054 444.082 80.1225 444.597 76.6897 444.597C73.2844 444.597 70.3185 444.076 67.792 443.032C65.2792 441.988 63.3156 440.444 61.9013 438.398C60.5008 436.338 59.7662 433.791 59.6975 430.756H68.3275C68.4236 432.171 68.8287 433.352 69.5427 434.299C70.2704 435.233 71.2385 435.94 72.4468 436.42C73.6689 436.887 75.0488 437.121 76.5867 437.121C78.0971 437.121 79.4084 436.901 80.5207 436.462C81.6466 436.022 82.5185 435.411 83.1364 434.629C83.7543 433.846 84.0633 432.946 84.0633 431.93C84.0633 430.983 83.7818 430.187 83.2188 429.541C82.6696 428.896 81.8594 428.347 80.7884 427.893C79.7311 427.44 78.4335 427.028 76.8957 426.658L72.3026 425.504C68.7463 424.639 65.9383 423.287 63.8786 421.447C61.819 419.607 60.796 417.128 60.8097 414.011C60.796 411.457 61.4757 409.226 62.8488 407.317C64.2356 405.409 66.1374 403.919 68.554 402.848C70.9707 401.777 73.7169 401.241 76.7927 401.241C79.9234 401.241 82.6558 401.777 84.9901 402.848C87.3381 403.919 89.1644 405.409 90.4688 407.317C91.7733 409.226 92.4461 411.437 92.4873 413.95H83.9397Z" fill="#6A6A6A"/>
</svg>
