<svg width="45" height="46" viewBox="0 0 45 46" fill="none" xmlns="http://www.w3.org/2000/svg">
<path d="M35.6287 8.18515H27.8879C27.1101 6.037 25.0731 4.48145 22.6657 4.48145C20.2583 4.48145 18.2212 6.037 17.4435 8.18515H9.70273C7.66569 8.18515 5.99902 9.85182 5.99902 11.8889V37.8148C5.99902 39.8518 7.66569 41.5185 9.70273 41.5185H35.6287C37.6657 41.5185 39.3324 39.8518 39.3324 37.8148V11.8889C39.3324 9.85182 37.6657 8.18515 35.6287 8.18515ZM22.6657 8.18515C23.6842 8.18515 24.5175 9.01848 24.5175 10.037C24.5175 11.0555 23.6842 11.8889 22.6657 11.8889C21.6472 11.8889 20.8138 11.0555 20.8138 10.037C20.8138 9.01848 21.6472 8.18515 22.6657 8.18515ZM26.3694 34.1111H13.4064V30.4074H26.3694V34.1111ZM31.9249 26.7037H13.4064V23H31.9249V26.7037ZM31.9249 19.2963H13.4064V15.5926H31.9249V19.2963Z" fill="white"/>
</svg>
