<svg width="33" height="33" viewBox="0 0 33 33" fill="none" xmlns="http://www.w3.org/2000/svg">
<mask id="mask0_2396_11595" style="mask-type:alpha" maskUnits="userSpaceOnUse" x="0" y="0" width="33" height="33">
<rect x="0.888672" y="0.888916" width="32" height="32" fill="#D9D9D9"/>
</mask>
<g mask="url(#mask0_2396_11595)">
<path d="M10.8883 30.2223C9.59946 30.2223 8.49946 29.7668 7.58835 28.8557C6.67724 27.9446 6.22168 26.8446 6.22168 25.5557V8.22233C6.22168 6.93344 6.67724 5.83344 7.58835 4.92233C8.49946 4.01122 9.59946 3.55566 10.8883 3.55566H27.555V23.5557C26.9995 23.5557 26.5272 23.7501 26.1383 24.139C25.7495 24.5279 25.555 25.0001 25.555 25.5557C25.555 26.1112 25.7495 26.5834 26.1383 26.9723C26.5272 27.3612 26.9995 27.5557 27.555 27.5557V30.2223H10.8883ZM8.88835 21.3223C9.19946 21.1668 9.52168 21.0557 9.85501 20.989C10.1883 20.9223 10.5328 20.889 10.8883 20.889H11.555V6.22233H10.8883C10.3328 6.22233 9.86057 6.41677 9.47168 6.80566C9.08279 7.19455 8.88835 7.66677 8.88835 8.22233V21.3223ZM14.2217 20.889H24.8883V6.22233H14.2217V20.889ZM10.8883 27.5557H23.3217C23.1883 27.2446 23.0828 26.9279 23.005 26.6057C22.9272 26.2834 22.8883 25.9334 22.8883 25.5557C22.8883 25.2001 22.9217 24.8557 22.9883 24.5223C23.055 24.189 23.1661 23.8668 23.3217 23.5557H10.8883C10.3106 23.5557 9.83279 23.7501 9.45501 24.139C9.07724 24.5279 8.88835 25.0001 8.88835 25.5557C8.88835 26.1334 9.07724 26.6112 9.45501 26.989C9.83279 27.3668 10.3106 27.5557 10.8883 27.5557Z" fill="white"/>
</g>
</svg>
