<svg width="34" height="30" viewBox="0 0 34 30" fill="none" xmlns="http://www.w3.org/2000/svg">
<path d="M-0.000976562 7.59343H33.329V2.96427C33.329 2.19274 33.059 1.53694 32.5189 0.996872C31.9788 0.456802 31.323 0.186768 30.5515 0.186768H2.77652C2.005 0.186768 1.3492 0.456802 0.809128 0.996872C0.269058 1.53694 -0.000976562 2.19274 -0.000976562 2.96427V7.59343ZM-0.000976562 18.7034H33.329V11.2968H-0.000976562V18.7034ZM2.77652 29.8134H30.5515C31.323 29.8134 31.9788 29.5434 32.5189 29.0033C33.059 28.4633 33.329 27.8075 33.329 27.0359V22.4068H-0.000976562V27.0359C-0.000976562 27.8075 0.269058 28.4633 0.809128 29.0033C1.3492 29.5434 2.005 29.8134 2.77652 29.8134ZM3.70236 5.74177C3.17772 5.74177 2.73795 5.56432 2.38304 5.20941C2.02814 4.85451 1.85069 4.41474 1.85069 3.8901C1.85069 3.36546 2.02814 2.92569 2.38304 2.57079C2.73795 2.21589 3.17772 2.03843 3.70236 2.03843C4.227 2.03843 4.66677 2.21589 5.02167 2.57079C5.37657 2.92569 5.55402 3.36546 5.55402 3.8901C5.55402 4.41474 5.37657 4.85451 5.02167 5.20941C4.66677 5.56432 4.227 5.74177 3.70236 5.74177ZM3.70236 16.8518C3.17772 16.8518 2.73795 16.6743 2.38304 16.3194C2.02814 15.9645 1.85069 15.5247 1.85069 15.0001C1.85069 14.4755 2.02814 14.0357 2.38304 13.6808C2.73795 13.3259 3.17772 13.1484 3.70236 13.1484C4.227 13.1484 4.66677 13.3259 5.02167 13.6808C5.37657 14.0357 5.55402 14.4755 5.55402 15.0001C5.55402 15.5247 5.37657 15.9645 5.02167 16.3194C4.66677 16.6743 4.227 16.8518 3.70236 16.8518ZM3.70236 27.9618C3.17772 27.9618 2.73795 27.7843 2.38304 27.4294C2.02814 27.0745 1.85069 26.6347 1.85069 26.1101C1.85069 25.5855 2.02814 25.1457 2.38304 24.7908C2.73795 24.4359 3.17772 24.2584 3.70236 24.2584C4.227 24.2584 4.66677 24.4359 5.02167 24.7908C5.37657 25.1457 5.55402 25.5855 5.55402 26.1101C5.55402 26.6347 5.37657 27.0745 5.02167 27.4294C4.66677 27.7843 4.227 27.9618 3.70236 27.9618Z" fill="white"/>
</svg>
