<svg width="45" height="46" viewBox="0 0 45 46" fill="none" xmlns="http://www.w3.org/2000/svg">
<path d="M12.1477 24.8705C13.9255 24.9075 15.5737 25.7964 16.6848 27.352C18.0366 29.2594 20.2774 30.4075 22.6663 30.4075C25.0552 30.4075 27.2959 29.2594 28.6477 27.3334C29.7589 25.7779 31.407 24.889 33.1848 24.852C31.8515 22.5927 26.5181 21.1483 22.6663 21.1483C18.8329 21.1483 13.4811 22.5927 12.1477 24.8705Z" fill="white"/>
<path d="M7.85145 24.852C10.9255 24.852 13.407 22.3705 13.407 19.2964C13.407 16.2223 10.9255 13.7409 7.85145 13.7409C4.77738 13.7409 2.2959 16.2223 2.2959 19.2964C2.2959 22.3705 4.77738 24.852 7.85145 24.852Z" fill="white"/>
<path d="M37.4811 24.852C40.5552 24.852 43.0366 22.3705 43.0366 19.2964C43.0366 16.2223 40.5552 13.7409 37.4811 13.7409C34.407 13.7409 31.9255 16.2223 31.9255 19.2964C31.9255 22.3705 34.407 24.852 37.4811 24.852Z" fill="white"/>
<path d="M22.6663 19.2964C25.7403 19.2964 28.2218 16.8149 28.2218 13.7409C28.2218 10.6668 25.7403 8.1853 22.6663 8.1853C19.5922 8.1853 17.1107 10.6668 17.1107 13.7409C17.1107 16.8149 19.5922 19.2964 22.6663 19.2964Z" fill="white"/>
<path d="M39.3329 26.7038H33.2774C31.8514 26.7038 30.7774 27.5372 30.1663 28.4075C30.0922 28.5186 27.6477 32.2594 22.6663 32.2594C20.0181 32.2594 17.0552 31.0742 15.1663 28.4075C14.444 27.389 13.3144 26.7038 12.0552 26.7038H5.9996C3.96256 26.7038 2.2959 28.3705 2.2959 30.4075V37.8149H15.2589V33.6297C17.3885 35.1112 19.9626 35.9631 22.6663 35.9631C25.37 35.9631 27.944 35.1112 30.0737 33.6297V37.8149H43.0366V30.4075C43.0366 28.3705 41.37 26.7038 39.3329 26.7038Z" fill="white"/>
</svg>
