<svg width="42" height="42" viewBox="0 0 42 42" fill="none" xmlns="http://www.w3.org/2000/svg">
<path d="M3.99826 41.3683C2.97984 41.3683 2.10801 41.0056 1.38278 40.2804C0.65754 39.5552 0.294922 38.6833 0.294922 37.6649V33.9616C0.294922 33.437 0.472373 32.9972 0.827276 32.6423C1.18218 32.2874 1.62195 32.1099 2.14659 32.1099C2.67123 32.1099 3.111 32.2874 3.4659 32.6423C3.8208 32.9972 3.99826 33.437 3.99826 33.9616V37.6649H7.70159C8.22623 37.6649 8.666 37.8424 9.0209 38.1973C9.3758 38.5522 9.55326 38.992 9.55326 39.5166C9.55326 40.0412 9.3758 40.481 9.0209 40.8359C8.666 41.1908 8.22623 41.3683 7.70159 41.3683H3.99826ZM37.3283 41.3683H33.6249C33.1003 41.3683 32.6605 41.1908 32.3056 40.8359C31.9507 40.481 31.7733 40.0412 31.7733 39.5166C31.7733 38.992 31.9507 38.5522 32.3056 38.1973C32.6605 37.8424 33.1003 37.6649 33.6249 37.6649H37.3283V33.9616C37.3283 33.437 37.5057 32.9972 37.8606 32.6423C38.2155 32.2874 38.6553 32.1099 39.1799 32.1099C39.7046 32.1099 40.1443 32.2874 40.4992 32.6423C40.8541 32.9972 41.0316 33.437 41.0316 33.9616V37.6649C41.0316 38.6833 40.669 39.5552 39.9437 40.2804C39.2185 41.0056 38.3467 41.3683 37.3283 41.3683ZM20.6633 33.0358C17.392 33.0358 14.3676 32.1716 11.5901 30.4434C8.81259 28.7152 6.63688 26.3543 5.06296 23.3608C4.8778 22.9905 4.73892 22.6124 4.64634 22.2267C4.55376 21.8409 4.50746 21.4474 4.50746 21.0462C4.50746 20.6142 4.55376 20.1975 4.64634 19.7963C4.73892 19.3951 4.8778 19.0094 5.06296 18.639C6.63688 15.6455 8.81259 13.2846 11.5901 11.5564C14.3676 9.8282 17.392 8.96409 20.6633 8.96409C23.9345 8.96409 26.9589 9.8282 29.7364 11.5564C32.5139 13.2846 34.6896 15.6455 36.2635 18.639C36.4487 19.0094 36.5876 19.3874 36.6802 19.7732C36.7728 20.159 36.819 20.5679 36.819 20.9999C36.819 21.432 36.7728 21.8409 36.6802 22.2267C36.5876 22.6124 36.4487 22.9905 36.2635 23.3608C34.6896 26.3543 32.5139 28.7152 29.7364 30.4434C26.9589 32.1716 23.9345 33.0358 20.6633 33.0358ZM20.6633 27.4808C22.4532 27.4808 23.9808 26.8481 25.2461 25.5828C26.5114 24.3175 27.1441 22.7899 27.1441 20.9999C27.1441 19.21 26.5114 17.6824 25.2461 16.4171C23.9808 15.1517 22.4532 14.5191 20.6633 14.5191C18.8733 14.5191 17.3457 15.1517 16.0804 16.4171C14.8151 17.6824 14.1824 19.21 14.1824 20.9999C14.1824 22.7899 14.8151 24.3175 16.0804 25.5828C17.3457 26.8481 18.8733 27.4808 20.6633 27.4808ZM20.6633 23.7774C19.8917 23.7774 19.2359 23.5074 18.6959 22.9673C18.1558 22.4272 17.8858 21.7715 17.8858 20.9999C17.8858 20.2284 18.1558 19.5726 18.6959 19.0325C19.2359 18.4925 19.8917 18.2224 20.6633 18.2224C21.4348 18.2224 22.0906 18.4925 22.6306 19.0325C23.1707 19.5726 23.4408 20.2284 23.4408 20.9999C23.4408 21.7715 23.1707 22.4272 22.6306 22.9673C22.0906 23.5074 21.4348 23.7774 20.6633 23.7774ZM41.0316 4.33492V8.03826C41.0316 8.5629 40.8541 9.00267 40.4992 9.35757C40.1443 9.71247 39.7046 9.88993 39.1799 9.88993C38.6553 9.88993 38.2155 9.71247 37.8606 9.35757C37.5057 9.00267 37.3283 8.5629 37.3283 8.03826V4.33492H33.6249C33.1003 4.33492 32.6605 4.15747 32.3056 3.80257C31.9507 3.44767 31.7733 3.0079 31.7733 2.48326C31.7733 1.95862 31.9507 1.51885 32.3056 1.16395C32.6605 0.809043 33.1003 0.631592 33.6249 0.631592H37.3283C38.3467 0.631592 39.2185 0.99421 39.9437 1.71945C40.669 2.44468 41.0316 3.31651 41.0316 4.33492ZM3.99826 0.631592H7.70159C8.22623 0.631592 8.666 0.809043 9.0209 1.16395C9.3758 1.51885 9.55326 1.95862 9.55326 2.48326C9.55326 3.0079 9.3758 3.44767 9.0209 3.80257C8.666 4.15747 8.22623 4.33492 7.70159 4.33492H3.99826V8.03826C3.99826 8.5629 3.8208 9.00267 3.4659 9.35757C3.111 9.71247 2.67123 9.88993 2.14659 9.88993C1.62195 9.88993 1.18218 9.71247 0.827276 9.35757C0.472373 9.00267 0.294922 8.5629 0.294922 8.03826V4.33492C0.294922 3.31651 0.65754 2.44468 1.38278 1.71945C2.10801 0.99421 2.97984 0.631592 3.99826 0.631592Z" fill="white"/>
</svg>
