<svg width="129" height="129" viewBox="0 0 129 129" fill="none" xmlns="http://www.w3.org/2000/svg">
<path d="M64.4999 123.276C52.1309 123.276 40.0779 120.866 28.6735 116.116L28.3916 115.998L28.1911 115.768C20.114 106.475 14.0802 95.8438 10.2575 84.1716C6.43649 72.4978 5.02051 60.3778 6.05031 48.1478L6.07639 47.8455L6.23444 47.5852C12.6463 37.0901 20.9711 28.1116 30.9775 20.8972C40.9822 13.6827 52.1618 8.60251 64.2018 5.79401L64.4999 5.72449L64.7981 5.79401C76.8381 8.60251 88.0176 13.6827 98.024 20.8972C108.03 28.1116 116.355 37.0901 122.767 47.5852L122.925 47.8455L122.951 48.1478C123.981 60.3778 122.565 72.4978 118.742 84.17C114.92 95.8421 108.886 106.473 100.809 115.767L100.608 115.996L100.326 116.114C88.922 120.865 76.869 123.274 64.4999 123.274V123.276Z" fill="white"/>
<path d="M121.651 48.2562C117.677 41.7515 110.105 31.2063 97.2566 21.9433C84.4085 12.6803 71.9628 8.79331 64.5 7.05356C57.0372 8.79331 44.5915 12.6819 31.7434 21.9433C18.8953 31.2063 11.3232 41.7499 7.34904 48.2562C6.7103 55.8376 6.59135 68.7839 11.4976 83.7706C16.4055 98.7574 24.1714 109.162 29.1786 114.923C36.2472 117.867 48.6195 121.982 64.5 121.982C80.3805 121.982 92.7529 117.867 99.8214 114.923C104.829 109.162 112.595 98.7574 117.502 83.7706C122.41 68.7839 122.29 55.836 121.651 48.2562Z" fill="#0192D5"/>
<path d="M37.787 110.952C38.1731 110.224 38.6229 108.843 38.7972 108.284L38.8021 108.269L38.8184 108.235V108.227L38.8526 108.166V108.092C39.1606 106.973 39.3252 105.176 39.3398 102.751C42.2744 102.314 44.9076 100.714 46.8287 99.5448L46.845 99.5351C47.5799 99.0872 48.2137 98.7024 48.7254 98.4679C50.4836 97.6595 52.3965 97.2504 54.4138 97.2504C55.7613 97.2504 57.1757 97.4331 58.6161 97.7937L59.1457 96.6344C57.8372 95.7387 56.6836 94.6554 55.6326 93.6173L55.2823 93.2713L54.8521 93.5122C52.8691 94.6263 47.3941 96.906 43.1234 97.3879C42.3217 97.4784 41.5428 97.5237 40.8096 97.5237C35.9359 97.5237 32.5923 95.4929 30.87 91.4863V91.4637L30.7038 91.1338L30.5099 91.0368C27.9614 89.7692 26.7573 86.4417 26.6774 84.9412L26.6628 84.6712L26.4591 84.4917C24.6211 82.8684 24.1632 79.6977 24.4321 78.0647L24.4402 78.013V77.7462L24.3115 77.5732C23.2866 76.2037 23.2491 74.2149 23.3306 72.6353L23.3469 72.3054L23.0878 72.0985C21.5317 70.8503 20.8196 68.4249 21.2302 65.7684C21.851 61.7651 23.8145 58.858 25.5466 56.2936L25.7454 55.9993C26.3157 55.1569 27.0082 54.1351 27.6665 52.9208C27.4954 54.2935 27.1663 55.8134 26.6774 57.1408C25.7584 59.634 25.3332 61.5128 25.3006 63.2316C25.2582 65.4402 26.7117 67.8364 30.0569 68.2115C30.4333 68.2536 30.8146 68.2762 31.1861 68.2762C33.7085 68.2762 35.8153 67.2915 38.0477 66.2486L38.064 66.2406C40.1415 65.2688 42.4977 64.1677 45.4274 63.8444H45.4486L45.4698 63.8379L45.5056 63.8347C45.7044 63.8136 45.9081 63.8039 46.1101 63.8039C47.6467 63.8039 49.1458 64.399 50.2245 65.437C51.2967 66.4669 51.8262 67.8025 51.7203 69.1994C51.6291 70.3603 51.37 71.3499 51.1614 72.147L51.137 72.2424C51.093 72.4138 51.049 72.5771 51.0131 72.7339C50.5846 74.4995 50.4053 76.0663 52.5546 77.3242L53.3155 77.7688L53.5192 76.9167C53.8109 75.696 54.4822 73.2464 55.6994 70.5527L55.7841 70.3668L55.745 70.1663C55.3702 68.2471 52.0511 51.2684 50.93 45.8988C49.6982 39.9907 47.1921 36.5533 45.8071 35.9987C45.7712 35.9841 45.7354 35.9712 45.7012 35.9567C45.7207 35.9437 45.7386 35.9308 45.7566 35.9179C46.1721 35.622 46.4931 35.415 46.8646 35.1757L47.1644 34.9817C48.3131 34.2331 49.5026 33.4586 50.8192 33.4586C50.9251 33.4586 51.0343 33.4635 51.1402 33.4732C51.9778 33.5508 52.6996 33.8483 53.2829 34.356L54.1824 35.1401L54.3567 33.9647C54.4643 33.2403 54.725 32.6857 55.1324 32.3171C55.7564 31.7512 56.765 31.4957 57.6564 31.271C58.4597 31.0656 58.9925 30.9137 59.6101 30.5111C59.654 30.482 59.698 30.4528 59.7388 30.4221L60.1412 32.2702L60.9804 30.7342C61.0961 30.5224 61.215 30.3461 61.4546 30.1198C61.8016 29.7916 62.2726 29.5264 62.851 29.3307C63.2665 29.1901 63.6755 28.9475 64.0617 28.6096C64.2132 28.477 64.3599 28.3331 64.4951 28.1795C64.6304 28.3315 64.7754 28.4754 64.9269 28.608C65.3147 28.9475 65.7221 29.1901 66.1392 29.3307C66.7177 29.5264 67.1886 29.7915 67.5373 30.1214C67.7719 30.3429 67.8925 30.5208 68.0114 30.7374L68.8522 32.2589L69.2514 30.4237C69.2922 30.4545 69.3362 30.4836 69.3802 30.5127C70.001 30.9169 70.5322 31.0689 71.3339 31.2726C72.2252 31.4973 73.2354 31.7528 73.8579 32.3187C74.2652 32.6874 74.5259 33.2419 74.6335 33.9663L74.8078 35.1418L75.7089 34.3576C76.2923 33.8499 77.0141 33.5524 77.8516 33.4748C77.9575 33.4651 78.0651 33.4602 78.1726 33.4602C79.4876 33.4602 80.6233 34.2007 81.8242 34.9833L82.1371 35.1854C82.5053 35.4231 82.823 35.6284 83.232 35.9195C83.25 35.9324 83.2695 35.9453 83.2874 35.9583C83.2532 35.9712 83.2174 35.9858 83.1815 35.9987C81.7949 36.5533 79.2904 39.9907 78.0586 45.8988C77.0679 50.6491 74.3597 64.4507 73.2419 70.1647L73.2028 70.3652L73.2876 70.5527C74.5048 73.2432 75.1761 75.696 75.4694 76.9183L75.6731 77.7704L76.434 77.3258C78.5832 76.0695 78.404 74.5011 77.9755 72.7323C77.938 72.5771 77.894 72.4089 77.8484 72.2327L77.8272 72.1502C77.6186 71.3531 77.3579 70.3636 77.2683 69.201C77.1607 67.8057 77.6919 66.4702 78.7625 65.4402C79.8412 64.4022 81.3403 63.8072 82.8768 63.8072C83.0789 63.8072 83.2826 63.8169 83.4813 63.8379H83.5123L83.5335 63.8444L83.5612 63.8476C86.4909 64.171 88.8455 65.2721 90.923 66.2438L90.9409 66.2519C93.1716 67.2948 95.2785 68.2794 97.8009 68.2794C98.174 68.2794 98.5537 68.2584 98.9301 68.2148C102.274 67.8396 103.729 65.4434 103.686 63.2348C103.654 61.5225 103.229 59.6437 102.31 57.1441C101.819 55.815 101.492 54.2952 101.319 52.9241C101.975 54.1351 102.666 55.1553 103.237 55.9977L103.439 56.2968C105.171 58.8628 107.134 61.7699 107.755 65.7717C108.164 68.4169 107.46 70.8325 105.919 72.0839L105.891 72.1033L105.64 72.3523L105.655 72.6401C105.736 74.2198 105.699 76.2085 104.674 77.578L104.545 77.7494V78.0162L104.553 78.0696C104.822 79.7026 104.363 82.8733 102.526 84.4966L102.323 84.6761L102.308 84.9461C102.23 86.4465 101.024 89.774 98.4771 91.0417L98.117 91.2211V91.4895C96.3947 95.4961 93.051 97.5269 88.1774 97.5269C87.4441 97.5269 86.6653 97.4817 85.8636 97.3911C81.5928 96.9093 76.1163 94.6295 74.1349 93.5155L73.7047 93.2746L73.3544 93.6206C72.3001 94.6602 71.1449 95.7451 69.8413 96.6393L70.3709 97.7986C71.8113 97.438 73.2256 97.2553 74.5732 97.2553C76.5904 97.2553 78.5034 97.6644 80.2583 98.4728C80.7781 98.7105 81.4168 99.1001 82.1582 99.5512C84.0826 100.722 86.7141 102.323 89.6471 102.759C89.6602 105.141 89.828 106.982 90.1327 108.095V108.164L90.1783 108.25C90.2745 108.559 90.7763 110.156 91.2 110.958C86.5854 110.845 84.6415 109.71 82.3929 108.395C82.3929 108.395 81.8763 108.095 81.7574 108.027C81.3354 107.784 80.9459 107.547 80.5516 107.304C78.5392 106.074 76.8055 105.013 73.2973 105.013C70.9949 105.013 69.2857 105.821 68.0554 106.528C67.8827 106.627 67.7084 106.73 67.5356 106.832L67.3988 106.913C66.3641 107.529 65.3946 108.106 64.4853 108.106C63.5761 108.106 62.605 107.527 61.5768 106.916L61.4041 106.814C61.2427 106.719 61.0814 106.622 60.9169 106.53C59.6883 105.825 57.979 105.016 55.6766 105.016C52.1668 105.016 50.433 106.077 48.4239 107.306C48.028 107.548 47.6386 107.786 47.2165 108.03C47.0568 108.121 46.8988 108.213 46.744 108.303L46.5843 108.397C44.3308 109.713 42.3885 110.848 37.7739 110.961L37.787 110.952Z" fill="white"/>
<path d="M108.409 65.8832C107.767 61.7424 105.761 58.769 103.989 56.1465C103.023 54.7139 101.544 52.6282 100.602 49.9037C100.379 51.4996 100.713 54.8837 101.705 57.5758C102.455 59.613 103.007 61.5921 103.043 63.4563C103.077 65.2316 102.003 67.4289 98.8649 67.7814C95.9938 68.1048 93.7827 67.07 91.2195 65.8719C89.0931 64.8775 86.6832 63.749 83.641 63.4127C83.6133 63.4078 83.5856 63.4046 83.5579 63.403C81.6417 63.2041 79.6831 63.8686 78.3176 65.1831C77.1037 66.3489 76.5041 67.8671 76.6263 69.4581C76.7208 70.6659 76.988 71.6926 77.2047 72.5188C77.2569 72.7193 77.3074 72.9101 77.3498 73.0896C77.7587 74.7776 77.881 75.9401 76.1114 76.9749C75.8132 75.7283 75.1337 73.2432 73.8905 70.4945C74.8127 65.7814 77.6822 51.1406 78.7055 46.2367C79.9178 40.4192 82.3603 37.234 83.4325 36.8055C84.3906 36.4239 84.9837 36.4546 84.9837 36.4546C84.9837 36.4546 84.1592 35.9825 83.6198 35.5993C83.0821 35.2161 82.6911 34.9736 82.1892 34.647C80.8547 33.7771 79.4762 32.8798 77.7979 33.035C76.6833 33.1385 75.8702 33.5669 75.2853 34.0762C75.1761 33.3406 74.9023 32.5871 74.3043 32.0455C73.5629 31.3728 72.468 31.0947 71.5017 30.8506C70.7701 30.6646 70.291 30.5321 69.7435 30.1764C69.1944 29.819 68.8913 29.245 68.8913 29.245L68.5899 30.6323C68.4514 30.3817 68.295 30.144 67.9919 29.8578C67.5291 29.4229 66.9572 29.1286 66.3543 28.9249C66.004 28.8069 65.665 28.5934 65.3636 28.3299C65.0165 28.0259 64.7167 27.6557 64.5 27.2854C64.2849 27.6557 63.9851 28.0275 63.6364 28.3299C63.3349 28.5934 62.996 28.8069 62.6457 28.9249C62.0428 29.1286 61.4709 29.4229 61.0097 29.8578C60.7067 30.144 60.5486 30.3817 60.4117 30.6323L60.1103 29.245C60.1103 29.245 59.8056 29.819 59.2581 30.1764C58.7106 30.5321 58.2299 30.6646 57.4999 30.8506C56.5337 31.0947 55.4387 31.3728 54.6973 32.0455C54.0993 32.5871 53.8255 33.3406 53.7164 34.0762C53.1314 33.5669 52.3183 33.1385 51.2038 33.035C49.5254 32.8798 48.1453 33.7771 46.8108 34.647C46.3089 34.9736 45.9195 35.2161 45.3802 35.5993C44.8424 35.9825 44.0179 36.4546 44.0179 36.4546C44.0179 36.4546 44.6111 36.4239 45.5675 36.8055C46.6397 37.234 49.0839 40.4192 50.2962 46.2367C51.3195 51.1406 54.1889 65.7846 55.1095 70.4961C53.8679 73.2448 53.1884 75.7283 52.8902 76.9749C51.1207 75.9401 51.2429 74.7776 51.6519 73.0896C51.6942 72.9101 51.7447 72.7193 51.7969 72.5188C52.0136 71.6926 52.2808 70.6659 52.3753 69.4581C52.4975 67.8671 51.8979 66.3489 50.684 65.1831C49.3185 63.8686 47.3599 63.2041 45.4437 63.403C45.416 63.4046 45.3883 63.4078 45.3606 63.4127C42.3184 63.749 39.9085 64.8775 37.7821 65.8719C35.219 67.07 33.0078 68.1048 30.1368 67.7814C26.9985 67.4289 25.9247 65.2316 25.9589 63.4563C25.9947 61.5921 26.5455 59.613 27.2966 57.5758C28.289 54.8837 28.6214 51.4996 28.3998 49.9037C27.4563 52.6282 25.9784 54.7139 25.0122 56.1465C23.241 58.769 21.2351 61.7424 20.5931 65.8832C20.1418 68.8033 20.9402 71.4161 22.6853 72.8147C22.5892 74.6741 22.6886 76.6952 23.7933 78.1714C23.4723 80.123 24.0573 83.444 26.0306 85.187C26.1251 86.9898 27.5264 90.4871 30.2215 91.8275C32.3088 96.8187 36.6741 98.9756 43.2 98.2399C47.5718 97.7468 53.1412 95.4282 55.1763 94.2851C56.1752 95.2714 57.3826 96.421 58.779 97.3765C55.8053 96.6328 52.1179 96.4064 48.4549 98.0912C47.9042 98.3434 47.2491 98.7428 46.4898 99.2052C44.6159 100.345 42.048 101.907 39.2437 102.324L38.6929 102.407L38.6897 102.96C38.675 105.349 38.5088 107.165 38.2041 108.211C38.2041 108.211 38.2041 108.216 38.2025 108.219C38.2008 108.224 38.1992 108.229 38.1976 108.237C38.1943 108.243 38.1927 108.253 38.1894 108.263C38.1846 108.274 38.1813 108.289 38.1764 108.305C38.0591 108.678 37.5931 110.143 37.2101 110.864L36.6969 111.839L37.8049 111.812C42.5906 111.694 44.6013 110.518 46.9298 109.159C47.1351 109.039 47.3436 108.916 47.5587 108.793C47.9889 108.546 48.3914 108.3 48.7808 108.061C50.7834 106.835 52.3656 105.867 55.6912 105.867C57.8389 105.867 59.4471 106.63 60.6073 107.294C60.8256 107.419 61.0407 107.548 61.2542 107.674C62.3622 108.334 63.4099 108.958 64.5 108.958C65.5901 108.958 66.6378 108.334 67.7458 107.674C67.9593 107.548 68.176 107.419 68.3944 107.294C69.5545 106.63 71.1611 105.867 73.3104 105.867C76.6344 105.867 78.2166 106.835 80.2208 108.061C80.6103 108.3 81.0127 108.546 81.4429 108.793C81.6564 108.916 81.8649 109.039 82.0719 109.159C84.4003 110.518 86.4111 111.694 91.1967 111.812L92.3031 111.839L91.7898 110.864C91.3662 110.062 90.8366 108.342 90.7991 108.219C90.7991 108.216 90.7975 108.213 90.7975 108.213C90.4928 107.165 90.325 105.349 90.3119 102.96L90.3087 102.407L89.7563 102.324C86.952 101.907 84.3857 100.345 82.5118 99.2052C81.7525 98.7428 81.0958 98.3434 80.5451 98.0912C76.8854 96.4064 73.1979 96.6328 70.2242 97.3765C71.619 96.4194 72.8248 95.2714 73.8253 94.2851C75.8604 95.4282 81.4299 97.7468 85.8017 98.2399C92.3276 98.9756 96.6928 96.8187 98.7801 91.8275C101.475 90.4871 102.875 86.9914 102.969 85.1886C104.943 83.4456 105.528 80.1246 105.207 78.1746C106.311 76.6968 106.411 74.6757 106.315 72.8163C108.06 71.4178 108.858 68.8049 108.407 65.8848L108.409 65.8832ZM74.2229 75.0541C73.6412 74.5108 73.0269 74.0371 72.4223 73.5714C71.751 73.0556 71.1188 72.5673 70.5648 72.0095C69.3199 70.7581 68.0489 69.0216 68.0489 65.6472V64.0691C69.2074 65.3723 71.0178 67.5923 72.1926 69.9513C73.1132 71.8026 73.7748 73.6151 74.2229 75.0541ZM62.178 57.3688C62.178 57.3688 62.1715 57.3607 62.1699 57.3559C62.152 57.33 62.1357 57.3057 62.1194 57.2799C62.1145 57.275 62.1112 57.2702 62.108 57.2653C61.7251 56.6719 61.4725 56.0705 61.4725 55.4302C61.4725 53.6274 62.5773 52.5037 63.7488 51.3136C64.0014 51.0566 64.2556 50.7979 64.5 50.5311C64.7444 50.7979 65.0002 51.0566 65.2528 51.3136C66.4227 52.5037 67.5291 53.6274 67.5291 55.4302C67.5291 56.0705 67.2766 56.6719 66.8936 57.2653C66.8904 57.2702 66.8871 57.275 66.8822 57.2799C66.8659 57.3057 66.8496 57.33 66.8317 57.3559C66.8301 57.3607 66.8268 57.3656 66.8236 57.3688C66.4521 57.9185 65.9714 58.4618 65.4777 59.018C65.1453 59.3947 64.808 59.7747 64.5 60.1676C64.192 59.7747 63.8547 59.3947 63.5223 59.018C63.0302 58.4618 62.5496 57.9185 62.178 57.3688ZM51.572 45.9748C50.7524 42.0361 49.3495 37.4749 47.1074 36.0003C47.2491 35.9098 47.3893 35.8176 47.5261 35.7287C48.7775 34.9138 49.8595 34.2088 51.0816 34.3236C53.2422 34.5241 53.8076 36.453 53.8288 36.5323H53.8321C53.951 36.5791 55.1144 43.425 55.701 48.0767C55.8314 49.1212 56.0644 51.1035 56.2306 52.4357C56.5826 52.1399 56.9834 51.8278 57.4299 51.5141C57.2783 50.2708 57.1023 48.7752 56.9948 47.9166C56.4115 43.2908 55.8591 38.9074 55.2089 36.5969C55.0655 36.0925 54.9743 35.5751 54.9678 35.0512C54.9564 34.3091 55.0802 33.4505 55.5756 33.001C56.0774 32.5467 56.9638 32.3203 57.8226 32.1037C58.3489 31.9695 58.8589 31.8401 59.3005 31.6542L59.6263 33.1514C59.6785 33.3955 59.716 33.6429 59.7355 33.8919C59.9034 35.9259 60.5111 43.813 60.736 49.7534C61.1499 49.5998 61.58 49.464 62.0249 49.3556C61.7707 42.935 61.0994 34.4902 61.0032 33.4004C61.0114 33.2096 61.0831 32.0697 61.5882 31.1934C61.7707 30.8781 62.4322 30.3688 63.0889 30.1408C63.5891 29.9678 64.0715 29.667 64.5 29.2903C64.9302 29.667 65.4125 29.9678 65.9127 30.1408C66.5694 30.3688 67.2309 30.8781 67.4118 31.1934C67.9169 32.0697 67.9886 33.2096 67.9968 33.4004C67.9023 34.4902 67.2309 42.935 66.9767 49.3556C67.4216 49.464 67.8518 49.5998 68.2656 49.7534C68.4889 43.813 69.0983 35.9259 69.2645 33.8919C69.2857 33.6429 69.3215 33.3955 69.3753 33.1514L69.7012 31.6542C70.1427 31.8401 70.6528 31.9695 71.1791 32.1037C72.0362 32.3203 72.9242 32.5467 73.4244 33.001C73.9214 33.4505 74.0436 34.3091 74.0338 35.0512C74.0257 35.5751 73.9345 36.0925 73.7927 36.5969C73.1409 38.9074 72.5885 43.2908 72.0068 47.9166C71.8993 48.7752 71.7233 50.2708 71.5718 51.5141C72.0182 51.8278 72.4191 52.1399 72.771 52.4357C72.9372 51.1035 73.1702 49.1212 73.3006 48.0767C73.8872 43.425 75.0506 36.5791 75.1696 36.5323H75.1712C75.194 36.453 75.7594 34.5241 77.9201 34.3236C79.1421 34.2088 80.2225 34.9138 81.4739 35.7287C81.6124 35.8176 81.7525 35.9098 81.8926 36.0003C79.6522 37.4749 78.2492 42.0361 77.428 45.9748C76.5041 50.4017 74.0827 62.7352 72.9389 68.5802C71.228 65.5097 68.761 62.8872 68.0489 62.1612V57.8684C68.5166 57.1279 68.8327 56.3308 68.8327 55.4302C68.8327 53.1003 67.4265 51.671 66.1848 50.4098C65.8818 50.1026 65.5917 49.8067 65.3278 49.5092C65.0019 49.1454 64.7183 48.7784 64.5016 48.3839C64.2833 48.7784 63.9981 49.1454 63.6722 49.5108C63.4083 49.8083 63.1166 50.1026 62.8152 50.4098C61.5752 51.671 60.169 53.1003 60.169 55.4302C60.169 56.3308 60.4851 57.1279 60.9527 57.8684V62.1596C60.2439 62.8823 57.7737 65.5049 56.0628 68.5769C54.9173 62.7303 52.4959 50.4001 51.572 45.9748ZM56.8074 69.9513C57.9839 67.5923 59.7942 65.3707 60.9527 64.0675V65.6472C60.9527 69.0216 59.6817 70.7581 58.4369 72.0095C57.8828 72.5673 57.2506 73.0556 56.5793 73.5714C55.9731 74.0387 55.3588 74.5124 54.7755 75.0557C55.2252 73.6167 55.8852 71.8026 56.8074 69.9513ZM43.0533 96.9545C37.5931 97.5722 33.9382 96.0766 31.9324 92.3917C34.0344 92.8542 36.6741 92.8768 37.1531 92.8768H37.2232L37.6859 92.8736C37.655 92.8364 37.6257 92.7976 37.598 92.7588C37.3258 92.3869 37.0586 91.9908 36.7963 91.5801C35.672 91.5607 32.5679 91.4426 30.9906 90.7571C29.1298 89.947 27.8865 87.6802 27.4759 86.0569C29.4573 86.8766 32.4098 87.1725 33.8845 87.1725C34.0148 87.1725 34.1321 87.1709 34.2381 87.166L34.4026 87.1596C34.2006 86.7214 34.0099 86.2929 33.8323 85.879C32.242 85.8693 28.8772 85.4716 27.3504 84.5564C27.2526 84.4982 27.1614 84.4368 27.0799 84.3737C27.0294 84.3349 26.9789 84.2929 26.93 84.2492C25.576 83.0851 25.0513 80.9298 25.0203 79.3727C26.6742 80.6129 29.1151 81.3356 32.1817 81.4811L32.4017 81.4908C32.3153 81.0882 32.2257 80.6484 32.1393 80.1844C29.8712 80.0648 26.9121 79.549 25.2028 77.8157C25.1262 77.7413 25.0529 77.6621 24.9828 77.5796C24.9388 77.5295 24.8965 77.4762 24.8574 77.4228C24.1127 76.443 23.9449 75.0428 23.9612 73.6458C26.1919 74.9102 28.4161 75.3063 31.4843 75.5311C31.4452 75.0832 31.4159 74.6466 31.3996 74.2295C28.3541 73.995 26.2114 73.5698 24.0296 72.1728C23.927 72.1082 23.8259 72.0403 23.7233 71.9707C23.676 71.9384 23.6304 71.9061 23.5848 71.8705C22.1655 70.7969 21.4991 68.5494 21.882 66.0805C22.4784 62.2226 24.3995 59.377 26.0941 56.866C26.1348 56.8061 26.174 56.7479 26.2147 56.6881C26.1609 56.8514 26.1088 57.0163 26.055 57.1796C25.3869 59.2428 24.6961 61.377 24.6553 63.4304C24.6064 65.9317 26.2375 68.6448 29.9901 69.0668C33.2278 69.4306 35.7094 68.2713 38.3377 67.0425C40.4071 66.074 42.5433 65.0748 45.2449 64.7288C46.4051 65.9107 47.1742 67.0474 46.9232 69.6505C46.7701 71.2383 46.0059 73.0395 45.2661 74.7825C44.6893 76.1374 44.0929 77.5408 43.7686 78.8764C43.0664 81.7705 43.1837 86.2929 45.8331 89.5089C48.3311 92.5421 51.0262 93.5785 52.975 93.9326C50.5178 95.0515 46.4132 96.5746 43.0533 96.9545ZM64.3941 90.0586H64.5081C64.5407 90.057 64.575 90.057 64.6075 90.0586C64.9139 90.0699 65.2072 90.1605 65.3636 90.2381C65.4434 91.1953 65.8557 93.475 66.8969 94.8267C66.7519 96.0329 65.406 96.8187 64.5 96.8187C63.594 96.8187 62.2497 96.0329 62.1031 94.8267C63.1459 93.475 63.5582 91.1953 63.6364 90.2381C63.7928 90.1605 64.0861 90.0699 64.3941 90.0586ZM64.3631 99.5318C64.2556 99.4785 64.1415 99.4186 64.0128 99.3572C64.1741 99.3669 64.3371 99.3718 64.5 99.3718C64.6646 99.3718 64.8259 99.3669 64.9872 99.3572C64.8585 99.4186 64.7444 99.4785 64.6369 99.5318C64.588 99.5561 64.5424 99.5787 64.4984 99.5997C64.4544 99.5787 64.4087 99.5561 64.3615 99.5318H64.3631ZM39.9867 103.508C42.8252 102.951 45.3199 101.433 47.1709 100.308C47.896 99.8665 48.5217 99.4866 49.004 99.2634C55.2106 96.4097 61.6583 99.6288 63.7765 100.688C63.801 100.699 63.8254 100.712 63.8482 100.723V104.549C61.8359 103.467 59.6492 102.395 57.6254 102.196C53.8027 101.821 51.5068 102.269 48.1763 104.038C47.5571 104.366 46.9575 104.717 46.379 105.057C44.3748 106.23 42.4716 107.345 39.6592 107.678C39.8841 106.423 39.9655 104.842 39.9867 103.508ZM82.7334 108.045C82.5249 107.923 82.313 107.799 82.0963 107.674C81.6808 107.437 81.2865 107.194 80.9036 106.96C78.8994 105.733 77.0043 104.573 73.3104 104.573C70.8532 104.573 69.0429 105.429 67.7426 106.174C67.5177 106.302 67.2961 106.434 67.0761 106.565C66.1262 107.131 65.23 107.665 64.5 107.665C63.77 107.665 62.8738 107.131 61.9255 106.565C61.7055 106.434 61.4839 106.302 61.259 106.174C59.9571 105.429 58.1484 104.573 55.6912 104.573C51.9957 104.573 50.1023 105.733 48.0964 106.96C47.7151 107.194 47.3192 107.437 46.9053 107.674C46.6886 107.799 46.4768 107.923 46.2682 108.045C44.189 109.259 42.5123 110.239 38.8021 110.473C39.009 109.94 39.1981 109.383 39.317 109.013H39.3186C42.6802 108.725 44.8946 107.427 47.0422 106.171C47.6092 105.838 48.1958 105.495 48.7906 105.178C51.8963 103.529 53.9298 103.134 57.4967 103.483C59.4732 103.677 61.7788 104.897 63.8482 106.024C63.9427 106.074 64.0372 106.125 64.1317 106.177L64.5 106.378L64.8699 106.177C64.9628 106.127 65.0573 106.075 65.1518 106.024C67.2212 104.897 69.5252 103.679 71.505 103.483C75.0718 103.134 77.1053 103.529 80.2094 105.178C80.8058 105.495 81.3924 105.838 81.9594 106.171C84.1054 107.427 86.3198 108.725 89.683 109.013H89.6846C89.8036 109.383 89.9909 109.94 90.1979 110.473C86.4877 110.239 84.811 109.259 82.7334 108.045ZM79.9976 99.2634C80.4799 99.4866 81.1056 99.8665 81.8291 100.308C83.6818 101.433 86.1748 102.951 89.0133 103.508C89.0361 104.842 89.1176 106.423 89.3408 107.678C86.53 107.345 84.6268 106.23 82.621 105.057C82.0425 104.717 81.4445 104.366 80.8254 104.038C77.4931 102.269 75.1973 101.821 71.3762 102.196C69.3525 102.395 67.1641 103.467 65.1518 104.549V100.723C65.1762 100.712 65.199 100.699 65.2235 100.688C67.3417 99.6288 73.7894 96.4097 79.9976 99.2634ZM73.2664 93.011C70.7489 95.5091 68.2298 97.7662 65.1518 98.0492V98.0411C66.5938 97.7387 68.2135 96.4889 68.2135 94.6117V94.3659L68.0489 94.1816C67.0729 93.0902 66.6541 90.5906 66.6541 89.947V89.7854L66.5775 89.6415C66.4553 89.4151 66.2402 89.2389 65.986 89.1047C65.6911 88.9494 65.4369 88.8831 65.1599 88.8282C64.8291 88.7619 64.575 88.7586 64.5 88.7586C64.425 88.7586 64.1725 88.7619 63.8417 88.8282C63.5631 88.8831 63.3105 88.9511 63.0156 89.1047C62.7614 89.2372 62.5463 89.4135 62.4241 89.6415L62.3475 89.7854V89.947C62.3475 90.5906 61.9271 93.0902 60.9511 94.1816L60.7881 94.3659V94.6117C60.7881 96.4889 62.4078 97.7387 63.8482 98.0411V98.0475C60.7718 97.7646 58.2511 95.5074 55.7352 93.011L55.6342 92.9108L55.5446 92.8234C55.4973 92.8218 55.4175 92.8218 55.2741 92.8218C55.2138 92.8218 55.1486 92.8218 55.0786 92.8202C53.6724 92.8089 50.0827 92.6246 46.8418 88.6907C44.4954 85.8418 44.4025 81.7851 45.0363 79.1787C45.3362 77.9467 45.9114 76.5933 46.467 75.2837C47.2442 73.4534 48.0492 71.5584 48.2219 69.775C48.4565 67.3352 47.8602 65.8768 46.9786 64.732C48.028 64.9018 49.0187 65.3804 49.778 66.1112C50.7068 67.0053 51.1679 68.1582 51.075 69.3595C50.9903 70.4525 50.7378 71.4178 50.5357 72.1939C50.4803 72.404 50.4282 72.6013 50.3842 72.7872C49.8856 74.8487 49.6802 76.9895 53.063 78.5142C53.0679 78.5174 53.0727 78.5206 53.0793 78.5223L53.6414 78.7745L53.9266 78.2312C53.9266 78.2312 53.9331 78.2183 53.9363 78.2134C54.7934 76.5836 56.1084 75.5731 57.3794 74.5933C58.0539 74.0743 58.7513 73.5359 59.3656 72.9166C60.7116 71.5633 62.2563 69.5115 62.2563 65.6472V59.5467C62.3508 59.6551 62.4469 59.7634 62.543 59.8717C62.9748 60.36 63.3969 60.8354 63.7342 61.3091C64.1709 61.9219 64.469 62.5298 64.469 63.154C64.469 63.2219 64.4804 63.2882 64.5 63.3512C64.5195 63.2882 64.531 63.2219 64.531 63.154C64.531 62.5315 64.8291 61.9235 65.2675 61.3107C65.6031 60.837 66.0268 60.36 66.4586 59.8717C66.5547 59.7634 66.6509 59.6551 66.7454 59.5467V65.6472C66.7454 69.5115 68.2901 71.5633 69.636 72.9166C70.2503 73.5359 70.9477 74.0743 71.6223 74.5933C72.8932 75.5731 74.2082 76.5836 75.0653 78.2134C75.0685 78.2183 75.0718 78.2248 75.0751 78.2312L75.3602 78.7745L75.8849 78.5384C75.9093 78.5287 75.9321 78.519 75.9533 78.5077C79.3197 76.983 79.1161 74.8455 78.6175 72.7872C78.5735 72.6013 78.5213 72.404 78.4659 72.1939C78.2639 71.4178 78.0113 70.4525 77.9266 69.3595C77.8337 68.1582 78.2948 67.0053 79.2236 66.1112C79.9829 65.3804 80.9736 64.9018 82.023 64.732C81.1415 65.8768 80.5451 67.3352 80.7797 69.775C80.9524 71.5584 81.7574 73.4534 82.5346 75.2837C83.0903 76.5933 83.6655 77.9467 83.9653 79.1787C84.5991 81.7851 84.5063 85.8418 82.1599 88.6907C78.9189 92.6246 75.3293 92.8089 73.923 92.8202C73.853 92.8218 73.7878 92.8218 73.7275 92.8218C73.5841 92.8218 73.5043 92.8218 73.457 92.8234L73.3674 92.9108L73.2664 93.011ZM102.072 84.2492C102.023 84.2929 101.972 84.3349 101.922 84.3737C101.84 84.4368 101.749 84.4982 101.651 84.5564C100.124 85.4716 96.7596 85.8693 95.1693 85.879C94.9917 86.2929 94.8011 86.7214 94.599 87.1596L94.7636 87.166C94.8695 87.1709 94.9868 87.1725 95.1172 87.1725C96.5918 87.1725 99.5444 86.8766 101.526 86.0569C101.115 87.6802 99.8719 89.947 98.011 90.7571C96.4338 91.4426 93.3297 91.5607 92.2054 91.5801C91.943 91.9908 91.6758 92.3869 91.4037 92.7588C91.376 92.7976 91.3466 92.8364 91.3157 92.8736L91.7784 92.8768H91.8485C92.3276 92.8768 94.9673 92.8542 97.0676 92.3917C95.0634 96.0766 91.4086 97.5722 85.9483 96.9545C82.5884 96.5746 78.4838 95.0515 76.0267 93.9326C77.9755 93.5785 80.6706 92.5421 83.1685 89.5089C85.818 86.2929 85.9353 81.7705 85.233 78.8764C84.9087 77.5408 84.3124 76.1374 83.7355 74.7825C82.9958 73.0395 82.2316 71.2383 82.0784 69.6505C81.8275 67.0474 82.5966 65.9107 83.7567 64.7288C86.4583 65.0748 88.5945 66.074 90.6639 67.0425C93.2922 68.2713 95.7738 69.4306 99.0115 69.0668C102.764 68.6448 104.395 65.9317 104.346 63.4304C104.306 61.377 103.615 59.2428 102.947 57.1796C102.893 57.0163 102.841 56.8514 102.787 56.6881C102.828 56.7479 102.867 56.8061 102.908 56.866C104.602 59.377 106.523 62.2226 107.12 66.0805C107.503 68.5494 106.836 70.7969 105.417 71.8705C105.371 71.9061 105.326 71.9384 105.278 71.9707C105.176 72.0403 105.075 72.1082 104.972 72.1728C102.79 73.5698 100.647 73.995 97.6021 74.2295C97.5858 74.6466 97.5564 75.0832 97.5173 75.5311C100.586 75.3063 102.81 74.9102 105.04 73.6458C105.057 75.0428 104.889 76.443 104.144 77.4228C104.105 77.4762 104.063 77.5295 104.019 77.5796C103.949 77.6621 103.875 77.7413 103.799 77.8157C102.09 79.549 99.1305 80.0648 96.8623 80.1844C96.7759 80.6484 96.6863 81.0882 96.6 81.4908L96.8199 81.4811C99.8865 81.3356 102.327 80.6129 103.981 79.3727C103.95 80.9298 103.426 83.0851 102.072 84.2492Z" fill="black"/>
<path d="M69.2563 76.9022C69.0021 76.5287 68.7219 76.1326 68.4253 75.7122L68.1679 75.3468C66.672 73.219 66.2565 72.3539 65.7318 70.425C65.7107 70.349 65.6911 70.273 65.6699 70.197L65.4353 69.0782C65.3489 68.5672 65.3049 68.467 65.1029 67.9431C64.9171 67.4613 64.6075 67.0345 64.4984 66.0627C64.3892 67.0345 64.0796 67.4613 63.8938 67.9431C63.6918 68.467 63.6478 68.5672 63.5614 69.0782L63.3268 70.197C63.3056 70.273 63.2844 70.3506 63.2649 70.425C62.7402 72.3539 62.3263 73.219 60.8289 75.3468L60.5714 75.7122C60.2749 76.1326 59.9946 76.5287 59.7404 76.9022C58.3766 78.9055 57.7704 80.8942 58.0099 83.0269C58.3489 86.0633 61.4758 87.7336 61.6012 87.7999H61.6045L61.6126 87.7902C61.6208 87.7788 61.6338 87.7627 61.6517 87.74C63.1036 85.9259 65.8964 85.9259 67.3466 87.74C67.3645 87.7627 67.3776 87.7788 67.3857 87.7902L67.3939 87.8015H67.3971C67.5226 87.7336 70.6495 86.0633 70.9884 83.0269C71.2279 80.8942 70.6218 78.9071 69.258 76.9022H69.2563Z" fill="#FAD407"/>
<path d="M68.9598 74.9474C68.1695 73.7493 67.6269 73.2529 66.8073 71.6748C65.7514 69.6376 65.3717 67.9868 65.2381 67.3335C65.0165 66.2438 64.9465 65.3011 64.9302 64.5994C64.3957 65.2284 63.5663 66.3796 63.1378 68.0256C62.8771 69.0264 62.8428 69.9108 62.8722 70.564C62.8103 70.5091 62.7288 70.4476 62.6212 70.3927C62.4192 70.2892 62.2286 70.2682 62.1145 70.2633C62.1617 71.6619 61.8473 72.6789 61.5996 73.2804C61.347 73.8964 61.057 74.3621 60.6757 74.9393C60.2944 75.5149 59.4634 76.5109 59.1326 76.9959C57.7688 79.0009 57.0877 80.6986 57.3565 83.0948C57.7362 86.495 61.1531 88.2962 61.2981 88.3722L61.7967 88.6261C63.2127 86.4093 65.784 86.4158 67.1935 88.6261L67.6921 88.3722C67.8387 88.2962 71.254 86.495 71.6353 83.0948C71.9987 79.8481 70.0776 76.6467 68.9581 74.9458L68.9598 74.9474ZM70.3415 82.9525C70.1085 85.0366 68.3471 86.4239 67.5193 86.9672C65.9225 85.3374 63.2893 85.1498 61.4741 86.9672C60.6464 86.4239 58.8866 85.0366 58.6536 82.9525C58.4287 80.9459 58.8735 79.7268 59.9799 77.8982C60.296 77.3743 61.0521 76.4058 61.624 75.4551C62.3263 74.2861 62.5349 73.7089 63.0074 72.7953C63.3056 74.3427 64.192 76.0533 64.6678 78.3816C65.2577 81.2758 63.1508 82.8991 63.7879 83.8078C64.1757 82.5968 66.0447 80.629 65.7856 78C65.6194 76.3007 64.3566 74.2262 64.003 72.3232C63.6071 70.197 64.0079 68.7321 64.3647 68.1339C64.7004 70.3086 66.4553 73.3984 67.9707 75.5505C69.8608 78.2377 70.6332 80.3687 70.3448 82.9509L70.3415 82.9525Z" fill="black"/>
<path d="M25.2794 42.4096L31.4224 45.0451L30.8912 46.2642L24.7482 43.6287L24.1029 45.1113L22.9656 44.6231L24.7857 40.4483L25.923 40.9366L25.281 42.4096H25.2794Z" fill="black"/>
<path d="M33.7655 41.0045C33.4543 41.5025 33.117 41.842 32.7553 42.0247C32.3935 42.2074 31.9797 42.243 31.5153 42.1363C31.0509 42.028 30.4952 41.7757 29.8516 41.3796L25.6542 38.7958L26.3597 37.6673L30.6631 40.3157C30.9417 40.4871 31.1975 40.6164 31.4305 40.7037C31.6635 40.7911 31.8835 40.8137 32.0905 40.7733C32.299 40.7328 32.4734 40.5986 32.6151 40.3707C32.7357 40.1783 32.7944 39.9988 32.7927 39.8323C32.7911 39.6657 32.7096 39.4911 32.5483 39.3052C32.3886 39.1208 32.1263 38.9171 31.7646 38.694L27.396 36.0067L28.1016 34.8782L32.5386 37.6091C33.3663 38.1184 33.878 38.6503 34.0735 39.2065C34.269 39.7627 34.1664 40.3626 33.7639 41.0061L33.7655 41.0045Z" fill="black"/>
<path d="M32.0628 31.9226L37.1759 36.2073L36.3123 37.2227L31.1992 32.938L30.1498 34.1716L29.2031 33.3778L32.1605 29.9015L33.1072 30.6938L32.0628 31.921V31.9226Z" fill="black"/>
<path d="M44.308 29.9726L39.9167 26.0113L42.2875 31.4149L41.1338 32.2379L35.3868 26.6451L36.4818 25.8642L40.3468 29.7446L38.0607 24.7356L39.3072 23.8447L43.3287 27.5813L40.8992 22.7097L41.9746 21.9417L45.4616 29.148L44.308 29.971V29.9726Z" fill="black"/>
<path d="M49.3918 27.321C48.8558 27.5667 48.3865 27.667 47.9824 27.6217C47.5783 27.5764 47.2133 27.3808 46.8858 27.0364C46.5566 26.692 46.234 26.1794 45.9162 25.4971L43.8436 21.0475L45.0592 20.4897L47.1839 25.0509C47.3225 25.3468 47.4642 25.5941 47.6092 25.793C47.7559 25.9919 47.9253 26.1309 48.1225 26.2118C48.318 26.291 48.5396 26.2748 48.7841 26.1633C48.991 26.0679 49.1393 25.9515 49.2305 25.8108C49.3201 25.6701 49.3511 25.4793 49.3185 25.2384C49.2876 24.9959 49.1816 24.6838 49.004 24.3006L46.8467 19.6716L48.0622 19.1137L50.2522 23.8156C50.6612 24.6919 50.7932 25.4163 50.6481 25.987C50.5031 26.5578 50.0843 27.0024 49.3918 27.321Z" fill="black"/>
<path d="M55.31 19.2205C55.4534 19.7233 55.4648 20.1793 55.3442 20.5867C55.2236 20.9942 54.9629 21.3434 54.5621 21.6344C54.681 21.6425 54.7983 21.67 54.914 21.7169C55.0297 21.7638 55.1731 21.8656 55.3458 22.0192C55.5185 22.1745 55.719 22.4024 55.9487 22.7064L57.3826 24.4914L55.9275 24.8989L54.6272 23.3047C54.3176 22.9344 54.083 22.6708 53.9233 22.5172C53.762 22.3636 53.6333 22.2731 53.5322 22.244C53.4329 22.2165 53.3123 22.223 53.1689 22.2618L52.8772 22.3442L53.7767 25.5004L52.4894 25.8625L50.332 18.2891L52.5236 17.6747C53.2748 17.4645 53.8761 17.4936 54.3307 17.7653C54.7853 18.0353 55.1112 18.5203 55.31 19.2205ZM54.0178 19.6554C53.9184 19.3045 53.7539 19.0782 53.5241 18.9763C53.2944 18.8744 52.9962 18.8761 52.6295 18.9795L51.9712 19.1639L52.5513 21.1995L53.1021 21.0443C53.5225 20.9262 53.8044 20.7516 53.9494 20.522C54.0944 20.2924 54.1172 20.003 54.0178 19.6554Z" fill="black"/>
<path d="M58.0914 24.4704L56.8449 16.6981L58.1664 16.4896L59.4129 24.2618L58.0914 24.4704Z" fill="black"/>
<path d="M66.6916 23.9676L66.8073 20.4848L64.8536 20.4218L64.7379 23.9045L63.4001 23.8609L63.6608 15.9948L64.9986 16.0385L64.8959 19.1509L66.8496 19.214L66.9523 16.1015L68.2901 16.1452L68.0294 24.0112L66.6916 23.9676Z" fill="black"/>
<path d="M70.6234 22.8342L70.0042 24.3023L68.642 24.0452L72.1127 16.6884L73.5418 16.9585L74.0257 25.0622L72.6586 24.8035L72.6309 23.2141L70.6251 22.8358L70.6234 22.8342ZM72.5511 18.2584L71.1367 21.6199L72.613 21.898L72.5511 18.2584Z" fill="black"/>
<path d="M77.7538 26.3767L77.4606 20.7953L77.4508 20.7921L75.7562 25.6637L74.6058 25.253L77.2911 17.8477L78.5783 18.3069L78.7999 23.6523L78.8081 23.6555L80.4995 18.9925L81.6727 19.4113L78.9873 26.8165L77.7555 26.3767H77.7538Z" fill="black"/>
<path d="M86.3622 26.0048C85.8701 26.8844 85.4106 27.5489 84.9804 28C84.5503 28.4511 84.1071 28.7131 83.6492 28.7874C83.1913 28.8618 82.6829 28.7438 82.124 28.4366L80.0612 27.3015L83.9066 20.4185L85.8815 21.5051C86.4518 21.8188 86.8347 22.1923 87.0303 22.6272C87.2258 23.0621 87.2633 23.5553 87.1427 24.1066C87.0221 24.658 86.7614 25.2902 86.3638 26.0048H86.3622ZM81.8372 26.8618L82.4776 27.2142C82.8589 27.4244 83.1946 27.4794 83.483 27.3808C83.7714 27.2821 84.0256 27.0865 84.2439 26.7955C84.4639 26.5044 84.7262 26.084 85.0342 25.5327C85.409 24.8633 85.6469 24.3394 85.7512 23.9627C85.8554 23.586 85.8473 23.2885 85.73 23.0702C85.611 22.8519 85.3764 22.6466 85.0261 22.4526L84.4704 22.147L81.8372 26.8618Z" fill="black"/>
<path d="M86.794 29.5393L85.5736 30.5709L84.4753 29.7317L90.9181 24.7227L92.0701 25.6038L88.8161 33.0511L87.7146 32.2087L88.4137 30.7778L86.7956 29.5409L86.794 29.5393ZM90.5955 26.3185L87.8043 28.684L88.9937 29.5943L90.5955 26.3185Z" fill="black"/>
<path d="M93.5741 31.1901L94.1232 30.9298L96.6603 29.7738L97.7455 30.8522L93.0282 32.6291L90.6737 34.9623L89.7351 34.0293L92.0897 31.6962L93.8853 27.0154L94.9868 28.1116L93.8332 30.6517L93.5741 31.1917V31.1901Z" fill="black"/>
<path d="M93.9505 36.2833L92.5036 36.9688L91.6595 35.8774L99.1826 32.6793L100.067 33.824L94.995 40.1912L94.1477 39.095L95.1938 37.8888L93.9505 36.2816V36.2833ZM98.4575 34.1409L95.1465 35.7157L96.0606 36.8977L98.4559 34.1409H98.4575Z" fill="black"/>
<path d="M96.9014 43.6351L100.421 39.2696L100.416 39.2615L95.8863 41.7838L95.3013 40.7183L102.267 36.9559L102.921 38.1475L99.5053 42.2867L99.5101 42.2948L103.897 39.9261L104.493 41.0126L97.5271 44.775L96.9014 43.6335V43.6351Z" fill="black"/>
<path d="M97.9736 45.9424L105.337 43.0159L105.834 44.2495L98.4705 47.1761L97.9736 45.9424Z" fill="black"/>
</svg>
