<svg width="30" height="22" viewBox="0 0 30 22" fill="none" xmlns="http://www.w3.org/2000/svg">
<path d="M17.4661 12.3334C16.355 12.3334 15.4106 11.9445 14.6328 11.1667C13.855 10.3889 13.4661 9.44449 13.4661 8.33337C13.4661 7.22226 13.855 6.27782 14.6328 5.50004C15.4106 4.72226 16.355 4.33337 17.4661 4.33337C18.5773 4.33337 19.5217 4.72226 20.2995 5.50004C21.0773 6.27782 21.4661 7.22226 21.4661 8.33337C21.4661 9.44449 21.0773 10.3889 20.2995 11.1667C19.5217 11.9445 18.5773 12.3334 17.4661 12.3334ZM8.13281 16.3334C7.39948 16.3334 6.7717 16.0723 6.24948 15.55C5.72726 15.0278 5.46615 14.4 5.46615 13.6667V3.00004C5.46615 2.26671 5.72726 1.63893 6.24948 1.11671C6.7717 0.594485 7.39948 0.333374 8.13281 0.333374H26.7995C27.5328 0.333374 28.1606 0.594485 28.6828 1.11671C29.205 1.63893 29.4661 2.26671 29.4661 3.00004V13.6667C29.4661 14.4 29.205 15.0278 28.6828 15.55C28.1606 16.0723 27.5328 16.3334 26.7995 16.3334H8.13281ZM10.7995 13.6667H24.1328C24.1328 12.9334 24.3939 12.3056 24.9161 11.7834C25.4384 11.2612 26.0661 11 26.7995 11V5.66671C26.0661 5.66671 25.4384 5.4056 24.9161 4.88337C24.3939 4.36115 24.1328 3.73337 24.1328 3.00004H10.7995C10.7995 3.73337 10.5384 4.36115 10.0161 4.88337C9.49392 5.4056 8.86615 5.66671 8.13281 5.66671V11C8.86615 11 9.49392 11.2612 10.0161 11.7834C10.5384 12.3056 10.7995 12.9334 10.7995 13.6667ZM25.4661 21.6667H2.79948C2.06615 21.6667 1.43837 21.4056 0.916146 20.8834C0.393924 20.3612 0.132812 19.7334 0.132812 19V4.33337H2.79948V19H25.4661V21.6667Z" fill="white"/>
</svg>
