<svg width="74" height="74" viewBox="0 0 74 74" fill="none" xmlns="http://www.w3.org/2000/svg">
<path d="M0 8C0 3.58172 3.58172 0 8 0H66C70.4183 0 74 3.58172 74 8V66C74 70.4183 70.4183 74 66 74H8C3.58172 74 0 70.4183 0 66V8Z" fill="#906CEF"/>
<path fill-rule="evenodd" clip-rule="evenodd" d="M48.0692 13.7637C48.3474 13.7637 48.6141 13.8742 48.8108 14.0709C49.0075 14.2676 49.118 14.5345 49.118 14.8127C49.118 21.3475 49.118 56.412 49.118 62.9468C49.118 63.225 49.0075 63.4919 48.8108 63.6886C48.6141 63.8853 48.3474 63.9958 48.0692 63.9958C42.5084 63.9958 16.5199 63.9958 10.9592 63.9958C10.681 63.9958 10.4143 63.8853 10.2176 63.6886C10.0209 63.4919 9.9104 63.225 9.9104 62.9468C9.9104 56.412 9.9104 21.3475 9.9104 14.8127C9.9104 14.5345 10.0209 14.2676 10.2176 14.0709C10.4143 13.8742 10.681 13.7637 10.9592 13.7637C16.5199 13.7637 42.5084 13.7637 48.0692 13.7637Z" fill="#C0D8FF"/>
<path fill-rule="evenodd" clip-rule="evenodd" d="M51.2933 11.5656C51.5715 11.5656 51.8382 11.6761 52.0349 11.8728C52.2316 12.0695 52.3421 12.3364 52.3421 12.6146C52.3421 19.1494 52.3421 54.2139 52.3421 60.7487C52.3421 61.0269 52.2316 61.2938 52.0349 61.4905C51.8382 61.6872 51.5715 61.7977 51.2933 61.7977C45.7326 61.7977 19.744 61.7977 14.1833 61.7977C13.9051 61.7977 13.6384 61.6872 13.4417 61.4905C13.2448 61.2938 13.1343 61.0269 13.1343 60.7487C13.1343 54.2139 13.1343 19.1494 13.1343 12.6146C13.1343 12.3364 13.2448 12.0695 13.4417 11.8728C13.6384 11.6761 13.9051 11.5656 14.1833 11.5656C19.744 11.5656 45.7326 11.5656 51.2933 11.5656Z" fill="#0B41FF"/>
<path fill-rule="evenodd" clip-rule="evenodd" d="M46.8145 15.2622C47.5045 15.2622 48.064 15.8219 48.064 16.512V57.245C48.064 57.9353 47.5045 58.4948 46.8145 58.4948H17.8086C17.1183 58.4948 16.5588 57.9353 16.5588 57.245V16.512C16.5588 15.8219 17.1183 15.2622 17.8086 15.2622C22.8628 15.2622 41.7603 15.2622 46.8145 15.2622Z" fill="#002DCD"/>
<path fill-rule="evenodd" clip-rule="evenodd" d="M47.47 15.2621C47.8083 15.2621 48.1319 15.3994 48.3673 15.6422C48.6027 15.885 48.7297 16.213 48.7191 16.551C48.2802 31.0009 48.8017 45.5641 51.3228 57.587C51.3701 57.8087 51.3149 58.0398 51.1725 58.2158C51.0298 58.392 50.8155 58.4944 50.5889 58.4944C45.934 58.4946 25.1866 58.4946 20.4426 58.4946C19.8716 58.4946 19.3734 58.1078 19.2318 57.5548C16.5525 46.67 16.5617 31.0714 16.7044 16.4997C16.7109 15.8144 17.2686 15.2623 17.9539 15.2623C23.0371 15.2621 42.2889 15.2621 47.47 15.2621Z" fill="white"/>
<path fill-rule="evenodd" clip-rule="evenodd" d="M43.0153 9.99573C43.611 9.99573 44.094 10.4787 44.094 11.0744V16.7165C44.094 17.3122 43.611 17.7949 43.0153 17.7949C39.1888 17.7949 26.2875 17.7949 22.4608 17.7949C21.8653 17.7949 21.3823 17.3122 21.3823 16.7165V11.0744C21.3823 10.4787 21.8653 9.99573 22.4608 9.99573C26.2875 9.99573 39.1888 9.99573 43.0153 9.99573Z" fill="#32A592"/>
<path fill-rule="evenodd" clip-rule="evenodd" d="M61.889 30.5629L47.8753 48.0376L44.7656 45.5437L58.7794 28.069L61.889 30.5629Z" fill="#458CFF"/>
<path d="M21.2905 24.9658H44.1863" stroke="#060030" stroke-width="1.35486" stroke-miterlimit="1.5" stroke-linecap="round" stroke-linejoin="round"/>
<path d="M21.3679 32.6489H44.2634" stroke="#060030" stroke-width="1.35486" stroke-miterlimit="1.5" stroke-linecap="round" stroke-linejoin="round"/>
<path d="M22.0591 40.7162H37.118" stroke="#060030" stroke-width="1.35486" stroke-miterlimit="1.5" stroke-linecap="round" stroke-linejoin="round"/>
<path d="M32.0173 54.1707H47.0763" stroke="#0B41FF" stroke-width="1.35486" stroke-miterlimit="1.5" stroke-linecap="round" stroke-linejoin="round"/>
<path fill-rule="evenodd" clip-rule="evenodd" d="M62.7426 26.4383C63.5677 27.1 63.7003 28.3052 63.0386 29.1302C62.46 29.8516 61.8894 30.563 61.8894 30.563L58.7798 28.0691C58.7798 28.0691 59.3503 27.3577 59.9287 26.6364C60.5904 25.8113 61.7956 25.6787 62.6207 26.3404C62.6612 26.373 62.7021 26.4057 62.7426 26.4383Z" fill="#FCD222"/>
<path fill-rule="evenodd" clip-rule="evenodd" d="M44.7656 45.5437L42.802 51.1778L47.8753 48.0376L44.7656 45.5437Z" fill="#D8D8D8"/>
<path fill-rule="evenodd" clip-rule="evenodd" d="M43.7169 48.553L45.1656 49.715L42.802 51.1778L43.7169 48.553Z" fill="#060030"/>
<path d="M32.3489 51.917C32.3489 51.917 39.6822 51.8416 39.3478 48.2019C39.0451 44.9104 33.7989 47.9703 36.3876 50.1554C38.976 52.3405 42.7601 51.5539 44.1656 49.3758" stroke="#060030" stroke-width="1.35486" stroke-miterlimit="1.5" stroke-linecap="round" stroke-linejoin="round"/>
</svg>
