<svg width="74" height="74" viewBox="0 0 74 74" fill="none" xmlns="http://www.w3.org/2000/svg">
<path d="M0 8C0 3.58172 3.58172 0 8 0H66C70.4183 0 74 3.58172 74 8V66C74 70.4183 70.4183 74 66 74H8C3.58172 74 0 70.4183 0 66V8Z" fill="#4CA375"/>
<mask id="mask0_14_263" style="mask-type:alpha" maskUnits="userSpaceOnUse" x="10" y="10" width="54" height="54">
<rect x="10" y="10" width="54" height="54" fill="#D9D9D9"/>
</mask>
<g mask="url(#mask0_14_263)">
<path d="M18.9999 57.25C17.7624 57.25 16.703 56.8094 15.8218 55.9281C14.9405 55.0469 14.4999 53.9875 14.4999 52.75V28C14.4999 26.7625 14.9405 25.7031 15.8218 24.8219C16.703 23.9406 17.7624 23.5 18.9999 23.5H27.9999V19C27.9999 17.7625 28.4405 16.7031 29.3218 15.8219C30.203 14.9406 31.2624 14.5 32.4999 14.5H41.4999C42.7374 14.5 43.7968 14.9406 44.678 15.8219C45.5593 16.7031 45.9999 17.7625 45.9999 19V23.5H54.9999C56.2374 23.5 57.2968 23.9406 58.178 24.8219C59.0593 25.7031 59.4999 26.7625 59.4999 28V52.75C59.4999 53.9875 59.0593 55.0469 58.178 55.9281C57.2968 56.8094 56.2374 57.25 54.9999 57.25H18.9999ZM32.4999 23.5H41.4999V19H32.4999V23.5Z" fill="white"/>
</g>
</svg>
