<svg width="74" height="74" viewBox="0 0 74 74" fill="none" xmlns="http://www.w3.org/2000/svg">
<path d="M0 8C0 3.58172 3.58172 0 8 0H66C70.4183 0 74 3.58172 74 8V66C74 70.4183 70.4183 74 66 74H8C3.58172 74 0 70.4183 0 66V8Z" fill="#ED4A97"/>
<mask id="mask0_14_268" style="mask-type:alpha" maskUnits="userSpaceOnUse" x="10" y="10" width="54" height="54">
<rect x="10" y="10" width="54" height="54" fill="#D9D9D9"/>
</mask>
<g mask="url(#mask0_14_268)">
<path d="M47.125 56.125C44.65 56.125 42.5312 55.2438 40.7688 53.4813C39.0063 51.7188 38.125 49.6 38.125 47.125C38.125 44.65 39.0063 42.5312 40.7688 40.7688C42.5312 39.0063 44.65 38.125 47.125 38.125C49.6 38.125 51.7188 39.0063 53.4813 40.7688C55.2438 42.5312 56.125 44.65 56.125 47.125C56.125 47.9875 56.0125 48.8031 55.7875 49.5719C55.5625 50.3406 55.2438 51.0625 54.8313 51.7375L60.175 57.025C60.4 57.2125 60.5687 57.4469 60.6812 57.7281C60.7938 58.0094 60.85 58.3 60.85 58.6C60.85 58.9 60.7938 59.1813 60.6812 59.4438C60.5687 59.7062 60.4 59.95 60.175 60.175C59.9875 60.3625 59.7531 60.5125 59.4719 60.625C59.1906 60.7375 58.9 60.7938 58.6 60.7938C58.3 60.7938 58.0187 60.7375 57.7563 60.625C57.4938 60.5125 57.25 60.3625 57.025 60.175L51.6812 54.8875C51.0062 55.3 50.2844 55.6094 49.5156 55.8156C48.7469 56.0219 47.95 56.125 47.125 56.125ZM22.375 56.125C19.9 56.125 17.7812 55.2438 16.0188 53.4813C14.2563 51.7188 13.375 49.6 13.375 47.125C13.375 44.65 14.2563 42.5312 16.0188 40.7688C17.7812 39.0063 19.9 38.125 22.375 38.125C24.85 38.125 26.9688 39.0063 28.7313 40.7688C30.4938 42.5312 31.375 44.65 31.375 47.125C31.375 49.6 30.4938 51.7188 28.7313 53.4813C26.9688 55.2438 24.85 56.125 22.375 56.125ZM47.125 51.625C48.3625 51.625 49.4219 51.1844 50.3031 50.3031C51.1844 49.4219 51.625 48.3625 51.625 47.125C51.625 45.8875 51.1844 44.8281 50.3031 43.9469C49.4219 43.0656 48.3625 42.625 47.125 42.625C45.8875 42.625 44.8281 43.0656 43.9469 43.9469C43.0656 44.8281 42.625 45.8875 42.625 47.125C42.625 48.3625 43.0656 49.4219 43.9469 50.3031C44.8281 51.1844 45.8875 51.625 47.125 51.625ZM22.375 31.375C19.9 31.375 17.7812 30.4938 16.0188 28.7313C14.2563 26.9688 13.375 24.85 13.375 22.375C13.375 19.9 14.2563 17.7812 16.0188 16.0188C17.7812 14.2563 19.9 13.375 22.375 13.375C24.85 13.375 26.9688 14.2563 28.7313 16.0188C30.4938 17.7812 31.375 19.9 31.375 22.375C31.375 24.85 30.4938 26.9688 28.7313 28.7313C26.9688 30.4938 24.85 31.375 22.375 31.375ZM47.125 31.375C44.65 31.375 42.5312 30.4938 40.7688 28.7313C39.0063 26.9688 38.125 24.85 38.125 22.375C38.125 19.9 39.0063 17.7812 40.7688 16.0188C42.5312 14.2563 44.65 13.375 47.125 13.375C49.6 13.375 51.7188 14.2563 53.4813 16.0188C55.2438 17.7812 56.125 19.9 56.125 22.375C56.125 24.85 55.2438 26.9688 53.4813 28.7313C51.7188 30.4938 49.6 31.375 47.125 31.375Z" fill="#F5F5F5"/>
</g>
</svg>
