<svg width="74" height="74" viewBox="0 0 74 74" fill="none" xmlns="http://www.w3.org/2000/svg">
<path d="M0 8C0 3.58172 3.58172 0 8 0H66C70.4183 0 74 3.58172 74 8V66C74 70.4183 70.4183 74 66 74H8C3.58172 74 0 70.4183 0 66V8Z" fill="#EDA62B"/>
<mask id="mask0_14_258" style="mask-type:alpha" maskUnits="userSpaceOnUse" x="10" y="10" width="54" height="55">
<rect x="10" y="10.3334" width="54" height="54" fill="#D9D9D9"/>
</mask>
<g mask="url(#mask0_14_258)">
<path d="M21.25 57.5834C20.0125 57.5834 18.9531 57.1427 18.0719 56.2615C17.1906 55.3802 16.75 54.3209 16.75 53.0834V30.5834C16.75 29.3459 17.1906 28.2865 18.0719 27.4052C18.9531 26.524 20.0125 26.0834 21.25 26.0834H25.75V21.5834C25.75 20.3459 26.1906 19.2865 27.0719 18.4052C27.9531 17.524 29.0125 17.0834 30.25 17.0834H43.75C44.9875 17.0834 46.0469 17.524 46.9281 18.4052C47.8094 19.2865 48.25 20.3459 48.25 21.5834V35.0834H52.75C53.9875 35.0834 55.0469 35.524 55.9281 36.4053C56.8094 37.2865 57.25 38.3459 57.25 39.5834V53.0834C57.25 54.3209 56.8094 55.3802 55.9281 56.2615C55.0469 57.1427 53.9875 57.5834 52.75 57.5834H39.25V48.5834H34.75V57.5834H21.25ZM21.25 53.0834H25.75V48.5834H21.25V53.0834ZM21.25 44.0834H25.75V39.5834H21.25V44.0834ZM21.25 35.0834H25.75V30.5834H21.25V35.0834ZM30.25 44.0834H34.75V39.5834H30.25V44.0834ZM30.25 35.0834H34.75V30.5834H30.25V35.0834ZM30.25 26.0834H34.75V21.5834H30.25V26.0834ZM39.25 44.0834H43.75V39.5834H39.25V44.0834ZM39.25 35.0834H43.75V30.5834H39.25V35.0834ZM39.25 26.0834H43.75V21.5834H39.25V26.0834ZM48.25 53.0834H52.75V48.5834H48.25V53.0834ZM48.25 44.0834H52.75V39.5834H48.25V44.0834Z" fill="white"/>
</g>
</svg>
