<svg width="96" height="96" viewBox="0 0 96 96" fill="none" xmlns="http://www.w3.org/2000/svg">
<path d="M52.688 8H24C19.6 8 16 11.6 16 16V80C16 84.4 19.6 88 24 88H72C76.4 88 80 84.4 80 80V35.312C80 33.192 79.156 31.156 77.656 29.656L58.344 10.344C56.844 8.844 54.808 8 52.688 8ZM63.692 70.792C62.728 73.064 60.804 74.036 58.56 73.388C56.636 72.74 54.388 71.116 52.144 68.524C49.9 68.848 47.652 69.496 45.408 70.144C42.84 74.684 40.276 78.576 37.708 79.548C37.064 79.872 36.424 80 35.78 80C34.496 80 33.536 79.548 32.892 78.576C32.252 77.604 30.968 75.656 33.532 72.74C35.136 70.792 38.984 68.848 43.156 67.552C44.44 64.956 45.4 62.364 46.364 59.444C44.12 55.228 42.836 50.688 43.156 48.092C43.48 45.492 45.128 44 47.328 44C49.528 44 50.856 45.492 51.5 47.764C52.14 50.36 51.5 54.576 49.896 59.44C50.86 61.388 52.14 63.332 53.424 65.276C57.272 64.952 60.48 64.952 62.408 66.248C64.012 67.224 64.332 68.844 63.692 70.792ZM52 36V14L74 36H52Z" fill="#EB4446"/>
</svg>
