<svg width="25" height="28" viewBox="0 0 25 28" fill="none" xmlns="http://www.w3.org/2000/svg">
<path d="M22.1331 3.33342H16.5598C15.9998 1.78675 14.5331 0.666748 12.7998 0.666748C11.0665 0.666748 9.59981 1.78675 9.03981 3.33342H3.46647C1.9998 3.33342 0.799805 4.53342 0.799805 6.00008V24.6668C0.799805 26.1334 1.9998 27.3334 3.46647 27.3334H22.1331C23.5998 27.3334 24.7998 26.1334 24.7998 24.6668V6.00008C24.7998 4.53342 23.5998 3.33342 22.1331 3.33342ZM12.7998 3.33342C13.5331 3.33342 14.1331 3.93342 14.1331 4.66675C14.1331 5.40008 13.5331 6.00008 12.7998 6.00008C12.0665 6.00008 11.4665 5.40008 11.4665 4.66675C11.4665 3.93342 12.0665 3.33342 12.7998 3.33342ZM15.4665 22.0001H6.13314V19.3334H15.4665V22.0001ZM19.4665 16.6667H6.13314V14.0001H19.4665V16.6667ZM19.4665 11.3334H6.13314V8.66675H19.4665V11.3334Z" fill="white"/>
</svg>
