<svg width="27" height="25" viewBox="0 0 27 25" fill="none" xmlns="http://www.w3.org/2000/svg">
<path fill-rule="evenodd" clip-rule="evenodd" d="M24.168 0.378906H2.83464C1.36797 0.378906 0.167969 1.57891 0.167969 3.04557V21.7122C0.167969 23.1789 1.36797 24.3789 2.83464 24.3789H24.168C25.6346 24.3789 26.8346 23.1789 26.8346 21.7122V3.04557C26.8346 1.57891 25.6346 0.378906 24.168 0.378906ZM24.168 21.7122H2.83464V3.04557H24.168V21.7122Z" fill="#F5F5F5"/>
<path fill-rule="evenodd" clip-rule="evenodd" d="M23.3813 10.2722L21.488 8.37891L17.2613 12.6056L15.3813 10.7122L13.5013 12.5922L17.2613 16.3789L23.3813 10.2722Z" fill="#F5F5F5"/>
<path d="M10.8346 5.71224H4.16797V8.37891H10.8346V5.71224Z" fill="#F5F5F5"/>
<path d="M10.8346 11.0456H4.16797V13.7122H10.8346V11.0456Z" fill="#F5F5F5"/>
<path d="M10.8346 16.3789H4.16797V19.0456H10.8346V16.3789Z" fill="#F5F5F5"/>
</svg>
