<svg width="38" height="35" viewBox="0 0 38 35" fill="none" xmlns="http://www.w3.org/2000/svg">
<path d="M9.40677 22.7034H12.462C12.7089 22.7034 12.9481 22.6571 13.1795 22.5645C13.411 22.4719 13.6193 22.3331 13.8045 22.1479L22.461 13.4451C22.7388 13.1673 22.9471 12.851 23.086 12.4961C23.2248 12.1412 23.2943 11.794 23.2943 11.4545C23.2943 11.1151 23.2248 10.7833 23.086 10.4593C22.9471 10.1352 22.7542 9.83432 22.5073 9.55657L20.7945 7.79748C20.5168 7.51973 20.2082 7.31142 19.8687 7.17254C19.5292 7.03367 19.1743 6.96423 18.804 6.96423C18.4645 6.96423 18.125 7.03367 17.7856 7.17254C17.4461 7.31142 17.1375 7.51973 16.8597 7.79748L8.1106 16.454C7.92544 16.6392 7.78656 16.8475 7.69398 17.079C7.6014 17.3104 7.5551 17.5496 7.5551 17.7965V20.8517C7.5551 21.3764 7.73256 21.8161 8.08746 22.171C8.44236 22.5259 8.88213 22.7034 9.40677 22.7034ZM18.7577 13.2599L16.9986 11.5471L18.804 9.74173L20.5168 11.5008L18.7577 13.2599ZM17.1838 22.7034H27.9234C28.4481 22.7034 28.8878 22.5259 29.2428 22.171C29.5977 21.8161 29.7751 21.3764 29.7751 20.8517C29.7751 20.3271 29.5977 19.8873 29.2428 19.5324C28.8878 19.1775 28.4481 19.0001 27.9234 19.0001H20.8871L17.1838 22.7034ZM7.5551 30.1101L3.29627 34.3689C2.70991 34.9553 2.03868 35.0864 1.28258 34.7624C0.526486 34.4383 0.148438 33.8597 0.148438 33.0264V4.18673C0.148438 3.16832 0.511056 2.29649 1.23629 1.57125C1.96153 0.846017 2.83335 0.483398 3.85177 0.483398H33.4784C34.4969 0.483398 35.3687 0.846017 36.0939 1.57125C36.8192 2.29649 37.1818 3.16832 37.1818 4.18673V26.4067C37.1818 27.4251 36.8192 28.297 36.0939 29.0222C35.3687 29.7474 34.4969 30.1101 33.4784 30.1101H7.5551Z" fill="white"/>
</svg>
