<svg width="46" height="46" viewBox="0 0 46 46" fill="none" xmlns="http://www.w3.org/2000/svg">
<mask id="mask0_1138_6981" style="mask-type:alpha" maskUnits="userSpaceOnUse" x="0" y="0" width="46" height="46">
<rect width="46" height="46" fill="#D9D9D9"/>
</mask>
<g mask="url(#mask0_1138_6981)">
<path d="M3.8335 34.5V24.9167C3.8335 24.0542 4.00919 23.2716 4.36058 22.5688C4.71197 21.866 5.17516 21.2431 5.75016 20.7V15.3334C5.75016 13.7362 6.30919 12.3785 7.42725 11.2605C8.5453 10.1424 9.90294 9.58337 11.5002 9.58337H19.1668C19.9016 9.58337 20.5884 9.71914 21.2272 9.99067C21.8661 10.2622 22.4571 10.6375 23.0002 11.1167C23.5432 10.6375 24.1342 10.2622 24.7731 9.99067C25.412 9.71914 26.0988 9.58337 26.8335 9.58337H34.5002C36.0974 9.58337 37.455 10.1424 38.5731 11.2605C39.6911 12.3785 40.2502 13.7362 40.2502 15.3334V20.7C40.8252 21.2431 41.2884 21.866 41.6397 22.5688C41.9911 23.2716 42.1668 24.0542 42.1668 24.9167V34.5C42.1668 35.0431 41.9831 35.4983 41.6158 35.8657C41.2484 36.233 40.7932 36.4167 40.2502 36.4167C39.7071 36.4167 39.2519 36.233 38.8845 35.8657C38.5172 35.4983 38.3335 35.0431 38.3335 34.5V32.5834H7.66683V34.5C7.66683 35.0431 7.48315 35.4983 7.11579 35.8657C6.74843 36.233 6.29322 36.4167 5.75016 36.4167C5.20711 36.4167 4.7519 36.233 4.38454 35.8657C4.01718 35.4983 3.8335 35.0431 3.8335 34.5ZM24.9168 19.1667H36.4168V15.3334C36.4168 14.7903 36.2331 14.3351 35.8658 13.9677C35.4984 13.6004 35.0432 13.4167 34.5002 13.4167H26.8335C26.2904 13.4167 25.8352 13.6004 25.4679 13.9677C25.1005 14.3351 24.9168 14.7903 24.9168 15.3334V19.1667ZM9.5835 19.1667H21.0835V15.3334C21.0835 14.7903 20.8998 14.3351 20.5325 13.9677C20.1651 13.6004 19.7099 13.4167 19.1668 13.4167H11.5002C10.9571 13.4167 10.5019 13.6004 10.1345 13.9677C9.76718 14.3351 9.5835 14.7903 9.5835 15.3334V19.1667Z" fill="#F5F5F5"/>
</g>
</svg>
