<svg width="46" height="46" viewBox="0 0 46 46" fill="none" xmlns="http://www.w3.org/2000/svg">
<mask id="mask0_1245_8174" style="mask-type:alpha" maskUnits="userSpaceOnUse" x="0" y="0" width="46" height="46">
<rect width="46" height="46" fill="#D9D9D9"/>
</mask>
<g mask="url(#mask0_1245_8174)">
<path d="M19.8377 37.95L20.4127 35.2667C20.5085 34.8514 20.7081 34.508 21.0116 34.2365C21.3151 33.965 21.6904 33.7973 22.1377 33.7334L28.0793 33.2542C28.4946 33.1903 28.8779 33.2702 29.2293 33.4938C29.5807 33.7174 29.8363 34.0209 29.996 34.4042L30.7627 36.225C32.0085 35.4903 33.1266 34.6039 34.1168 33.5657C35.1071 32.5275 35.9377 31.3695 36.6085 30.0917L36.0335 29.8042C35.6821 29.5487 35.4265 29.2372 35.2668 28.8698C35.1071 28.5025 35.0752 28.1112 35.171 27.6959L36.5127 21.85C36.6085 21.4667 36.8082 21.1473 37.1116 20.8917C37.4151 20.6362 37.7585 20.4764 38.1418 20.4125C37.9821 19.6139 37.7825 18.8393 37.5429 18.0886C37.3033 17.3379 36.9918 16.6112 36.6085 15.9084C36.321 16.0681 36.0095 16.14 35.6741 16.124C35.3387 16.108 35.0432 16.0042 34.7877 15.8125L29.7085 12.7459C29.3571 12.5223 29.1016 12.2188 28.9418 11.8355C28.7821 11.4521 28.7502 11.0528 28.846 10.6375L29.2293 9.00837C28.2391 8.56115 27.2248 8.22574 26.1866 8.00212C25.1484 7.77851 24.0863 7.66671 23.0002 7.66671C22.5529 7.66671 22.0897 7.69067 21.6106 7.73858C21.1314 7.7865 20.6682 7.85837 20.221 7.95421L21.6585 11.2125C21.8182 11.5959 21.8581 11.9952 21.7783 12.4105C21.6984 12.8257 21.4988 13.1612 21.1793 13.4167L16.6752 17.3459C16.3557 17.6334 15.9804 17.7931 15.5491 17.825C15.1179 17.857 14.7266 17.7612 14.3752 17.5375L9.96683 14.8542C9.23211 16.0681 8.66509 17.3698 8.26579 18.7594C7.86648 20.149 7.66683 21.5625 7.66683 23C7.66683 23.5112 7.73072 24.3417 7.8585 25.4917L12.0752 25.1084C12.5224 25.0445 12.9297 25.1164 13.297 25.324C13.6644 25.5316 13.9279 25.8431 14.0877 26.2584L16.3877 31.7209C16.5474 32.1042 16.5873 32.5035 16.5075 32.9188C16.4276 33.3341 16.2279 33.6695 15.9085 33.925L14.0877 35.4584C14.9502 36.0973 15.8686 36.6243 16.8429 37.0396C17.8172 37.4549 18.8154 37.7584 19.8377 37.95ZM23.2877 29.7084C22.8724 29.7723 22.4891 29.6924 22.1377 29.4688C21.7863 29.2452 21.5307 28.9417 21.371 28.5584L18.7835 22.6167C18.6238 22.2334 18.5998 21.8341 18.7116 21.4188C18.8234 21.0035 19.0391 20.6681 19.3585 20.4125L24.246 16.2917C24.5335 16.0042 24.8849 15.8445 25.3002 15.8125C25.7154 15.7806 26.0988 15.8764 26.4502 16.1L31.8168 19.2625C32.1682 19.4862 32.4397 19.7896 32.6314 20.173C32.8231 20.5563 32.871 20.9556 32.7752 21.3709L31.2418 27.6C31.146 28.0153 30.9543 28.3587 30.6668 28.6302C30.3793 28.9018 30.0279 29.0695 29.6127 29.1334L23.2877 29.7084ZM23.0002 42.1667C20.3488 42.1667 17.8571 41.6636 15.5252 40.6573C13.1932 39.6511 11.1647 38.2855 9.43975 36.5605C7.71475 34.8355 6.34912 32.807 5.34287 30.475C4.33662 28.1431 3.8335 25.6514 3.8335 23C3.8335 20.3487 4.33662 17.857 5.34287 15.525C6.34912 13.1931 7.71475 11.1646 9.43975 9.43962C11.1647 7.71462 13.1932 6.349 15.5252 5.34275C17.8571 4.3365 20.3488 3.83337 23.0002 3.83337C25.6516 3.83337 28.1432 4.3365 30.4752 5.34275C32.8071 6.349 34.8356 7.71462 36.5606 9.43962C38.2856 11.1646 39.6512 13.1931 40.6575 15.525C41.6637 17.857 42.1668 20.3487 42.1668 23C42.1668 25.6514 41.6637 28.1431 40.6575 30.475C39.6512 32.807 38.2856 34.8355 36.5606 36.5605C34.8356 38.2855 32.8071 39.6511 30.4752 40.6573C28.1432 41.6636 25.6516 42.1667 23.0002 42.1667Z" fill="white"/>
</g>
</svg>
