<svg width="46" height="46" viewBox="0 0 46 46" fill="none" xmlns="http://www.w3.org/2000/svg">
<mask id="mask0_1245_8180" style="mask-type:alpha" maskUnits="userSpaceOnUse" x="0" y="0" width="46" height="46">
<rect width="46" height="46" fill="#D9D9D9"/>
</mask>
<g mask="url(#mask0_1245_8180)">
<path d="M22.8561 42.1667C21.5144 42.1667 20.2127 42.023 18.9509 41.7355C17.6891 41.448 16.5471 41.0806 15.5248 40.6334C14.0554 39.9945 12.8575 39.2198 11.9311 38.3094C11.0047 37.399 10.5415 36.3848 10.5415 35.2667V24.198C10.5415 23.2077 10.9169 22.2973 11.6675 21.4667C12.4182 20.6362 13.3846 19.9014 14.5665 19.2625C15.7804 18.6237 17.1141 18.1285 18.5675 17.7771C20.021 17.4257 21.4984 17.25 22.9998 17.25C24.5012 17.25 25.9787 17.4257 27.4321 17.7771C28.8856 18.1285 30.2193 18.6237 31.4332 19.2625C32.6471 19.9014 33.6214 20.6362 34.3561 21.4667C35.0908 22.2973 35.4582 23.2077 35.4582 24.198V35.2667C35.4582 35.8098 35.3384 36.3368 35.0988 36.848C34.8592 37.3591 34.5158 37.8382 34.0686 38.2855C33.6214 38.7327 33.1023 39.1559 32.5113 39.5552C31.9203 39.9546 31.2575 40.3139 30.5228 40.6334C30.5547 40.4737 30.6026 40.0264 30.6665 39.2917C30.6665 37.4389 30.0116 35.8577 28.7019 34.548C27.3922 33.2382 25.8109 32.5834 23.9582 32.5834C22.5846 32.5834 21.3707 32.9507 20.3165 33.6855C19.2623 34.4202 18.4637 35.3625 17.9207 36.5125C18.9429 36.7681 19.8773 36.9438 20.7238 37.0396C21.5703 37.1355 22.313 37.1834 22.9519 37.1834C23.495 37.1834 23.9342 37.1674 24.2696 37.1355C24.605 37.1035 24.8207 37.0875 24.9165 37.0875V42.0709C24.5651 42.1028 24.2217 42.1268 23.8863 42.1427C23.5509 42.1587 23.2075 42.1667 22.8561 42.1667ZM28.7498 31.625C29.804 31.625 30.7064 31.2497 31.4571 30.499C32.2078 29.7483 32.5832 28.8459 32.5832 27.7917C32.5832 26.7375 32.2078 25.8351 31.4571 25.0844C30.7064 24.3337 29.804 23.9584 28.7498 23.9584C27.6957 23.9584 26.7932 24.3337 26.0425 25.0844C25.2919 25.8351 24.9165 26.7375 24.9165 27.7917C24.9165 28.8459 25.2919 29.7483 26.0425 30.499C26.7932 31.2497 27.6957 31.625 28.7498 31.625ZM22.9998 15.3334C24.5971 15.3334 25.9547 14.7823 27.0728 13.6802C28.1908 12.5782 28.7498 11.2125 28.7498 9.58337C28.7498 7.98615 28.1908 6.62851 27.0728 5.51046C25.9547 4.3924 24.5971 3.83337 22.9998 3.83337C21.3707 3.83337 20.005 4.3924 18.903 5.51046C17.8009 6.62851 17.2498 7.98615 17.2498 9.58337C17.2498 11.2125 17.8009 12.5782 18.903 13.6802C20.005 14.7823 21.3707 15.3334 22.9998 15.3334Z" fill="white"/>
</g>
</svg>
