<svg width="47" height="47" viewBox="0 0 47 47" fill="none" xmlns="http://www.w3.org/2000/svg">
<mask id="mask0_1245_8190" style="mask-type:alpha" maskUnits="userSpaceOnUse" x="0" y="0" width="47" height="47">
<rect x="0.570801" y="0.15918" width="46" height="46" fill="#D9D9D9"/>
</mask>
<g mask="url(#mask0_1245_8190)">
<path d="M2.48747 34.6592C1.94441 34.6592 1.4892 34.4755 1.12184 34.1081C0.754481 33.7408 0.570801 33.2856 0.570801 32.7425V31.6404C0.570801 30.2668 1.27358 29.1488 2.67913 28.2863C4.08469 27.4238 5.93747 26.9925 8.23747 26.9925C8.65275 26.9925 9.05205 27.0005 9.43538 27.0165C9.81872 27.0324 10.1861 27.0724 10.5375 27.1363C10.0902 27.8071 9.75483 28.5099 9.53122 29.2446C9.30761 29.9793 9.1958 30.746 9.1958 31.5446V34.6592H2.48747ZM13.9875 34.6592C13.4444 34.6592 12.9892 34.4755 12.6218 34.1081C12.2545 33.7408 12.0708 33.2856 12.0708 32.7425V31.5446C12.0708 30.5224 12.3503 29.588 12.9093 28.7415C13.4684 27.8949 14.259 27.1522 15.2812 26.5133C16.3034 25.8745 17.5253 25.3953 18.9468 25.0758C20.3684 24.7564 21.9097 24.5967 23.5708 24.5967C25.2639 24.5967 26.8211 24.7564 28.2427 25.0758C29.6642 25.3953 30.8861 25.8745 31.9083 26.5133C32.9305 27.1522 33.7132 27.8949 34.2562 28.7415C34.7993 29.588 35.0708 30.5224 35.0708 31.5446V32.7425C35.0708 33.2856 34.8871 33.7408 34.5198 34.1081C34.1524 34.4755 33.6972 34.6592 33.1541 34.6592H13.9875ZM37.9458 34.6592V31.5446C37.9458 30.714 37.842 29.9314 37.6343 29.1967C37.4267 28.462 37.1152 27.7752 36.7 27.1363C37.0514 27.0724 37.4107 27.0324 37.7781 27.0165C38.1455 27.0005 38.5208 26.9925 38.9041 26.9925C41.2041 26.9925 43.0569 27.4158 44.4625 28.2623C45.868 29.1088 46.5708 30.2349 46.5708 31.6404V32.7425C46.5708 33.2856 46.3871 33.7408 46.0198 34.1081C45.6524 34.4755 45.1972 34.6592 44.6541 34.6592H37.9458ZM8.23747 25.0758C7.1833 25.0758 6.28087 24.7005 5.53018 23.9498C4.77948 23.1991 4.40413 22.2967 4.40413 21.2425C4.40413 20.1564 4.77948 19.246 5.53018 18.5113C6.28087 17.7765 7.1833 17.4092 8.23747 17.4092C9.32358 17.4092 10.234 17.7765 10.9687 18.5113C11.7034 19.246 12.0708 20.1564 12.0708 21.2425C12.0708 22.2967 11.7034 23.1991 10.9687 23.9498C10.234 24.7005 9.32358 25.0758 8.23747 25.0758ZM38.9041 25.0758C37.85 25.0758 36.9475 24.7005 36.1968 23.9498C35.4461 23.1991 35.0708 22.2967 35.0708 21.2425C35.0708 20.1564 35.4461 19.246 36.1968 18.5113C36.9475 17.7765 37.85 17.4092 38.9041 17.4092C39.9902 17.4092 40.9007 17.7765 41.6354 18.5113C42.3701 19.246 42.7375 20.1564 42.7375 21.2425C42.7375 22.2967 42.3701 23.1991 41.6354 23.9498C40.9007 24.7005 39.9902 25.0758 38.9041 25.0758ZM23.5708 23.1592C21.9736 23.1592 20.6159 22.6002 19.4979 21.4821C18.3798 20.364 17.8208 19.0064 17.8208 17.4092C17.8208 15.78 18.3798 14.4144 19.4979 13.3123C20.6159 12.2102 21.9736 11.6592 23.5708 11.6592C25.2 11.6592 26.5656 12.2102 27.6677 13.3123C28.7698 14.4144 29.3208 15.78 29.3208 17.4092C29.3208 19.0064 28.7698 20.364 27.6677 21.4821C26.5656 22.6002 25.2 23.1592 23.5708 23.1592Z" fill="#F5F5F5"/>
</g>
</svg>
