<svg width="28" height="17" viewBox="0 0 28 17" fill="none" xmlns="http://www.w3.org/2000/svg">
<path d="M12.4668 16.3334C10.2446 16.3334 8.35569 15.5556 6.80013 14C5.24457 12.4445 4.4668 10.5556 4.4668 8.33337C4.4668 8.08893 4.47791 7.84449 4.50013 7.60004C4.52235 7.3556 4.55569 7.11115 4.60013 6.86671C4.48902 6.91115 4.35569 6.94449 4.20013 6.96671C4.04457 6.98893 3.91124 7.00004 3.80013 7.00004C2.8668 7.00004 2.07791 6.67782 1.43346 6.03337C0.789019 5.38893 0.466797 4.60004 0.466797 3.66671C0.466797 2.73337 0.772352 1.94449 1.38346 1.30004C1.99457 0.655596 2.7668 0.333374 3.70013 0.333374C4.43346 0.333374 5.09457 0.53893 5.68346 0.950041C6.27235 1.36115 6.68902 1.88893 6.93346 2.53337C7.6668 1.86671 8.50569 1.33337 9.45013 0.933374C10.3946 0.533374 11.4001 0.333374 12.4668 0.333374H25.8001C26.1779 0.333374 26.4946 0.461152 26.7501 0.716707C27.0057 0.972263 27.1335 1.28893 27.1335 1.66671V4.33337C27.1335 4.71115 27.0057 5.02782 26.7501 5.28337C26.4946 5.53893 26.1779 5.66671 25.8001 5.66671H20.4668V8.33337C20.4668 10.5556 19.689 12.4445 18.1335 14C16.5779 15.5556 14.689 16.3334 12.4668 16.3334ZM3.80013 5.00004C4.17791 5.00004 4.49457 4.87226 4.75013 4.61671C5.00569 4.36115 5.13346 4.04449 5.13346 3.66671C5.13346 3.28893 5.00569 2.97226 4.75013 2.71671C4.49457 2.46115 4.17791 2.33337 3.80013 2.33337C3.42235 2.33337 3.10569 2.46115 2.85013 2.71671C2.59457 2.97226 2.4668 3.28893 2.4668 3.66671C2.4668 4.04449 2.59457 4.36115 2.85013 4.61671C3.10569 4.87226 3.42235 5.00004 3.80013 5.00004ZM12.4668 11C13.2001 11 13.8279 10.7389 14.3501 10.2167C14.8724 9.69449 15.1335 9.06671 15.1335 8.33337C15.1335 7.60004 14.8724 6.97226 14.3501 6.45004C13.8279 5.92782 13.2001 5.66671 12.4668 5.66671C11.7335 5.66671 11.1057 5.92782 10.5835 6.45004C10.0612 6.97226 9.80013 7.60004 9.80013 8.33337C9.80013 9.06671 10.0612 9.69449 10.5835 10.2167C11.1057 10.7389 11.7335 11 12.4668 11Z" fill="white"/>
</svg>
