<svg width="99" height="41" viewBox="0 0 99 41" fill="none" xmlns="http://www.w3.org/2000/svg">
<mask id="mask0_2086_3907" style="mask-type:alpha" maskUnits="userSpaceOnUse" x="0" y="0" width="40" height="41">
<rect y="0.0498047" width="40" height="40" fill="#D9D9D9"/>
</mask>
<g mask="url(#mask0_2086_3907)">
<path d="M18.3334 31.7163C15.5556 31.7163 13.1945 30.7441 11.25 28.7996C9.3056 26.8552 8.33337 24.4941 8.33337 21.7163C8.33337 21.4108 8.34726 21.1052 8.37504 20.7996C8.40282 20.4941 8.44449 20.1885 8.50004 19.883C8.36115 19.9385 8.19448 19.9802 8.00004 20.008C7.8056 20.0358 7.63893 20.0496 7.50004 20.0496C6.33337 20.0496 5.34726 19.6469 4.54171 18.8413C3.73615 18.0358 3.33337 17.0496 3.33337 15.883C3.33337 14.7163 3.71532 13.7302 4.47921 12.9246C5.2431 12.1191 6.20837 11.7163 7.37504 11.7163C8.29171 11.7163 9.1181 11.9733 9.85421 12.4871C10.5903 13.001 11.1112 13.6608 11.4167 14.4663C12.3334 13.633 13.382 12.9663 14.5625 12.4663C15.7431 11.9663 17 11.7163 18.3334 11.7163H35C35.4723 11.7163 35.8681 11.876 36.1875 12.1955C36.507 12.5149 36.6667 12.9108 36.6667 13.383V16.7163C36.6667 17.1885 36.507 17.5844 36.1875 17.9038C35.8681 18.2233 35.4723 18.383 35 18.383H28.3334V21.7163C28.3334 24.4941 27.3612 26.8552 25.4167 28.7996C23.4723 30.7441 21.1112 31.7163 18.3334 31.7163ZM7.50004 17.5496C7.97226 17.5496 8.3681 17.3899 8.68754 17.0705C9.00699 16.751 9.16671 16.3552 9.16671 15.883C9.16671 15.4108 9.00699 15.0149 8.68754 14.6955C8.3681 14.376 7.97226 14.2163 7.50004 14.2163C7.02782 14.2163 6.63199 14.376 6.31254 14.6955C5.9931 15.0149 5.83337 15.4108 5.83337 15.883C5.83337 16.3552 5.9931 16.751 6.31254 17.0705C6.63199 17.3899 7.02782 17.5496 7.50004 17.5496ZM18.3334 25.0496C19.25 25.0496 20.0348 24.7233 20.6875 24.0705C21.3403 23.4177 21.6667 22.633 21.6667 21.7163C21.6667 20.7996 21.3403 20.0149 20.6875 19.3621C20.0348 18.7094 19.25 18.383 18.3334 18.383C17.4167 18.383 16.632 18.7094 15.9792 19.3621C15.3264 20.0149 15 20.7996 15 21.7163C15 22.633 15.3264 23.4177 15.9792 24.0705C16.632 24.7233 17.4167 25.0496 18.3334 25.0496Z" fill="white"/>
</g>
<path d="M94.8333 16.0182C94.752 15.2568 94.4091 14.6641 93.8047 14.2398C93.2061 13.8156 92.4273 13.6035 91.4684 13.6035C90.7943 13.6035 90.216 13.7052 89.7337 13.9086C89.2513 14.112 88.8823 14.388 88.6266 14.7367C88.3709 15.0854 88.2401 15.4835 88.2343 15.931C88.2343 16.3029 88.3186 16.6255 88.4871 16.8986C88.6615 17.1718 88.8968 17.4042 89.1932 17.596C89.4896 17.782 89.818 17.9389 90.1783 18.0667C90.5386 18.1946 90.9018 18.3021 91.2679 18.3893L92.9417 18.8077C93.6158 18.9646 94.2638 19.1767 94.8856 19.4441C95.5133 19.7114 96.0741 20.0485 96.5681 20.4553C97.0679 20.8621 97.4631 21.3532 97.7536 21.9285C98.0442 22.5039 98.1895 23.178 98.1895 23.9509C98.1895 24.997 97.9222 25.9182 97.3875 26.7143C96.8528 27.5047 96.0799 28.1236 95.0687 28.5711C94.0633 29.0128 92.8458 29.2337 91.4161 29.2337C90.0272 29.2337 88.8213 29.0186 87.7984 28.5886C86.7814 28.1585 85.9852 27.5309 85.4099 26.7056C84.8403 25.8804 84.5323 24.875 84.4858 23.6894H87.6677C87.7142 24.3113 87.9059 24.8285 88.243 25.2411C88.5801 25.6537 89.0189 25.9617 89.5593 26.1652C90.1056 26.3686 90.7158 26.4703 91.39 26.4703C92.0932 26.4703 92.7092 26.3657 93.2381 26.1564C93.7727 25.9414 94.1912 25.645 94.4934 25.2673C94.7956 24.8837 94.9496 24.4362 94.9554 23.9248C94.9496 23.4599 94.813 23.0763 94.5457 22.7741C94.2783 22.4661 93.9035 22.2104 93.4211 22.007C92.9446 21.7978 92.3867 21.6118 91.7474 21.4491L89.7162 20.926C88.2459 20.5483 87.0836 19.9758 86.2293 19.2087C85.3808 18.4358 84.9566 17.41 84.9566 16.1315C84.9566 15.0796 85.2413 14.1585 85.8109 13.3681C86.3862 12.5777 87.1679 11.9646 88.1558 11.5287C89.1438 11.0871 90.2625 10.8662 91.512 10.8662C92.7789 10.8662 93.8889 11.0871 94.842 11.5287C95.801 11.9646 96.5536 12.5719 97.0998 13.3507C97.6461 14.1236 97.928 15.0128 97.9454 16.0182H94.8333Z" fill="white"/>
<path d="M68.9973 28.9635V11.1104H75.8317C77.1219 11.1104 78.1941 11.3138 79.0484 11.7206C79.9085 12.1216 80.5507 12.6708 80.9749 13.3681C81.405 14.0655 81.62 14.8559 81.62 15.7393C81.62 16.4657 81.4806 17.0875 81.2016 17.6048C80.9226 18.1162 80.5478 18.5317 80.0771 18.8514C79.6063 19.171 79.0804 19.4005 78.4992 19.54V19.7144C79.1327 19.7492 79.74 19.9439 80.3211 20.2984C80.9081 20.6471 81.3876 21.1411 81.7595 21.7804C82.1314 22.4197 82.3174 23.1926 82.3174 24.0992C82.3174 25.0232 82.0937 25.8543 81.6462 26.5924C81.1987 27.3246 80.5246 27.9029 79.6238 28.3271C78.723 28.7514 77.5897 28.9635 76.224 28.9635H68.9973ZM72.2314 26.2611H75.7097C76.8836 26.2611 77.7292 26.0374 78.2464 25.5899C78.7695 25.1366 79.031 24.5554 79.031 23.8464C79.031 23.3175 78.9002 22.841 78.6387 22.4167C78.3772 21.9867 78.0052 21.6496 77.5229 21.4055C77.0405 21.1556 76.4652 21.0307 75.7968 21.0307H72.2314V26.2611ZM72.2314 18.7032H75.4307C75.9886 18.7032 76.4913 18.6015 76.9388 18.3981C77.3863 18.1888 77.7379 17.8954 77.9936 17.5176C78.2551 17.134 78.3859 16.6807 78.3859 16.1577C78.3859 15.4661 78.1418 14.8966 77.6536 14.4491C77.1713 14.0016 76.4535 13.7779 75.5005 13.7779H72.2314V18.7032Z" fill="white"/>
<path d="M48.0386 28.9635L43 11.1104H46.4782L49.6949 24.23H49.8606L53.2952 11.1104H56.4596L59.9029 24.2387H60.0598L63.2765 11.1104H66.7548L61.7161 28.9635H58.5256L54.9515 16.4366H54.812L51.2292 28.9635H48.0386Z" fill="white"/>
</svg>
