<svg width="33" height="32" viewBox="0 0 33 32" fill="none" xmlns="http://www.w3.org/2000/svg">
<path d="M22.1333 14.6666C24.3466 14.6666 26.12 12.88 26.12 10.6666C26.12 8.45329 24.3466 6.66663 22.1333 6.66663C19.92 6.66663 18.1333 8.45329 18.1333 10.6666C18.1333 12.88 19.92 14.6666 22.1333 14.6666ZM11.4666 14.6666C13.68 14.6666 15.4533 12.88 15.4533 10.6666C15.4533 8.45329 13.68 6.66663 11.4666 6.66663C9.2533 6.66663 7.46663 8.45329 7.46663 10.6666C7.46663 12.88 9.2533 14.6666 11.4666 14.6666ZM11.4666 17.3333C8.35997 17.3333 2.1333 18.8933 2.1333 22V25.3333H20.8V22C20.8 18.8933 14.5733 17.3333 11.4666 17.3333ZM22.1333 17.3333C21.7466 17.3333 21.3066 17.36 20.84 17.4C22.3866 18.52 23.4666 20.0266 23.4666 22V25.3333H31.4666V22C31.4666 18.8933 25.24 17.3333 22.1333 17.3333Z" fill="white"/>
</svg>
