<svg width="33" height="32" viewBox="0 0 33 32" fill="none" xmlns="http://www.w3.org/2000/svg">
<path d="M16.8 6C10.1333 6 4.43997 10.1467 2.1333 16C4.43997 21.8533 10.1333 26 16.8 26C23.4666 26 29.16 21.8533 31.4666 16C29.16 10.1467 23.4666 6 16.8 6ZM16.8 22.6667C13.12 22.6667 10.1333 19.68 10.1333 16C10.1333 12.32 13.12 9.33333 16.8 9.33333C20.48 9.33333 23.4666 12.32 23.4666 16C23.4666 19.68 20.48 22.6667 16.8 22.6667ZM16.8 12C14.5866 12 12.8 13.7867 12.8 16C12.8 18.2133 14.5866 20 16.8 20C19.0133 20 20.8 18.2133 20.8 16C20.8 13.7867 19.0133 12 16.8 12Z" fill="white"/>
</svg>
