<svg width="35" height="34" viewBox="0 0 35 34" fill="none" xmlns="http://www.w3.org/2000/svg">
<g clip-path="url(#clip0_1443_9909)">
<path d="M17.3498 18.063C19.6604 18.063 21.7016 18.6158 23.36 19.3387C24.8909 20.0191 25.8548 21.55 25.8548 23.2085V25.5049H8.84484V23.2227C8.84484 21.55 9.80874 20.0191 11.3396 19.3529C12.9981 18.6158 15.0393 18.063 17.3498 18.063ZM6.00984 18.4174C7.56909 18.4174 8.84484 17.1416 8.84484 15.5824C8.84484 14.0231 7.56909 12.7474 6.00984 12.7474C4.45059 12.7474 3.17484 14.0231 3.17484 15.5824C3.17484 17.1416 4.45059 18.4174 6.00984 18.4174ZM7.61162 19.9766C7.08714 19.8916 6.56267 19.8349 6.00984 19.8349C4.60652 19.8349 3.27407 20.1325 2.06919 20.657C1.02024 21.1106 0.339844 22.1312 0.339844 23.2794V25.5049H6.71859V23.2227C6.71859 22.0462 7.04462 20.9405 7.61162 19.9766ZM28.6898 18.4174C30.2491 18.4174 31.5248 17.1416 31.5248 15.5824C31.5248 14.0231 30.2491 12.7474 28.6898 12.7474C27.1306 12.7474 25.8548 14.0231 25.8548 15.5824C25.8548 17.1416 27.1306 18.4174 28.6898 18.4174ZM34.3598 23.2794C34.3598 22.1312 33.6794 21.1106 32.6305 20.657C31.4256 20.1325 30.0932 19.8349 28.6898 19.8349C28.137 19.8349 27.6125 19.8916 27.0881 19.9766C27.6551 20.9405 27.9811 22.0462 27.9811 23.2227V25.5049H34.3598V23.2794ZM17.3498 8.49487C19.7029 8.49487 21.6023 10.3943 21.6023 12.7474C21.6023 15.1004 19.7029 16.9999 17.3498 16.9999C14.9968 16.9999 13.0973 15.1004 13.0973 12.7474C13.0973 10.3943 14.9968 8.49487 17.3498 8.49487Z" fill="white"/>
</g>
<defs>
<clipPath id="clip0_1443_9909">
<rect width="34.02" height="34.02" fill="white" transform="translate(0.339844 -0.0100098)"/>
</clipPath>
</defs>
</svg>
