<svg width="33" height="32" viewBox="0 0 33 32" fill="none" xmlns="http://www.w3.org/2000/svg">
<path d="M16.7995 7.99992V11.9999L22.1328 6.66658L16.7995 1.33325V5.33325C10.9061 5.33325 6.13281 10.1066 6.13281 15.9999C6.13281 18.0933 6.74615 20.0399 7.78615 21.6799L9.73281 19.7333C9.13281 18.6266 8.79948 17.3466 8.79948 15.9999C8.79948 11.5866 12.3861 7.99992 16.7995 7.99992ZM25.8128 10.3199L23.8661 12.2666C24.4528 13.3866 24.7995 14.6533 24.7995 15.9999C24.7995 20.4132 21.2128 23.9999 16.7995 23.9999V19.9999L11.4661 25.3333L16.7995 30.6666V26.6666C22.6928 26.6666 27.4661 21.8933 27.4661 15.9999C27.4661 13.9066 26.8528 11.9599 25.8128 10.3199Z" fill="white"/>
</svg>
