<svg width="33" height="32" viewBox="0 0 33 32" fill="none" xmlns="http://www.w3.org/2000/svg">
<path d="M28.8 11.3334C26.8666 11.3334 25.7866 13.2534 26.2266 14.6801L21.4933 19.4267C21.0933 19.3067 20.5066 19.3067 20.1066 19.4267L16.7066 16.0267C17.16 14.6001 16.08 12.6667 14.1333 12.6667C12.2 12.6667 11.1066 14.5867 11.56 16.0267L5.47997 22.0934C4.0533 21.6534 2.1333 22.7334 2.1333 24.6667C2.1333 26.1334 3.3333 27.3334 4.79997 27.3334C6.7333 27.3334 7.8133 25.4134 7.3733 23.9867L13.44 17.9067C13.84 18.0267 14.4266 18.0267 14.8266 17.9067L18.2266 21.3067C17.7733 22.7334 18.8533 24.6667 20.8 24.6667C22.7333 24.6667 23.8266 22.7467 23.3733 21.3067L28.12 16.5734C29.5466 17.0134 31.4666 15.9334 31.4666 14.0001C31.4666 12.5334 30.2666 11.3334 28.8 11.3334Z" fill="white"/>
<path d="M20.8 12.6667L22.0533 9.90675L24.8 8.66675L22.0533 7.42675L20.8 4.66675L19.5733 7.42675L16.8 8.66675L19.5733 9.90675L20.8 12.6667Z" fill="white"/>
<path d="M5.46663 15.3334L6.1333 12.6667L8.79997 12.0001L6.1333 11.3334L5.46663 8.66675L4.79997 11.3334L2.1333 12.0001L4.79997 12.6667L5.46663 15.3334Z" fill="white"/>
</svg>
