<svg width="271" height="93" viewBox="0 0 271 93" fill="none" xmlns="http://www.w3.org/2000/svg">
<path d="M135.5 45C130.765 45 126.151 44.0778 121.785 42.2593L121.677 42.2141L121.601 42.1262C118.509 38.5684 116.199 34.4988 114.735 30.0305C113.273 25.5617 112.731 20.922 113.125 16.2402L113.135 16.1244L113.195 16.0248C115.65 12.0071 118.837 8.57007 122.667 5.80829C126.497 3.0465 130.777 1.10174 135.386 0.0266151L135.5 0L135.614 0.0266151C140.223 1.10174 144.503 3.0465 148.334 5.80829C152.164 8.57007 155.351 12.0071 157.806 16.0248L157.866 16.1244L157.876 16.2402C158.27 20.922 157.728 25.5617 156.265 30.0299C154.801 34.4982 152.492 38.5678 149.4 42.1256L149.323 42.2135L149.215 42.2586C144.849 44.0771 140.235 44.9994 135.5 44.9994V45Z" fill="white"/>
<path d="M157.378 16.2817C155.857 13.7916 152.958 9.75476 148.04 6.20876C143.121 2.66276 138.357 1.17479 135.5 0.508789C132.643 1.17479 127.879 2.66338 122.96 6.20876C118.042 9.75476 115.143 13.791 113.622 16.2817C113.377 19.1839 113.332 24.1399 115.21 29.877C117.089 35.6142 120.062 39.5971 121.979 41.8025C124.685 42.9296 129.421 44.5048 135.5 44.5048C141.579 44.5048 146.316 42.9296 149.022 41.8025C150.938 39.5971 153.911 35.6142 155.79 29.877C157.669 24.1399 157.623 19.1833 157.378 16.2817Z" fill="#0192D5"/>
<path d="M125.274 40.2823C125.422 40.0038 125.594 39.4752 125.661 39.261L125.662 39.2555L125.669 39.2425V39.2394L125.682 39.2159V39.1874C125.8 38.7591 125.863 38.0714 125.868 37.143C126.992 36.9758 128 36.3631 128.735 35.9156L128.741 35.9119C129.023 35.7404 129.265 35.5931 129.461 35.5033C130.134 35.1939 130.867 35.0373 131.639 35.0373C132.155 35.0373 132.696 35.1072 133.248 35.2452L133.45 34.8015C132.949 34.4586 132.508 34.0438 132.105 33.6465L131.971 33.514L131.807 33.6062C131.047 34.0327 128.952 34.9054 127.317 35.0899C127.01 35.1245 126.712 35.1419 126.431 35.1419C124.565 35.1419 123.285 34.3645 122.626 32.8307V32.822L122.562 32.6958L122.488 32.6586C121.513 32.1734 121.052 30.8995 121.021 30.3252L121.015 30.2218L120.937 30.1531C120.234 29.5317 120.059 28.3179 120.161 27.6927L120.165 27.6729V27.5708L120.115 27.5046C119.723 26.9803 119.709 26.219 119.74 25.6143L119.746 25.488L119.647 25.4088C119.051 24.931 118.779 24.0025 118.936 22.9856C119.173 21.453 119.925 20.3402 120.588 19.3585L120.664 19.2458C120.883 18.9234 121.148 18.5322 121.4 18.0673C121.334 18.5928 121.208 19.1747 121.021 19.6828C120.669 20.6372 120.506 21.3565 120.494 22.0144C120.478 22.8599 121.034 23.7772 122.315 23.9208C122.459 23.9369 122.605 23.9456 122.747 23.9456C123.713 23.9456 124.519 23.5686 125.374 23.1694L125.38 23.1663C126.175 22.7943 127.077 22.3728 128.199 22.249H128.207L128.215 22.2465L128.229 22.2453C128.305 22.2373 128.383 22.2335 128.46 22.2335C129.048 22.2335 129.622 22.4613 130.035 22.8587C130.446 23.253 130.648 23.7642 130.608 24.299C130.573 24.7434 130.474 25.1222 130.394 25.4274L130.384 25.4639C130.368 25.5295 130.351 25.592 130.337 25.652C130.173 26.3279 130.104 26.9277 130.927 27.4093L131.218 27.5795L131.296 27.2533C131.408 26.786 131.665 25.8482 132.131 24.8171L132.163 24.7459L132.148 24.6691C132.005 23.9344 130.734 17.4348 130.305 15.3792C129.834 13.1175 128.874 11.8016 128.344 11.5893C128.33 11.5838 128.317 11.5788 128.304 11.5732C128.311 11.5683 128.318 11.5633 128.325 11.5584C128.484 11.4451 128.607 11.3659 128.749 11.2743L128.864 11.2C129.303 10.9134 129.759 10.617 130.263 10.617C130.303 10.617 130.345 10.6188 130.386 10.6225C130.706 10.6522 130.983 10.7661 131.206 10.9605L131.55 11.2607L131.617 10.8107C131.658 10.5334 131.758 10.3211 131.914 10.18C132.153 9.96334 132.539 9.86555 132.88 9.77951C133.188 9.70091 133.392 9.64272 133.628 9.4886C133.645 9.47746 133.662 9.46632 133.677 9.45456L133.831 10.162L134.153 9.57402C134.197 9.49294 134.242 9.42547 134.334 9.33882C134.467 9.21317 134.647 9.11166 134.869 9.03677C135.028 8.98292 135.184 8.89007 135.332 8.76071C135.39 8.70996 135.446 8.65487 135.498 8.59607C135.55 8.65425 135.605 8.70934 135.663 8.76009C135.812 8.89007 135.968 8.98292 136.127 9.03677C136.349 9.11166 136.529 9.21317 136.663 9.33944C136.752 9.42423 136.799 9.49232 136.844 9.57526L137.166 10.1577L137.319 9.45518C137.334 9.46694 137.351 9.47808 137.368 9.48922C137.606 9.64396 137.809 9.70214 138.116 9.78013C138.457 9.86617 138.844 9.96396 139.082 10.1806C139.238 10.3217 139.338 10.534 139.379 10.8113L139.446 11.2613L139.791 10.9611C140.014 10.7667 140.291 10.6529 140.611 10.6232C140.652 10.6194 140.693 10.6176 140.734 10.6176C141.237 10.6176 141.672 10.9011 142.132 11.2006L142.252 11.278C142.393 11.369 142.514 11.4476 142.671 11.559C142.678 11.564 142.685 11.5689 142.692 11.5739C142.679 11.5788 142.665 11.5844 142.651 11.5893C142.121 11.8016 141.162 13.1175 140.69 15.3792C140.311 17.1977 139.274 22.4811 138.846 24.6685L138.832 24.7453L138.864 24.8171C139.33 25.847 139.587 26.786 139.699 27.2539L139.777 27.5801L140.068 27.4099C140.891 26.9289 140.823 26.3286 140.659 25.6514C140.644 25.592 140.627 25.5276 140.61 25.4602L140.602 25.4286C140.522 25.1234 140.422 24.7446 140.388 24.2996C140.347 23.7655 140.55 23.2542 140.96 22.8599C141.373 22.4626 141.947 22.2348 142.535 22.2348C142.612 22.2348 142.69 22.2385 142.766 22.2465H142.778L142.786 22.249L142.797 22.2503C143.918 22.374 144.82 22.7956 145.615 23.1675L145.622 23.1706C146.476 23.5699 147.282 23.9468 148.248 23.9468C148.391 23.9468 148.536 23.9388 148.68 23.9221C149.96 23.7785 150.517 22.8612 150.501 22.0157C150.489 21.3602 150.326 20.641 149.974 19.6841C149.786 19.1753 149.661 18.5935 149.595 18.0686C149.846 18.5322 150.111 18.9227 150.329 19.2452L150.406 19.3597C151.069 20.342 151.821 21.4549 152.059 22.9868C152.215 23.9994 151.946 24.9241 151.356 25.4032L151.345 25.4106L151.249 25.506L151.255 25.6161C151.286 26.2209 151.271 26.9822 150.879 27.5064L150.83 27.572V27.6742L150.833 27.6946C150.936 28.3197 150.76 29.5335 150.057 30.1549L149.979 30.2236L149.973 30.327C149.943 30.9014 149.482 32.1752 148.507 32.6605L148.369 32.7292V32.8319C147.71 34.3657 146.43 35.1431 144.564 35.1431C144.283 35.1431 143.985 35.1258 143.678 35.0911C142.043 34.9067 139.947 34.0339 139.188 33.6075L139.024 33.5153L138.89 33.6477C138.486 34.0457 138.044 34.461 137.545 34.8033L137.747 35.2471C138.299 35.1091 138.84 35.0391 139.356 35.0391C140.128 35.0391 140.861 35.1957 141.532 35.5052C141.731 35.5962 141.976 35.7454 142.26 35.918C142.996 36.3662 144.004 36.9789 145.127 37.1461C145.132 38.0578 145.196 38.7628 145.312 39.1886V39.2152L145.33 39.248C145.367 39.3663 145.559 39.9778 145.721 40.2848C143.955 40.2415 143.21 39.807 142.35 39.3037C142.35 39.3037 142.152 39.1886 142.106 39.1626C141.945 39.0698 141.796 38.9788 141.645 38.8859C140.874 38.4149 140.211 38.0089 138.868 38.0089C137.986 38.0089 137.332 38.3184 136.861 38.5888C136.795 38.6266 136.728 38.6662 136.662 38.7052L136.61 38.7362C136.214 38.972 135.842 39.193 135.494 39.193C135.146 39.193 134.775 38.9714 134.381 38.7374L134.315 38.6984C134.253 38.6619 134.191 38.6247 134.128 38.5895C133.658 38.3196 133.004 38.0101 132.122 38.0101C130.779 38.0101 130.115 38.4162 129.346 38.8866C129.194 38.9794 129.045 39.0704 128.884 39.1639C128.823 39.1985 128.762 39.2338 128.703 39.2685L128.642 39.3044C127.779 39.8082 127.035 40.2427 125.269 40.286L125.274 40.2823Z" fill="white"/>
<path d="M152.309 23.0295C152.063 21.4444 151.295 20.3061 150.617 19.3022C150.247 18.7538 149.681 17.9553 149.32 16.9124C149.235 17.5233 149.363 18.8188 149.743 19.8493C150.029 20.6292 150.241 21.3868 150.255 22.1005C150.268 22.7801 149.857 23.6212 148.655 23.7562C147.556 23.88 146.71 23.4838 145.729 23.0252C144.915 22.6445 143.992 22.2125 142.827 22.0837C142.817 22.0819 142.806 22.0807 142.796 22.08C142.062 22.0039 141.312 22.2583 140.79 22.7615C140.325 23.2078 140.095 23.789 140.142 24.398C140.178 24.8604 140.281 25.2534 140.364 25.5697C140.384 25.6465 140.403 25.7195 140.419 25.7882C140.576 26.4344 140.622 26.8794 139.945 27.2756C139.831 26.7983 139.571 25.847 139.095 24.7948C139.448 22.9905 140.546 17.3859 140.938 15.5086C141.402 13.2816 142.337 12.0622 142.748 11.8982C143.114 11.7521 143.341 11.7639 143.341 11.7639C143.341 11.7639 143.026 11.5832 142.819 11.4365C142.613 11.2898 142.464 11.1969 142.272 11.0719C141.761 10.7389 141.233 10.3954 140.591 10.4548C140.164 10.4944 139.853 10.6584 139.629 10.8534C139.587 10.5718 139.482 10.2833 139.253 10.076C138.969 9.81851 138.55 9.71205 138.18 9.61858C137.9 9.5474 137.717 9.49665 137.507 9.36048C137.297 9.22369 137.181 9.00396 137.181 9.00396L137.066 9.53502C137.013 9.43909 136.953 9.3481 136.837 9.23854C136.66 9.07204 136.441 8.95939 136.21 8.88141C136.076 8.83622 135.946 8.75452 135.831 8.65363C135.698 8.53727 135.583 8.39553 135.5 8.25378C135.418 8.39553 135.303 8.53788 135.169 8.65363C135.054 8.75452 134.924 8.83622 134.79 8.88141C134.559 8.95939 134.34 9.07204 134.164 9.23854C134.048 9.3481 133.987 9.43909 133.935 9.53502L133.82 9.00396C133.82 9.00396 133.703 9.22369 133.493 9.36048C133.284 9.49665 133.1 9.5474 132.82 9.61858C132.45 9.71205 132.031 9.81851 131.747 10.076C131.518 10.2833 131.414 10.5718 131.372 10.8534C131.148 10.6584 130.837 10.4944 130.41 10.4548C129.768 10.3954 129.239 10.7389 128.728 11.0719C128.536 11.1969 128.387 11.2898 128.181 11.4365C127.975 11.5832 127.659 11.7639 127.659 11.7639C127.659 11.7639 127.886 11.7521 128.252 11.8982C128.663 12.0622 129.599 13.2816 130.063 15.5086C130.454 17.3859 131.553 22.9918 131.905 24.7954C131.43 25.8476 131.17 26.7983 131.056 27.2756C130.378 26.8794 130.425 26.4344 130.582 25.7882C130.598 25.7195 130.617 25.6465 130.637 25.5697C130.72 25.2534 130.822 24.8604 130.859 24.398C130.905 23.789 130.676 23.2078 130.211 22.7615C129.688 22.2583 128.939 22.0039 128.205 22.08C128.194 22.0807 128.184 22.0819 128.173 22.0837C127.009 22.2125 126.086 22.6445 125.272 23.0252C124.291 23.4838 123.444 23.88 122.345 23.7562C121.144 23.6212 120.733 22.7801 120.746 22.1005C120.76 21.3868 120.971 20.6292 121.258 19.8493C121.638 18.8188 121.765 17.5233 121.68 16.9124C121.319 17.9553 120.753 18.7538 120.384 19.3022C119.706 20.3061 118.938 21.4444 118.692 23.0295C118.519 24.1474 118.825 25.1476 119.493 25.683C119.456 26.3948 119.494 27.1685 119.917 27.7336C119.794 28.4807 120.018 29.752 120.773 30.4192C120.81 31.1094 121.346 32.4482 122.378 32.9613C123.177 34.872 124.848 35.6977 127.346 35.4161C129.02 35.2273 131.152 34.3397 131.931 33.9021C132.313 34.2797 132.775 34.7197 133.31 35.0855C132.172 34.8008 130.76 34.7142 129.358 35.3591C129.147 35.4557 128.896 35.6086 128.605 35.7856C127.888 36.222 126.905 36.8199 125.832 36.9796L125.621 37.0111L125.62 37.2228C125.614 38.1376 125.55 38.8327 125.434 39.2332C125.434 39.2332 125.434 39.235 125.433 39.2363C125.432 39.2381 125.432 39.24 125.431 39.2431C125.43 39.2456 125.429 39.2493 125.428 39.253C125.426 39.2573 125.425 39.2629 125.423 39.2691C125.378 39.4121 125.2 39.9728 125.053 40.2489L124.857 40.6221L125.281 40.6116C127.113 40.5664 127.883 40.1164 128.774 39.5959C128.853 39.5501 128.932 39.503 129.015 39.456C129.179 39.3613 129.333 39.2672 129.483 39.1756C130.249 38.7064 130.855 38.3357 132.128 38.3357C132.95 38.3357 133.566 38.6278 134.01 38.8822C134.093 38.9299 134.176 38.9794 134.257 39.0277C134.682 39.2802 135.083 39.5191 135.5 39.5191C135.917 39.5191 136.318 39.2802 136.743 39.0277C136.824 38.9794 136.907 38.9299 136.991 38.8822C137.435 38.6278 138.05 38.3357 138.873 38.3357C140.145 38.3357 140.751 38.7064 141.518 39.1756C141.667 39.2672 141.821 39.3613 141.986 39.456C142.068 39.503 142.148 39.5501 142.227 39.5959C143.118 40.1164 143.888 40.5664 145.72 40.6116L146.143 40.6221L145.947 40.2489C145.785 39.9419 145.582 39.2833 145.568 39.2363C145.568 39.235 145.567 39.2338 145.567 39.2338C145.45 38.8327 145.386 38.1376 145.381 37.2228L145.38 37.0111L145.168 36.9796C144.095 36.8199 143.113 36.222 142.395 35.7856C142.104 35.6086 141.853 35.4557 141.642 35.3591C140.241 34.7142 138.83 34.8008 137.691 35.0855C138.225 34.7191 138.687 34.2797 139.07 33.9021C139.849 34.3397 141.981 35.2273 143.655 35.4161C146.153 35.6977 147.824 34.872 148.623 32.9613C149.655 32.4482 150.19 31.11 150.227 30.4199C150.982 29.7526 151.206 28.4813 151.083 27.7348C151.506 27.1691 151.544 26.3954 151.507 25.6836C152.175 25.1482 152.481 24.148 152.308 23.0301L152.309 23.0295ZM139.222 26.5402C138.999 26.3323 138.764 26.1509 138.533 25.9727C138.276 25.7752 138.034 25.5883 137.822 25.3747C137.345 24.8957 136.859 24.2309 136.859 22.9391V22.335C137.302 22.8339 137.995 23.6838 138.445 24.5868C138.797 25.2955 139.051 25.9894 139.222 26.5402ZM134.611 19.7701C134.611 19.7701 134.609 19.767 134.608 19.7651C134.601 19.7552 134.595 19.7459 134.589 19.736C134.587 19.7342 134.586 19.7323 134.584 19.7305C134.438 19.5033 134.341 19.2731 134.341 19.028C134.341 18.3378 134.764 17.9076 135.212 17.4521C135.309 17.3537 135.406 17.2546 135.5 17.1525C135.594 17.2546 135.692 17.3537 135.788 17.4521C136.236 17.9076 136.66 18.3378 136.66 19.028C136.66 19.2731 136.563 19.5033 136.416 19.7305C136.415 19.7323 136.414 19.7342 136.412 19.736C136.406 19.7459 136.399 19.7552 136.393 19.7651C136.392 19.767 136.391 19.7689 136.39 19.7701C136.247 19.9805 136.063 20.1885 135.874 20.4014C135.747 20.5456 135.618 20.6911 135.5 20.8415C135.382 20.6911 135.253 20.5456 135.126 20.4014C134.937 20.1885 134.753 19.9805 134.611 19.7701ZM130.551 15.4083C130.237 13.9005 129.7 12.1544 128.842 11.59C128.896 11.5553 128.95 11.52 129.002 11.486C129.481 11.174 129.895 10.9042 130.363 10.9481C131.19 11.0249 131.407 11.7633 131.415 11.7936H131.416C131.462 11.8115 131.907 14.4322 132.132 16.2129C132.182 16.6128 132.271 17.3716 132.334 17.8817C132.469 17.7684 132.623 17.6489 132.793 17.5288C132.735 17.0529 132.668 16.4803 132.627 16.1517C132.404 14.3808 132.192 12.7028 131.943 11.8184C131.888 11.6252 131.853 11.4272 131.851 11.2266C131.847 10.9425 131.894 10.6139 132.084 10.4418C132.276 10.2679 132.615 10.1812 132.944 10.0983C133.145 10.0469 133.341 9.99738 133.51 9.9262L133.634 10.4994C133.654 10.5928 133.669 10.6875 133.676 10.7828C133.74 11.5615 133.973 14.5808 134.059 16.8548C134.218 16.796 134.382 16.744 134.553 16.7025C134.455 14.2447 134.198 11.0119 134.161 10.5947C134.165 10.5216 134.192 10.0853 134.385 9.7498C134.455 9.62911 134.708 9.43413 134.96 9.34686C135.151 9.28063 135.336 9.16551 135.5 9.02129C135.665 9.16551 135.849 9.28063 136.041 9.34686C136.292 9.43413 136.545 9.62911 136.615 9.7498C136.808 10.0853 136.836 10.5216 136.839 10.5947C136.802 11.0119 136.545 14.2447 136.448 16.7025C136.618 16.744 136.783 16.796 136.942 16.8548C137.027 14.5808 137.26 11.5615 137.324 10.7828C137.332 10.6875 137.346 10.5928 137.366 10.4994L137.491 9.9262C137.66 9.99738 137.855 10.0469 138.057 10.0983C138.385 10.1812 138.725 10.2679 138.916 10.4418C139.107 10.6139 139.153 10.9425 139.15 11.2266C139.147 11.4272 139.112 11.6252 139.057 11.8184C138.808 12.7028 138.596 14.3808 138.374 16.1517C138.333 16.4803 138.265 17.0529 138.207 17.5288C138.378 17.6489 138.532 17.7684 138.666 17.8817C138.73 17.3716 138.819 16.6128 138.869 16.2129C139.094 14.4322 139.539 11.8115 139.584 11.7936H139.585C139.594 11.7633 139.81 11.0249 140.637 10.9481C141.105 10.9042 141.519 11.174 141.998 11.486C142.051 11.52 142.104 11.5553 142.158 11.59C141.3 12.1544 140.763 13.9005 140.449 15.4083C140.095 17.103 139.168 21.8244 138.731 24.0619C138.076 22.8865 137.131 21.8826 136.859 21.6047V19.9613C137.038 19.6779 137.159 19.3727 137.159 19.028C137.159 18.136 136.62 17.5889 136.145 17.1061C136.029 16.9885 135.918 16.8752 135.817 16.7613C135.692 16.6221 135.584 16.4816 135.501 16.3305C135.417 16.4816 135.308 16.6221 135.183 16.762C135.082 16.8758 134.97 16.9885 134.855 17.1061C134.38 17.5889 133.842 18.136 133.842 19.028C133.842 19.3727 133.963 19.6779 134.142 19.9613V21.6041C133.871 21.8807 132.925 22.8847 132.27 24.0607C131.832 21.8225 130.905 17.1024 130.551 15.4083ZM132.555 24.5868C133.006 23.6838 133.699 22.8333 134.142 22.3344V22.9391C134.142 24.2309 133.656 24.8957 133.179 25.3747C132.967 25.5883 132.725 25.7752 132.468 25.9727C132.236 26.1515 132.001 26.3329 131.777 26.5409C131.95 25.99 132.202 25.2955 132.555 24.5868ZM127.29 34.924C125.2 35.1604 123.801 34.5879 123.033 33.1773C123.837 33.3543 124.848 33.363 125.031 33.363H125.058L125.235 33.3618C125.223 33.3475 125.212 33.3327 125.202 33.3178C125.097 33.1754 124.995 33.0238 124.895 32.8666C124.464 32.8592 123.276 32.814 122.672 32.5515C121.96 32.2414 121.484 31.3737 121.327 30.7522C122.085 31.066 123.215 31.1793 123.78 31.1793C123.83 31.1793 123.875 31.1787 123.915 31.1768L123.978 31.1744C123.901 31.0066 123.828 30.8426 123.76 30.6841C123.151 30.6804 121.863 30.5282 121.279 30.1778C121.241 30.1556 121.206 30.132 121.175 30.1079C121.156 30.093 121.136 30.077 121.118 30.0602C120.599 29.6146 120.399 28.7895 120.387 28.1935C121.02 28.6682 121.954 28.9449 123.128 29.0006L123.212 29.0043C123.179 28.8502 123.145 28.6818 123.112 28.5042C122.244 28.4584 121.111 28.2609 120.457 27.5974C120.427 27.5689 120.399 27.5386 120.372 27.507C120.356 27.4879 120.339 27.4674 120.324 27.447C120.039 27.0719 119.975 26.5359 119.981 26.0011C120.835 26.4851 121.687 26.6368 122.861 26.7228C122.846 26.5514 122.835 26.3843 122.829 26.2246C121.663 26.1348 120.843 25.972 120.007 25.4373C119.968 25.4125 119.929 25.3865 119.89 25.3599C119.872 25.3475 119.855 25.3351 119.837 25.3215C119.294 24.9105 119.039 24.0502 119.185 23.105C119.414 21.6282 120.149 20.5388 120.798 19.5776C120.813 19.5547 120.828 19.5324 120.844 19.5095C120.823 19.572 120.803 19.6352 120.783 19.6977C120.527 20.4875 120.263 21.3045 120.247 22.0906C120.228 23.0481 120.853 24.0867 122.289 24.2482C123.529 24.3875 124.479 23.9437 125.485 23.4733C126.277 23.1026 127.095 22.72 128.129 22.5876C128.573 23.04 128.867 23.4752 128.771 24.4717C128.713 25.0795 128.42 25.769 128.137 26.4363C127.916 26.9549 127.688 27.4922 127.564 28.0034C127.295 29.1114 127.34 30.8426 128.354 32.0737C129.31 33.2349 130.342 33.6316 131.088 33.7672C130.147 34.1955 128.576 34.7785 127.29 34.924ZM135.459 32.2842H135.503C135.516 32.2835 135.529 32.2835 135.541 32.2842C135.658 32.2885 135.771 32.3231 135.831 32.3529C135.861 32.7193 136.019 33.592 136.418 34.1095C136.362 34.5712 135.847 34.872 135.5 34.872C135.153 34.872 134.639 34.5712 134.582 34.1095C134.982 33.592 135.139 32.7193 135.169 32.3529C135.229 32.3231 135.342 32.2885 135.459 32.2842ZM135.448 35.9106C135.406 35.8902 135.363 35.8673 135.314 35.8438C135.375 35.8475 135.438 35.8493 135.5 35.8493C135.563 35.8493 135.625 35.8475 135.687 35.8438C135.637 35.8673 135.594 35.8902 135.552 35.9106C135.534 35.9199 135.516 35.9286 135.499 35.9366C135.483 35.9286 135.465 35.9199 135.447 35.9106H135.448ZM126.116 37.4326C127.203 37.2197 128.158 36.6385 128.866 36.2077C129.144 36.0387 129.383 35.8933 129.568 35.8079C131.944 34.7154 134.412 35.9478 135.223 36.3532C135.232 36.3575 135.242 36.3625 135.251 36.3668V37.8312C134.48 37.4172 133.643 37.0068 132.868 36.9307C131.405 36.7871 130.526 36.9585 129.251 37.6357C129.014 37.7613 128.785 37.8956 128.563 38.0256C127.796 38.475 127.067 38.9014 125.991 39.0289C126.077 38.5486 126.108 37.9433 126.116 37.4326ZM142.48 39.1694C142.4 39.123 142.319 39.0753 142.236 39.0277C142.077 38.9367 141.926 38.8439 141.78 38.7541C141.012 38.2843 140.287 37.8405 138.873 37.8405C137.932 37.8405 137.239 38.168 136.741 38.4533C136.655 38.5022 136.57 38.5529 136.486 38.6031C136.123 38.8197 135.779 39.024 135.5 39.024C135.221 39.024 134.877 38.8197 134.514 38.6031C134.43 38.5529 134.345 38.5022 134.259 38.4533C133.761 38.168 133.069 37.8405 132.128 37.8405C130.713 37.8405 129.988 38.2843 129.221 38.7541C129.075 38.8439 128.923 38.9367 128.765 39.0277C128.682 39.0753 128.601 39.123 128.521 39.1694C127.725 39.6343 127.083 40.0093 125.663 40.0991C125.742 39.8948 125.814 39.6819 125.86 39.5402H125.86C127.147 39.43 127.995 38.933 128.817 38.4521C129.034 38.3245 129.259 38.1933 129.486 38.072C130.675 37.4407 131.454 37.2897 132.819 37.4233C133.576 37.4976 134.458 37.9643 135.251 38.3957C135.287 38.4149 135.323 38.4347 135.359 38.4545L135.5 38.5313L135.642 38.4545C135.677 38.4353 135.713 38.4155 135.75 38.3957C136.542 37.9643 137.424 37.4982 138.182 37.4233C139.547 37.2897 140.325 37.4407 141.514 38.072C141.742 38.1933 141.967 38.3245 142.184 38.4521C143.005 38.933 143.853 39.43 145.14 39.5402H145.141C145.187 39.6819 145.258 39.8948 145.337 40.0991C143.917 40.0093 143.275 39.6343 142.48 39.1694ZM141.433 35.8079C141.617 35.8933 141.857 36.0387 142.134 36.2077C142.843 36.6385 143.797 37.2197 144.884 37.4326C144.893 37.9433 144.924 38.5486 145.009 39.0289C143.933 38.9014 143.205 38.475 142.437 38.0256C142.216 37.8956 141.987 37.7613 141.75 37.6357C140.474 36.9585 139.595 36.7871 138.132 36.9307C137.358 37.0068 136.52 37.4172 135.75 37.8312V36.3668C135.759 36.3625 135.768 36.3575 135.777 36.3532C136.588 35.9478 139.056 34.7154 141.433 35.8079ZM138.856 33.4144C137.892 34.3707 136.928 35.2347 135.75 35.343V35.3399C136.302 35.2242 136.922 34.7457 136.922 34.0271V33.9331L136.859 33.8625C136.485 33.4447 136.325 32.4878 136.325 32.2414V32.1796L136.295 32.1245C136.249 32.0378 136.166 31.9703 136.069 31.919C135.956 31.8595 135.859 31.8342 135.753 31.8131C135.626 31.7877 135.529 31.7865 135.5 31.7865C135.471 31.7865 135.375 31.7877 135.248 31.8131C135.141 31.8342 135.045 31.8602 134.932 31.919C134.834 31.9697 134.752 32.0372 134.705 32.1245L134.676 32.1796V32.2414C134.676 32.4878 134.515 33.4447 134.141 33.8625L134.079 33.9331V34.0271C134.079 34.7457 134.699 35.2242 135.251 35.3399V35.3424C134.073 35.2341 133.108 34.37 132.145 33.4144L132.106 33.376L132.072 33.3426C132.054 33.3419 132.023 33.3419 131.968 33.3419C131.945 33.3419 131.92 33.3419 131.893 33.3413C131.355 33.337 129.981 33.2664 128.74 31.7605C127.842 30.6699 127.806 29.117 128.049 28.1192C128.164 27.6475 128.384 27.1295 128.597 26.6281C128.894 25.9275 129.202 25.2021 129.269 24.5193C129.358 23.5853 129.13 23.027 128.793 22.5888C129.194 22.6538 129.574 22.837 129.864 23.1168C130.22 23.4591 130.396 23.9004 130.361 24.3603C130.328 24.7787 130.232 25.1482 130.154 25.4453C130.133 25.5258 130.113 25.6013 130.096 25.6725C129.905 26.4616 129.827 27.2811 131.122 27.8648C131.124 27.866 131.126 27.8673 131.128 27.8679L131.343 27.9645L131.452 27.7565C131.452 27.7565 131.455 27.7515 131.456 27.7497C131.784 27.1258 132.288 26.7389 132.774 26.3638C133.032 26.1651 133.299 25.959 133.535 25.722C134.05 25.2039 134.641 24.4185 134.641 22.9391V20.6038C134.677 20.6453 134.714 20.6868 134.751 20.7282C134.916 20.9152 135.078 21.0971 135.207 21.2785C135.374 21.5131 135.488 21.7458 135.488 21.9847C135.488 22.0107 135.493 22.0361 135.5 22.0602C135.508 22.0361 135.512 22.0107 135.512 21.9847C135.512 21.7464 135.626 21.5137 135.794 21.2791C135.922 21.0978 136.084 20.9152 136.25 20.7282C136.287 20.6868 136.323 20.6453 136.36 20.6038V22.9391C136.36 24.4185 136.951 25.2039 137.466 25.722C137.701 25.959 137.968 26.1651 138.227 26.3638C138.713 26.7389 139.216 27.1258 139.545 27.7497C139.546 27.7515 139.547 27.754 139.548 27.7565L139.657 27.9645L139.858 27.8741C139.868 27.8704 139.876 27.8667 139.884 27.8623C141.173 27.2787 141.095 26.4604 140.904 25.6725C140.888 25.6013 140.868 25.5258 140.846 25.4453C140.769 25.1482 140.672 24.7787 140.64 24.3603C140.604 23.9004 140.781 23.4591 141.136 23.1168C141.427 22.837 141.806 22.6538 142.208 22.5888C141.871 23.027 141.642 23.5853 141.732 24.5193C141.798 25.2021 142.106 25.9275 142.404 26.6281C142.617 27.1295 142.837 27.6475 142.952 28.1192C143.194 29.117 143.159 30.6699 142.26 31.7605C141.02 33.2664 139.646 33.337 139.107 33.3413C139.08 33.3419 139.056 33.3419 139.032 33.3419C138.978 33.3419 138.947 33.3419 138.929 33.3426L138.895 33.376L138.856 33.4144ZM149.883 30.0602C149.864 30.077 149.845 30.093 149.826 30.1079C149.794 30.132 149.759 30.1556 149.722 30.1778C149.137 30.5282 147.849 30.6804 147.241 30.6841C147.173 30.8426 147.1 31.0066 147.022 31.1744L147.085 31.1768C147.126 31.1787 147.171 31.1793 147.221 31.1793C147.785 31.1793 148.915 31.066 149.674 30.7522C149.517 31.3737 149.041 32.2414 148.328 32.5515C147.725 32.814 146.536 32.8592 146.106 32.8666C146.006 33.0238 145.903 33.1754 145.799 33.3178C145.788 33.3327 145.777 33.3475 145.765 33.3618L145.943 33.363H145.969C146.153 33.363 147.163 33.3543 147.967 33.1773C147.2 34.5879 145.801 35.1604 143.711 34.924C142.424 34.7785 140.853 34.1955 139.913 33.7672C140.659 33.6316 141.69 33.2349 142.647 32.0737C143.661 30.8426 143.706 29.1114 143.437 28.0034C143.313 27.4922 143.084 26.9549 142.864 26.4363C142.58 25.769 142.288 25.0795 142.229 24.4717C142.133 23.4752 142.428 23.04 142.872 22.5876C143.906 22.72 144.724 23.1026 145.516 23.4733C146.522 23.9437 147.472 24.3875 148.711 24.2482C150.148 24.0867 150.772 23.0481 150.754 22.0906C150.738 21.3045 150.474 20.4875 150.218 19.6977C150.197 19.6352 150.177 19.572 150.157 19.5095C150.172 19.5324 150.187 19.5547 150.203 19.5776C150.852 20.5388 151.587 21.6282 151.815 23.105C151.962 24.0502 151.707 24.9105 151.164 25.3215C151.146 25.3351 151.129 25.3475 151.11 25.3599C151.071 25.3865 151.033 25.4125 150.993 25.4373C150.158 25.972 149.338 26.1348 148.172 26.2246C148.166 26.3843 148.154 26.5514 148.139 26.7228C149.314 26.6368 150.165 26.4851 151.019 26.0011C151.026 26.5359 150.961 27.0719 150.676 27.447C150.661 27.4674 150.645 27.4879 150.628 27.507C150.601 27.5386 150.573 27.5689 150.544 27.5974C149.89 28.2609 148.757 28.4584 147.889 28.5042C147.856 28.6818 147.821 28.8502 147.788 29.0043L147.872 29.0006C149.046 28.9449 149.981 28.6682 150.614 28.1935C150.602 28.7895 150.401 29.6146 149.883 30.0602Z" fill="black"/>
<path d="M137.321 27.2477C137.223 27.1047 137.116 26.9531 137.003 26.7921L136.904 26.6523C136.332 25.8377 136.172 25.5066 135.972 24.7682C135.963 24.7391 135.956 24.71 135.948 24.6809L135.858 24.2526C135.825 24.057 135.808 24.0186 135.731 23.8181C135.66 23.6336 135.541 23.4702 135.499 23.0982C135.458 23.4702 135.339 23.6336 135.268 23.8181C135.191 24.0186 135.174 24.057 135.141 24.2526L135.051 24.6809C135.043 24.71 135.035 24.7397 135.027 24.7682C134.826 25.5066 134.668 25.8377 134.095 26.6523L133.996 26.7921C133.883 26.9531 133.775 27.1047 133.678 27.2477C133.156 28.0146 132.924 28.7759 133.016 29.5923C133.145 30.7547 134.342 31.3941 134.39 31.4195H134.392L134.395 31.4157C134.398 31.4114 134.403 31.4052 134.41 31.3966C134.965 30.7021 136.035 30.7021 136.59 31.3966C136.597 31.4052 136.602 31.4114 136.605 31.4157L136.608 31.4201H136.609C136.657 31.3941 137.854 30.7547 137.984 29.5923C138.076 28.7759 137.844 28.0152 137.321 27.2477H137.321Z" fill="#FAD407"/>
<path d="M137.207 26.4994C136.905 26.0408 136.697 25.8507 136.383 25.2466C135.979 24.4668 135.834 23.8348 135.783 23.5847C135.698 23.1676 135.671 22.8067 135.665 22.5381C135.46 22.7789 135.143 23.2196 134.979 23.8497C134.879 24.2328 134.866 24.5714 134.877 24.8214C134.853 24.8004 134.822 24.7769 134.781 24.7558C134.703 24.7162 134.631 24.7081 134.587 24.7063C134.605 25.2417 134.485 25.631 134.39 25.8613C134.293 26.0971 134.182 26.2753 134.036 26.4963C133.89 26.7167 133.572 27.0979 133.445 27.2836C132.923 28.0511 132.663 28.701 132.765 29.6183C132.911 30.92 134.219 31.6095 134.274 31.6386L134.465 31.7358C135.007 30.8872 135.992 30.8897 136.531 31.7358L136.722 31.6386C136.778 31.6095 138.086 30.92 138.232 29.6183C138.371 28.3755 137.635 27.1499 137.207 26.4988L137.207 26.4994ZM137.736 29.5639C137.647 30.3617 136.973 30.8928 136.656 31.1007C136.045 30.4768 135.037 30.405 134.342 31.1007C134.025 30.8928 133.351 30.3617 133.262 29.5639C133.176 28.7957 133.346 28.329 133.77 27.629C133.891 27.4285 134.18 27.0577 134.399 26.6938C134.668 26.2463 134.748 26.0253 134.929 25.6756C135.043 26.2679 135.382 26.9228 135.564 27.8141C135.79 28.922 134.984 29.5434 135.227 29.8913C135.376 29.4277 136.091 28.6744 135.992 27.668C135.929 27.0175 135.445 26.2234 135.31 25.4948C135.158 24.6809 135.312 24.1201 135.448 23.8911C135.577 24.7236 136.249 25.9064 136.829 26.7303C137.552 27.759 137.848 28.5748 137.738 29.5632L137.736 29.5639Z" fill="black"/>
<path d="M120.486 14.0435L122.837 15.0524L122.634 15.5191L120.283 14.5102L120.035 15.0778L119.6 14.8909L120.297 13.2927L120.732 13.4796L120.486 14.0435H120.486Z" fill="black"/>
<path d="M123.734 13.5057C123.615 13.6963 123.486 13.8263 123.348 13.8962C123.209 13.9662 123.051 13.9798 122.873 13.939C122.695 13.8975 122.482 13.8009 122.236 13.6493L120.629 12.6602L120.899 12.2282L122.547 13.242C122.653 13.3076 122.751 13.3571 122.841 13.3906C122.93 13.424 123.014 13.4327 123.093 13.4172C123.173 13.4017 123.24 13.3503 123.294 13.2631C123.34 13.1894 123.363 13.1207 123.362 13.0569C123.361 12.9932 123.33 12.9263 123.268 12.8552C123.207 12.7846 123.107 12.7066 122.968 12.6212L121.296 11.5925L121.566 11.1605L123.265 12.2059C123.582 12.4009 123.777 12.6045 123.852 12.8174C123.927 13.0303 123.888 13.26 123.734 13.5063L123.734 13.5057Z" fill="black"/>
<path d="M123.083 10.029L125.04 11.6692L124.709 12.0579L122.752 10.4177L122.35 10.89L121.988 10.5861L123.12 9.25531L123.482 9.5586L123.083 10.0284V10.029Z" fill="black"/>
<path d="M127.77 9.28255L126.089 7.7661L126.997 9.83466L126.555 10.1497L124.355 8.00874L124.774 7.70978L126.254 9.19528L125.379 7.27775L125.856 6.9367L127.395 8.36711L126.465 6.5022L126.877 6.20819L128.212 8.96688L127.77 9.28193V9.28255Z" fill="black"/>
<path d="M129.716 8.26743C129.511 8.36152 129.331 8.39989 129.177 8.38256C129.022 8.36523 128.882 8.29034 128.757 8.1585C128.631 8.02666 128.507 7.83045 128.386 7.56925L127.592 5.86588L128.058 5.65234L128.871 7.39842C128.924 7.51169 128.978 7.60639 129.034 7.68252C129.09 7.75865 129.155 7.81188 129.23 7.84283C129.305 7.87316 129.39 7.86697 129.484 7.82426C129.563 7.78774 129.62 7.74318 129.655 7.68933C129.689 7.63548 129.701 7.56244 129.688 7.47022C129.676 7.37737 129.636 7.25792 129.568 7.11122L128.742 5.33915L129.207 5.12561L130.046 6.92554C130.202 7.26101 130.253 7.5383 130.197 7.75679C130.142 7.97529 129.981 8.1455 129.716 8.26743Z" fill="black"/>
<path d="M131.982 5.16648C132.037 5.35897 132.041 5.53352 131.995 5.6895C131.949 5.84547 131.849 5.97917 131.696 6.09058C131.741 6.09367 131.786 6.1042 131.83 6.12215C131.875 6.1401 131.93 6.17909 131.996 6.23789C132.062 6.29731 132.138 6.38458 132.226 6.50095L132.775 7.18428L132.218 7.34025L131.721 6.72996C131.602 6.58822 131.512 6.48733 131.451 6.42853C131.389 6.36973 131.34 6.33507 131.301 6.32393C131.263 6.3134 131.217 6.31588 131.162 6.33073L131.051 6.3623L131.395 7.5705L130.902 7.70915L130.076 4.80996L130.915 4.57475C131.203 4.49429 131.433 4.50543 131.607 4.60942C131.781 4.71278 131.906 4.89847 131.982 5.16648ZM131.487 5.33298C131.449 5.19866 131.386 5.11201 131.298 5.07301C131.21 5.03402 131.096 5.03464 130.956 5.07425L130.704 5.14481L130.926 5.92408L131.137 5.86466C131.298 5.81948 131.406 5.75263 131.461 5.66474C131.517 5.57684 131.525 5.46605 131.487 5.33298Z" fill="black"/>
<path d="M133.047 7.1762L132.57 4.20088L133.075 4.12103L133.553 7.09636L133.047 7.1762Z" fill="black"/>
<path d="M136.339 6.98372L136.383 5.65048L135.635 5.62634L135.591 6.95958L135.079 6.94286L135.179 3.93164L135.691 3.94835L135.652 5.13984L136.4 5.16398L136.439 3.97249L136.951 3.9892L136.851 7.00043L136.339 6.98372Z" fill="black"/>
<path d="M137.844 6.5498L137.607 7.11181L137.086 7.0134L138.414 4.19714L138.961 4.30051L139.147 7.40272L138.623 7.30369L138.613 6.69525L137.845 6.55042L137.844 6.5498ZM138.582 4.79815L138.041 6.08496L138.606 6.19142L138.582 4.79815Z" fill="black"/>
<path d="M140.574 7.90599L140.461 5.76935L140.458 5.76811L139.809 7.63303L139.369 7.47581L140.397 4.64099L140.889 4.81677L140.974 6.86304L140.977 6.86428L141.625 5.07921L142.074 5.23952L141.046 8.07434L140.574 7.90599H140.574Z" fill="black"/>
<path d="M143.869 7.76362C143.681 8.10033 143.505 8.35472 143.34 8.52741C143.176 8.7001 143.006 8.80037 142.831 8.82884C142.655 8.85731 142.461 8.81213 142.247 8.69453L141.457 8.26002L142.929 5.62512L143.685 6.04106C143.903 6.16114 144.05 6.30412 144.125 6.47062C144.2 6.63712 144.214 6.8259 144.168 7.03696C144.122 7.24803 144.022 7.49004 143.87 7.76362H143.869ZM142.137 8.09166L142.382 8.2266C142.528 8.30706 142.657 8.32811 142.767 8.29035C142.877 8.25259 142.975 8.1777 143.058 8.06629C143.142 7.95487 143.243 7.79395 143.361 7.58288C143.504 7.32663 143.595 7.12609 143.635 6.98188C143.675 6.83766 143.672 6.72377 143.627 6.64021C143.582 6.55665 143.492 6.47804 143.358 6.40377L143.145 6.28679L142.137 8.09166Z" fill="black"/>
<path d="M144.034 9.11664L143.567 9.51153L143.147 9.19029L145.613 7.27277L146.054 7.6101L144.808 10.461L144.387 10.1385L144.654 9.59076L144.035 9.11726L144.034 9.11664ZM145.49 7.88368L144.421 8.78921L144.876 9.13768L145.49 7.88368Z" fill="black"/>
<path d="M146.63 9.7486L146.84 9.64895L147.811 9.20639L148.227 9.61924L146.421 10.2995L145.52 11.1926L145.16 10.8355L146.062 9.94233L146.749 8.15045L147.171 8.57011L146.729 9.54249L146.63 9.74922V9.7486Z" fill="black"/>
<path d="M146.774 11.6983L146.22 11.9608L145.897 11.543L148.777 10.3187L149.116 10.7569L147.174 13.1943L146.849 12.7747L147.25 12.3129L146.774 11.6977V11.6983ZM148.499 10.8782L147.232 11.4811L147.582 11.9335L148.499 10.8782H148.499Z" fill="black"/>
<path d="M147.904 14.5127L149.251 12.8415L149.249 12.8384L147.515 13.804L147.291 13.3961L149.958 11.9558L150.208 12.412L148.9 13.9965L148.902 13.9996L150.582 13.0928L150.81 13.5088L148.143 14.9491L147.904 14.5121V14.5127Z" fill="black"/>
<path d="M148.314 15.3959L151.133 14.2756L151.323 14.7479L148.504 15.8682L148.314 15.3959Z" fill="black"/>
<path d="M62.1498 69V56.6364H64.7638V62.0877H64.9268L69.376 56.6364H72.5091L67.9211 62.1722L72.5635 69H69.4363L66.0496 63.9169L64.7638 65.4865V69H62.1498ZM77.3674 69.1811C76.4135 69.1811 75.5925 68.9879 74.9043 68.6016C74.2201 68.2112 73.6929 67.6598 73.3226 66.9474C72.9524 66.2311 72.7672 65.3839 72.7672 64.4059C72.7672 63.4521 72.9524 62.6149 73.3226 61.8945C73.6929 61.1741 74.2141 60.6127 74.8862 60.2102C75.5623 59.8078 76.3552 59.6065 77.2647 59.6065C77.8765 59.6065 78.446 59.7051 78.9732 59.9023C79.5044 60.0955 79.9673 60.3873 80.3617 60.7777C80.7601 61.1681 81.07 61.6591 81.2914 62.2507C81.5127 62.8383 81.6234 63.5265 81.6234 64.3153V65.0217H73.7935V63.4279H79.2026C79.2026 63.0576 79.1221 62.7296 78.9611 62.4439C78.8001 62.1581 78.5768 61.9348 78.291 61.7738C78.0093 61.6088 77.6813 61.5263 77.307 61.5263C76.9166 61.5263 76.5705 61.6168 76.2686 61.7979C75.9708 61.975 75.7374 62.2145 75.5684 62.5163C75.3993 62.8142 75.3128 63.1462 75.3088 63.5124V65.0277C75.3088 65.4865 75.3933 65.8829 75.5623 66.217C75.7354 66.551 75.9789 66.8086 76.2928 66.9897C76.6067 67.1708 76.979 67.2614 77.4096 67.2614C77.6954 67.2614 77.957 67.2211 78.1944 67.1406C78.4319 67.0601 78.6351 66.9394 78.8042 66.7784C78.9732 66.6174 79.102 66.4202 79.1905 66.1868L81.5691 66.3438C81.4483 66.9152 81.2008 67.4143 80.8265 67.8409C80.4563 68.2635 79.9773 68.5935 79.3897 68.831C78.8062 69.0644 78.132 69.1811 77.3674 69.1811ZM83.3017 69V59.7273H85.7527V61.3633H85.8613C86.0545 60.82 86.3765 60.3913 86.8272 60.0774C87.278 59.7635 87.8173 59.6065 88.4451 59.6065C89.081 59.6065 89.6223 59.7655 90.0691 60.0835C90.5158 60.3974 90.8136 60.824 90.9625 61.3633H91.0591C91.2483 60.832 91.5904 60.4074 92.0854 60.0895C92.5845 59.7675 93.1741 59.6065 93.8542 59.6065C94.7195 59.6065 95.4218 59.8822 95.9611 60.4336C96.5044 60.9809 96.7761 61.7577 96.7761 62.7638V69H94.2104V63.271C94.2104 62.7558 94.0736 62.3694 93.7999 62.1119C93.5262 61.8543 93.1841 61.7255 92.7736 61.7255C92.3068 61.7255 91.9425 61.8744 91.6809 62.1722C91.4193 62.466 91.2885 62.8544 91.2885 63.3374V69H88.7953V63.2166C88.7953 62.7618 88.6645 62.3996 88.4029 62.13C88.1453 61.8603 87.8052 61.7255 87.3826 61.7255C87.0969 61.7255 86.8393 61.7979 86.6099 61.9428C86.3845 62.0837 86.2054 62.2829 86.0726 62.5405C85.9398 62.794 85.8734 63.0919 85.8734 63.4339V69H83.3017ZM103.033 69.1811C102.08 69.1811 101.259 68.9879 100.57 68.6016C99.8861 68.2112 99.3589 67.6598 98.9886 66.9474C98.6184 66.2311 98.4332 65.3839 98.4332 64.4059C98.4332 63.4521 98.6184 62.6149 98.9886 61.8945C99.3589 61.1741 99.8801 60.6127 100.552 60.2102C101.228 59.8078 102.021 59.6065 102.931 59.6065C103.542 59.6065 104.112 59.7051 104.639 59.9023C105.17 60.0955 105.633 60.3873 106.028 60.7777C106.426 61.1681 106.736 61.6591 106.957 62.2507C107.179 62.8383 107.289 63.5265 107.289 64.3153V65.0217H99.4595V63.4279H104.869C104.869 63.0576 104.788 62.7296 104.627 62.4439C104.466 62.1581 104.243 61.9348 103.957 61.7738C103.675 61.6088 103.347 61.5263 102.973 61.5263C102.583 61.5263 102.237 61.6168 101.935 61.7979C101.637 61.975 101.403 62.2145 101.234 62.5163C101.065 62.8142 100.979 63.1462 100.975 63.5124V65.0277C100.975 65.4865 101.059 65.8829 101.228 66.217C101.401 66.551 101.645 66.8086 101.959 66.9897C102.273 67.1708 102.645 67.2614 103.076 67.2614C103.361 67.2614 103.623 67.2211 103.86 67.1406C104.098 67.0601 104.301 66.9394 104.47 66.7784C104.639 66.6174 104.768 66.4202 104.857 66.1868L107.235 66.3438C107.114 66.9152 106.867 67.4143 106.493 67.8409C106.122 68.2635 105.643 68.5935 105.056 68.831C104.472 69.0644 103.798 69.1811 103.033 69.1811ZM111.539 63.6392V69H108.968V59.7273H111.419V61.3633H111.527C111.733 60.824 112.077 60.3974 112.56 60.0835C113.043 59.7655 113.628 59.6065 114.316 59.6065C114.96 59.6065 115.522 59.7474 116.001 60.0291C116.48 60.3108 116.852 60.7133 117.118 61.2365C117.383 61.7557 117.516 62.3755 117.516 63.0959V69H114.944V63.5547C114.948 62.9872 114.803 62.5445 114.51 62.2266C114.216 61.9046 113.811 61.7436 113.296 61.7436C112.95 61.7436 112.644 61.8181 112.379 61.967C112.117 62.1159 111.912 62.3332 111.763 62.619C111.618 62.9007 111.543 63.2408 111.539 63.6392ZM122.96 69.1509C122.255 69.1509 121.618 68.9698 121.046 68.6076C120.479 68.2414 120.028 67.7041 119.694 66.9957C119.364 66.2834 119.199 65.41 119.199 64.3757C119.199 63.3132 119.37 62.4298 119.712 61.7255C120.054 61.0172 120.509 60.4879 121.076 60.1378C121.648 59.7836 122.274 59.6065 122.954 59.6065C123.473 59.6065 123.906 59.6951 124.252 59.8722C124.602 60.0452 124.884 60.2625 125.097 60.5241C125.314 60.7817 125.479 61.0353 125.592 61.2848H125.67V56.6364H128.236V69H125.701V67.5149H125.592C125.471 67.7725 125.3 68.0281 125.079 68.2816C124.861 68.5311 124.578 68.7384 124.228 68.9034C123.881 69.0684 123.459 69.1509 122.96 69.1509ZM123.775 67.1044C124.189 67.1044 124.539 66.9917 124.825 66.7663C125.115 66.5369 125.336 66.217 125.489 65.8065C125.646 65.396 125.725 64.915 125.725 64.3636C125.725 63.8123 125.648 63.3333 125.495 62.9268C125.342 62.5204 125.121 62.2064 124.831 61.9851C124.541 61.7637 124.189 61.6531 123.775 61.6531C123.352 61.6531 122.996 61.7678 122.706 61.9972C122.416 62.2266 122.197 62.5445 122.048 62.951C121.899 63.3575 121.825 63.8284 121.825 64.3636C121.825 64.9029 121.899 65.3799 122.048 65.7944C122.201 66.2049 122.42 66.5269 122.706 66.7603C122.996 66.9897 123.352 67.1044 123.775 67.1044ZM130.35 69V59.7273H132.922V69H130.35ZM131.642 58.532C131.26 58.532 130.932 58.4052 130.658 58.1516C130.389 57.8941 130.254 57.5862 130.254 57.228C130.254 56.8738 130.389 56.57 130.658 56.3164C130.932 56.0588 131.26 55.93 131.642 55.93C132.025 55.93 132.351 56.0588 132.62 56.3164C132.894 56.57 133.031 56.8738 133.031 57.228C133.031 57.5862 132.894 57.8941 132.62 58.1516C132.351 58.4052 132.025 58.532 131.642 58.532ZM137.313 66.3317L137.319 63.2468H137.693L140.663 59.7273H143.615L139.625 64.3878H139.015L137.313 66.3317ZM134.982 69V56.6364H137.554V69H134.982ZM140.778 69L138.049 64.9613L139.764 63.1442L143.79 69H140.778ZM147.912 69.1509C147.208 69.1509 146.57 68.9698 145.998 68.6076C145.431 68.2414 144.98 67.7041 144.646 66.9957C144.316 66.2834 144.151 65.41 144.151 64.3757C144.151 63.3132 144.322 62.4298 144.664 61.7255C145.006 61.0172 145.461 60.4879 146.028 60.1378C146.6 59.7836 147.226 59.6065 147.906 59.6065C148.425 59.6065 148.858 59.6951 149.204 59.8722C149.554 60.0452 149.836 60.2625 150.049 60.5241C150.266 60.7817 150.431 61.0353 150.544 61.2848H150.623V56.6364H153.188V69H150.653V67.5149H150.544C150.423 67.7725 150.252 68.0281 150.031 68.2816C149.814 68.5311 149.53 68.7384 149.18 68.9034C148.834 69.0684 148.411 69.1509 147.912 69.1509ZM148.727 67.1044C149.141 67.1044 149.492 66.9917 149.777 66.7663C150.067 66.5369 150.288 66.217 150.441 65.8065C150.598 65.396 150.677 64.915 150.677 64.3636C150.677 63.8123 150.6 63.3333 150.447 62.9268C150.295 62.5204 150.073 62.2064 149.783 61.9851C149.494 61.7637 149.141 61.6531 148.727 61.6531C148.304 61.6531 147.948 61.7678 147.658 61.9972C147.369 62.2266 147.149 62.5445 147 62.951C146.851 63.3575 146.777 63.8284 146.777 64.3636C146.777 64.9029 146.851 65.3799 147 65.7944C147.153 66.2049 147.373 66.5269 147.658 66.7603C147.948 66.9897 148.304 67.1044 148.727 67.1044ZM157.947 69.1751C157.355 69.1751 156.828 69.0724 156.365 68.8672C155.902 68.6579 155.536 68.35 155.266 67.9435C155.001 67.533 154.868 67.0219 154.868 66.4102C154.868 65.895 154.963 65.4624 155.152 65.1122C155.341 64.7621 155.598 64.4804 155.924 64.267C156.25 64.0537 156.621 63.8928 157.035 63.7841C157.454 63.6754 157.892 63.599 158.351 63.5547C158.891 63.4983 159.325 63.446 159.655 63.3977C159.985 63.3454 160.225 63.2689 160.374 63.1683C160.523 63.0677 160.597 62.9188 160.597 62.7216V62.6854C160.597 62.303 160.476 62.0072 160.235 61.7979C159.997 61.5887 159.659 61.484 159.221 61.484C158.758 61.484 158.39 61.5866 158.116 61.7919C157.842 61.9931 157.661 62.2467 157.573 62.5526L155.194 62.3594C155.315 61.7959 155.552 61.3089 155.906 60.8984C156.261 60.4839 156.717 60.166 157.277 59.9446C157.84 59.7192 158.492 59.6065 159.233 59.6065C159.748 59.6065 160.241 59.6669 160.712 59.7876C161.187 59.9084 161.607 60.0955 161.973 60.3491C162.344 60.6026 162.636 60.9286 162.849 61.3271C163.062 61.7215 163.169 62.1944 163.169 62.7457V69H160.73V67.7141H160.657C160.508 68.0039 160.309 68.2595 160.06 68.4808C159.81 68.6982 159.51 68.8692 159.16 68.994C158.81 69.1147 158.406 69.1751 157.947 69.1751ZM158.683 67.4002C159.062 67.4002 159.396 67.3258 159.685 67.1768C159.975 67.0239 160.203 66.8187 160.368 66.5611C160.533 66.3035 160.615 66.0117 160.615 65.6857V64.7017C160.535 64.754 160.424 64.8023 160.283 64.8466C160.146 64.8868 159.991 64.9251 159.818 64.9613C159.645 64.9935 159.472 65.0237 159.299 65.0518C159.126 65.076 158.969 65.0981 158.828 65.1183C158.526 65.1625 158.263 65.233 158.037 65.3295C157.812 65.4261 157.637 65.5569 157.512 65.7219C157.387 65.8829 157.325 66.0842 157.325 66.3256C157.325 66.6758 157.452 66.9434 157.705 67.1286C157.963 67.3097 158.289 67.4002 158.683 67.4002ZM172.879 62.3714L170.525 62.5163C170.485 62.3151 170.398 62.134 170.265 61.973C170.132 61.808 169.957 61.6772 169.74 61.5806C169.527 61.48 169.271 61.4297 168.973 61.4297C168.575 61.4297 168.239 61.5142 167.965 61.6832C167.691 61.8482 167.555 62.0696 167.555 62.3473C167.555 62.5687 167.643 62.7558 167.82 62.9087C167.997 63.0617 168.301 63.1844 168.732 63.277L170.41 63.6151C171.312 63.8002 171.984 64.098 172.426 64.5085C172.869 64.919 173.09 65.4583 173.09 66.1264C173.09 66.7341 172.911 67.2674 172.553 67.7262C172.199 68.185 171.712 68.5432 171.092 68.8008C170.476 69.0543 169.766 69.1811 168.961 69.1811C167.734 69.1811 166.756 68.9255 166.027 68.4144C165.303 67.8993 164.878 67.199 164.753 66.3136L167.283 66.1808C167.359 66.555 167.545 66.8408 167.838 67.038C168.132 67.2312 168.508 67.3278 168.967 67.3278C169.418 67.3278 169.78 67.2412 170.054 67.0682C170.332 66.8911 170.472 66.6637 170.476 66.386C170.472 66.1526 170.374 65.9614 170.181 65.8125C169.987 65.6596 169.69 65.5429 169.287 65.4624L167.681 65.1424C166.776 64.9613 166.102 64.6474 165.659 64.2006C165.22 63.7539 165.001 63.1844 165.001 62.4922C165.001 61.8965 165.162 61.3834 165.484 60.9528C165.81 60.5221 166.267 60.1901 166.854 59.9567C167.446 59.7232 168.138 59.6065 168.931 59.6065C170.102 59.6065 171.024 59.854 171.696 60.3491C172.372 60.8441 172.766 61.5182 172.879 62.3714ZM174.71 69V59.7273H177.161V61.3633H177.27C177.463 60.82 177.785 60.3913 178.235 60.0774C178.686 59.7635 179.225 59.6065 179.853 59.6065C180.489 59.6065 181.031 59.7655 181.477 60.0835C181.924 60.3974 182.222 60.824 182.371 61.3633H182.467C182.656 60.832 182.999 60.4074 183.494 60.0895C183.993 59.7675 184.582 59.6065 185.262 59.6065C186.128 59.6065 186.83 59.8822 187.369 60.4336C187.913 60.9809 188.184 61.7577 188.184 62.7638V69H185.619V63.271C185.619 62.7558 185.482 62.3694 185.208 62.1119C184.934 61.8543 184.592 61.7255 184.182 61.7255C183.715 61.7255 183.351 61.8744 183.089 62.1722C182.828 62.466 182.697 62.8544 182.697 63.3374V69H180.203V63.2166C180.203 62.7618 180.073 62.3996 179.811 62.13C179.554 61.8603 179.213 61.7255 178.791 61.7255C178.505 61.7255 178.248 61.7979 178.018 61.9428C177.793 62.0837 177.614 62.2829 177.481 62.5405C177.348 62.794 177.282 63.0919 177.282 63.4339V69H174.71ZM194.442 69.1811C193.488 69.1811 192.667 68.9879 191.979 68.6016C191.294 68.2112 190.767 67.6598 190.397 66.9474C190.027 66.2311 189.841 65.3839 189.841 64.4059C189.841 63.4521 190.027 62.6149 190.397 61.8945C190.767 61.1741 191.288 60.6127 191.96 60.2102C192.637 59.8078 193.429 59.6065 194.339 59.6065C194.951 59.6065 195.52 59.7051 196.047 59.9023C196.579 60.0955 197.041 60.3873 197.436 60.7777C197.834 61.1681 198.144 61.6591 198.366 62.2507C198.587 62.8383 198.698 63.5265 198.698 64.3153V65.0217H190.868V63.4279H196.277C196.277 63.0576 196.196 62.7296 196.035 62.4439C195.874 62.1581 195.651 61.9348 195.365 61.7738C195.084 61.6088 194.756 61.5263 194.381 61.5263C193.991 61.5263 193.645 61.6168 193.343 61.7979C193.045 61.975 192.812 62.2145 192.643 62.5163C192.474 62.8142 192.387 63.1462 192.383 63.5124V65.0277C192.383 65.4865 192.468 65.8829 192.637 66.217C192.81 66.551 193.053 66.8086 193.367 66.9897C193.681 67.1708 194.053 67.2614 194.484 67.2614C194.77 67.2614 195.031 67.2211 195.269 67.1406C195.506 67.0601 195.709 66.9394 195.878 66.7784C196.047 66.6174 196.176 66.4202 196.265 66.1868L198.643 66.3438C198.523 66.9152 198.275 67.4143 197.901 67.8409C197.53 68.2635 197.052 68.5935 196.464 68.831C195.88 69.0644 195.206 69.1811 194.442 69.1811ZM202.948 63.6392V69H200.376V59.7273H202.827V61.3633H202.936C203.141 60.824 203.485 60.3974 203.968 60.0835C204.451 59.7655 205.036 59.6065 205.725 59.6065C206.369 59.6065 206.93 59.7474 207.409 60.0291C207.888 60.3108 208.26 60.7133 208.526 61.2365C208.791 61.7557 208.924 62.3755 208.924 63.0959V69H206.352V63.5547C206.356 62.9872 206.212 62.5445 205.918 62.2266C205.624 61.9046 205.22 61.7436 204.704 61.7436C204.358 61.7436 204.052 61.8181 203.787 61.967C203.525 62.1159 203.32 62.3332 203.171 62.619C203.026 62.9007 202.952 63.2408 202.948 63.6392Z" fill="#2F3031"/>
<path d="M1.19713 89V76.6364H6.14742C7.05698 76.6364 7.81562 76.7712 8.42334 77.0408C9.03106 77.3105 9.48785 77.6848 9.79372 78.1637C10.0996 78.6386 10.2525 79.186 10.2525 79.8058C10.2525 80.2887 10.1559 80.7133 9.96276 81.0795C9.76958 81.4418 9.50395 81.7396 9.16588 81.973C8.83184 82.2024 8.4495 82.3654 8.01887 82.462V82.5827C8.48975 82.6029 8.93044 82.7357 9.34095 82.9812C9.75549 83.2267 10.0915 83.5708 10.3491 84.0135C10.6067 84.4522 10.7355 84.9754 10.7355 85.5831C10.7355 86.2391 10.5725 86.8247 10.2465 87.3398C9.92452 87.851 9.44761 88.2554 8.81574 88.5533C8.18388 88.8511 7.40511 89 6.47945 89H1.19713ZM3.81112 86.8629H5.94216C6.67062 86.8629 7.20187 86.7241 7.53591 86.4464C7.86995 86.1647 8.03698 85.7904 8.03698 85.3235C8.03698 84.9814 7.95447 84.6796 7.78946 84.418C7.62445 84.1564 7.38901 83.9511 7.08314 83.8022C6.78129 83.6533 6.42109 83.5788 6.00253 83.5788H3.81112V86.8629ZM3.81112 81.81H5.74898C6.10717 81.81 6.42512 81.7476 6.70281 81.6229C6.98454 81.4941 7.20589 81.313 7.36688 81.0795C7.53189 80.8461 7.61439 80.5664 7.61439 80.2404C7.61439 79.7937 7.45542 79.4335 7.13747 79.1598C6.82355 78.8861 6.37682 78.7493 5.79727 78.7493H3.81112V81.81ZM12.4364 89V76.6364H17.3142C18.252 76.6364 19.0509 76.8155 19.7109 77.1737C20.3709 77.5278 20.874 78.0208 21.2201 78.6527C21.5703 79.2805 21.7453 80.005 21.7453 80.826C21.7453 81.647 21.5683 82.3714 21.2141 82.9993C20.8599 83.6271 20.3468 84.1161 19.6747 84.4663C19.0066 84.8164 18.1976 84.9915 17.2478 84.9915H14.1388V82.8967H16.8252C17.3283 82.8967 17.7429 82.8101 18.0688 82.6371C18.3989 82.46 18.6444 82.2165 18.8054 81.9066C18.9704 81.5927 19.0529 81.2325 19.0529 80.826C19.0529 80.4155 18.9704 80.0573 18.8054 79.7514C18.6444 79.4415 18.3989 79.2021 18.0688 79.033C17.7388 78.86 17.3203 78.7734 16.8132 78.7734H15.0504V89H12.4364ZM23.4432 76.6364H26.6669L30.0718 84.9432H30.2167L33.6215 76.6364H36.8452V89H34.3097V80.9528H34.2071L31.0075 88.9396H29.2809L26.0814 80.9226H25.9787V89H23.4432V76.6364ZM38.9989 89V76.6364H43.8767C44.8145 76.6364 45.6134 76.8155 46.2734 77.1737C46.9334 77.5278 47.4365 78.0208 47.7826 78.6527C48.1328 79.2805 48.3078 80.005 48.3078 80.826C48.3078 81.647 48.1308 82.3714 47.7766 82.9993C47.4224 83.6271 46.9093 84.1161 46.2372 84.4663C45.5691 84.8164 44.7601 84.9915 43.8103 84.9915H40.7013V82.8967H43.3877C43.8908 82.8967 44.3054 82.8101 44.6313 82.6371C44.9614 82.46 45.2069 82.2165 45.3679 81.9066C45.5329 81.5927 45.6154 81.2325 45.6154 80.826C45.6154 80.4155 45.5329 80.0573 45.3679 79.7514C45.2069 79.4415 44.9614 79.2021 44.6313 79.033C44.3013 78.86 43.8828 78.7734 43.3757 78.7734H41.6129V89H38.9989ZM53.9403 89V76.6364H58.8181C59.7559 76.6364 60.5548 76.8155 61.2148 77.1737C61.8748 77.5278 62.3779 78.0208 62.724 78.6527C63.0742 79.2805 63.2492 80.005 63.2492 80.826C63.2492 81.647 63.0722 82.3714 62.718 82.9993C62.3638 83.6271 61.8507 84.1161 61.1786 84.4663C60.5105 84.8164 59.7015 84.9915 58.7517 84.9915H55.6427V82.8967H58.3291C58.8322 82.8967 59.2468 82.8101 59.5728 82.6371C59.9028 82.46 60.1483 82.2165 60.3093 81.9066C60.4743 81.5927 60.5568 81.2325 60.5568 80.826C60.5568 80.4155 60.4743 80.0573 60.3093 79.7514C60.1483 79.4415 59.9028 79.2021 59.5728 79.033C59.2427 78.86 58.8242 78.7734 58.3171 78.7734H56.5543V89H53.9403ZM64.8988 89V79.7273H67.3921V81.3452H67.4887C67.6577 80.7696 67.9415 80.335 68.3399 80.0412C68.7383 79.7434 69.1971 79.5945 69.7163 79.5945C69.8451 79.5945 69.9839 79.6025 70.1329 79.6186C70.2818 79.6347 70.4126 79.6568 70.5253 79.685V81.967C70.4045 81.9308 70.2375 81.8986 70.0242 81.8704C69.8109 81.8422 69.6157 81.8281 69.4386 81.8281C69.0603 81.8281 68.7222 81.9106 68.4244 82.0756C68.1306 82.2366 67.8972 82.462 67.7241 82.7518C67.5551 83.0415 67.4706 83.3756 67.4706 83.7539V89H64.8988ZM75.6129 89.1811C74.6751 89.1811 73.8642 88.9819 73.18 88.5835C72.4998 88.181 71.9746 87.6216 71.6044 86.9052C71.2341 86.1848 71.049 85.3497 71.049 84.3999C71.049 83.442 71.2341 82.6049 71.6044 81.8885C71.9746 81.1681 72.4998 80.6087 73.18 80.2102C73.8642 79.8078 74.6751 79.6065 75.6129 79.6065C76.5506 79.6065 77.3596 79.8078 78.0397 80.2102C78.7239 80.6087 79.2511 81.1681 79.6214 81.8885C79.9917 82.6049 80.1768 83.442 80.1768 84.3999C80.1768 85.3497 79.9917 86.1848 79.6214 86.9052C79.2511 87.6216 78.7239 88.181 78.0397 88.5835C77.3596 88.9819 76.5506 89.1811 75.6129 89.1811ZM75.625 87.1889C76.0516 87.1889 76.4077 87.0682 76.6935 86.8267C76.9792 86.5812 77.1946 86.2472 77.3394 85.8246C77.4884 85.402 77.5628 84.921 77.5628 84.3817C77.5628 83.8424 77.4884 83.3615 77.3394 82.9389C77.1946 82.5163 76.9792 82.1823 76.6935 81.9368C76.4077 81.6913 76.0516 81.5685 75.625 81.5685C75.1943 81.5685 74.8321 81.6913 74.5383 81.9368C74.2485 82.1823 74.0292 82.5163 73.8803 82.9389C73.7354 83.3615 73.663 83.8424 73.663 84.3817C73.663 84.921 73.7354 85.402 73.8803 85.8246C74.0292 86.2472 74.2485 86.5812 74.5383 86.8267C74.8321 87.0682 75.1943 87.1889 75.625 87.1889ZM90.1951 79.7273L86.9533 89H84.0555L80.8137 79.7273H83.5303L85.4561 86.3619H85.5527L87.4724 79.7273H90.1951ZM91.5111 89V79.7273H94.0829V89H91.5111ZM92.803 78.532C92.4207 78.532 92.0927 78.4052 91.819 78.1516C91.5494 77.8941 91.4146 77.5862 91.4146 77.228C91.4146 76.8738 91.5494 76.57 91.819 76.3164C92.0927 76.0588 92.4207 75.93 92.803 75.93C93.1854 75.93 93.5114 76.0588 93.781 76.3164C94.0547 76.57 94.1915 76.8738 94.1915 77.228C94.1915 77.5862 94.0547 77.8941 93.781 78.1516C93.5114 78.4052 93.1854 78.532 92.803 78.532ZM98.7147 83.6392V89H96.143V79.7273H98.594V81.3633H98.7026C98.9079 80.824 99.252 80.3974 99.735 80.0835C100.218 79.7655 100.803 79.6065 101.492 79.6065C102.136 79.6065 102.697 79.7474 103.176 80.0291C103.655 80.3108 104.027 80.7133 104.293 81.2365C104.558 81.7557 104.691 82.3755 104.691 83.0959V89H102.12V83.5547C102.124 82.9872 101.979 82.5445 101.685 82.2266C101.391 81.9046 100.987 81.7436 100.471 81.7436C100.125 81.7436 99.8195 81.8181 99.5538 81.967C99.2922 82.1159 99.087 82.3332 98.9381 82.619C98.7932 82.9007 98.7187 83.2408 98.7147 83.6392ZM114.433 82.3714L112.079 82.5163C112.039 82.3151 111.952 82.134 111.819 81.973C111.687 81.808 111.511 81.6772 111.294 81.5806C111.081 81.48 110.825 81.4297 110.527 81.4297C110.129 81.4297 109.793 81.5142 109.519 81.6832C109.246 81.8482 109.109 82.0696 109.109 82.3473C109.109 82.5687 109.197 82.7558 109.374 82.9087C109.552 83.0617 109.855 83.1844 110.286 83.277L111.964 83.6151C112.866 83.8002 113.538 84.098 113.981 84.5085C114.423 84.919 114.645 85.4583 114.645 86.1264C114.645 86.7341 114.466 87.2674 114.107 87.7262C113.753 88.185 113.266 88.5432 112.646 88.8008C112.031 89.0543 111.32 89.1811 110.515 89.1811C109.288 89.1811 108.31 88.9255 107.581 88.4144C106.857 87.8993 106.432 87.199 106.308 86.3136L108.837 86.1808C108.914 86.555 109.099 86.8408 109.393 87.038C109.686 87.2312 110.063 87.3278 110.521 87.3278C110.972 87.3278 111.334 87.2412 111.608 87.0682C111.886 86.8911 112.027 86.6637 112.031 86.386C112.027 86.1526 111.928 85.9614 111.735 85.8125C111.542 85.6596 111.244 85.5429 110.841 85.4624L109.236 85.1424C108.33 84.9613 107.656 84.6474 107.213 84.2006C106.775 83.7539 106.555 83.1844 106.555 82.4922C106.555 81.8965 106.716 81.3834 107.038 80.9528C107.364 80.5221 107.821 80.1901 108.409 79.9567C109 79.7232 109.692 79.6065 110.485 79.6065C111.656 79.6065 112.578 79.854 113.25 80.3491C113.926 80.8441 114.321 81.5182 114.433 82.3714ZM116.264 89V79.7273H118.836V89H116.264ZM117.556 78.532C117.174 78.532 116.846 78.4052 116.572 78.1516C116.302 77.8941 116.167 77.5862 116.167 77.228C116.167 76.8738 116.302 76.57 116.572 76.3164C116.846 76.0588 117.174 75.93 117.556 75.93C117.938 75.93 118.264 76.0588 118.534 76.3164C118.808 76.57 118.944 76.8738 118.944 77.228C118.944 77.5862 118.808 77.8941 118.534 78.1516C118.264 78.4052 117.938 78.532 117.556 78.532ZM131.586 80.1921C131.538 79.7051 131.33 79.3268 130.964 79.0572C130.598 78.7875 130.101 78.6527 129.473 78.6527C129.046 78.6527 128.686 78.7131 128.392 78.8338C128.098 78.9505 127.873 79.1135 127.716 79.3228C127.563 79.5321 127.487 79.7695 127.487 80.0352C127.479 80.2565 127.525 80.4497 127.626 80.6147C127.73 80.7797 127.873 80.9226 128.054 81.0433C128.235 81.16 128.445 81.2627 128.682 81.3512C128.919 81.4357 129.173 81.5082 129.443 81.5685L130.553 81.8342C131.093 81.9549 131.588 82.1159 132.039 82.3171C132.489 82.5183 132.88 82.7659 133.21 83.0597C133.54 83.3535 133.795 83.6996 133.976 84.098C134.162 84.4964 134.256 84.9532 134.26 85.4684C134.256 86.225 134.063 86.881 133.681 87.4364C133.302 87.9878 132.755 88.4164 132.039 88.7223C131.326 89.0241 130.467 89.1751 129.461 89.1751C128.463 89.1751 127.593 89.0221 126.853 88.7163C126.116 88.4104 125.541 87.9576 125.126 87.358C124.716 86.7543 124.5 86.0077 124.48 85.1183H127.01C127.038 85.5328 127.157 85.8789 127.366 86.1566C127.579 86.4303 127.863 86.6375 128.217 86.7784C128.575 86.9152 128.98 86.9837 129.431 86.9837C129.873 86.9837 130.258 86.9193 130.584 86.7905C130.914 86.6617 131.169 86.4826 131.35 86.2532C131.531 86.0238 131.622 85.7602 131.622 85.4624C131.622 85.1847 131.54 84.9512 131.375 84.7621C131.214 84.5729 130.976 84.4119 130.662 84.2791C130.352 84.1463 129.972 84.0256 129.521 83.9169L128.175 83.5788C127.133 83.3253 126.31 82.9289 125.706 82.3896C125.102 81.8503 124.802 81.1238 124.806 80.2102C124.802 79.4616 125.002 78.8076 125.404 78.2482C125.81 77.6888 126.368 77.2521 127.076 76.9382C127.785 76.6243 128.589 76.4673 129.491 76.4673C130.409 76.4673 131.21 76.6243 131.894 76.9382C132.582 77.2521 133.117 77.6888 133.5 78.2482C133.882 78.8076 134.079 79.4556 134.091 80.1921H131.586ZM141.917 85.0518V79.7273H144.488V89H142.019V87.3157H141.923C141.713 87.859 141.365 88.2957 140.878 88.6257C140.395 88.9557 139.806 89.1207 139.109 89.1207C138.49 89.1207 137.944 88.9799 137.473 88.6982C137.002 88.4164 136.634 88.016 136.369 87.4968C136.107 86.9776 135.974 86.3558 135.97 85.6314V79.7273H138.542V85.1726C138.546 85.7199 138.693 86.1526 138.983 86.4705C139.272 86.7885 139.661 86.9474 140.148 86.9474C140.458 86.9474 140.747 86.877 141.017 86.7362C141.287 86.5913 141.504 86.378 141.669 86.0962C141.838 85.8145 141.921 85.4664 141.917 85.0518ZM146.545 89V79.7273H148.996V81.3633H149.105C149.298 80.82 149.62 80.3913 150.071 80.0774C150.522 79.7635 151.061 79.6065 151.689 79.6065C152.325 79.6065 152.866 79.7655 153.313 80.0835C153.759 80.3974 154.057 80.824 154.206 81.3633H154.303C154.492 80.832 154.834 80.4074 155.329 80.0895C155.828 79.7675 156.418 79.6065 157.098 79.6065C157.963 79.6065 158.665 79.8822 159.205 80.4336C159.748 80.9809 160.02 81.7577 160.02 82.7638V89H157.454V83.271C157.454 82.7558 157.317 82.3694 157.044 82.1119C156.77 81.8543 156.428 81.7255 156.017 81.7255C155.55 81.7255 155.186 81.8744 154.925 82.1722C154.663 82.466 154.532 82.8544 154.532 83.3374V89H152.039V83.2166C152.039 82.7618 151.908 82.3996 151.647 82.13C151.389 81.8603 151.049 81.7255 150.626 81.7255C150.341 81.7255 150.083 81.7979 149.854 81.9428C149.628 82.0837 149.449 82.2829 149.316 82.5405C149.183 82.794 149.117 83.0919 149.117 83.4339V89H146.545ZM164.695 89.1751C164.104 89.1751 163.577 89.0724 163.114 88.8672C162.651 88.6579 162.285 88.35 162.015 87.9435C161.749 87.533 161.617 87.0219 161.617 86.4102C161.617 85.895 161.711 85.4624 161.9 85.1122C162.089 84.7621 162.347 84.4804 162.673 84.267C162.999 84.0537 163.369 83.8928 163.784 83.7841C164.202 83.6754 164.641 83.599 165.1 83.5547C165.639 83.4983 166.074 83.446 166.404 83.3977C166.734 83.3454 166.973 83.2689 167.122 83.1683C167.271 83.0677 167.346 82.9188 167.346 82.7216V82.6854C167.346 82.303 167.225 82.0072 166.983 81.7979C166.746 81.5887 166.408 81.484 165.969 81.484C165.506 81.484 165.138 81.5866 164.864 81.7919C164.591 81.9931 164.41 82.2467 164.321 82.5526L161.943 82.3594C162.063 81.7959 162.301 81.3089 162.655 80.8984C163.009 80.4839 163.466 80.166 164.025 79.9446C164.589 79.7192 165.241 79.6065 165.981 79.6065C166.496 79.6065 166.989 79.6669 167.46 79.7876C167.935 79.9084 168.356 80.0955 168.722 80.3491C169.092 80.6026 169.384 80.9286 169.597 81.3271C169.811 81.7215 169.917 82.1944 169.917 82.7457V89H167.478V87.7141H167.406C167.257 88.0039 167.058 88.2595 166.808 88.4808C166.559 88.6982 166.259 88.8692 165.909 88.994C165.559 89.1147 165.154 89.1751 164.695 89.1751ZM165.432 87.4002C165.81 87.4002 166.144 87.3258 166.434 87.1768C166.724 87.0239 166.951 86.8187 167.116 86.5611C167.281 86.3035 167.364 86.0117 167.364 85.6857V84.7017C167.283 84.754 167.173 84.8023 167.032 84.8466C166.895 84.8868 166.74 84.9251 166.567 84.9613C166.394 84.9935 166.221 85.0237 166.048 85.0518C165.875 85.076 165.718 85.0981 165.577 85.1183C165.275 85.1625 165.011 85.233 164.786 85.3295C164.561 85.4261 164.385 85.5569 164.261 85.7219C164.136 85.8829 164.074 86.0842 164.074 86.3256C164.074 86.6758 164.2 86.9434 164.454 87.1286C164.711 87.3097 165.037 87.4002 165.432 87.4002ZM176.845 79.7273V81.6591H171.261V79.7273H176.845ZM172.528 77.5057H175.1V86.1506C175.1 86.388 175.136 86.5732 175.209 86.706C175.281 86.8348 175.382 86.9253 175.511 86.9776C175.643 87.0299 175.796 87.0561 175.969 87.0561C176.09 87.0561 176.211 87.046 176.332 87.0259C176.452 87.0018 176.545 86.9837 176.609 86.9716L177.014 88.8853C176.885 88.9255 176.704 88.9718 176.47 89.0241C176.237 89.0805 175.953 89.1147 175.619 89.1268C174.999 89.1509 174.456 89.0684 173.989 88.8793C173.526 88.6901 173.166 88.3963 172.909 87.9979C172.651 87.5994 172.524 87.0964 172.528 86.4886V77.5057ZM182.646 89.1811C181.692 89.1811 180.871 88.9879 180.183 88.6016C179.499 88.2112 178.972 87.6598 178.601 86.9474C178.231 86.2311 178.046 85.3839 178.046 84.4059C178.046 83.4521 178.231 82.6149 178.601 81.8945C178.972 81.1741 179.493 80.6127 180.165 80.2102C180.841 79.8078 181.634 79.6065 182.544 79.6065C183.155 79.6065 183.725 79.7051 184.252 79.9023C184.783 80.0955 185.246 80.3873 185.64 80.7777C186.039 81.1681 186.349 81.6591 186.57 82.2507C186.792 82.8383 186.902 83.5265 186.902 84.3153V85.0217H179.072V83.4279H184.481C184.481 83.0576 184.401 82.7296 184.24 82.4439C184.079 82.1581 183.856 81.9348 183.57 81.7738C183.288 81.6088 182.96 81.5263 182.586 81.5263C182.195 81.5263 181.849 81.6168 181.547 81.7979C181.25 81.975 181.016 82.2145 180.847 82.5163C180.678 82.8142 180.592 83.1462 180.588 83.5124V85.0277C180.588 85.4865 180.672 85.8829 180.841 86.217C181.014 86.551 181.258 86.8086 181.572 86.9897C181.886 87.1708 182.258 87.2614 182.688 87.2614C182.974 87.2614 183.236 87.2211 183.473 87.1406C183.711 87.0601 183.914 86.9394 184.083 86.7784C184.252 86.6174 184.381 86.4202 184.469 86.1868L186.848 86.3438C186.727 86.9152 186.48 87.4143 186.105 87.8409C185.735 88.2635 185.256 88.5935 184.669 88.831C184.085 89.0644 183.411 89.1811 182.646 89.1811ZM188.58 89V79.7273H191.074V81.3452H191.17C191.339 80.7696 191.623 80.335 192.022 80.0412C192.42 79.7434 192.879 79.5945 193.398 79.5945C193.527 79.5945 193.666 79.6025 193.814 79.6186C193.963 79.6347 194.094 79.6568 194.207 79.685V81.967C194.086 81.9308 193.919 81.8986 193.706 81.8704C193.493 81.8422 193.297 81.8281 193.12 81.8281C192.742 81.8281 192.404 81.9106 192.106 82.0756C191.812 82.2366 191.579 82.462 191.406 82.7518C191.237 83.0415 191.152 83.3756 191.152 83.7539V89H188.58ZM197.915 89.1751C197.323 89.1751 196.796 89.0724 196.333 88.8672C195.871 88.6579 195.504 88.35 195.235 87.9435C194.969 87.533 194.836 87.0219 194.836 86.4102C194.836 85.895 194.931 85.4624 195.12 85.1122C195.309 84.7621 195.567 84.4804 195.893 84.267C196.219 84.0537 196.589 83.8928 197.004 83.7841C197.422 83.6754 197.861 83.599 198.32 83.5547C198.859 83.4983 199.294 83.446 199.624 83.3977C199.954 83.3454 200.193 83.2689 200.342 83.1683C200.491 83.0677 200.565 82.9188 200.565 82.7216V82.6854C200.565 82.303 200.445 82.0072 200.203 81.7979C199.966 81.5887 199.628 81.484 199.189 81.484C198.726 81.484 198.358 81.5866 198.084 81.7919C197.81 81.9931 197.629 82.2467 197.541 82.5526L195.162 82.3594C195.283 81.7959 195.52 81.3089 195.875 80.8984C196.229 80.4839 196.686 80.166 197.245 79.9446C197.808 79.7192 198.46 79.6065 199.201 79.6065C199.716 79.6065 200.209 79.6669 200.68 79.7876C201.155 79.9084 201.575 80.0955 201.942 80.3491C202.312 80.6026 202.604 80.9286 202.817 81.3271C203.03 81.7215 203.137 82.1944 203.137 82.7457V89H200.698V87.7141H200.626C200.477 88.0039 200.278 88.2595 200.028 88.4808C199.778 88.6982 199.479 88.8692 199.129 88.994C198.778 89.1147 198.374 89.1751 197.915 89.1751ZM198.652 87.4002C199.03 87.4002 199.364 87.3258 199.654 87.1768C199.943 87.0239 200.171 86.8187 200.336 86.5611C200.501 86.3035 200.583 86.0117 200.583 85.6857V84.7017C200.503 84.754 200.392 84.8023 200.251 84.8466C200.115 84.8868 199.96 84.9251 199.787 84.9613C199.613 84.9935 199.44 85.0237 199.267 85.0518C199.094 85.076 198.937 85.0981 198.796 85.1183C198.495 85.1625 198.231 85.233 198.006 85.3295C197.78 85.4261 197.605 85.5569 197.48 85.7219C197.356 85.8829 197.293 86.0842 197.293 86.3256C197.293 86.6758 197.42 86.9434 197.674 87.1286C197.931 87.3097 198.257 87.4002 198.652 87.4002ZM215.822 80.1921C215.774 79.7051 215.567 79.3268 215.2 79.0572C214.834 78.7875 214.337 78.6527 213.709 78.6527C213.283 78.6527 212.922 78.7131 212.629 78.8338C212.335 78.9505 212.109 79.1135 211.952 79.3228C211.8 79.5321 211.723 79.7695 211.723 80.0352C211.715 80.2565 211.761 80.4497 211.862 80.6147C211.967 80.7797 212.109 80.9226 212.291 81.0433C212.472 81.16 212.681 81.2627 212.918 81.3512C213.156 81.4357 213.409 81.5082 213.679 81.5685L214.79 81.8342C215.329 81.9549 215.824 82.1159 216.275 82.3171C216.726 82.5183 217.116 82.7659 217.446 83.0597C217.776 83.3535 218.032 83.6996 218.213 84.098C218.398 84.4964 218.492 84.9532 218.496 85.4684C218.492 86.225 218.299 86.881 217.917 87.4364C217.539 87.9878 216.991 88.4164 216.275 88.7223C215.563 89.0241 214.703 89.1751 213.697 89.1751C212.699 89.1751 211.83 89.0221 211.089 88.7163C210.353 88.4104 209.777 87.9576 209.363 87.358C208.952 86.7543 208.737 86.0077 208.717 85.1183H211.246C211.274 85.5328 211.393 85.8789 211.602 86.1566C211.816 86.4303 212.099 86.6375 212.454 86.7784C212.812 86.9152 213.216 86.9837 213.667 86.9837C214.11 86.9837 214.494 86.9193 214.82 86.7905C215.15 86.6617 215.406 86.4826 215.587 86.2532C215.768 86.0238 215.858 85.7602 215.858 85.4624C215.858 85.1847 215.776 84.9512 215.611 84.7621C215.45 84.5729 215.212 84.4119 214.898 84.2791C214.589 84.1463 214.208 84.0256 213.758 83.9169L212.411 83.5788C211.369 83.3253 210.546 82.9289 209.942 82.3896C209.338 81.8503 209.039 81.1238 209.043 80.2102C209.039 79.4616 209.238 78.8076 209.64 78.2482C210.047 77.6888 210.604 77.2521 211.313 76.9382C212.021 76.6243 212.826 76.4673 213.727 76.4673C214.645 76.4673 215.446 76.6243 216.13 76.9382C216.818 77.2521 217.354 77.6888 217.736 78.2482C218.118 78.8076 218.315 79.4556 218.327 80.1921H215.822ZM224.432 89.1811C223.478 89.1811 222.657 88.9879 221.969 88.6016C221.285 88.2112 220.758 87.6598 220.388 86.9474C220.017 86.2311 219.832 85.3839 219.832 84.4059C219.832 83.4521 220.017 82.6149 220.388 81.8945C220.758 81.1741 221.279 80.6127 221.951 80.2102C222.627 79.8078 223.42 79.6065 224.33 79.6065C224.941 79.6065 225.511 79.7051 226.038 79.9023C226.569 80.0955 227.032 80.3873 227.427 80.7777C227.825 81.1681 228.135 81.6591 228.356 82.2507C228.578 82.8383 228.688 83.5265 228.688 84.3153V85.0217H220.858V83.4279H226.268C226.268 83.0576 226.187 82.7296 226.026 82.4439C225.865 82.1581 225.642 81.9348 225.356 81.7738C225.074 81.6088 224.746 81.5263 224.372 81.5263C223.982 81.5263 223.635 81.6168 223.334 81.7979C223.036 81.975 222.802 82.2145 222.633 82.5163C222.464 82.8142 222.378 83.1462 222.374 83.5124V85.0277C222.374 85.4865 222.458 85.8829 222.627 86.217C222.8 86.551 223.044 86.8086 223.358 86.9897C223.672 87.1708 224.044 87.2614 224.475 87.2614C224.76 87.2614 225.022 87.2211 225.259 87.1406C225.497 87.0601 225.7 86.9394 225.869 86.7784C226.038 86.6174 226.167 86.4202 226.255 86.1868L228.634 86.3438C228.513 86.9152 228.266 87.4143 227.891 87.8409C227.521 88.2635 227.042 88.5935 226.455 88.831C225.871 89.0644 225.197 89.1811 224.432 89.1811ZM232.938 76.6364V89H230.367V76.6364H232.938ZM237.643 89.1751C237.051 89.1751 236.524 89.0724 236.061 88.8672C235.598 88.6579 235.232 88.35 234.962 87.9435C234.697 87.533 234.564 87.0219 234.564 86.4102C234.564 85.895 234.658 85.4624 234.848 85.1122C235.037 84.7621 235.294 84.4804 235.62 84.267C235.946 84.0537 236.317 83.8928 236.731 83.7841C237.15 83.6754 237.588 83.599 238.047 83.5547C238.586 83.4983 239.021 83.446 239.351 83.3977C239.681 83.3454 239.921 83.2689 240.069 83.1683C240.218 83.0677 240.293 82.9188 240.293 82.7216V82.6854C240.293 82.303 240.172 82.0072 239.931 81.7979C239.693 81.5887 239.355 81.484 238.916 81.484C238.454 81.484 238.085 81.5866 237.812 81.7919C237.538 81.9931 237.357 82.2467 237.268 82.5526L234.89 82.3594C235.011 81.7959 235.248 81.3089 235.602 80.8984C235.956 80.4839 236.413 80.166 236.973 79.9446C237.536 79.7192 238.188 79.6065 238.928 79.6065C239.444 79.6065 239.937 79.6669 240.408 79.7876C240.882 79.9084 241.303 80.0955 241.669 80.3491C242.04 80.6026 242.331 80.9286 242.545 81.3271C242.758 81.7215 242.865 82.1944 242.865 82.7457V89H240.426V87.7141H240.353C240.204 88.0039 240.005 88.2595 239.756 88.4808C239.506 88.6982 239.206 88.8692 238.856 88.994C238.506 89.1147 238.101 89.1751 237.643 89.1751ZM238.379 87.4002C238.757 87.4002 239.091 87.3258 239.381 87.1768C239.671 87.0239 239.898 86.8187 240.063 86.5611C240.228 86.3035 240.311 86.0117 240.311 85.6857V84.7017C240.23 84.754 240.12 84.8023 239.979 84.8466C239.842 84.8868 239.687 84.9251 239.514 84.9613C239.341 84.9935 239.168 85.0237 238.995 85.0518C238.822 85.076 238.665 85.0981 238.524 85.1183C238.222 85.1625 237.959 85.233 237.733 85.3295C237.508 85.4261 237.333 85.5569 237.208 85.7219C237.083 85.8829 237.021 86.0842 237.021 86.3256C237.021 86.6758 237.148 86.9434 237.401 87.1286C237.659 87.3097 237.985 87.4002 238.379 87.4002ZM249.792 79.7273V81.6591H244.208V79.7273H249.792ZM245.476 77.5057H248.047V86.1506C248.047 86.388 248.083 86.5732 248.156 86.706C248.228 86.8348 248.329 86.9253 248.458 86.9776C248.591 87.0299 248.744 87.0561 248.917 87.0561C249.037 87.0561 249.158 87.046 249.279 87.0259C249.4 87.0018 249.492 86.9837 249.557 86.9716L249.961 88.8853C249.832 88.9255 249.651 88.9718 249.418 89.0241C249.184 89.0805 248.9 89.1147 248.566 89.1268C247.947 89.1509 247.403 89.0684 246.936 88.8793C246.474 88.6901 246.113 88.3963 245.856 87.9979C245.598 87.5994 245.472 87.0964 245.476 86.4886V77.5057ZM254.111 89.1751C253.52 89.1751 252.993 89.0724 252.53 88.8672C252.067 88.6579 251.701 88.35 251.431 87.9435C251.165 87.533 251.033 87.0219 251.033 86.4102C251.033 85.895 251.127 85.4624 251.316 85.1122C251.505 84.7621 251.763 84.4804 252.089 84.267C252.415 84.0537 252.785 83.8928 253.2 83.7841C253.618 83.6754 254.057 83.599 254.516 83.5547C255.055 83.4983 255.49 83.446 255.82 83.3977C256.15 83.3454 256.389 83.2689 256.538 83.1683C256.687 83.0677 256.762 82.9188 256.762 82.7216V82.6854C256.762 82.303 256.641 82.0072 256.399 81.7979C256.162 81.5887 255.824 81.484 255.385 81.484C254.922 81.484 254.554 81.5866 254.28 81.7919C254.007 81.9931 253.826 82.2467 253.737 82.5526L251.359 82.3594C251.479 81.7959 251.717 81.3089 252.071 80.8984C252.425 80.4839 252.882 80.166 253.441 79.9446C254.005 79.7192 254.657 79.6065 255.397 79.6065C255.912 79.6065 256.405 79.6669 256.876 79.7876C257.351 79.9084 257.772 80.0955 258.138 80.3491C258.508 80.6026 258.8 80.9286 259.013 81.3271C259.227 81.7215 259.333 82.1944 259.333 82.7457V89H256.894V87.7141H256.822C256.673 88.0039 256.474 88.2595 256.224 88.4808C255.975 88.6982 255.675 88.8692 255.325 88.994C254.975 89.1147 254.57 89.1751 254.111 89.1751ZM254.848 87.4002C255.226 87.4002 255.56 87.3258 255.85 87.1768C256.14 87.0239 256.367 86.8187 256.532 86.5611C256.697 86.3035 256.78 86.0117 256.78 85.6857V84.7017C256.699 84.754 256.589 84.8023 256.448 84.8466C256.311 84.8868 256.156 84.9251 255.983 84.9613C255.81 84.9935 255.637 85.0237 255.464 85.0518C255.291 85.076 255.134 85.0981 254.993 85.1183C254.691 85.1625 254.427 85.233 254.202 85.3295C253.977 85.4261 253.801 85.5569 253.677 85.7219C253.552 85.8829 253.49 86.0842 253.49 86.3256C253.49 86.6758 253.616 86.9434 253.87 87.1286C254.127 87.3097 254.453 87.4002 254.848 87.4002ZM263.9 83.6392V89H261.329V79.7273H263.78V81.3633H263.888C264.093 80.824 264.438 80.3974 264.92 80.0835C265.403 79.7655 265.989 79.6065 266.677 79.6065C267.321 79.6065 267.883 79.7474 268.362 80.0291C268.84 80.3108 269.213 80.7133 269.478 81.2365C269.744 81.7557 269.877 82.3755 269.877 83.0959V89H267.305V83.5547C267.309 82.9872 267.164 82.5445 266.87 82.2266C266.577 81.9046 266.172 81.7436 265.657 81.7436C265.311 81.7436 265.005 81.8181 264.739 81.967C264.478 82.1159 264.273 82.3332 264.124 82.619C263.979 82.9007 263.904 83.2408 263.9 83.6392Z" fill="#2F3031"/>
</svg>
