<svg width="325" height="46" viewBox="0 0 325 46" fill="none" xmlns="http://www.w3.org/2000/svg">
<path d="M23.0001 45.5C18.2651 45.5 13.6511 44.5778 9.2853 42.7593L9.17739 42.7141L9.10067 42.6262C6.00864 39.0684 3.69882 34.9988 2.23546 30.5305C0.772715 26.0617 0.230659 21.422 0.624881 16.7402L0.634862 16.6244L0.695367 16.5248C3.1499 12.5071 6.33674 9.07007 10.1673 6.30829C13.9973 3.5465 18.2769 1.60174 22.886 0.526615L23.0001 0.5L23.1143 0.526615C27.7233 1.60174 32.003 3.5465 35.8336 6.30829C39.6641 9.07007 42.851 12.5071 45.3055 16.5248L45.366 16.6244L45.376 16.7402C45.7702 21.422 45.2282 26.0617 43.7648 30.5299C42.3014 34.9982 39.9916 39.0678 36.8996 42.6256L36.8229 42.7135L36.715 42.7586C32.3492 44.5771 27.7352 45.4994 23.0001 45.4994V45.5Z" fill="white"/>
<path d="M44.8782 16.7817C43.3568 14.2916 40.4581 10.2548 35.5397 6.70876C30.6213 3.16276 25.8569 1.67479 23.0001 1.00879C20.1432 1.67479 15.3788 3.16338 10.4604 6.70876C5.54199 10.2548 2.64333 14.291 1.12196 16.7817C0.877441 19.6839 0.831906 24.6399 2.71008 30.377C4.58887 36.1142 7.56176 40.0971 9.4786 42.3025C12.1845 43.4296 16.9208 45.0048 23.0001 45.0048C29.0793 45.0048 33.8156 43.4296 36.5215 42.3025C38.4384 40.0971 41.4113 36.1142 43.29 30.377C45.1688 24.6399 45.1227 19.6833 44.8782 16.7817Z" fill="#0192D5"/>
<path d="M12.774 40.7823C12.9218 40.5038 13.094 39.9752 13.1607 39.761L13.1626 39.7555L13.1689 39.7425V39.7394L13.182 39.7159V39.6874C13.2998 39.2591 13.3628 38.5714 13.3685 37.643C14.4919 37.4758 15.4999 36.8631 16.2353 36.4156L16.2415 36.4119C16.5229 36.2404 16.7655 36.0931 16.9614 36.0033C17.6344 35.6939 18.3667 35.5373 19.139 35.5373C19.6548 35.5373 20.1962 35.6072 20.7477 35.7452L20.9504 35.3015C20.4495 34.9586 20.0079 34.5438 19.6055 34.1465L19.4714 34.014L19.3067 34.1062C18.5476 34.5327 16.4518 35.4054 14.8169 35.5899C14.51 35.6245 14.2118 35.6419 13.9311 35.6419C12.0654 35.6419 10.7854 34.8645 10.1261 33.3307V33.322L10.0625 33.1958L9.98825 33.1586C9.01268 32.6734 8.55171 31.3995 8.52115 30.8252L8.51553 30.7218L8.43756 30.6531C7.73395 30.0317 7.55867 28.8179 7.66159 28.1927L7.66471 28.1729V28.0708L7.61543 28.0046C7.22308 27.4803 7.20874 26.719 7.23992 26.1143L7.24616 25.988L7.14698 25.9088C6.55128 25.431 6.27869 24.5025 6.43588 23.4856C6.67354 21.953 7.42518 20.8402 8.08825 19.8585L8.16435 19.7458C8.38267 19.4234 8.64777 19.0322 8.89978 18.5673C8.83428 19.0928 8.70828 19.6747 8.52115 20.1828C8.16934 21.1372 8.00654 21.8565 7.99406 22.5144C7.97784 23.3599 8.53425 24.2772 9.81485 24.4208C9.95894 24.4369 10.1049 24.4456 10.2471 24.4456C11.2127 24.4456 12.0192 24.0686 12.8738 23.6694L12.8801 23.6663C13.6754 23.2943 14.5773 22.8728 15.6989 22.749H15.707L15.7151 22.7465L15.7288 22.7453C15.8049 22.7373 15.8829 22.7335 15.9602 22.7335C16.5484 22.7335 17.1223 22.9613 17.5352 23.3587C17.9457 23.753 18.1484 24.2642 18.1079 24.799C18.0729 25.2434 17.9738 25.6222 17.8939 25.9274L17.8846 25.9639C17.8677 26.0295 17.8509 26.092 17.8371 26.152C17.6731 26.8279 17.6045 27.4277 18.4272 27.9093L18.7185 28.0795L18.7965 27.7533C18.9082 27.286 19.1652 26.3482 19.6311 25.3171L19.6635 25.2459L19.6486 25.1691C19.5051 24.4344 18.2345 17.9348 17.8053 15.8792C17.3338 13.6175 16.3744 12.3016 15.8442 12.0893C15.8305 12.0838 15.8168 12.0788 15.8037 12.0732C15.8111 12.0683 15.818 12.0633 15.8249 12.0584C15.9839 11.9451 16.1068 11.8659 16.249 11.7743L16.3638 11.7C16.8036 11.4134 17.2589 11.117 17.7629 11.117C17.8035 11.117 17.8453 11.1188 17.8858 11.1225C18.2064 11.1522 18.4827 11.2661 18.7061 11.4605L19.0504 11.7607L19.1171 11.3107C19.1583 11.0334 19.2581 10.8211 19.414 10.68C19.6529 10.4633 20.0391 10.3655 20.3803 10.2795C20.6878 10.2009 20.8917 10.1427 21.1282 9.9886C21.145 9.97746 21.1618 9.96632 21.1774 9.95456L21.3315 10.662L21.6527 10.074C21.697 9.99294 21.7426 9.92547 21.8343 9.83882C21.9671 9.71317 22.1474 9.61166 22.3688 9.53677C22.5279 9.48292 22.6845 9.39007 22.8323 9.26071C22.8903 9.20996 22.9464 9.15487 22.9982 9.09607C23.05 9.15425 23.1055 9.20934 23.1635 9.26009C23.312 9.39007 23.4679 9.48292 23.6276 9.53677C23.849 9.61166 24.0293 9.71317 24.1628 9.83944C24.2526 9.92423 24.2988 9.99232 24.3443 10.0753L24.6662 10.6577L24.819 9.95518C24.8346 9.96694 24.8514 9.97808 24.8683 9.98922C25.1059 10.144 25.3093 10.2021 25.6162 10.2801C25.9574 10.3662 26.3441 10.464 26.5824 10.6806C26.7383 10.8217 26.8381 11.034 26.8793 11.3113L26.9461 11.7613L27.291 11.4611C27.5143 11.2667 27.7906 11.1529 28.1113 11.1232C28.1518 11.1194 28.193 11.1176 28.2341 11.1176C28.7375 11.1176 29.1723 11.4011 29.632 11.7006L29.7518 11.778C29.8927 11.869 30.0144 11.9476 30.1709 12.059C30.1778 12.064 30.1853 12.0689 30.1922 12.0739C30.1791 12.0788 30.1653 12.0844 30.1516 12.0893C29.6208 12.3016 28.6621 13.6175 28.1905 15.8792C27.8112 17.6977 26.7745 22.9811 26.3466 25.1685L26.3316 25.2453L26.3641 25.3171C26.83 26.347 27.087 27.286 27.1993 27.7539L27.2773 28.0801L27.5686 27.9099C28.3913 27.4289 28.3227 26.8286 28.1587 26.1514C28.1443 26.092 28.1275 26.0276 28.11 25.9602L28.1019 25.9286C28.0221 25.6234 27.9223 25.2446 27.888 24.7996C27.8468 24.2655 28.0501 23.7542 28.4599 23.3599C28.8729 22.9626 29.4468 22.7348 30.035 22.7348C30.1123 22.7348 30.1903 22.7385 30.2664 22.7465H30.2782L30.2863 22.749L30.2969 22.7503C31.4185 22.874 32.3198 23.2956 33.1151 23.6675L33.122 23.6706C33.9759 24.0699 34.7825 24.4468 35.7481 24.4468C35.8909 24.4468 36.0363 24.4388 36.1803 24.4221C37.4603 24.2785 38.0173 23.3612 38.0011 22.5157C37.9887 21.8602 37.8259 21.141 37.474 20.1841C37.2863 19.6753 37.1609 19.0935 37.0948 18.5686C37.3462 19.0322 37.6107 19.4227 37.829 19.7452L37.9063 19.8597C38.5694 20.842 39.321 21.9549 39.5587 23.4868C39.7153 24.4994 39.4458 25.4241 38.8557 25.9032L38.8451 25.9106L38.749 26.006L38.7546 26.1161C38.7858 26.7209 38.7715 27.4822 38.3791 28.0064L38.3299 28.072V28.1742L38.333 28.1946C38.4359 28.8197 38.26 30.0335 37.557 30.6549L37.479 30.7236L37.4734 30.827C37.4435 31.4014 36.9819 32.6752 36.0069 33.1605L35.8691 33.2292V33.3319C35.2098 34.8657 33.9298 35.6431 32.0641 35.6431C31.7834 35.6431 31.4852 35.6258 31.1783 35.5911C29.5434 35.4067 27.4469 34.5339 26.6884 34.1075L26.5238 34.0153L26.3897 34.1477C25.9861 34.5457 25.5438 34.961 25.0448 35.3033L25.2475 35.7471C25.7989 35.6091 26.3404 35.5391 26.8562 35.5391C27.6285 35.5391 28.3608 35.6957 29.0326 36.0052C29.2316 36.0962 29.4761 36.2454 29.7599 36.418C30.4966 36.8662 31.5039 37.4789 32.6267 37.6461C32.6317 38.5578 32.696 39.2628 32.8126 39.6886V39.7152L32.8301 39.748C32.8669 39.8663 33.059 40.4778 33.2212 40.7848C31.4547 40.7415 30.7105 40.307 29.8497 39.8037C29.8497 39.8037 29.652 39.6886 29.6064 39.6626C29.4449 39.5698 29.2958 39.4788 29.1448 39.3859C28.3745 38.9149 27.7108 38.5089 26.3678 38.5089C25.4864 38.5089 24.8321 38.8184 24.3612 39.0888C24.295 39.1266 24.2283 39.1662 24.1622 39.2052L24.1098 39.2362C23.7137 39.472 23.3425 39.693 22.9945 39.693C22.6464 39.693 22.2746 39.4714 21.881 39.2374L21.8149 39.1984C21.7532 39.1619 21.6914 39.1247 21.6284 39.0895C21.1581 38.8196 20.5038 38.5101 19.6224 38.5101C18.2788 38.5101 17.6151 38.9162 16.846 39.3866C16.6944 39.4794 16.5453 39.5704 16.3838 39.6639C16.3226 39.6985 16.2621 39.7338 16.2029 39.7685L16.1417 39.8044C15.2791 40.3082 14.5355 40.7427 12.769 40.786L12.774 40.7823Z" fill="white"/>
<path d="M39.8086 23.5295C39.5629 21.9444 38.795 20.8061 38.117 19.8022C37.7471 19.2538 37.1807 18.4553 36.8201 17.4124C36.7347 18.0233 36.8626 19.3188 37.2424 20.3493C37.5294 21.1292 37.7408 21.8868 37.7545 22.6005C37.7676 23.2801 37.3566 24.1212 36.1552 24.2562C35.0561 24.38 34.2097 23.9838 33.2285 23.5252C32.4145 23.1445 31.4919 22.7125 30.3273 22.5837C30.3167 22.5819 30.3061 22.5807 30.2955 22.58C29.562 22.5039 28.8122 22.7583 28.2895 23.2615C27.8248 23.7078 27.5952 24.289 27.642 24.898C27.6782 25.3604 27.7805 25.7534 27.8634 26.0697C27.8834 26.1465 27.9027 26.2195 27.9189 26.2882C28.0755 26.9344 28.1223 27.3794 27.4449 27.7756C27.3307 27.2983 27.0706 26.347 26.5947 25.2948C26.9477 23.4905 28.0462 17.8859 28.4379 16.0086C28.902 13.7816 29.837 12.5622 30.2475 12.3982C30.6143 12.2521 30.8413 12.2639 30.8413 12.2639C30.8413 12.2639 30.5257 12.0832 30.3192 11.9365C30.1134 11.7898 29.9637 11.6969 29.7715 11.5719C29.2607 11.2389 28.733 10.8954 28.0905 10.9548C27.6638 10.9944 27.3526 11.1584 27.1286 11.3534C27.0868 11.0718 26.982 10.7833 26.7531 10.576C26.4693 10.3185 26.0501 10.212 25.6802 10.1186C25.4002 10.0474 25.2168 9.99665 25.0072 9.86048C24.797 9.72369 24.681 9.50396 24.681 9.50396L24.5656 10.035C24.5125 9.93909 24.4527 9.8481 24.3366 9.73854C24.1595 9.57204 23.9405 9.45939 23.7097 9.38141C23.5756 9.33622 23.4459 9.25452 23.3305 9.15363C23.1976 9.03727 23.0829 8.89553 22.9999 8.75378C22.9176 8.89553 22.8028 9.03788 22.6693 9.15363C22.5539 9.25452 22.4242 9.33622 22.29 9.38141C22.0592 9.45939 21.8403 9.57204 21.6638 9.73854C21.5478 9.8481 21.4873 9.93909 21.4349 10.035L21.3195 9.50396C21.3195 9.50396 21.2028 9.72369 20.9932 9.86048C20.7836 9.99665 20.5996 10.0474 20.3202 10.1186C19.9503 10.212 19.5311 10.3185 19.2473 10.576C19.0184 10.7833 18.9136 11.0718 18.8718 11.3534C18.6479 11.1584 18.3366 10.9944 17.9099 10.9548C17.2674 10.8954 16.7391 11.2389 16.2282 11.5719C16.0361 11.6969 15.887 11.7898 15.6806 11.9365C15.4747 12.0832 15.1591 12.2639 15.1591 12.2639C15.1591 12.2639 15.3862 12.2521 15.7523 12.3982C16.1628 12.5622 17.0984 13.7816 17.5625 16.0086C17.9542 17.8859 19.0527 23.4918 19.4051 25.2954C18.9298 26.3476 18.6697 27.2983 18.5555 27.7756C17.8781 27.3794 17.9249 26.9344 18.0815 26.2882C18.0977 26.2195 18.117 26.1465 18.137 26.0697C18.2199 25.7534 18.3222 25.3604 18.3584 24.898C18.4052 24.289 18.1757 23.7078 17.711 23.2615C17.1882 22.7583 16.4385 22.5039 15.7049 22.58C15.6943 22.5807 15.6837 22.5819 15.6731 22.5837C14.5085 22.7125 13.586 23.1445 12.7719 23.5252C11.7908 23.9838 10.9443 24.38 9.84521 24.2562C8.64383 24.1212 8.23277 23.2801 8.24587 22.6005C8.25959 21.8868 8.47043 21.1292 8.75798 20.3493C9.13786 19.3188 9.26511 18.0233 9.18028 17.4124C8.81911 18.4553 8.25335 19.2538 7.88346 19.8022C7.20542 20.8061 6.43756 21.9444 6.19179 23.5295C6.01901 24.6474 6.32466 25.6476 6.99271 26.183C6.95591 26.8948 6.99396 27.6685 7.41688 28.2336C7.294 28.9807 7.51793 30.252 8.27331 30.9192C8.30949 31.6094 8.84593 32.9482 9.87765 33.4613C10.6767 35.372 12.3478 36.1977 14.846 35.9161C16.5196 35.7273 18.6516 34.8397 19.4307 34.4021C19.8131 34.7797 20.2753 35.2197 20.8098 35.5855C19.6715 35.3008 18.2599 35.2142 16.8576 35.8591C16.6468 35.9557 16.396 36.1086 16.1054 36.2856C15.388 36.722 14.405 37.3199 13.3315 37.4796L13.1206 37.5111L13.1194 37.7228C13.1138 38.6376 13.0501 39.3327 12.9335 39.7332C12.9335 39.7332 12.9335 39.735 12.9329 39.7363C12.9323 39.7381 12.9316 39.74 12.931 39.7431C12.9298 39.7456 12.9291 39.7493 12.9279 39.753C12.926 39.7573 12.9248 39.7629 12.9229 39.7691C12.878 39.9121 12.6996 40.4728 12.553 40.7489L12.3565 41.1221L12.7807 41.1116C14.6127 41.0664 15.3824 40.6164 16.2738 40.0959C16.3524 40.0501 16.4322 40.003 16.5146 39.956C16.6792 39.8613 16.8333 39.7672 16.9824 39.6756C17.749 39.2064 18.3547 38.8357 19.6278 38.8357C20.4499 38.8357 21.0656 39.1278 21.5097 39.3822C21.5933 39.4299 21.6756 39.4794 21.7573 39.5277C22.1815 39.7802 22.5826 40.0191 22.9999 40.0191C23.4172 40.0191 23.8183 39.7802 24.2424 39.5277C24.3242 39.4794 24.4071 39.4299 24.4907 39.3822C24.9348 39.1278 25.5499 38.8357 26.3726 38.8357C27.6451 38.8357 28.2508 39.2064 29.018 39.6756C29.1671 39.7672 29.3212 39.8613 29.4859 39.956C29.5676 40.003 29.6474 40.0501 29.7266 40.0959C30.618 40.6164 31.3877 41.0664 33.2197 41.1116L33.6433 41.1221L33.4468 40.7489C33.2846 40.4419 33.0819 39.7833 33.0675 39.7363C33.0675 39.735 33.0669 39.7338 33.0669 39.7338C32.9503 39.3327 32.886 38.6376 32.881 37.7228L32.8798 37.5111L32.6683 37.4796C31.5948 37.3199 30.6124 36.722 29.895 36.2856C29.6044 36.1086 29.353 35.9557 29.1422 35.8591C27.7412 35.2142 26.3296 35.3008 25.1912 35.5855C25.7251 35.2191 26.1867 34.7797 26.5697 34.4021C27.3488 34.8397 29.4809 35.7273 31.1544 35.9161C33.6526 36.1977 35.3237 35.372 36.1228 33.4613C37.1545 32.9482 37.6903 31.61 37.7265 30.9199C38.4819 30.2526 38.7058 28.9813 38.5829 28.2348C39.0058 27.6691 39.0439 26.8954 39.0071 26.1836C39.6751 25.6482 39.9808 24.648 39.808 23.5301L39.8086 23.5295ZM26.7219 27.0402C26.4992 26.8323 26.2641 26.6509 26.0327 26.4727C25.7757 26.2752 25.5336 26.0883 25.3216 25.8747C24.845 25.3957 24.3585 24.7309 24.3585 23.4391V22.835C24.802 23.3339 25.495 24.1838 25.9447 25.0868C26.2971 25.7955 26.5504 26.4894 26.7219 27.0402ZM22.111 20.2701C22.111 20.2701 22.1085 20.267 22.1079 20.2651C22.101 20.2552 22.0948 20.2459 22.0886 20.236C22.0867 20.2342 22.0854 20.2323 22.0842 20.2305C21.9376 20.0033 21.8409 19.7731 21.8409 19.528C21.8409 18.8378 22.2638 18.4076 22.7123 17.9521C22.809 17.8537 22.9063 17.7546 22.9999 17.6525C23.0935 17.7546 23.1914 17.8537 23.2881 17.9521C23.7359 18.4076 24.1595 18.8378 24.1595 19.528C24.1595 19.7731 24.0628 20.0033 23.9162 20.2305C23.915 20.2323 23.9137 20.2342 23.9118 20.236C23.9056 20.2459 23.8994 20.2552 23.8925 20.2651C23.8919 20.267 23.8906 20.2689 23.8894 20.2701C23.7472 20.4805 23.5632 20.6885 23.3742 20.9014C23.2469 21.0456 23.1178 21.1911 22.9999 21.3415C22.882 21.1911 22.7529 21.0456 22.6256 20.9014C22.4373 20.6885 22.2532 20.4805 22.111 20.2701ZM18.0509 15.9083C17.7371 14.4005 17.2001 12.6544 16.3418 12.09C16.396 12.0553 16.4497 12.02 16.5021 11.986C16.9811 11.674 17.3953 11.4042 17.8631 11.4481C18.6903 11.5249 18.9067 12.2633 18.9148 12.2936H18.9161C18.9616 12.3115 19.407 14.9322 19.6315 16.7129C19.6814 17.1128 19.7706 17.8716 19.8343 18.3817C19.969 18.2684 20.1224 18.1489 20.2934 18.0288C20.2353 17.5529 20.168 16.9803 20.1268 16.6517C19.9035 14.8808 19.692 13.2028 19.4432 12.3184C19.3883 12.1252 19.3533 11.9272 19.3508 11.7266C19.3465 11.4425 19.3939 11.1139 19.5835 10.9418C19.7756 10.7679 20.115 10.6812 20.4437 10.5983C20.6452 10.5469 20.8404 10.4974 21.0094 10.4262L21.1342 10.9994C21.1542 11.0928 21.1685 11.1875 21.176 11.2828C21.2402 12.0615 21.4729 15.0808 21.559 17.3548C21.7174 17.296 21.8821 17.244 22.0524 17.2025C21.9551 14.7447 21.6981 11.5119 21.6613 11.0947C21.6644 11.0216 21.6918 10.5853 21.8852 10.2498C21.9551 10.1291 22.2083 9.93413 22.4597 9.84686C22.6512 9.78063 22.8358 9.66551 22.9999 9.52129C23.1646 9.66551 23.3492 9.78063 23.5407 9.84686C23.7921 9.93413 24.0453 10.1291 24.1146 10.2498C24.3079 10.5853 24.3354 11.0216 24.3385 11.0947C24.3023 11.5119 24.0453 14.7447 23.948 17.2025C24.1183 17.244 24.283 17.296 24.4414 17.3548C24.5269 15.0808 24.7602 12.0615 24.8238 11.2828C24.8319 11.1875 24.8456 11.0928 24.8662 10.9994L24.991 10.4262C25.16 10.4974 25.3552 10.5469 25.5567 10.5983C25.8848 10.6812 26.2248 10.7679 26.4163 10.9418C26.6065 11.1139 26.6533 11.4425 26.6496 11.7266C26.6465 11.9272 26.6115 12.1252 26.5573 12.3184C26.3077 13.2028 26.0963 14.8808 25.8736 16.6517C25.8324 16.9803 25.7651 17.5529 25.7071 18.0288C25.878 18.1489 26.0314 18.2684 26.1661 18.3817C26.2298 17.8716 26.319 17.1128 26.3689 16.7129C26.5934 14.9322 27.0388 12.3115 27.0843 12.2936H27.085C27.0937 12.2633 27.3101 11.5249 28.1373 11.4481C28.6051 11.4042 29.0187 11.674 29.4977 11.986C29.5507 12.02 29.6044 12.0553 29.658 12.09C28.8003 12.6544 28.2633 14.4005 27.9489 15.9083C27.5952 17.603 26.6683 22.3244 26.2304 24.5619C25.5754 23.3865 24.6311 22.3826 24.3585 22.1047V20.4613C24.5375 20.1779 24.6585 19.8727 24.6585 19.528C24.6585 18.636 24.1202 18.0889 23.6449 17.6061C23.5289 17.4885 23.4178 17.3752 23.3168 17.2613C23.192 17.1221 23.0835 16.9816 23.0005 16.8305C22.9169 16.9816 22.8078 17.1221 22.683 17.262C22.582 17.3758 22.4703 17.4885 22.3549 17.6061C21.8802 18.0889 21.3419 18.636 21.3419 19.528C21.3419 19.8727 21.4629 20.1779 21.6419 20.4613V22.1041C21.3706 22.3807 20.425 23.3847 19.77 24.5607C19.3315 22.3225 18.4046 17.6024 18.0509 15.9083ZM20.0551 25.0868C20.5054 24.1838 21.1984 23.3333 21.6419 22.8344V23.4391C21.6419 24.7309 21.1554 25.3957 20.6788 25.8747C20.4668 26.0883 20.2247 26.2752 19.9678 26.4727C19.7357 26.6515 19.5005 26.8329 19.2772 27.0409C19.4494 26.49 19.702 25.7955 20.0551 25.0868ZM14.7898 35.424C12.6996 35.6604 11.3005 35.0879 10.5326 33.6773C11.3373 33.8543 12.3478 33.863 12.5312 33.863H12.558L12.7351 33.8618C12.7233 33.8475 12.7121 33.8327 12.7015 33.8178C12.5973 33.6754 12.495 33.5238 12.3946 33.3666C11.9642 33.3592 10.7759 33.314 10.1721 33.0515C9.45972 32.7414 8.98379 31.8737 8.8266 31.2522C9.5851 31.566 10.7154 31.6793 11.2799 31.6793C11.3298 31.6793 11.3747 31.6787 11.4152 31.6768L11.4782 31.6744C11.4009 31.5066 11.3279 31.3426 11.2599 31.1841C10.6511 31.1804 9.36304 31.0282 8.77857 30.6778C8.74114 30.6556 8.70621 30.632 8.67502 30.6079C8.65568 30.593 8.63635 30.577 8.61763 30.5602C8.09928 30.1146 7.89843 29.2895 7.88658 28.6935C8.5197 29.1682 9.45411 29.4449 10.628 29.5006L10.7123 29.5043C10.6792 29.3502 10.6449 29.1818 10.6118 29.0042C9.74354 28.9584 8.61077 28.7609 7.95644 28.0974C7.92712 28.0689 7.89905 28.0386 7.87223 28.007C7.85539 27.9879 7.83917 27.9674 7.8242 27.947C7.53914 27.5719 7.47489 27.0359 7.48113 26.5011C8.33507 26.9851 9.18651 27.1368 10.3611 27.2228C10.3461 27.0514 10.3349 26.8843 10.3286 26.7246C9.16281 26.6348 8.34255 26.472 7.50732 25.9373C7.46803 25.9125 7.42935 25.8865 7.39006 25.8599C7.37197 25.8475 7.3545 25.8351 7.33704 25.8215C6.79373 25.4105 6.53861 24.5502 6.6852 23.605C6.9135 22.1282 7.64892 21.0388 8.29764 20.0776C8.31324 20.0547 8.32821 20.0324 8.3438 20.0095C8.32322 20.072 8.30325 20.1352 8.28267 20.1977C8.02692 20.9875 7.76245 21.8045 7.74685 22.5906C7.72814 23.5481 8.35253 24.5867 9.78907 24.7482C11.0285 24.8875 11.9785 24.4437 12.9846 23.9733C13.7768 23.6026 14.5946 23.22 15.6288 23.0876C16.0729 23.54 16.3674 23.9752 16.2713 24.9717C16.2127 25.5795 15.9201 26.269 15.6369 26.9363C15.4161 27.4549 15.1878 27.9922 15.0637 28.5034C14.7948 29.6114 14.8397 31.3426 15.854 32.5737C16.8102 33.7349 17.8419 34.1316 18.588 34.2672C17.6473 34.6955 16.076 35.2785 14.7898 35.424ZM22.9593 32.7842H23.003C23.0155 32.7835 23.0286 32.7835 23.0411 32.7842C23.1583 32.7885 23.2706 32.8231 23.3305 32.8529C23.3611 33.2193 23.5189 34.092 23.9175 34.6095C23.8619 35.0712 23.3467 35.372 22.9999 35.372C22.6531 35.372 22.1385 35.0712 22.0823 34.6095C22.4815 34.092 22.6394 33.2193 22.6693 32.8529C22.7292 32.8231 22.8415 32.7885 22.9593 32.7842ZM22.9475 36.4106C22.9063 36.3902 22.8627 36.3673 22.8134 36.3438C22.8751 36.3475 22.9375 36.3493 22.9999 36.3493C23.0629 36.3493 23.1246 36.3475 23.1864 36.3438C23.1371 36.3673 23.0935 36.3902 23.0523 36.4106C23.0336 36.4199 23.0161 36.4286 22.9993 36.4366C22.9824 36.4286 22.965 36.4199 22.9469 36.4106H22.9475ZM13.6159 37.9326C14.7025 37.7197 15.6575 37.1385 16.3661 36.7077C16.6437 36.5387 16.8832 36.3933 17.0678 36.3079C19.4438 35.2154 21.912 36.4478 22.7229 36.8532C22.7323 36.8575 22.7417 36.8625 22.7504 36.8668V38.3312C21.98 37.9172 21.1429 37.5068 20.3682 37.4307C18.9048 37.2871 18.026 37.4585 16.751 38.1357C16.5139 38.2613 16.2844 38.3956 16.063 38.5256C15.2957 38.975 14.5672 39.4014 13.4905 39.5289C13.5766 39.0486 13.6078 38.4433 13.6159 37.9326ZM29.9799 39.6694C29.9 39.623 29.8189 39.5753 29.736 39.5277C29.5769 39.4367 29.426 39.3439 29.2794 39.2541C28.5121 38.7843 27.7867 38.3405 26.3726 38.3405C25.432 38.3405 24.739 38.668 24.2412 38.9533C24.1551 39.0022 24.0703 39.0529 23.9861 39.1031C23.6224 39.3197 23.2793 39.524 22.9999 39.524C22.7204 39.524 22.3774 39.3197 22.0143 39.1031C21.9301 39.0529 21.8453 39.0022 21.7592 38.9533C21.2608 38.668 20.5684 38.3405 19.6278 38.3405C18.2131 38.3405 17.4883 38.7843 16.7204 39.2541C16.5744 39.3439 16.4229 39.4367 16.2644 39.5277C16.1815 39.5753 16.1004 39.623 16.0205 39.6694C15.2246 40.1343 14.5827 40.5093 13.1624 40.5991C13.2416 40.3948 13.314 40.1819 13.3595 40.0402H13.3602C14.647 39.93 15.4947 39.433 16.3168 38.9521C16.5339 38.8245 16.7585 38.6933 16.9861 38.572C18.175 37.9407 18.9535 37.7897 20.3189 37.9233C21.0756 37.9976 21.9582 38.4643 22.7504 38.8957C22.7866 38.9149 22.8227 38.9347 22.8589 38.9545L22.9999 39.0313L23.1415 38.9545C23.177 38.9353 23.2132 38.9155 23.2494 38.8957C24.0416 38.4643 24.9236 37.9982 25.6815 37.9233C27.0469 37.7897 27.8254 37.9407 29.0137 38.572C29.242 38.6933 29.4665 38.8245 29.6836 38.9521C30.5051 39.433 31.3528 39.93 32.6403 40.0402H32.6409C32.6864 40.1819 32.7581 40.3948 32.8374 40.5991C31.417 40.5093 30.7752 40.1343 29.9799 39.6694ZM28.9326 36.3079C29.1172 36.3933 29.3567 36.5387 29.6337 36.7077C30.3429 37.1385 31.2973 37.7197 32.3839 37.9326C32.3926 38.4433 32.4238 39.0486 32.5093 39.5289C31.4333 39.4014 30.7047 38.975 29.9368 38.5256C29.7154 38.3956 29.4865 38.2613 29.2494 38.1357C27.9738 37.4585 27.0949 37.2871 25.6322 37.4307C24.8575 37.5068 24.0198 37.9172 23.2494 38.3312V36.8668C23.2588 36.8625 23.2675 36.8575 23.2768 36.8532C24.0877 36.4478 26.556 35.2154 28.9326 36.3079ZM26.3558 33.9144C25.3921 34.8707 24.4277 35.7347 23.2494 35.843V35.8399C23.8014 35.7242 24.4215 35.2457 24.4215 34.5271V34.4331L24.3585 34.3625C23.9848 33.9447 23.8245 32.9878 23.8245 32.7414V32.6796L23.7952 32.6245C23.7484 32.5378 23.6661 32.4703 23.5688 32.419C23.4559 32.3595 23.3586 32.3342 23.2525 32.3131C23.1259 32.2877 23.0286 32.2865 22.9999 32.2865C22.9712 32.2865 22.8745 32.2877 22.7479 32.3131C22.6412 32.3342 22.5445 32.3602 22.4316 32.419C22.3343 32.4697 22.252 32.5372 22.2052 32.6245L22.1759 32.6796V32.7414C22.1759 32.9878 22.015 33.9447 21.6413 34.3625L21.5789 34.4331V34.5271C21.5789 35.2457 22.199 35.7242 22.7504 35.8399V35.8424C21.5727 35.7341 20.6077 34.87 19.6446 33.9144L19.606 33.876L19.5717 33.8426C19.5536 33.8419 19.523 33.8419 19.4681 33.8419C19.445 33.8419 19.4201 33.8419 19.3933 33.8413C18.8549 33.837 17.4808 33.7664 16.2401 32.2605C15.3419 31.1699 15.3063 29.617 15.549 28.6192C15.6637 28.1475 15.8839 27.6295 16.0966 27.1281C16.3942 26.4275 16.7023 25.7021 16.7684 25.0193C16.8583 24.0853 16.63 23.527 16.2925 23.0888C16.6942 23.1538 17.0735 23.337 17.3641 23.6168C17.7197 23.9591 17.8962 24.4004 17.8607 24.8603C17.8282 25.2787 17.7315 25.6482 17.6542 25.9453C17.633 26.0258 17.613 26.1013 17.5962 26.1725C17.4053 26.9616 17.3267 27.7811 18.6217 28.3648C18.6235 28.366 18.6254 28.3673 18.6279 28.3679L18.8431 28.4645L18.9523 28.2565C18.9523 28.2565 18.9547 28.2515 18.956 28.2497C19.2841 27.6258 19.7875 27.2389 20.274 26.8638C20.5323 26.6651 20.7992 26.459 21.0344 26.222C21.5496 25.7039 22.141 24.9185 22.141 23.4391V21.1038C22.1771 21.1453 22.2139 21.1868 22.2507 21.2282C22.416 21.4152 22.5776 21.5971 22.7067 21.7785C22.8739 22.0131 22.988 22.2458 22.988 22.4847C22.988 22.5107 22.9924 22.5361 22.9999 22.5602C23.0074 22.5361 23.0117 22.5107 23.0117 22.4847C23.0117 22.2464 23.1259 22.0137 23.2937 21.7791C23.4222 21.5978 23.5844 21.4152 23.7497 21.2282C23.7865 21.1868 23.8233 21.1453 23.8594 21.1038V23.4391C23.8594 24.9185 24.4508 25.7039 24.966 26.222C25.2012 26.459 25.4682 26.6651 25.7264 26.8638C26.2129 27.2389 26.7163 27.6258 27.0444 28.2497C27.0457 28.2515 27.0469 28.254 27.0482 28.2565L27.1573 28.4645L27.3582 28.3741C27.3675 28.3704 27.3763 28.3667 27.3844 28.3623C28.6731 27.7787 28.5951 26.9604 28.4042 26.1725C28.3874 26.1013 28.3674 26.0258 28.3462 25.9453C28.2689 25.6482 28.1722 25.2787 28.1398 24.8603C28.1042 24.4004 28.2807 23.9591 28.6363 23.6168C28.927 23.337 29.3062 23.1538 29.7079 23.0888C29.3705 23.527 29.1422 24.0853 29.232 25.0193C29.2981 25.7021 29.6062 26.4275 29.9038 27.1281C30.1165 27.6295 30.3367 28.1475 30.4514 28.6192C30.6941 29.617 30.6585 31.1699 29.7603 32.2605C28.5196 33.7664 27.1455 33.837 26.6072 33.8413C26.5803 33.8419 26.5554 33.8419 26.5323 33.8419C26.4774 33.8419 26.4468 33.8419 26.4288 33.8426L26.3944 33.876L26.3558 33.9144ZM37.3828 30.5602C37.3641 30.577 37.3447 30.593 37.3254 30.6079C37.2942 30.632 37.2593 30.6556 37.2218 30.6778C36.6374 31.0282 35.3493 31.1804 34.7405 31.1841C34.6725 31.3426 34.5995 31.5066 34.5222 31.6744L34.5852 31.6768C34.6257 31.6787 34.6706 31.6793 34.7205 31.6793C35.285 31.6793 36.4153 31.566 37.1738 31.2522C37.0166 31.8737 36.5407 32.7414 35.8283 33.0515C35.2245 33.314 34.0363 33.3592 33.6059 33.3666C33.5054 33.5238 33.4031 33.6754 33.299 33.8178C33.2884 33.8327 33.2771 33.8475 33.2653 33.8618L33.4424 33.863H33.4692C33.6526 33.863 34.6631 33.8543 35.4672 33.6773C34.6999 35.0879 33.3008 35.6604 31.2106 35.424C29.9244 35.2785 28.3531 34.6955 27.4124 34.2672C28.1585 34.1316 29.1902 33.7349 30.1464 32.5737C31.1607 31.3426 31.2056 29.6114 30.9367 28.5034C30.8126 27.9922 30.5843 27.4549 30.3635 26.9363C30.0803 26.269 29.7878 25.5795 29.7291 24.9717C29.6331 23.9752 29.9275 23.54 30.3716 23.0876C31.4058 23.22 32.2236 23.6026 33.0158 23.9733C34.0219 24.4437 34.9719 24.8875 36.2113 24.7482C37.6479 24.5867 38.2723 23.5481 38.2536 22.5906C38.238 21.8045 37.9735 20.9875 37.7177 20.1977C37.6972 20.1352 37.6772 20.072 37.6566 20.0095C37.6722 20.0324 37.6872 20.0547 37.7028 20.0776C38.3515 21.0388 39.0869 22.1282 39.3152 23.605C39.4618 24.5502 39.2067 25.4105 38.6634 25.8215C38.6459 25.8351 38.6284 25.8475 38.6104 25.8599C38.5711 25.8865 38.5324 25.9125 38.4931 25.9373C37.6579 26.472 36.8376 26.6348 35.6718 26.7246C35.6655 26.8843 35.6543 27.0514 35.6393 27.2228C36.8139 27.1368 37.6653 26.9851 38.5193 26.5011C38.5255 27.0359 38.4613 27.5719 38.1762 27.947C38.1612 27.9674 38.145 27.9879 38.1282 28.007C38.1014 28.0386 38.0733 28.0689 38.044 28.0974C37.3896 28.7609 36.2569 28.9584 35.3886 29.0042C35.3555 29.1818 35.3212 29.3502 35.2882 29.5043L35.3724 29.5006C36.5463 29.4449 37.4807 29.1682 38.1138 28.6935C38.102 29.2895 37.9011 30.1146 37.3828 30.5602Z" fill="black"/>
<path d="M24.8207 27.7478C24.7234 27.6048 24.6161 27.4531 24.5026 27.2922L24.404 27.1523C23.8314 26.3378 23.6723 26.0066 23.4715 25.2682C23.4634 25.2391 23.4559 25.21 23.4478 25.1809L23.3579 24.7526C23.3249 24.557 23.308 24.5187 23.2307 24.3181C23.1596 24.1337 23.0411 23.9703 22.9993 23.5983C22.9575 23.9703 22.839 24.1337 22.7679 24.3181C22.6905 24.5187 22.6737 24.557 22.6406 24.7526L22.5508 25.1809C22.5427 25.21 22.5346 25.2397 22.5271 25.2682C22.3262 26.0066 22.1678 26.3378 21.5945 27.1523L21.496 27.2922C21.3825 27.4531 21.2752 27.6048 21.1779 27.7478C20.6558 28.5146 20.4237 29.276 20.5154 30.0924C20.6452 31.2548 21.8422 31.8941 21.8902 31.9195H21.8915L21.8946 31.9158C21.8977 31.9115 21.9027 31.9053 21.9096 31.8966C22.4653 31.2021 23.5345 31.2021 24.0896 31.8966C24.0965 31.9053 24.1015 31.9115 24.1046 31.9158L24.1077 31.9201H24.109C24.157 31.8941 25.354 31.2548 25.4838 30.0924C25.5754 29.276 25.3434 28.5153 24.8213 27.7478H24.8207Z" fill="#FAD407"/>
<path d="M24.7072 26.9994C24.4046 26.5408 24.1969 26.3507 23.8832 25.7466C23.479 24.9668 23.3336 24.3348 23.2825 24.0847C23.1977 23.6676 23.1708 23.3067 23.1646 23.0381C22.96 23.2789 22.6425 23.7196 22.4784 24.3497C22.3786 24.7328 22.3655 25.0714 22.3768 25.3214C22.3531 25.3004 22.3219 25.2769 22.2807 25.2558C22.2034 25.2162 22.1304 25.2081 22.0867 25.2063C22.1048 25.7417 21.9844 26.131 21.8896 26.3613C21.7929 26.5971 21.6819 26.7753 21.5359 26.9963C21.39 27.2167 21.0718 27.5979 20.9452 27.7836C20.4231 28.5511 20.1624 29.201 20.2653 30.1183C20.4106 31.42 21.7187 32.1095 21.7742 32.1386L21.9651 32.2358C22.5071 31.3872 23.4914 31.3897 24.031 32.2358L24.2219 32.1386C24.278 32.1095 25.5854 31.42 25.7314 30.1183C25.8705 28.8755 25.1351 27.6499 24.7066 26.9988L24.7072 26.9994ZM25.2361 30.0639C25.1469 30.8617 24.4726 31.3928 24.1558 31.6007C23.5445 30.9768 22.5365 30.905 21.8416 31.6007C21.5247 31.3928 20.851 30.8617 20.7618 30.0639C20.6757 29.2957 20.846 28.829 21.2696 28.129C21.3906 27.9285 21.68 27.5577 21.899 27.1938C22.1678 26.7463 22.2476 26.5253 22.4285 26.1756C22.5427 26.7679 22.882 27.4228 23.0642 28.3141C23.29 29.422 22.4834 30.0434 22.7273 30.3913C22.8758 29.9277 23.5913 29.1744 23.4921 28.168C23.4284 27.5175 22.945 26.7234 22.8097 25.9948C22.6581 25.1809 22.8115 24.6201 22.9481 24.3911C23.0766 25.2236 23.7484 26.4064 24.3285 27.2303C25.0521 28.259 25.3478 29.0748 25.2374 30.0632L25.2361 30.0639Z" fill="black"/>
<path d="M7.98585 14.5435L10.3375 15.5524L10.1341 16.0191L7.7825 15.0102L7.53549 15.5778L7.1001 15.3909L7.79685 13.7927L8.23224 13.9796L7.98647 14.5435H7.98585Z" fill="black"/>
<path d="M11.2345 14.0056C11.1154 14.1963 10.9863 14.3262 10.8478 14.3962C10.7093 14.4661 10.5509 14.4797 10.3731 14.4389C10.1953 14.3974 9.98262 14.3009 9.73623 14.1492L8.12939 13.1601L8.39949 12.7281L10.0469 13.742C10.1535 13.8076 10.2515 13.8571 10.3407 13.8905C10.4299 13.9239 10.5141 13.9326 10.5933 13.9171C10.6731 13.9016 10.7399 13.8503 10.7941 13.763C10.8403 13.6893 10.8628 13.6206 10.8621 13.5569C10.8615 13.4931 10.8303 13.4263 10.7686 13.3551C10.7074 13.2845 10.607 13.2066 10.4685 13.1211L8.7962 12.0924L9.0663 11.6604L10.7648 12.7058C11.0817 12.9008 11.2776 13.1044 11.3524 13.3173C11.4273 13.5303 11.388 13.7599 11.2339 14.0062L11.2345 14.0056Z" fill="black"/>
<path d="M10.5825 10.5289L12.5399 12.1692L12.2093 12.5579L10.2519 10.9176L9.8502 11.3899L9.48779 11.086L10.6199 9.75525L10.9823 10.0585L10.5825 10.5283V10.5289Z" fill="black"/>
<path d="M15.2701 9.78249L13.5891 8.26604L14.4966 10.3346L14.055 10.6496L11.855 8.50867L12.2742 8.20972L13.7537 9.69521L12.8786 7.77769L13.3558 7.43664L14.8952 8.86705L13.9652 7.00213L14.3769 6.70813L15.7117 9.46682L15.2701 9.78187V9.78249Z" fill="black"/>
<path d="M17.2165 8.76743C17.0112 8.86152 16.8316 8.89989 16.6769 8.88256C16.5222 8.86523 16.3825 8.79034 16.2571 8.6585C16.1311 8.52666 16.0076 8.33045 15.886 8.06925L15.0925 6.36588L15.5579 6.15234L16.3713 7.89842C16.4243 8.01169 16.4785 8.10639 16.5341 8.18252C16.5902 8.25865 16.6551 8.31188 16.7305 8.34283C16.8054 8.37316 16.8902 8.36697 16.9838 8.32426C17.063 8.28774 17.1198 8.24318 17.1547 8.18933C17.189 8.13548 17.2009 8.06244 17.1884 7.97022C17.1765 7.87737 17.136 7.75792 17.068 7.61122L16.2421 5.83915L16.7075 5.62561L17.5458 7.42554C17.7024 7.76101 17.7529 8.0383 17.6974 8.25679C17.6419 8.47529 17.4816 8.6455 17.2165 8.76743Z" fill="black"/>
<path d="M19.482 5.66648C19.5369 5.85897 19.5413 6.03352 19.4951 6.1895C19.449 6.34547 19.3492 6.47917 19.1957 6.59058C19.2413 6.59367 19.2862 6.6042 19.3305 6.62215C19.3747 6.6401 19.4296 6.67909 19.4958 6.73789C19.5619 6.79731 19.6386 6.88458 19.7266 7.00095L20.2755 7.68428L19.7184 7.84025L19.2207 7.22996C19.1022 7.08822 19.0123 6.98733 18.9512 6.92853C18.8894 6.86973 18.8402 6.83507 18.8015 6.82393C18.7634 6.8134 18.7173 6.81588 18.6624 6.83073L18.5507 6.8623L18.8951 8.0705L18.4023 8.20915L17.5764 5.30996L18.4154 5.07475C18.7029 4.99429 18.9331 5.00543 19.1071 5.10942C19.2812 5.21278 19.4059 5.39847 19.482 5.66648ZM18.9874 5.83298C18.9493 5.69866 18.8863 5.61201 18.7984 5.57301C18.7104 5.53402 18.5963 5.53464 18.4559 5.57425L18.2039 5.64481L18.426 6.42408L18.6368 6.36466C18.7978 6.31948 18.9057 6.25263 18.9612 6.16474C19.0167 6.07684 19.0254 5.96605 18.9874 5.83298Z" fill="black"/>
<path d="M20.5468 7.67626L20.0696 4.70094L20.5755 4.62109L21.0526 7.59642L20.5468 7.67626Z" fill="black"/>
<path d="M23.8389 7.48372L23.8832 6.15048L23.1353 6.12634L23.091 7.45958L22.5789 7.44286L22.6787 4.43164L23.1908 4.44835L23.1515 5.63984L23.8994 5.66398L23.9387 4.47249L24.4508 4.4892L24.351 7.50043L23.8389 7.48372Z" fill="black"/>
<path d="M25.3442 7.0498L25.1072 7.61181L24.5857 7.5134L25.9143 4.69714L26.4614 4.80051L26.6466 7.90272L26.1233 7.80369L26.1127 7.19525L25.3448 7.05042L25.3442 7.0498ZM26.0821 5.29815L25.5407 6.58496L26.1058 6.69142L26.0821 5.29815Z" fill="black"/>
<path d="M28.0738 8.40599L27.9615 6.26935L27.9578 6.26811L27.309 8.13303L26.8687 7.97581L27.8966 5.14099L28.3894 5.31677L28.4742 7.36304L28.4774 7.36428L29.1248 5.57921L29.5739 5.73952L28.546 8.57434L28.0744 8.40599H28.0738Z" fill="black"/>
<path d="M31.3691 8.26362C31.1808 8.60033 31.0049 8.85472 30.8402 9.02741C30.6755 9.2001 30.5059 9.30037 30.3306 9.32884C30.1553 9.35731 29.9607 9.31213 29.7467 9.19453L28.957 8.76002L30.4291 6.12512L31.1851 6.54106C31.4035 6.66114 31.55 6.80412 31.6249 6.97062C31.6997 7.13712 31.7141 7.3259 31.6679 7.53696C31.6218 7.74803 31.522 7.99004 31.3698 8.26362H31.3691ZM29.6369 8.59166L29.8821 8.7266C30.028 8.80706 30.1565 8.82811 30.2669 8.79035C30.3774 8.75259 30.4747 8.6777 30.5582 8.56629C30.6425 8.45487 30.7429 8.29395 30.8608 8.08288C31.0042 7.82663 31.0953 7.62609 31.1352 7.48188C31.1752 7.33766 31.172 7.22377 31.1271 7.14021C31.0816 7.05665 30.9918 6.97804 30.8577 6.90377L30.645 6.78679L29.6369 8.59166Z" fill="black"/>
<path d="M31.5344 9.6167L31.0672 10.0116L30.6467 9.69035L33.1131 7.77283L33.5541 8.11016L32.3085 10.9611L31.8868 10.6386L32.1544 10.0908L31.535 9.61732L31.5344 9.6167ZM32.9896 8.38374L31.9211 9.28927L32.3764 9.63774L32.9896 8.38374Z" fill="black"/>
<path d="M34.13 10.2485L34.3402 10.1489L35.3114 9.70633L35.7269 10.1192L33.921 10.7994L33.0197 11.6926L32.6604 11.3354L33.5617 10.4423L34.2491 8.65039L34.6708 9.07004L34.2292 10.0424L34.13 10.2492V10.2485Z" fill="black"/>
<path d="M34.274 12.1983L33.7201 12.4607L33.397 12.0429L36.2769 10.8186L36.6156 11.2568L34.6738 13.6943L34.3495 13.2746L34.7499 12.8129L34.274 12.1976V12.1983ZM35.9993 11.3781L34.7318 11.981L35.0818 12.4335L35.9987 11.3781H35.9993Z" fill="black"/>
<path d="M35.4036 15.0127L36.7509 13.3415L36.749 13.3384L35.015 14.304L34.791 13.8961L37.4576 12.4558L37.7078 12.912L36.4003 14.4965L36.4022 14.4996L38.0814 13.5928L38.3097 14.0088L35.6431 15.4491L35.4036 15.0121V15.0127Z" fill="black"/>
<path d="M35.8142 15.8959L38.633 14.7756L38.8233 15.2479L36.0045 16.3682L35.8142 15.8959Z" fill="black"/>
<path d="M54.5568 17V8.27273H55.6136V12.6023H55.7159L59.6364 8.27273H61.017L57.3523 12.2102L61.017 17H59.7386L56.7045 12.9432L55.6136 14.1705V17H54.5568ZM64.5124 17.1364C63.8817 17.1364 63.3377 16.9972 62.8803 16.7188C62.4258 16.4375 62.0749 16.0455 61.8278 15.5426C61.5835 15.0369 61.4613 14.4489 61.4613 13.7784C61.4613 13.108 61.5835 12.517 61.8278 12.0057C62.0749 11.4915 62.4187 11.0909 62.859 10.804C63.3022 10.5142 63.8192 10.3693 64.4102 10.3693C64.7511 10.3693 65.0877 10.4261 65.4201 10.5398C65.7525 10.6534 66.055 10.8381 66.3278 11.0938C66.6005 11.3466 66.8178 11.6818 66.9798 12.0994C67.1417 12.517 67.2227 13.0312 67.2227 13.642V14.0682H62.1772V13.1989H66.1999C66.1999 12.8295 66.1261 12.5 65.9783 12.2102C65.8335 11.9205 65.6261 11.6918 65.3562 11.5241C65.0891 11.3565 64.7738 11.2727 64.4102 11.2727C64.0096 11.2727 63.663 11.3722 63.3704 11.571C63.0806 11.767 62.8576 12.0227 62.7013 12.3381C62.5451 12.6534 62.467 12.9915 62.467 13.3523V13.9318C62.467 14.4261 62.5522 14.8452 62.7227 15.1889C62.896 15.5298 63.136 15.7898 63.4428 15.9688C63.7496 16.1449 64.1062 16.233 64.5124 16.233C64.7766 16.233 65.0153 16.196 65.2283 16.1222C65.4442 16.0455 65.6303 15.9318 65.7866 15.7812C65.9428 15.6278 66.0636 15.4375 66.1488 15.2102L67.1204 15.483C67.0181 15.8125 66.8462 16.1023 66.6048 16.3523C66.3633 16.5994 66.065 16.7926 65.7099 16.9318C65.3548 17.0682 64.9556 17.1364 64.5124 17.1364ZM68.7525 17V10.4545H69.7241V11.4773H69.8093C69.9457 11.1278 70.1658 10.8565 70.4698 10.6634C70.7738 10.4673 71.1388 10.3693 71.565 10.3693C71.9968 10.3693 72.3562 10.4673 72.6431 10.6634C72.9329 10.8565 73.1587 11.1278 73.3207 11.4773H73.3888C73.5565 11.1392 73.8079 10.8707 74.1431 10.6719C74.4783 10.4702 74.8803 10.3693 75.3491 10.3693C75.9343 10.3693 76.413 10.5526 76.7852 10.919C77.1573 11.2827 77.3434 11.8494 77.3434 12.6193V17H76.3377V12.6193C76.3377 12.1364 76.2056 11.7912 75.9414 11.5838C75.6772 11.3764 75.3661 11.2727 75.0082 11.2727C74.5479 11.2727 74.1914 11.4119 73.9386 11.6903C73.6857 11.9659 73.5593 12.3153 73.5593 12.7386V17H72.5366V12.517C72.5366 12.1449 72.4158 11.8452 72.1744 11.6179C71.9329 11.3878 71.6218 11.2727 71.2411 11.2727C70.9798 11.2727 70.7354 11.3423 70.5082 11.4815C70.2837 11.6207 70.1019 11.8139 69.9627 12.0611C69.8263 12.3054 69.7582 12.5881 69.7582 12.9091V17H68.7525ZM81.9265 17.1364C81.2958 17.1364 80.7518 16.9972 80.2944 16.7188C79.8398 16.4375 79.489 16.0455 79.2418 15.5426C78.9975 15.0369 78.8754 14.4489 78.8754 13.7784C78.8754 13.108 78.9975 12.517 79.2418 12.0057C79.489 11.4915 79.8327 11.0909 80.2731 10.804C80.7163 10.5142 81.2333 10.3693 81.8242 10.3693C82.1651 10.3693 82.5018 10.4261 82.8342 10.5398C83.1665 10.6534 83.4691 10.8381 83.7418 11.0938C84.0146 11.3466 84.2319 11.6818 84.3938 12.0994C84.5558 12.517 84.6367 13.0312 84.6367 13.642V14.0682H79.5913V13.1989H83.614C83.614 12.8295 83.5401 12.5 83.3924 12.2102C83.2475 11.9205 83.0401 11.6918 82.7702 11.5241C82.5032 11.3565 82.1879 11.2727 81.8242 11.2727C81.4237 11.2727 81.0771 11.3722 80.7844 11.571C80.4947 11.767 80.2717 12.0227 80.1154 12.3381C79.9592 12.6534 79.881 12.9915 79.881 13.3523V13.9318C79.881 14.4261 79.9663 14.8452 80.1367 15.1889C80.31 15.5298 80.5501 15.7898 80.8569 15.9688C81.1637 16.1449 81.5202 16.233 81.9265 16.233C82.1907 16.233 82.4293 16.196 82.6424 16.1222C82.8583 16.0455 83.0444 15.9318 83.2006 15.7812C83.3569 15.6278 83.4776 15.4375 83.5629 15.2102L84.5344 15.483C84.4322 15.8125 84.2603 16.1023 84.0188 16.3523C83.7773 16.5994 83.479 16.7926 83.1239 16.9318C82.7688 17.0682 82.3697 17.1364 81.9265 17.1364ZM87.1722 13.0625V17H86.1665V10.4545H87.1381V11.4773H87.2234C87.3768 11.1449 87.6097 10.8778 87.9222 10.6761C88.2347 10.4716 88.6381 10.3693 89.1325 10.3693C89.5756 10.3693 89.9634 10.4602 90.2958 10.642C90.6282 10.821 90.8867 11.0938 91.0714 11.4602C91.256 11.8239 91.3484 12.2841 91.3484 12.8409V17H90.3427V12.9091C90.3427 12.3949 90.2092 11.9943 89.9421 11.7074C89.6751 11.4176 89.3086 11.2727 88.8427 11.2727C88.5217 11.2727 88.2347 11.3423 87.9819 11.4815C87.7319 11.6207 87.5344 11.8239 87.3896 12.0909C87.2447 12.358 87.1722 12.6818 87.1722 13.0625ZM95.6577 17.1364C95.1122 17.1364 94.6307 16.9986 94.2131 16.723C93.7955 16.4446 93.4688 16.0526 93.233 15.5469C92.9972 15.0384 92.8793 14.4375 92.8793 13.7443C92.8793 13.0568 92.9972 12.4602 93.233 11.9545C93.4688 11.4489 93.7969 11.0582 94.2173 10.7827C94.6378 10.5071 95.1236 10.3693 95.6747 10.3693C96.1009 10.3693 96.4375 10.4403 96.6847 10.5824C96.9347 10.7216 97.125 10.8807 97.2557 11.0597C97.3892 11.2358 97.4929 11.3807 97.5668 11.4943H97.652V8.27273H98.6577V17H97.6861V15.9943H97.5668C97.4929 16.1136 97.3878 16.2642 97.2514 16.446C97.1151 16.625 96.9205 16.7855 96.6676 16.9276C96.4148 17.0668 96.0781 17.1364 95.6577 17.1364ZM95.794 16.233C96.1974 16.233 96.5384 16.1278 96.8168 15.9176C97.0952 15.7045 97.3068 15.4105 97.4517 15.0355C97.5966 14.6577 97.669 14.2216 97.669 13.7273C97.669 13.2386 97.598 12.8111 97.456 12.4446C97.3139 12.0753 97.1037 11.7884 96.8253 11.5838C96.5469 11.3764 96.2031 11.2727 95.794 11.2727C95.3679 11.2727 95.0128 11.3821 94.7287 11.6009C94.4474 11.8168 94.2358 12.1108 94.0938 12.483C93.9545 12.8523 93.8849 13.267 93.8849 13.7273C93.8849 14.1932 93.956 14.6165 94.098 14.9972C94.2429 15.375 94.456 15.6761 94.7372 15.9006C95.0213 16.1222 95.3736 16.233 95.794 16.233ZM100.639 17V10.4545H101.645V17H100.639ZM101.151 9.36364C100.955 9.36364 100.786 9.29688 100.643 9.16335C100.504 9.02983 100.435 8.86932 100.435 8.68182C100.435 8.49432 100.504 8.33381 100.643 8.20028C100.786 8.06676 100.955 8 101.151 8C101.347 8 101.514 8.06676 101.653 8.20028C101.795 8.33381 101.866 8.49432 101.866 8.68182C101.866 8.86932 101.795 9.02983 101.653 9.16335C101.514 9.29688 101.347 9.36364 101.151 9.36364ZM104.424 14.6136L104.407 13.3693H104.612L107.475 10.4545H108.72L105.669 13.5398H105.583L104.424 14.6136ZM103.487 17V8.27273H104.493V17H103.487ZM107.646 17L105.089 13.7614L105.805 13.0625L108.924 17H107.646ZM112.216 17.1364C111.671 17.1364 111.189 16.9986 110.772 16.723C110.354 16.4446 110.027 16.0526 109.792 15.5469C109.556 15.0384 109.438 14.4375 109.438 13.7443C109.438 13.0568 109.556 12.4602 109.792 11.9545C110.027 11.4489 110.355 11.0582 110.776 10.7827C111.196 10.5071 111.682 10.3693 112.233 10.3693C112.659 10.3693 112.996 10.4403 113.243 10.5824C113.493 10.7216 113.684 10.8807 113.814 11.0597C113.948 11.2358 114.051 11.3807 114.125 11.4943H114.211V8.27273H115.216V17H114.245V15.9943H114.125C114.051 16.1136 113.946 16.2642 113.81 16.446C113.674 16.625 113.479 16.7855 113.226 16.9276C112.973 17.0668 112.637 17.1364 112.216 17.1364ZM112.353 16.233C112.756 16.233 113.097 16.1278 113.375 15.9176C113.654 15.7045 113.865 15.4105 114.01 15.0355C114.155 14.6577 114.228 14.2216 114.228 13.7273C114.228 13.2386 114.157 12.8111 114.015 12.4446C113.873 12.0753 113.662 11.7884 113.384 11.5838C113.105 11.3764 112.762 11.2727 112.353 11.2727C111.926 11.2727 111.571 11.3821 111.287 11.6009C111.006 11.8168 110.794 12.1108 110.652 12.483C110.513 12.8523 110.444 13.267 110.444 13.7273C110.444 14.1932 110.515 14.6165 110.657 14.9972C110.801 15.375 111.015 15.6761 111.296 15.9006C111.58 16.1222 111.932 16.233 112.353 16.233ZM119.124 17.1534C118.709 17.1534 118.333 17.0753 117.995 16.919C117.657 16.7599 117.388 16.5312 117.189 16.233C116.99 15.9318 116.891 15.5682 116.891 15.142C116.891 14.767 116.965 14.4631 117.113 14.2301C117.26 13.9943 117.458 13.8097 117.705 13.6761C117.952 13.5426 118.225 13.4432 118.523 13.3778C118.824 13.3097 119.127 13.2557 119.431 13.2159C119.828 13.1648 120.151 13.1264 120.398 13.1009C120.648 13.0724 120.83 13.0256 120.944 12.9602C121.06 12.8949 121.118 12.7812 121.118 12.6193V12.5852C121.118 12.1648 121.003 11.8381 120.773 11.6051C120.546 11.3722 120.201 11.2557 119.738 11.2557C119.257 11.2557 118.881 11.3608 118.608 11.571C118.336 11.7812 118.144 12.0057 118.033 12.2443L117.078 11.9034C117.249 11.5057 117.476 11.196 117.76 10.9744C118.047 10.75 118.36 10.5937 118.698 10.5057C119.039 10.4148 119.374 10.3693 119.703 10.3693C119.914 10.3693 120.155 10.3949 120.428 10.446C120.703 10.4943 120.969 10.5952 121.225 10.7486C121.483 10.902 121.698 11.1335 121.868 11.4432C122.039 11.7528 122.124 12.1676 122.124 12.6875V17H121.118V16.1136H121.067C120.999 16.2557 120.885 16.4077 120.726 16.5696C120.567 16.7315 120.355 16.8693 120.091 16.983C119.827 17.0966 119.505 17.1534 119.124 17.1534ZM119.277 16.25C119.675 16.25 120.01 16.1719 120.283 16.0156C120.559 15.8594 120.766 15.6577 120.905 15.4105C121.047 15.1634 121.118 14.9034 121.118 14.6307V13.7102C121.076 13.7614 120.982 13.8082 120.837 13.8509C120.695 13.8906 120.53 13.9261 120.343 13.9574C120.158 13.9858 119.978 14.0114 119.801 14.0341C119.628 14.054 119.488 14.071 119.38 14.0852C119.118 14.1193 118.874 14.1747 118.647 14.2514C118.422 14.3253 118.24 14.4375 118.101 14.5881C117.965 14.7358 117.897 14.9375 117.897 15.1932C117.897 15.5426 118.026 15.8068 118.284 15.9858C118.546 16.1619 118.877 16.25 119.277 16.25ZM128.596 11.9205L127.692 12.1761C127.636 12.0256 127.552 11.8793 127.441 11.7372C127.333 11.5923 127.185 11.473 126.998 11.3793C126.81 11.2855 126.57 11.2386 126.278 11.2386C125.877 11.2386 125.543 11.331 125.276 11.5156C125.012 11.6974 124.88 11.929 124.88 12.2102C124.88 12.4602 124.971 12.6577 125.153 12.8026C125.335 12.9474 125.619 13.0682 126.005 13.1648L126.977 13.4034C127.562 13.5455 127.998 13.7628 128.285 14.0554C128.572 14.3452 128.715 14.7187 128.715 15.1761C128.715 15.5511 128.607 15.8864 128.391 16.1818C128.178 16.4773 127.88 16.7102 127.496 16.8807C127.113 17.0511 126.667 17.1364 126.158 17.1364C125.491 17.1364 124.938 16.9915 124.501 16.7017C124.063 16.4119 123.786 15.9886 123.67 15.4318L124.624 15.1932C124.715 15.5455 124.887 15.8097 125.14 15.9858C125.396 16.1619 125.729 16.25 126.141 16.25C126.61 16.25 126.982 16.1506 127.258 15.9517C127.536 15.75 127.675 15.5085 127.675 15.2273C127.675 15 127.596 14.8097 127.437 14.6562C127.278 14.5 127.033 14.3835 126.704 14.3068L125.613 14.0511C125.013 13.9091 124.573 13.6889 124.292 13.3906C124.013 13.0895 123.874 12.7131 123.874 12.2614C123.874 11.892 123.978 11.5653 124.185 11.2812C124.396 10.9972 124.681 10.7741 125.042 10.6122C125.406 10.4503 125.817 10.3693 126.278 10.3693C126.925 10.3693 127.434 10.5114 127.803 10.7955C128.175 11.0795 128.44 11.4545 128.596 11.9205ZM130.229 17V10.4545H131.201V11.4773H131.286C131.422 11.1278 131.642 10.8565 131.946 10.6634C132.25 10.4673 132.615 10.3693 133.042 10.3693C133.473 10.3693 133.833 10.4673 134.12 10.6634C134.409 10.8565 134.635 11.1278 134.797 11.4773H134.865C135.033 11.1392 135.284 10.8707 135.62 10.6719C135.955 10.4702 136.357 10.3693 136.826 10.3693C137.411 10.3693 137.89 10.5526 138.262 10.919C138.634 11.2827 138.82 11.8494 138.82 12.6193V17H137.814V12.6193C137.814 12.1364 137.682 11.7912 137.418 11.5838C137.154 11.3764 136.843 11.2727 136.485 11.2727C136.025 11.2727 135.668 11.4119 135.415 11.6903C135.162 11.9659 135.036 12.3153 135.036 12.7386V17H134.013V12.517C134.013 12.1449 133.892 11.8452 133.651 11.6179C133.409 11.3878 133.098 11.2727 132.718 11.2727C132.456 11.2727 132.212 11.3423 131.985 11.4815C131.76 11.6207 131.578 11.8139 131.439 12.0611C131.303 12.3054 131.235 12.5881 131.235 12.9091V17H130.229ZM143.403 17.1364C142.772 17.1364 142.228 16.9972 141.771 16.7188C141.316 16.4375 140.966 16.0455 140.718 15.5426C140.474 15.0369 140.352 14.4489 140.352 13.7784C140.352 13.108 140.474 12.517 140.718 12.0057C140.966 11.4915 141.309 11.0909 141.75 10.804C142.193 10.5142 142.71 10.3693 143.301 10.3693C143.642 10.3693 143.978 10.4261 144.311 10.5398C144.643 10.6534 144.946 10.8381 145.218 11.0938C145.491 11.3466 145.708 11.6818 145.87 12.0994C146.032 12.517 146.113 13.0312 146.113 13.642V14.0682H141.068V13.1989H145.091C145.091 12.8295 145.017 12.5 144.869 12.2102C144.724 11.9205 144.517 11.6918 144.247 11.5241C143.98 11.3565 143.664 11.2727 143.301 11.2727C142.9 11.2727 142.554 11.3722 142.261 11.571C141.971 11.767 141.748 12.0227 141.592 12.3381C141.436 12.6534 141.358 12.9915 141.358 13.3523V13.9318C141.358 14.4261 141.443 14.8452 141.613 15.1889C141.787 15.5298 142.027 15.7898 142.333 15.9688C142.64 16.1449 142.997 16.233 143.403 16.233C143.667 16.233 143.906 16.196 144.119 16.1222C144.335 16.0455 144.521 15.9318 144.677 15.7812C144.833 15.6278 144.954 15.4375 145.039 15.2102L146.011 15.483C145.909 15.8125 145.737 16.1023 145.495 16.3523C145.254 16.5994 144.956 16.7926 144.6 16.9318C144.245 17.0682 143.846 17.1364 143.403 17.1364ZM148.649 13.0625V17H147.643V10.4545H148.615V11.4773H148.7C148.853 11.1449 149.086 10.8778 149.399 10.6761C149.711 10.4716 150.115 10.3693 150.609 10.3693C151.052 10.3693 151.44 10.4602 151.772 10.642C152.105 10.821 152.363 11.0938 152.548 11.4602C152.733 11.8239 152.825 12.2841 152.825 12.8409V17H151.819V12.9091C151.819 12.3949 151.686 11.9943 151.419 11.7074C151.152 11.4176 150.785 11.2727 150.319 11.2727C149.998 11.2727 149.711 11.3423 149.458 11.4815C149.208 11.6207 149.011 11.8239 148.866 12.0909C148.721 12.358 148.649 12.6818 148.649 13.0625Z" fill="#2F3031"/>
<path d="M54.5746 36V23.6364H59.5249C60.4344 23.6364 61.1931 23.7712 61.8008 24.0408C62.4085 24.3105 62.8653 24.6848 63.1712 25.1637C63.477 25.6386 63.63 26.186 63.63 26.8058C63.63 27.2887 63.5334 27.7133 63.3402 28.0795C63.147 28.4418 62.8814 28.7396 62.5433 28.973C62.2093 29.2024 61.8269 29.3654 61.3963 29.462V29.5827C61.8672 29.6029 62.3079 29.7357 62.7184 29.9812C63.1329 30.2267 63.469 30.5708 63.7266 31.0135C63.9841 31.4522 64.1129 31.9754 64.1129 32.5831C64.1129 33.2391 63.9499 33.8247 63.6239 34.3398C63.302 34.851 62.825 35.2554 62.1932 35.5533C61.5613 35.8511 60.7826 36 59.8569 36H54.5746ZM57.1886 33.8629H59.3196C60.0481 33.8629 60.5793 33.7241 60.9134 33.4464C61.2474 33.1647 61.4144 32.7904 61.4144 32.3235C61.4144 31.9814 61.3319 31.6796 61.1669 31.418C61.0019 31.1564 60.7665 30.9511 60.4606 30.8022C60.1587 30.6533 59.7985 30.5788 59.38 30.5788H57.1886V33.8629ZM57.1886 28.81H59.1264C59.4846 28.81 59.8026 28.7476 60.0803 28.6229C60.362 28.4941 60.5833 28.313 60.7443 28.0795C60.9093 27.8461 60.9918 27.5664 60.9918 27.2404C60.9918 26.7937 60.8329 26.4335 60.5149 26.1598C60.201 25.8861 59.7543 25.7493 59.1747 25.7493H57.1886V28.81ZM65.8138 36V23.6364H70.6917C71.6294 23.6364 72.4283 23.8155 73.0883 24.1737C73.7484 24.5278 74.2515 25.0208 74.5976 25.6527C74.9477 26.2805 75.1228 27.005 75.1228 27.826C75.1228 28.647 74.9457 29.3714 74.5915 29.9993C74.2374 30.6271 73.7242 31.1161 73.0521 31.4663C72.384 31.8164 71.5751 31.9915 70.6253 31.9915H67.5162V29.8967H70.2027C70.7058 29.8967 71.1203 29.8101 71.4463 29.6371C71.7763 29.46 72.0218 29.2165 72.1828 28.9066C72.3478 28.5927 72.4303 28.2325 72.4303 27.826C72.4303 27.4155 72.3478 27.0573 72.1828 26.7514C72.0218 26.4415 71.7763 26.2021 71.4463 26.033C71.1163 25.86 70.6977 25.7734 70.1906 25.7734H68.4278V36H65.8138ZM76.8207 23.6364H80.0444L83.4492 31.9432H83.5941L86.9989 23.6364H90.2227V36H87.6871V27.9528H87.5845L84.3849 35.9396H82.6584L79.4588 27.9226H79.3562V36H76.8207V23.6364ZM92.3763 36V23.6364H97.2542C98.1919 23.6364 98.9908 23.8155 99.6508 24.1737C100.311 24.5278 100.814 25.0208 101.16 25.6527C101.51 26.2805 101.685 27.005 101.685 27.826C101.685 28.647 101.508 29.3714 101.154 29.9993C100.8 30.6271 100.287 31.1161 99.6146 31.4663C98.9465 31.8164 98.1376 31.9915 97.1878 31.9915H94.0787V29.8967H96.7652C97.2683 29.8967 97.6828 29.8101 98.0088 29.6371C98.3388 29.46 98.5843 29.2165 98.7453 28.9066C98.9103 28.5927 98.9928 28.2325 98.9928 27.826C98.9928 27.4155 98.9103 27.0573 98.7453 26.7514C98.5843 26.4415 98.3388 26.2021 98.0088 26.033C97.6788 25.86 97.2602 25.7734 96.7531 25.7734H94.9903V36H92.3763ZM107.318 36V23.6364H112.196C113.133 23.6364 113.932 23.8155 114.592 24.1737C115.252 24.5278 115.755 25.0208 116.101 25.6527C116.452 26.2805 116.627 27.005 116.627 27.826C116.627 28.647 116.45 29.3714 116.095 29.9993C115.741 30.6271 115.228 31.1161 114.556 31.4663C113.888 31.8164 113.079 31.9915 112.129 31.9915H109.02V29.8967H111.707C112.21 29.8967 112.624 29.8101 112.95 29.6371C113.28 29.46 113.526 29.2165 113.687 28.9066C113.852 28.5927 113.934 28.2325 113.934 27.826C113.934 27.4155 113.852 27.0573 113.687 26.7514C113.526 26.4415 113.28 26.2021 112.95 26.033C112.62 25.86 112.202 25.7734 111.695 25.7734H109.932V36H107.318ZM118.276 36V26.7273H120.77V28.3452H120.866C121.035 27.7696 121.319 27.335 121.717 27.0412C122.116 26.7434 122.575 26.5945 123.094 26.5945C123.223 26.5945 123.361 26.6025 123.51 26.6186C123.659 26.6347 123.79 26.6568 123.903 26.685V28.967C123.782 28.9308 123.615 28.8986 123.402 28.8704C123.188 28.8422 122.993 28.8281 122.816 28.8281C122.438 28.8281 122.1 28.9106 121.802 29.0756C121.508 29.2366 121.275 29.462 121.102 29.7518C120.933 30.0415 120.848 30.3756 120.848 30.7539V36H118.276ZM128.99 36.1811C128.053 36.1811 127.242 35.9819 126.557 35.5835C125.877 35.181 125.352 34.6216 124.982 33.9052C124.612 33.1848 124.426 32.3497 124.426 31.3999C124.426 30.442 124.612 29.6049 124.982 28.8885C125.352 28.1681 125.877 27.6087 126.557 27.2102C127.242 26.8078 128.053 26.6065 128.99 26.6065C129.928 26.6065 130.737 26.8078 131.417 27.2102C132.101 27.6087 132.629 28.1681 132.999 28.8885C133.369 29.6049 133.554 30.442 133.554 31.3999C133.554 32.3497 133.369 33.1848 132.999 33.9052C132.629 34.6216 132.101 35.181 131.417 35.5835C130.737 35.9819 129.928 36.1811 128.99 36.1811ZM129.002 34.1889C129.429 34.1889 129.785 34.0682 130.071 33.8267C130.357 33.5812 130.572 33.2472 130.717 32.8246C130.866 32.402 130.94 31.921 130.94 31.3817C130.94 30.8424 130.866 30.3615 130.717 29.9389C130.572 29.5163 130.357 29.1823 130.071 28.9368C129.785 28.6913 129.429 28.5685 129.002 28.5685C128.572 28.5685 128.21 28.6913 127.916 28.9368C127.626 29.1823 127.407 29.5163 127.258 29.9389C127.113 30.3615 127.04 30.8424 127.04 31.3817C127.04 31.921 127.113 32.402 127.258 32.8246C127.407 33.2472 127.626 33.5812 127.916 33.8267C128.21 34.0682 128.572 34.1889 129.002 34.1889ZM143.573 26.7273L140.331 36H137.433L134.191 26.7273H136.908L138.834 33.3619H138.93L140.85 26.7273H143.573ZM144.889 36V26.7273H147.46V36H144.889ZM146.18 25.532C145.798 25.532 145.47 25.4052 145.196 25.1516C144.927 24.8941 144.792 24.5862 144.792 24.228C144.792 23.8738 144.927 23.57 145.196 23.3164C145.47 23.0588 145.798 22.93 146.18 22.93C146.563 22.93 146.889 23.0588 147.158 23.3164C147.432 23.57 147.569 23.8738 147.569 24.228C147.569 24.5862 147.432 24.8941 147.158 25.1516C146.889 25.4052 146.563 25.532 146.18 25.532ZM152.092 30.6392V36H149.52V26.7273H151.971V28.3633H152.08C152.285 27.824 152.629 27.3974 153.112 27.0835C153.595 26.7655 154.181 26.6065 154.869 26.6065C155.513 26.6065 156.075 26.7474 156.553 27.0291C157.032 27.3108 157.405 27.7133 157.67 28.2365C157.936 28.7557 158.069 29.3755 158.069 30.0959V36H155.497V30.5547C155.501 29.9872 155.356 29.5445 155.062 29.2266C154.769 28.9046 154.364 28.7436 153.849 28.7436C153.503 28.7436 153.197 28.8181 152.931 28.967C152.67 29.1159 152.464 29.3332 152.316 29.619C152.171 29.9007 152.096 30.2408 152.092 30.6392ZM167.811 29.3714L165.456 29.5163C165.416 29.3151 165.33 29.134 165.197 28.973C165.064 28.808 164.889 28.6772 164.672 28.5806C164.458 28.48 164.203 28.4297 163.905 28.4297C163.506 28.4297 163.17 28.5142 162.897 28.6832C162.623 28.8482 162.486 29.0696 162.486 29.3473C162.486 29.5687 162.575 29.7558 162.752 29.9087C162.929 30.0617 163.233 30.1844 163.663 30.277L165.342 30.6151C166.243 30.8002 166.915 31.098 167.358 31.5085C167.801 31.919 168.022 32.4583 168.022 33.1264C168.022 33.7341 167.843 34.2674 167.485 34.7262C167.131 35.185 166.644 35.5432 166.024 35.8008C165.408 36.0543 164.698 36.1811 163.893 36.1811C162.665 36.1811 161.687 35.9255 160.959 35.4144C160.234 34.8993 159.81 34.199 159.685 33.3136L162.215 33.1808C162.291 33.555 162.476 33.8408 162.77 34.038C163.064 34.2312 163.44 34.3278 163.899 34.3278C164.35 34.3278 164.712 34.2412 164.986 34.0682C165.263 33.8911 165.404 33.6637 165.408 33.386C165.404 33.1526 165.305 32.9614 165.112 32.8125C164.919 32.6596 164.621 32.5429 164.219 32.4624L162.613 32.1424C161.707 31.9613 161.033 31.6474 160.591 31.2006C160.152 30.7539 159.933 30.1844 159.933 29.4922C159.933 28.8965 160.094 28.3834 160.416 27.9528C160.742 27.5221 161.198 27.1901 161.786 26.9567C162.378 26.7232 163.07 26.6065 163.863 26.6065C165.034 26.6065 165.955 26.854 166.628 27.3491C167.304 27.8441 167.698 28.5182 167.811 29.3714ZM169.642 36V26.7273H172.213V36H169.642ZM170.933 25.532C170.551 25.532 170.223 25.4052 169.949 25.1516C169.68 24.8941 169.545 24.5862 169.545 24.228C169.545 23.8738 169.68 23.57 169.949 23.3164C170.223 23.0588 170.551 22.93 170.933 22.93C171.316 22.93 171.642 23.0588 171.911 23.3164C172.185 23.57 172.322 23.8738 172.322 24.228C172.322 24.5862 172.185 24.8941 171.911 25.1516C171.642 25.4052 171.316 25.532 170.933 25.532ZM184.963 27.1921C184.915 26.7051 184.708 26.3268 184.341 26.0572C183.975 25.7875 183.478 25.6527 182.85 25.6527C182.424 25.6527 182.064 25.7131 181.77 25.8338C181.476 25.9505 181.251 26.1135 181.094 26.3228C180.941 26.5321 180.864 26.7695 180.864 27.0352C180.856 27.2565 180.902 27.4497 181.003 27.6147C181.108 27.7797 181.251 27.9226 181.432 28.0433C181.613 28.16 181.822 28.2627 182.059 28.3512C182.297 28.4357 182.55 28.5082 182.82 28.5685L183.931 28.8342C184.47 28.9549 184.965 29.1159 185.416 29.3171C185.867 29.5183 186.257 29.7659 186.587 30.0597C186.917 30.3535 187.173 30.6996 187.354 31.098C187.539 31.4964 187.634 31.9532 187.638 32.4684C187.634 33.225 187.44 33.881 187.058 34.4364C186.68 34.9878 186.132 35.4164 185.416 35.7223C184.704 36.0241 183.844 36.1751 182.838 36.1751C181.84 36.1751 180.971 36.0221 180.23 35.7163C179.494 35.4104 178.918 34.9576 178.504 34.358C178.093 33.7543 177.878 33.0077 177.858 32.1183H180.387C180.415 32.5328 180.534 32.8789 180.743 33.1566C180.957 33.4303 181.24 33.6375 181.595 33.7784C181.953 33.9152 182.357 33.9837 182.808 33.9837C183.251 33.9837 183.635 33.9193 183.961 33.7905C184.291 33.6617 184.547 33.4826 184.728 33.2532C184.909 33.0238 184.999 32.7602 184.999 32.4624C184.999 32.1847 184.917 31.9512 184.752 31.7621C184.591 31.5729 184.354 31.4119 184.04 31.2791C183.73 31.1463 183.349 31.0256 182.899 30.9169L181.552 30.5788C180.51 30.3253 179.687 29.9289 179.083 29.3896C178.48 28.8503 178.18 28.1238 178.184 27.2102C178.18 26.4616 178.379 25.8076 178.781 25.2482C179.188 24.6888 179.745 24.2521 180.454 23.9382C181.162 23.6243 181.967 23.4673 182.868 23.4673C183.786 23.4673 184.587 23.6243 185.271 23.9382C185.959 24.2521 186.495 24.6888 186.877 25.2482C187.259 25.8076 187.456 26.4556 187.469 27.1921H184.963ZM195.294 32.0518V26.7273H197.866V36H195.397V34.3157H195.3C195.091 34.859 194.743 35.2957 194.256 35.6257C193.773 35.9557 193.183 36.1207 192.487 36.1207C191.867 36.1207 191.322 35.9799 190.851 35.6982C190.38 35.4164 190.012 35.016 189.746 34.4968C189.484 33.9776 189.352 33.3558 189.348 32.6314V26.7273H191.919V32.1726C191.923 32.7199 192.07 33.1526 192.36 33.4705C192.65 33.7885 193.038 33.9474 193.525 33.9474C193.835 33.9474 194.125 33.877 194.394 33.7362C194.664 33.5913 194.881 33.378 195.046 33.0962C195.215 32.8145 195.298 32.4664 195.294 32.0518ZM199.923 36V26.7273H202.374V28.3633H202.482C202.676 27.82 202.998 27.3913 203.448 27.0774C203.899 26.7635 204.438 26.6065 205.066 26.6065C205.702 26.6065 206.243 26.7655 206.69 27.0835C207.137 27.3974 207.435 27.824 207.584 28.3633H207.68C207.869 27.832 208.211 27.4074 208.706 27.0895C209.206 26.7675 209.795 26.6065 210.475 26.6065C211.341 26.6065 212.043 26.8822 212.582 27.4336C213.126 27.9809 213.397 28.7577 213.397 29.7638V36H210.831V30.271C210.831 29.7558 210.695 29.3694 210.421 29.1119C210.147 28.8543 209.805 28.7255 209.395 28.7255C208.928 28.7255 208.564 28.8744 208.302 29.1722C208.04 29.466 207.91 29.8544 207.91 30.3374V36H205.416V30.2166C205.416 29.7618 205.286 29.3996 205.024 29.13C204.766 28.8603 204.426 28.7255 204.004 28.7255C203.718 28.7255 203.46 28.7979 203.231 28.9428C203.006 29.0837 202.827 29.2829 202.694 29.5405C202.561 29.794 202.494 30.0919 202.494 30.4339V36H199.923ZM218.073 36.1751C217.481 36.1751 216.954 36.0724 216.491 35.8672C216.028 35.6579 215.662 35.35 215.392 34.9435C215.127 34.533 214.994 34.0219 214.994 33.4102C214.994 32.895 215.089 32.4624 215.278 32.1122C215.467 31.7621 215.724 31.4804 216.05 31.267C216.376 31.0537 216.747 30.8928 217.161 30.7841C217.58 30.6754 218.018 30.599 218.477 30.5547C219.017 30.4983 219.451 30.446 219.781 30.3977C220.111 30.3454 220.351 30.2689 220.5 30.1683C220.649 30.0677 220.723 29.9188 220.723 29.7216V29.6854C220.723 29.303 220.602 29.0072 220.361 28.7979C220.123 28.5887 219.785 28.484 219.347 28.484C218.884 28.484 218.516 28.5866 218.242 28.7919C217.968 28.9931 217.787 29.2467 217.699 29.5526L215.32 29.3594C215.441 28.7959 215.678 28.3089 216.032 27.8984C216.386 27.4839 216.843 27.166 217.403 26.9446C217.966 26.7192 218.618 26.6065 219.359 26.6065C219.874 26.6065 220.367 26.6669 220.838 26.7876C221.313 26.9084 221.733 27.0955 222.099 27.3491C222.47 27.6026 222.761 27.9286 222.975 28.3271C223.188 28.7215 223.295 29.1944 223.295 29.7457V36H220.856V34.7141H220.783C220.634 35.0039 220.435 35.2595 220.186 35.4808C219.936 35.6982 219.636 35.8692 219.286 35.994C218.936 36.1147 218.532 36.1751 218.073 36.1751ZM218.809 34.4002C219.188 34.4002 219.522 34.3258 219.811 34.1768C220.101 34.0239 220.329 33.8187 220.494 33.5611C220.659 33.3035 220.741 33.0117 220.741 32.6857V31.7017C220.661 31.754 220.55 31.8023 220.409 31.8466C220.272 31.8868 220.117 31.9251 219.944 31.9613C219.771 31.9935 219.598 32.0237 219.425 32.0518C219.252 32.076 219.095 32.0981 218.954 32.1183C218.652 32.1625 218.389 32.233 218.163 32.3295C217.938 32.4261 217.763 32.5569 217.638 32.7219C217.513 32.8829 217.451 33.0842 217.451 33.3256C217.451 33.6758 217.578 33.9434 217.831 34.1286C218.089 34.3097 218.415 34.4002 218.809 34.4002ZM230.222 26.7273V28.6591H224.638V26.7273H230.222ZM225.906 24.5057H228.477V33.1506C228.477 33.388 228.514 33.5732 228.586 33.706C228.659 33.8348 228.759 33.9253 228.888 33.9776C229.021 34.0299 229.174 34.0561 229.347 34.0561C229.468 34.0561 229.588 34.046 229.709 34.0259C229.83 34.0018 229.922 33.9837 229.987 33.9716L230.391 35.8853C230.262 35.9255 230.081 35.9718 229.848 36.0241C229.614 36.0805 229.331 36.1147 228.997 36.1268C228.377 36.1509 227.834 36.0684 227.367 35.8793C226.904 35.6901 226.544 35.3963 226.286 34.9979C226.028 34.5994 225.902 34.0964 225.906 33.4886V24.5057ZM236.024 36.1811C235.07 36.1811 234.249 35.9879 233.561 35.6016C232.876 35.2112 232.349 34.6598 231.979 33.9474C231.609 33.2311 231.423 32.3839 231.423 31.4059C231.423 30.4521 231.609 29.6149 231.979 28.8945C232.349 28.1741 232.87 27.6127 233.542 27.2102C234.219 26.8078 235.011 26.6065 235.921 26.6065C236.533 26.6065 237.102 26.7051 237.629 26.9023C238.161 27.0955 238.624 27.3873 239.018 27.7777C239.416 28.1681 239.726 28.6591 239.948 29.2507C240.169 29.8383 240.28 30.5265 240.28 31.3153V32.0217H232.45V30.4279H237.859C237.859 30.0576 237.778 29.7296 237.617 29.4439C237.456 29.1581 237.233 28.9348 236.947 28.7738C236.666 28.6088 236.338 28.5263 235.963 28.5263C235.573 28.5263 235.227 28.6168 234.925 28.7979C234.627 28.975 234.394 29.2145 234.225 29.5163C234.056 29.8142 233.969 30.1462 233.965 30.5124V32.0277C233.965 32.4865 234.05 32.8829 234.219 33.217C234.392 33.551 234.635 33.8086 234.949 33.9897C235.263 34.1708 235.635 34.2614 236.066 34.2614C236.352 34.2614 236.613 34.2211 236.851 34.1406C237.088 34.0601 237.291 33.9394 237.46 33.7784C237.629 33.6174 237.758 33.4202 237.847 33.1868L240.225 33.3438C240.105 33.9152 239.857 34.4143 239.483 34.8409C239.113 35.2635 238.634 35.5935 238.046 35.831C237.462 36.0644 236.788 36.1811 236.024 36.1811ZM241.958 36V26.7273H244.451V28.3452H244.548C244.717 27.7696 245.001 27.335 245.399 27.0412C245.797 26.7434 246.256 26.5945 246.775 26.5945C246.904 26.5945 247.043 26.6025 247.192 26.6186C247.341 26.6347 247.472 26.6568 247.584 26.685V28.967C247.464 28.9308 247.297 28.8986 247.083 28.8704C246.87 28.8422 246.675 28.8281 246.498 28.8281C246.119 28.8281 245.781 28.9106 245.483 29.0756C245.19 29.2366 244.956 29.462 244.783 29.7518C244.614 30.0415 244.53 30.3756 244.53 30.7539V36H241.958ZM251.293 36.1751C250.701 36.1751 250.174 36.0724 249.711 35.8672C249.248 35.6579 248.882 35.35 248.612 34.9435C248.347 34.533 248.214 34.0219 248.214 33.4102C248.214 32.895 248.308 32.4624 248.497 32.1122C248.687 31.7621 248.944 31.4804 249.27 31.267C249.596 31.0537 249.966 30.8928 250.381 30.7841C250.8 30.6754 251.238 30.599 251.697 30.5547C252.236 30.4983 252.671 30.446 253.001 30.3977C253.331 30.3454 253.57 30.2689 253.719 30.1683C253.868 30.0677 253.943 29.9188 253.943 29.7216V29.6854C253.943 29.303 253.822 29.0072 253.581 28.7979C253.343 28.5887 253.005 28.484 252.566 28.484C252.103 28.484 251.735 28.5866 251.462 28.7919C251.188 28.9931 251.007 29.2467 250.918 29.5526L248.54 29.3594C248.66 28.7959 248.898 28.3089 249.252 27.8984C249.606 27.4839 250.063 27.166 250.622 26.9446C251.186 26.7192 251.838 26.6065 252.578 26.6065C253.094 26.6065 253.587 26.6669 254.057 26.7876C254.532 26.9084 254.953 27.0955 255.319 27.3491C255.689 27.6026 255.981 27.9286 256.195 28.3271C256.408 28.7215 256.514 29.1944 256.514 29.7457V36H254.076V34.7141H254.003C253.854 35.0039 253.655 35.2595 253.405 35.4808C253.156 35.6982 252.856 35.8692 252.506 35.994C252.156 36.1147 251.751 36.1751 251.293 36.1751ZM252.029 34.4002C252.407 34.4002 252.741 34.3258 253.031 34.1768C253.321 34.0239 253.548 33.8187 253.713 33.5611C253.878 33.3035 253.961 33.0117 253.961 32.6857V31.7017C253.88 31.754 253.77 31.8023 253.629 31.8466C253.492 31.8868 253.337 31.9251 253.164 31.9613C252.991 31.9935 252.818 32.0237 252.645 32.0518C252.472 32.076 252.315 32.0981 252.174 32.1183C251.872 32.1625 251.608 32.233 251.383 32.3295C251.158 32.4261 250.983 32.5569 250.858 32.7219C250.733 32.8829 250.671 33.0842 250.671 33.3256C250.671 33.6758 250.797 33.9434 251.051 34.1286C251.309 34.3097 251.635 34.4002 252.029 34.4002ZM269.2 27.1921C269.151 26.7051 268.944 26.3268 268.578 26.0572C268.212 25.7875 267.714 25.6527 267.087 25.6527C266.66 25.6527 266.3 25.7131 266.006 25.8338C265.712 25.9505 265.487 26.1135 265.33 26.3228C265.177 26.5321 265.1 26.7695 265.1 27.0352C265.092 27.2565 265.139 27.4497 265.239 27.6147C265.344 27.7797 265.487 27.9226 265.668 28.0433C265.849 28.16 266.058 28.2627 266.296 28.3512C266.533 28.4357 266.787 28.5082 267.056 28.5685L268.167 28.8342C268.707 28.9549 269.202 29.1159 269.652 29.3171C270.103 29.5183 270.493 29.7659 270.824 30.0597C271.154 30.3535 271.409 30.6996 271.59 31.098C271.775 31.4964 271.87 31.9532 271.874 32.4684C271.87 33.225 271.677 33.881 271.294 34.4364C270.916 34.9878 270.369 35.4164 269.652 35.7223C268.94 36.0241 268.081 36.1751 267.075 36.1751C266.076 36.1751 265.207 36.0221 264.467 35.7163C263.73 35.4104 263.155 34.9576 262.74 34.358C262.33 33.7543 262.114 33.0077 262.094 32.1183H264.624C264.652 32.5328 264.77 32.8789 264.98 33.1566C265.193 33.4303 265.477 33.6375 265.831 33.7784C266.189 33.9152 266.594 33.9837 267.044 33.9837C267.487 33.9837 267.871 33.9193 268.197 33.7905C268.527 33.6617 268.783 33.4826 268.964 33.2532C269.145 33.0238 269.236 32.7602 269.236 32.4624C269.236 32.1847 269.153 31.9512 268.988 31.7621C268.827 31.5729 268.59 31.4119 268.276 31.2791C267.966 31.1463 267.586 31.0256 267.135 30.9169L265.789 30.5788C264.746 30.3253 263.923 29.9289 263.32 29.3896C262.716 28.8503 262.416 28.1238 262.42 27.2102C262.416 26.4616 262.615 25.8076 263.018 25.2482C263.424 24.6888 263.982 24.2521 264.69 23.9382C265.398 23.6243 266.203 23.4673 267.105 23.4673C268.022 23.4673 268.823 23.6243 269.507 23.9382C270.196 24.2521 270.731 24.6888 271.113 25.2482C271.496 25.8076 271.693 26.4556 271.705 27.1921H269.2ZM277.81 36.1811C276.856 36.1811 276.035 35.9879 275.347 35.6016C274.662 35.2112 274.135 34.6598 273.765 33.9474C273.395 33.2311 273.21 32.3839 273.21 31.4059C273.21 30.4521 273.395 29.6149 273.765 28.8945C274.135 28.1741 274.656 27.6127 275.329 27.2102C276.005 26.8078 276.798 26.6065 277.707 26.6065C278.319 26.6065 278.888 26.7051 279.416 26.9023C279.947 27.0955 280.41 27.3873 280.804 27.7777C281.203 28.1681 281.512 28.6591 281.734 29.2507C281.955 29.8383 282.066 30.5265 282.066 31.3153V32.0217H274.236V30.4279H279.645C279.645 30.0576 279.564 29.7296 279.403 29.4439C279.243 29.1581 279.019 28.9348 278.733 28.7738C278.452 28.6088 278.124 28.5263 277.749 28.5263C277.359 28.5263 277.013 28.6168 276.711 28.7979C276.413 28.975 276.18 29.2145 276.011 29.5163C275.842 29.8142 275.755 30.1462 275.751 30.5124V32.0277C275.751 32.4865 275.836 32.8829 276.005 33.217C276.178 33.551 276.421 33.8086 276.735 33.9897C277.049 34.1708 277.421 34.2614 277.852 34.2614C278.138 34.2614 278.399 34.2211 278.637 34.1406C278.874 34.0601 279.078 33.9394 279.247 33.7784C279.416 33.6174 279.544 33.4202 279.633 33.1868L282.011 33.3438C281.891 33.9152 281.643 34.4143 281.269 34.8409C280.899 35.2635 280.42 35.5935 279.832 35.831C279.249 36.0644 278.574 36.1811 277.81 36.1811ZM286.316 23.6364V36H283.744V23.6364H286.316ZM291.02 36.1751C290.428 36.1751 289.901 36.0724 289.438 35.8672C288.976 35.6579 288.609 35.35 288.34 34.9435C288.074 34.533 287.941 34.0219 287.941 33.4102C287.941 32.895 288.036 32.4624 288.225 32.1122C288.414 31.7621 288.672 31.4804 288.998 31.267C289.324 31.0537 289.694 30.8928 290.108 30.7841C290.527 30.6754 290.966 30.599 291.425 30.5547C291.964 30.4983 292.398 30.446 292.729 30.3977C293.059 30.3454 293.298 30.2689 293.447 30.1683C293.596 30.0677 293.67 29.9188 293.67 29.7216V29.6854C293.67 29.303 293.55 29.0072 293.308 28.7979C293.071 28.5887 292.733 28.484 292.294 28.484C291.831 28.484 291.463 28.5866 291.189 28.7919C290.915 28.9931 290.734 29.2467 290.646 29.5526L288.267 29.3594C288.388 28.7959 288.625 28.3089 288.98 27.8984C289.334 27.4839 289.791 27.166 290.35 26.9446C290.913 26.7192 291.565 26.6065 292.306 26.6065C292.821 26.6065 293.314 26.6669 293.785 26.7876C294.26 26.9084 294.68 27.0955 295.047 27.3491C295.417 27.6026 295.709 27.9286 295.922 28.3271C296.135 28.7215 296.242 29.1944 296.242 29.7457V36H293.803V34.7141H293.731C293.582 35.0039 293.383 35.2595 293.133 35.4808C292.883 35.6982 292.584 35.8692 292.233 35.994C291.883 36.1147 291.479 36.1751 291.02 36.1751ZM291.757 34.4002C292.135 34.4002 292.469 34.3258 292.759 34.1768C293.048 34.0239 293.276 33.8187 293.441 33.5611C293.606 33.3035 293.688 33.0117 293.688 32.6857V31.7017C293.608 31.754 293.497 31.8023 293.356 31.8466C293.22 31.8868 293.065 31.9251 292.892 31.9613C292.718 31.9935 292.545 32.0237 292.372 32.0518C292.199 32.076 292.042 32.0981 291.901 32.1183C291.6 32.1625 291.336 32.233 291.111 32.3295C290.885 32.4261 290.71 32.5569 290.585 32.7219C290.461 32.8829 290.398 33.0842 290.398 33.3256C290.398 33.6758 290.525 33.9434 290.779 34.1286C291.036 34.3097 291.362 34.4002 291.757 34.4002ZM303.169 26.7273V28.6591H297.585V26.7273H303.169ZM298.853 24.5057H301.425V33.1506C301.425 33.388 301.461 33.5732 301.533 33.706C301.606 33.8348 301.706 33.9253 301.835 33.9776C301.968 34.0299 302.121 34.0561 302.294 34.0561C302.415 34.0561 302.536 34.046 302.656 34.0259C302.777 34.0018 302.87 33.9837 302.934 33.9716L303.338 35.8853C303.21 35.9255 303.029 35.9718 302.795 36.0241C302.562 36.0805 302.278 36.1147 301.944 36.1268C301.324 36.1509 300.781 36.0684 300.314 35.8793C299.851 35.6901 299.491 35.3963 299.233 34.9979C298.976 34.5994 298.849 34.0964 298.853 33.4886V24.5057ZM307.489 36.1751C306.897 36.1751 306.37 36.0724 305.907 35.8672C305.444 35.6579 305.078 35.35 304.808 34.9435C304.543 34.533 304.41 34.0219 304.41 33.4102C304.41 32.895 304.505 32.4624 304.694 32.1122C304.883 31.7621 305.14 31.4804 305.466 31.267C305.792 31.0537 306.163 30.8928 306.577 30.7841C306.996 30.6754 307.434 30.599 307.893 30.5547C308.433 30.4983 308.867 30.446 309.197 30.3977C309.527 30.3454 309.767 30.2689 309.916 30.1683C310.065 30.0677 310.139 29.9188 310.139 29.7216V29.6854C310.139 29.303 310.018 29.0072 309.777 28.7979C309.539 28.5887 309.201 28.484 308.763 28.484C308.3 28.484 307.932 28.5866 307.658 28.7919C307.384 28.9931 307.203 29.2467 307.115 29.5526L304.736 29.3594C304.857 28.7959 305.094 28.3089 305.448 27.8984C305.802 27.4839 306.259 27.166 306.819 26.9446C307.382 26.7192 308.034 26.6065 308.775 26.6065C309.29 26.6065 309.783 26.6669 310.254 26.7876C310.729 26.9084 311.149 27.0955 311.515 27.3491C311.886 27.6026 312.177 27.9286 312.391 28.3271C312.604 28.7215 312.711 29.1944 312.711 29.7457V36H310.272V34.7141H310.199C310.05 35.0039 309.851 35.2595 309.602 35.4808C309.352 35.6982 309.052 35.8692 308.702 35.994C308.352 36.1147 307.948 36.1751 307.489 36.1751ZM308.225 34.4002C308.604 34.4002 308.938 34.3258 309.227 34.1768C309.517 34.0239 309.745 33.8187 309.91 33.5611C310.075 33.3035 310.157 33.0117 310.157 32.6857V31.7017C310.077 31.754 309.966 31.8023 309.825 31.8466C309.688 31.8868 309.533 31.9251 309.36 31.9613C309.187 31.9935 309.014 32.0237 308.841 32.0518C308.668 32.076 308.511 32.0981 308.37 32.1183C308.068 32.1625 307.805 32.233 307.579 32.3295C307.354 32.4261 307.179 32.5569 307.054 32.7219C306.929 32.8829 306.867 33.0842 306.867 33.3256C306.867 33.6758 306.994 33.9434 307.247 34.1286C307.505 34.3097 307.831 34.4002 308.225 34.4002ZM317.278 30.6392V36H314.706V26.7273H317.157V28.3633H317.266C317.471 27.824 317.815 27.3974 318.298 27.0835C318.781 26.7655 319.366 26.6065 320.055 26.6065C320.699 26.6065 321.26 26.7474 321.739 27.0291C322.218 27.3108 322.59 27.7133 322.856 28.2365C323.121 28.7557 323.254 29.3755 323.254 30.0959V36H320.683V30.5547C320.687 29.9872 320.542 29.5445 320.248 29.2266C319.954 28.9046 319.55 28.7436 319.034 28.7436C318.688 28.7436 318.382 28.8181 318.117 28.967C317.855 29.1159 317.65 29.3332 317.501 29.619C317.356 29.9007 317.282 30.2408 317.278 30.6392Z" fill="#2F3031"/>
</svg>
