<svg width="384" height="46" viewBox="0 0 384 46" fill="none" xmlns="http://www.w3.org/2000/svg">
<path d="M22.5001 45.0498C17.7651 45.0498 13.1511 44.1276 8.7853 42.3091L8.67739 42.2639L8.60067 42.176C5.50864 38.6182 3.19882 34.5486 1.73546 30.0803C0.272715 25.6115 -0.269341 20.9718 0.124881 16.29L0.134862 16.1742L0.195367 16.0746C2.6499 12.0569 5.83674 8.61988 9.66731 5.85809C13.4973 3.09631 17.7769 1.15155 22.386 0.0764198L22.5001 0.0498047L22.6143 0.0764198C27.2233 1.15155 31.503 3.09631 35.3336 5.85809C39.1641 8.61988 42.351 12.0569 44.8055 16.0746L44.866 16.1742L44.876 16.29C45.2702 20.9718 44.7282 25.6115 43.2648 30.0797C41.8014 34.548 39.4916 38.6176 36.3996 42.1754L36.3229 42.2633L36.215 42.3084C31.8492 44.1269 27.2352 45.0492 22.5001 45.0492V45.0498Z" fill="white"/>
<path d="M44.3782 16.3315C42.8568 13.8414 39.9581 9.80457 35.0397 6.25856C30.1213 2.71256 25.3569 1.22459 22.5001 0.558594C19.6432 1.22459 14.8788 2.71318 9.96042 6.25856C5.04199 9.80457 2.14333 13.8408 0.621959 16.3315C0.377441 19.2338 0.331906 24.1897 2.21008 29.9268C4.08887 35.664 7.06176 39.6469 8.9786 41.8523C11.6845 42.9794 16.4208 44.5546 22.5001 44.5546C28.5793 44.5546 33.3156 42.9794 36.0215 41.8523C37.9384 39.6469 40.9113 35.664 42.79 29.9268C44.6688 24.1897 44.6227 19.2331 44.3782 16.3315Z" fill="#0192D5"/>
<path d="M12.274 40.3322C12.4218 40.0537 12.594 39.5251 12.6607 39.311L12.6626 39.3054L12.6689 39.2924V39.2893L12.682 39.2658V39.2373C12.7998 38.809 12.8628 38.1213 12.8685 37.1929C13.9919 37.0258 14.9999 36.413 15.7353 35.9655L15.7415 35.9618C16.0229 35.7903 16.2655 35.643 16.4614 35.5533C17.1344 35.2438 17.8667 35.0872 18.639 35.0872C19.1548 35.0872 19.6962 35.1571 20.2477 35.2952L20.4504 34.8514C19.9495 34.5085 19.5079 34.0938 19.1055 33.6964L18.9714 33.564L18.8067 33.6562C18.0476 34.0826 15.9518 34.9554 14.3169 35.1398C14.01 35.1745 13.7118 35.1918 13.4311 35.1918C11.5654 35.1918 10.2854 34.4144 9.62611 32.8806V32.872L9.56248 32.7457L9.48825 32.7086C8.51268 32.2233 8.05171 30.9495 8.02115 30.3751L8.01553 30.2717L7.93756 30.203C7.23395 29.5816 7.05867 28.3678 7.16159 27.7427L7.16471 27.7229V27.6207L7.11543 27.5545C6.72308 27.0302 6.70874 26.2689 6.73992 25.6642L6.74616 25.5379L6.64698 25.4587C6.05128 24.9809 5.77869 24.0524 5.93588 23.0355C6.17354 21.503 6.92518 20.3901 7.58825 19.4084L7.66435 19.2958C7.88267 18.9733 8.14777 18.5821 8.39978 18.1173C8.33428 18.6428 8.20828 19.2246 8.02115 19.7327C7.66934 20.6872 7.50654 21.4064 7.49406 22.0644C7.47784 22.9099 8.03425 23.8271 9.31485 23.9707C9.45894 23.9868 9.6049 23.9955 9.74712 23.9955C10.7127 23.9955 11.5192 23.6186 12.3738 23.2193L12.3801 23.2162C13.1754 22.8442 14.0773 22.4227 15.1989 22.2989H15.207L15.2151 22.2965L15.2288 22.2952C15.3049 22.2872 15.3829 22.2835 15.4602 22.2835C16.0484 22.2835 16.6223 22.5112 17.0352 22.9086C17.4457 23.3029 17.6484 23.8141 17.6079 24.3489C17.5729 24.7933 17.4738 25.1721 17.3939 25.4773L17.3846 25.5138C17.3677 25.5794 17.3509 25.6419 17.3371 25.702C17.1731 26.3779 17.1045 26.9776 17.9272 27.4592L18.2185 27.6294L18.2965 27.3032C18.4082 26.8359 18.6652 25.8982 19.1311 24.867L19.1635 24.7958L19.1486 24.7191C19.0051 23.9844 17.7345 17.4847 17.3053 15.4291C16.8338 13.1675 15.8744 11.8516 15.3442 11.6393C15.3305 11.6337 15.3168 11.6287 15.3037 11.6232C15.3111 11.6182 15.318 11.6133 15.3249 11.6083C15.4839 11.4951 15.6068 11.4158 15.749 11.3242L15.8638 11.2499C16.3036 10.9634 16.7589 10.6669 17.2629 10.6669C17.3035 10.6669 17.3453 10.6687 17.3858 10.6725C17.7064 10.7022 17.9827 10.8161 18.2061 11.0104L18.5504 11.3106L18.6171 10.8606C18.6583 10.5833 18.7581 10.371 18.914 10.2299C19.1529 10.0133 19.5391 9.91548 19.8803 9.82944C20.1878 9.75083 20.3917 9.69265 20.6282 9.53853C20.645 9.52739 20.6618 9.51625 20.6774 9.50449L20.8315 10.212L21.1527 9.62395C21.197 9.54286 21.2426 9.4754 21.3343 9.38874C21.4671 9.2631 21.6474 9.16159 21.8688 9.08669C22.0279 9.03284 22.1845 8.94 22.3323 8.81064C22.3903 8.75988 22.4464 8.7048 22.4982 8.646C22.55 8.70418 22.6055 8.75926 22.6635 8.81002C22.812 8.94 22.9679 9.03284 23.1276 9.08669C23.349 9.16159 23.5293 9.2631 23.6628 9.38936C23.7526 9.47416 23.7988 9.54224 23.8443 9.62518L24.1662 10.2076L24.319 9.50511C24.3346 9.51687 24.3514 9.52801 24.3683 9.53915C24.6059 9.69389 24.8093 9.75207 25.1162 9.83006C25.4574 9.91609 25.8441 10.0139 26.0824 10.2305C26.2383 10.3716 26.3381 10.5839 26.3793 10.8612L26.4461 11.3112L26.791 11.011C27.0143 10.8167 27.2906 10.7028 27.6113 10.6731C27.6518 10.6694 27.693 10.6675 27.7341 10.6675C28.2375 10.6675 28.6723 10.951 29.132 11.2506L29.2518 11.3279C29.3927 11.4189 29.5144 11.4975 29.6709 11.6089C29.6778 11.6139 29.6853 11.6188 29.6922 11.6238C29.6791 11.6287 29.6653 11.6343 29.6516 11.6393C29.1208 11.8516 28.1621 13.1675 27.6905 15.4291C27.3112 17.2476 26.2745 22.531 25.8466 24.7184L25.8316 24.7952L25.8641 24.867C26.33 25.8969 26.587 26.8359 26.6993 27.3038L26.7773 27.63L27.0686 27.4598C27.8913 26.9789 27.8227 26.3785 27.6587 25.7013C27.6443 25.6419 27.6275 25.5776 27.61 25.5101L27.6019 25.4785C27.5221 25.1734 27.4223 24.7946 27.388 24.3495C27.3468 23.8154 27.5501 23.3041 27.9599 22.9098C28.3729 22.5125 28.9468 22.2847 29.535 22.2847C29.6123 22.2847 29.6903 22.2884 29.7664 22.2965H29.7782L29.7863 22.2989L29.7969 22.3002C30.9185 22.424 31.8198 22.8455 32.6151 23.2175L32.622 23.2206C33.4759 23.6198 34.2825 23.9967 35.2481 23.9967C35.3909 23.9967 35.5363 23.9887 35.6803 23.972C36.9603 23.8284 37.5173 22.9111 37.5011 22.0656C37.4887 21.4101 37.3259 20.6909 36.974 19.734C36.7863 19.2252 36.6609 18.6434 36.5948 18.1185C36.8462 18.5821 37.1107 18.9727 37.329 19.2951L37.4063 19.4097C38.0694 20.3919 38.821 21.5048 39.0587 23.0367C39.2153 24.0493 38.9458 24.9741 38.3557 25.4531L38.3451 25.4606L38.249 25.5559L38.2546 25.6661C38.2858 26.2708 38.2715 27.0321 37.8791 27.5564L37.8299 27.622V27.7241L37.833 27.7445C37.9359 28.3697 37.76 29.5834 37.057 30.2049L36.979 30.2736L36.9734 30.3769C36.9435 30.9513 36.4819 32.2251 35.5069 32.7104L35.3691 32.7791V32.8819C34.7098 34.4156 33.4298 35.193 31.5641 35.193C31.2834 35.193 30.9852 35.1757 30.6783 35.1411C29.0434 34.9566 26.9469 34.0839 26.1884 33.6574L26.0238 33.5652L25.8897 33.6976C25.4861 34.0956 25.0438 34.511 24.5448 34.8532L24.7475 35.297C25.2989 35.159 25.8404 35.0891 26.3562 35.0891C27.1285 35.0891 27.8608 35.2457 28.5326 35.5551C28.7316 35.6461 28.9761 35.7953 29.2599 35.968C29.9966 36.4161 31.0039 37.0289 32.1267 37.196C32.1317 38.1077 32.196 38.8127 32.3126 39.2385V39.2652L32.3301 39.298C32.3669 39.4162 32.559 40.0277 32.7212 40.3347C30.9547 40.2914 30.2105 39.8569 29.3497 39.3537C29.3497 39.3537 29.152 39.2385 29.1064 39.2125C28.9449 39.1197 28.7958 39.0287 28.6448 38.9359C27.8745 38.4648 27.2108 38.0588 25.8678 38.0588C24.9864 38.0588 24.3321 38.3683 23.8612 38.6388C23.795 38.6765 23.7283 38.7161 23.6622 38.7551L23.6098 38.7861C23.2137 39.0219 22.8425 39.2429 22.4945 39.2429C22.1464 39.2429 21.7746 39.0213 21.381 38.7873L21.3149 38.7483C21.2532 38.7118 21.1914 38.6747 21.1284 38.6394C20.6581 38.3695 20.0038 38.06 19.1224 38.06C17.7788 38.06 17.1151 38.4661 16.346 38.9365C16.1944 39.0293 16.0453 39.1203 15.8838 39.2138C15.8226 39.2484 15.7621 39.2837 15.7029 39.3184L15.6417 39.3543C14.7791 39.8581 14.0355 40.2926 12.269 40.336L12.274 40.3322Z" fill="white"/>
<path d="M39.3086 23.0794C39.0629 21.4943 38.295 20.356 37.617 19.3521C37.2471 18.8037 36.6807 18.0052 36.3201 16.9623C36.2347 17.5732 36.3626 18.8687 36.7424 19.8992C37.0294 20.6791 37.2408 21.4367 37.2545 22.1504C37.2676 22.83 36.8566 23.6712 35.6552 23.8061C34.5561 23.9299 33.7097 23.5338 32.7285 23.0751C31.9145 22.6945 30.9919 22.2624 29.8273 22.1337C29.8167 22.1318 29.8061 22.1306 29.7955 22.13C29.062 22.0538 28.3122 22.3082 27.7895 22.8114C27.3248 23.2577 27.0952 23.8389 27.142 24.448C27.1782 24.9103 27.2805 25.3034 27.3634 25.6196C27.3834 25.6964 27.4027 25.7694 27.4189 25.8381C27.5755 26.4843 27.6223 26.9294 26.9449 27.3255C26.8307 26.8483 26.5706 25.8969 26.0947 24.8447C26.4477 23.0404 27.5462 17.4358 27.9379 15.5585C28.402 13.3315 29.337 12.1121 29.7475 11.9481C30.1143 11.8021 30.3413 11.8138 30.3413 11.8138C30.3413 11.8138 30.0257 11.6331 29.8192 11.4864C29.6134 11.3397 29.4637 11.2468 29.2715 11.1218C28.7607 10.7888 28.233 10.4453 27.5905 10.5047C27.1638 10.5443 26.8526 10.7084 26.6286 10.9033C26.5868 10.6217 26.482 10.3333 26.2531 10.1259C25.9693 9.86843 25.5501 9.76197 25.1802 9.66851C24.9002 9.59733 24.7168 9.54658 24.5072 9.4104C24.297 9.27362 24.181 9.05389 24.181 9.05389L24.0656 9.58495C24.0125 9.48901 23.9527 9.39803 23.8366 9.28847C23.6595 9.12197 23.4405 9.00932 23.2097 8.93133C23.0756 8.88615 22.9459 8.80445 22.8305 8.70356C22.6976 8.58719 22.5829 8.44545 22.4999 8.30371C22.4176 8.44545 22.3028 8.58781 22.1693 8.70356C22.0539 8.80445 21.9242 8.88615 21.79 8.93133C21.5592 9.00932 21.3403 9.12197 21.1638 9.28847C21.0478 9.39803 20.9873 9.48901 20.9349 9.58495L20.8195 9.05389C20.8195 9.05389 20.7028 9.27362 20.4932 9.4104C20.2836 9.54658 20.0996 9.59733 19.8202 9.66851C19.4503 9.76197 19.0311 9.86843 18.7473 10.1259C18.5184 10.3333 18.4136 10.6217 18.3718 10.9033C18.1479 10.7084 17.8366 10.5443 17.4099 10.5047C16.7674 10.4453 16.2391 10.7888 15.7282 11.1218C15.5361 11.2468 15.387 11.3397 15.1806 11.4864C14.9747 11.6331 14.6591 11.8138 14.6591 11.8138C14.6591 11.8138 14.8862 11.8021 15.2523 11.9481C15.6628 12.1121 16.5984 13.3315 17.0625 15.5585C17.4542 17.4358 18.5527 23.0417 18.9051 24.8453C18.4298 25.8976 18.1697 26.8483 18.0555 27.3255C17.3781 26.9294 17.4249 26.4843 17.5815 25.8381C17.5977 25.7694 17.617 25.6964 17.637 25.6196C17.7199 25.3034 17.8222 24.9103 17.8584 24.448C17.9052 23.8389 17.6757 23.2577 17.211 22.8114C16.6882 22.3082 15.9385 22.0538 15.2049 22.13C15.1943 22.1306 15.1837 22.1318 15.1731 22.1337C14.0085 22.2624 13.086 22.6945 12.2719 23.0751C11.2908 23.5338 10.4443 23.9299 9.34521 23.8061C8.14383 23.6712 7.73277 22.83 7.74587 22.1504C7.75959 21.4367 7.97043 20.6791 8.25798 19.8992C8.63786 18.8687 8.76511 17.5732 8.68028 16.9623C8.31911 18.0052 7.75335 18.8037 7.38346 19.3521C6.70542 20.356 5.93756 21.4943 5.69179 23.0794C5.51901 24.1973 5.82466 25.1975 6.49271 25.7329C6.45591 26.4447 6.49396 27.2184 6.91688 27.7835C6.794 28.5306 7.01793 29.8019 7.77331 30.4692C7.80949 31.1593 8.34593 32.4981 9.37765 33.0112C10.1767 34.9219 11.8478 35.7476 14.346 35.466C16.0196 35.2772 18.1516 34.3896 18.9307 33.952C19.3131 34.3296 19.7753 34.7697 20.3098 35.1355C19.1715 34.8508 17.7599 34.7641 16.3576 35.4091C16.1468 35.5056 15.896 35.6585 15.6054 35.8355C14.888 36.2719 13.905 36.8698 12.8315 37.0295L12.6206 37.0611L12.6194 37.2727C12.6138 38.1876 12.5501 38.8826 12.4335 39.2831C12.4335 39.2831 12.4335 39.285 12.4329 39.2862C12.4323 39.2881 12.4316 39.2899 12.431 39.293C12.4298 39.2955 12.4291 39.2992 12.4279 39.3029C12.426 39.3072 12.4248 39.3128 12.4229 39.319C12.378 39.462 12.1996 40.0228 12.053 40.2988L11.8565 40.672L12.2807 40.6615C14.1127 40.6163 14.8824 40.1664 15.7738 39.6458C15.8524 39.6 15.9322 39.553 16.0146 39.5059C16.1792 39.4112 16.3333 39.3171 16.4824 39.2255C17.249 38.7564 17.8547 38.3856 19.1278 38.3856C19.9499 38.3856 20.5656 38.6778 21.0097 38.9322C21.0933 38.9798 21.1756 39.0293 21.2573 39.0776C21.6815 39.3301 22.0826 39.5691 22.4999 39.5691C22.9172 39.5691 23.3183 39.3301 23.7424 39.0776C23.8242 39.0293 23.9071 38.9798 23.9907 38.9322C24.4348 38.6778 25.0499 38.3856 25.8726 38.3856C27.1451 38.3856 27.7508 38.7564 28.518 39.2255C28.6671 39.3171 28.8212 39.4112 28.9859 39.5059C29.0676 39.553 29.1474 39.6 29.2266 39.6458C30.118 40.1664 30.8877 40.6163 32.7197 40.6615L33.1433 40.672L32.9468 40.2988C32.7846 39.9918 32.5819 39.3332 32.5675 39.2862C32.5675 39.285 32.5669 39.2837 32.5669 39.2837C32.4503 38.8826 32.386 38.1876 32.381 37.2727L32.3798 37.0611L32.1683 37.0295C31.0948 36.8698 30.1124 36.2719 29.395 35.8355C29.1044 35.6585 28.853 35.5056 28.6422 35.4091C27.2412 34.7641 25.8296 34.8508 24.6912 35.1355C25.2251 34.7691 25.6867 34.3296 26.0697 33.952C26.8488 34.3896 28.9809 35.2772 30.6544 35.466C33.1526 35.7476 34.8237 34.9219 35.6228 33.0112C36.6545 32.4981 37.1903 31.1599 37.2265 30.4698C37.9819 29.8025 38.2058 28.5312 38.0829 27.7847C38.5058 27.219 38.5439 26.4453 38.5071 25.7335C39.1751 25.1981 39.4808 24.1979 39.308 23.0801L39.3086 23.0794ZM26.2219 26.5902C25.9992 26.3822 25.7641 26.2008 25.5327 26.0226C25.2757 25.8251 25.0336 25.6382 24.8216 25.4247C24.345 24.9456 23.8585 24.2808 23.8585 22.9891V22.385C24.302 22.8839 24.995 23.7337 25.4447 24.6367C25.7971 25.3454 26.0504 26.0393 26.2219 26.5902ZM21.611 19.82C21.611 19.82 21.6085 19.8169 21.6079 19.8151C21.601 19.8052 21.5948 19.7959 21.5886 19.786C21.5867 19.7841 21.5854 19.7823 21.5842 19.7804C21.4376 19.5532 21.3409 19.323 21.3409 19.0779C21.3409 18.3878 21.7638 17.9576 22.2123 17.502C22.309 17.4036 22.4063 17.3046 22.4999 17.2024C22.5935 17.3046 22.6914 17.4036 22.7881 17.502C23.2359 17.9576 23.6595 18.3878 23.6595 19.0779C23.6595 19.323 23.5628 19.5532 23.4162 19.7804C23.415 19.7823 23.4137 19.7841 23.4118 19.786C23.4056 19.7959 23.3994 19.8052 23.3925 19.8151C23.3919 19.8169 23.3906 19.8188 23.3894 19.82C23.2472 20.0305 23.0632 20.2384 22.8742 20.4514C22.7469 20.5956 22.6178 20.741 22.4999 20.8914C22.382 20.741 22.2529 20.5956 22.1256 20.4514C21.9373 20.2384 21.7532 20.0305 21.611 19.82ZM17.5509 15.4582C17.2371 13.9505 16.7001 12.2044 15.8418 11.6399C15.896 11.6052 15.9497 11.5699 16.0021 11.5359C16.4811 11.2239 16.8953 10.9541 17.3631 10.998C18.1903 11.0748 18.4067 11.8132 18.4148 11.8435H18.4161C18.4616 11.8615 18.907 14.4821 19.1315 16.2629C19.1814 16.6627 19.2706 17.4216 19.3343 17.9316C19.469 17.8183 19.6224 17.6989 19.7934 17.5788C19.7353 17.1028 19.668 16.5303 19.6268 16.2016C19.4035 14.4308 19.192 12.7528 18.9432 11.8683C18.8883 11.6752 18.8533 11.4771 18.8508 11.2766C18.8465 10.9925 18.8939 10.6638 19.0835 10.4917C19.2756 10.3178 19.615 10.2311 19.9437 10.1482C20.1452 10.0968 20.3404 10.0473 20.5094 9.97613L20.6342 10.5493C20.6542 10.6427 20.6685 10.7374 20.676 10.8328C20.7402 11.6114 20.9729 14.6307 21.059 16.9047C21.2174 16.8459 21.3821 16.7939 21.5524 16.7525C21.4551 14.2946 21.1981 11.0618 21.1613 10.6446C21.1644 10.5716 21.1918 10.1352 21.3852 9.79973C21.4551 9.67903 21.7083 9.48406 21.9597 9.39679C22.1512 9.33056 22.3358 9.21543 22.4999 9.07122C22.6646 9.21543 22.8492 9.33056 23.0407 9.39679C23.2921 9.48406 23.5453 9.67903 23.6146 9.79973C23.8079 10.1352 23.8354 10.5716 23.8385 10.6446C23.8023 11.0618 23.5453 14.2946 23.448 16.7525C23.6183 16.7939 23.783 16.8459 23.9414 16.9047C24.0269 14.6307 24.2602 11.6114 24.3238 10.8328C24.3319 10.7374 24.3456 10.6427 24.3662 10.5493L24.491 9.97613C24.66 10.0473 24.8552 10.0968 25.0567 10.1482C25.3848 10.2311 25.7248 10.3178 25.9163 10.4917C26.1065 10.6638 26.1533 10.9925 26.1496 11.2766C26.1465 11.4771 26.1115 11.6752 26.0573 11.8683C25.8077 12.7528 25.5963 14.4308 25.3736 16.2016C25.3324 16.5303 25.2651 17.1028 25.2071 17.5788C25.378 17.6989 25.5314 17.8183 25.6661 17.9316C25.7298 17.4216 25.819 16.6627 25.8689 16.2629C26.0934 14.4821 26.5388 11.8615 26.5843 11.8435H26.585C26.5937 11.8132 26.8101 11.0748 27.6373 10.998C28.1051 10.9541 28.5187 11.2239 28.9977 11.5359C29.0507 11.5699 29.1044 11.6052 29.158 11.6399C28.3003 12.2044 27.7633 13.9505 27.4489 15.4582C27.0952 17.1529 26.1683 21.8743 25.7304 24.1119C25.0754 22.9365 24.1311 21.9325 23.8585 21.6546V20.0113C24.0375 19.7278 24.1585 19.4226 24.1585 19.0779C24.1585 18.186 23.6202 17.6388 23.1449 17.156C23.0289 17.0384 22.9178 16.9252 22.8168 16.8113C22.692 16.672 22.5835 16.5315 22.5005 16.3805C22.4169 16.5315 22.3078 16.672 22.183 16.8119C22.082 16.9258 21.9703 17.0384 21.8549 17.156C21.3802 17.6388 20.8419 18.186 20.8419 19.0779C20.8419 19.4226 20.9629 19.7278 21.1419 20.0113V21.654C20.8706 21.9307 19.925 22.9346 19.27 24.1106C18.8315 21.8725 17.9046 17.1523 17.5509 15.4582ZM19.5551 24.6367C20.0054 23.7337 20.6984 22.8832 21.1419 22.3844V22.9891C21.1419 24.2808 20.6554 24.9456 20.1788 25.4247C19.9668 25.6382 19.7247 25.8251 19.4678 26.0226C19.2357 26.2015 19.0005 26.3828 18.7772 26.5908C18.9494 26.0399 19.202 25.3454 19.5551 24.6367ZM14.2898 34.9739C12.1996 35.2104 10.8005 34.6378 10.0326 33.2272C10.8373 33.4043 11.8478 33.4129 12.0312 33.4129H12.058L12.2351 33.4117C12.2233 33.3974 12.2121 33.3826 12.2015 33.3677C12.0973 33.2254 11.995 33.0737 11.8946 32.9165C11.4642 32.9091 10.2759 32.8639 9.67207 32.6015C8.95972 32.2914 8.48379 31.4236 8.3266 30.8022C9.0851 31.116 10.2154 31.2292 10.7799 31.2292C10.8298 31.2292 10.8747 31.2286 10.9152 31.2268L10.9782 31.2243C10.9009 31.0566 10.8279 30.8925 10.7599 30.7341C10.1511 30.7304 8.86304 30.5781 8.27857 30.2278C8.24114 30.2055 8.20621 30.182 8.17502 30.1578C8.15568 30.143 8.13635 30.1269 8.11763 30.1102C7.59928 29.6645 7.39843 28.8395 7.38658 28.2434C8.0197 28.7181 8.95411 28.9948 10.128 29.0505L10.2123 29.0542C10.1792 28.9001 10.1449 28.7318 10.1118 28.5541C9.24354 28.5083 8.11077 28.3109 7.45644 27.6473C7.42712 27.6189 7.39905 27.5885 7.37223 27.557C7.35539 27.5378 7.33917 27.5174 7.3242 27.4969C7.03914 27.1218 6.97489 26.5858 6.98113 26.0511C7.83507 26.5351 8.68651 26.6867 9.86107 26.7728C9.8461 26.6013 9.83487 26.4342 9.82864 26.2745C8.66281 26.1847 7.84255 26.022 7.00732 25.4872C6.96803 25.4624 6.92935 25.4364 6.89006 25.4098C6.87197 25.3974 6.8545 25.3851 6.83704 25.3714C6.29373 24.9605 6.03861 24.1001 6.1852 23.155C6.4135 21.6781 7.14892 20.5888 7.79764 19.6275C7.81324 19.6046 7.82821 19.5823 7.8438 19.5594C7.82322 19.622 7.80325 19.6851 7.78267 19.7476C7.52692 20.5374 7.26245 21.3544 7.24685 22.1405C7.22814 23.098 7.85253 24.1366 9.28907 24.2982C10.5285 24.4374 11.4785 23.9936 12.4846 23.5232C13.2768 23.1525 14.0946 22.77 15.1288 22.6375C15.5729 23.09 15.8674 23.5251 15.7713 24.5216C15.7127 25.1294 15.4201 25.8189 15.1369 26.4862C14.9161 27.0049 14.6878 27.5421 14.5637 28.0534C14.2948 29.1613 14.3397 30.8925 15.354 32.1236C16.3102 33.2848 17.3419 33.6815 18.088 33.8171C17.1473 34.2454 15.576 34.8285 14.2898 34.9739ZM22.4593 32.3341H22.503C22.5155 32.3335 22.5286 32.3335 22.5411 32.3341C22.6583 32.3384 22.7706 32.3731 22.8305 32.4028C22.8611 32.7692 23.0189 33.6419 23.4175 34.1594C23.3619 34.6211 22.8467 34.9219 22.4999 34.9219C22.1531 34.9219 21.6385 34.6211 21.5823 34.1594C21.9815 33.6419 22.1394 32.7692 22.1693 32.4028C22.2292 32.3731 22.3415 32.3384 22.4593 32.3341ZM22.4475 35.9605C22.4063 35.9401 22.3627 35.9172 22.3134 35.8937C22.3751 35.8974 22.4375 35.8993 22.4999 35.8993C22.5629 35.8993 22.6246 35.8974 22.6864 35.8937C22.6371 35.9172 22.5935 35.9401 22.5523 35.9605C22.5336 35.9698 22.5161 35.9785 22.4993 35.9865C22.4824 35.9785 22.465 35.9698 22.4469 35.9605H22.4475ZM13.1159 37.4826C14.2025 37.2696 15.1575 36.6884 15.8661 36.2576C16.1437 36.0887 16.3832 35.9432 16.5678 35.8578C18.9438 34.7653 21.412 35.9977 22.2229 36.4031C22.2323 36.4074 22.2417 36.4124 22.2504 36.4167V37.8812C21.48 37.4671 20.6429 37.0567 19.8682 36.9806C18.4048 36.837 17.526 37.0084 16.251 37.6856C16.0139 37.8112 15.7844 37.9455 15.563 38.0755C14.7957 38.5249 14.0672 38.9513 12.9905 39.0788C13.0766 38.5985 13.1078 37.9932 13.1159 37.4826ZM29.4799 39.2194C29.4 39.1729 29.3189 39.1253 29.236 39.0776C29.0769 38.9866 28.926 38.8938 28.7794 38.804C28.0121 38.3342 27.2867 37.8905 25.8726 37.8905C24.932 37.8905 24.239 38.2179 23.7412 38.5032C23.6551 38.5521 23.5703 38.6029 23.4861 38.653C23.1224 38.8696 22.7793 39.0739 22.4999 39.0739C22.2204 39.0739 21.8774 38.8696 21.5143 38.653C21.4301 38.6029 21.3453 38.5521 21.2592 38.5032C20.7608 38.2179 20.0684 37.8905 19.1278 37.8905C17.7131 37.8905 16.9883 38.3342 16.2204 38.804C16.0744 38.8938 15.9229 38.9866 15.7644 39.0776C15.6815 39.1253 15.6004 39.1729 15.5205 39.2194C14.7246 39.6842 14.0827 40.0593 12.6624 40.149C12.7416 39.9448 12.814 39.7318 12.8595 39.5901H12.8602C14.147 39.4799 14.9947 38.9829 15.8168 38.502C16.0339 38.3745 16.2585 38.2433 16.4861 38.1219C17.675 37.4906 18.4535 37.3396 19.8189 37.4733C20.5756 37.5476 21.4582 38.0142 22.2504 38.4457C22.2866 38.4648 22.3227 38.4847 22.3589 38.5045L22.4999 38.5812L22.6415 38.5045C22.677 38.4853 22.7132 38.4655 22.7494 38.4457C23.5416 38.0142 24.4236 37.5482 25.1815 37.4733C26.5469 37.3396 27.3254 37.4906 28.5137 38.1219C28.742 38.2433 28.9665 38.3745 29.1836 38.502C30.0051 38.9829 30.8528 39.4799 32.1403 39.5901H32.1409C32.1864 39.7318 32.2581 39.9448 32.3374 40.149C30.917 40.0593 30.2752 39.6842 29.4799 39.2194ZM28.4326 35.8578C28.6172 35.9432 28.8567 36.0887 29.1337 36.2576C29.8429 36.6884 30.7973 37.2696 31.8839 37.4826C31.8926 37.9932 31.9238 38.5985 32.0093 39.0788C30.9333 38.9513 30.2047 38.5249 29.4368 38.0755C29.2154 37.9455 28.9865 37.8112 28.7494 37.6856C27.4738 37.0084 26.5949 36.837 25.1322 36.9806C24.3575 37.0567 23.5198 37.4671 22.7494 37.8812V36.4167C22.7588 36.4124 22.7675 36.4074 22.7768 36.4031C23.5877 35.9977 26.056 34.7653 28.4326 35.8578ZM25.8558 33.4643C24.8921 34.4206 23.9277 35.2846 22.7494 35.393V35.3899C23.3014 35.2741 23.9215 34.7957 23.9215 34.0771V33.983L23.8585 33.9124C23.4848 33.4946 23.3245 32.5377 23.3245 32.2914V32.2295L23.2952 32.1744C23.2484 32.0877 23.1661 32.0203 23.0688 31.9689C22.9559 31.9095 22.8586 31.8841 22.7525 31.8631C22.6259 31.8377 22.5286 31.8364 22.4999 31.8364C22.4712 31.8364 22.3745 31.8377 22.2479 31.8631C22.1412 31.8841 22.0445 31.9101 21.9316 31.9689C21.8343 32.0196 21.752 32.0871 21.7052 32.1744L21.6759 32.2295V32.2914C21.6759 32.5377 21.515 33.4946 21.1413 33.9124L21.0789 33.983V34.0771C21.0789 34.7957 21.699 35.2741 22.2504 35.3899V35.3923C21.0727 35.284 20.1077 34.42 19.1446 33.4643L19.106 33.4259L19.0717 33.3925C19.0536 33.3919 19.023 33.3919 18.9681 33.3919C18.945 33.3919 18.9201 33.3919 18.8933 33.3913C18.3549 33.3869 16.9808 33.3164 15.7401 31.8104C14.8419 30.7198 14.8063 29.1669 15.049 28.1691C15.1637 27.6975 15.3839 27.1794 15.5966 26.6781C15.8942 25.9774 16.2023 25.252 16.2684 24.5693C16.3583 23.6353 16.13 23.077 15.7925 22.6387C16.1942 22.7037 16.5735 22.8869 16.8641 23.1667C17.2197 23.509 17.3962 23.9503 17.3607 24.4102C17.3282 24.8286 17.2315 25.1981 17.1542 25.4952C17.133 25.5757 17.113 25.6512 17.0962 25.7224C16.9053 26.5116 16.8267 27.3311 18.1217 27.9147C18.1235 27.916 18.1254 27.9172 18.1279 27.9178L18.3431 28.0144L18.4523 27.8064C18.4523 27.8064 18.4547 27.8015 18.456 27.7996C18.7841 27.1757 19.2875 26.7888 19.774 26.4138C20.0323 26.2151 20.2992 26.009 20.5344 25.7719C21.0496 25.2538 21.641 24.4684 21.641 22.9891V20.6538C21.6771 20.6952 21.7139 20.7367 21.7507 20.7782C21.916 20.9651 22.0776 21.1471 22.2067 21.3284C22.3739 21.563 22.488 21.7957 22.488 22.0346C22.488 22.0606 22.4924 22.086 22.4999 22.1102C22.5074 22.086 22.5117 22.0606 22.5117 22.0346C22.5117 21.7963 22.6259 21.5636 22.7937 21.329C22.9222 21.1477 23.0844 20.9651 23.2497 20.7782C23.2865 20.7367 23.3233 20.6952 23.3594 20.6538V22.9891C23.3594 24.4684 23.9508 25.2538 24.466 25.7719C24.7012 26.009 24.9682 26.2151 25.2264 26.4138C25.7129 26.7888 26.2163 27.1757 26.5444 27.7996C26.5457 27.8015 26.5469 27.8039 26.5482 27.8064L26.6573 28.0144L26.8582 27.924C26.8675 27.9203 26.8763 27.9166 26.8844 27.9123C28.1731 27.3286 28.0951 26.5103 27.9042 25.7224C27.8874 25.6512 27.8674 25.5757 27.8462 25.4952C27.7689 25.1981 27.6722 24.8286 27.6398 24.4102C27.6042 23.9503 27.7807 23.509 28.1363 23.1667C28.427 22.8869 28.8062 22.7037 29.2079 22.6387C28.8705 23.077 28.6422 23.6353 28.732 24.5693C28.7981 25.252 29.1062 25.9774 29.4038 26.6781C29.6165 27.1794 29.8367 27.6975 29.9514 28.1691C30.1941 29.1669 30.1585 30.7198 29.2603 31.8104C28.0196 33.3164 26.6455 33.3869 26.1072 33.3913C26.0803 33.3919 26.0554 33.3919 26.0323 33.3919C25.9774 33.3919 25.9468 33.3919 25.9288 33.3925L25.8944 33.4259L25.8558 33.4643ZM36.8828 30.1102C36.8641 30.1269 36.8447 30.143 36.8254 30.1578C36.7942 30.182 36.7593 30.2055 36.7218 30.2278C36.1374 30.5781 34.8493 30.7304 34.2405 30.7341C34.1725 30.8925 34.0995 31.0566 34.0222 31.2243L34.0852 31.2268C34.1257 31.2286 34.1706 31.2292 34.2205 31.2292C34.785 31.2292 35.9153 31.116 36.6738 30.8022C36.5166 31.4236 36.0407 32.2914 35.3283 32.6015C34.7245 32.8639 33.5363 32.9091 33.1059 32.9165C33.0054 33.0737 32.9031 33.2254 32.799 33.3677C32.7884 33.3826 32.7771 33.3974 32.7653 33.4117L32.9424 33.4129H32.9692C33.1526 33.4129 34.1631 33.4043 34.9672 33.2272C34.1999 34.6378 32.8008 35.2104 30.7106 34.9739C29.4244 34.8285 27.8531 34.2454 26.9124 33.8171C27.6585 33.6815 28.6902 33.2848 29.6464 32.1236C30.6607 30.8925 30.7056 29.1613 30.4367 28.0534C30.3126 27.5421 30.0843 27.0049 29.8635 26.4862C29.5803 25.8189 29.2878 25.1294 29.2291 24.5216C29.1331 23.5251 29.4275 23.09 29.8716 22.6375C30.9058 22.77 31.7236 23.1525 32.5158 23.5232C33.5219 23.9936 34.4719 24.4374 35.7113 24.2982C37.1479 24.1366 37.7723 23.098 37.7536 22.1405C37.738 21.3544 37.4735 20.5374 37.2177 19.7476C37.1972 19.6851 37.1772 19.622 37.1566 19.5594C37.1722 19.5823 37.1872 19.6046 37.2028 19.6275C37.8515 20.5888 38.5869 21.6781 38.8152 23.155C38.9618 24.1001 38.7067 24.9605 38.1634 25.3714C38.1459 25.3851 38.1284 25.3974 38.1104 25.4098C38.0711 25.4364 38.0324 25.4624 37.9931 25.4872C37.1579 26.022 36.3376 26.1847 35.1718 26.2745C35.1655 26.4342 35.1543 26.6013 35.1393 26.7728C36.3139 26.6867 37.1653 26.5351 38.0193 26.0511C38.0255 26.5858 37.9613 27.1218 37.6762 27.4969C37.6612 27.5174 37.645 27.5378 37.6282 27.557C37.6014 27.5885 37.5733 27.6189 37.544 27.6473C36.8896 28.3109 35.7569 28.5083 34.8886 28.5541C34.8555 28.7318 34.8212 28.9001 34.7882 29.0542L34.8724 29.0505C36.0463 28.9948 36.9807 28.7181 37.6138 28.2434C37.602 28.8395 37.4011 29.6645 36.8828 30.1102Z" fill="black"/>
<path d="M24.3207 27.2974C24.2234 27.1545 24.1161 27.0028 24.0026 26.8419L23.904 26.702C23.3314 25.8875 23.1723 25.5563 22.9715 24.8179C22.9634 24.7888 22.9559 24.7597 22.9478 24.7306L22.8579 24.3023C22.8249 24.1067 22.808 24.0683 22.7307 23.8678C22.6596 23.6833 22.5411 23.5199 22.4993 23.1479C22.4575 23.5199 22.339 23.6833 22.2679 23.8678C22.1905 24.0683 22.1737 24.1067 22.1406 24.3023L22.0508 24.7306C22.0427 24.7597 22.0346 24.7894 22.0271 24.8179C21.8262 25.5563 21.6678 25.8875 21.0945 26.702L20.996 26.8419C20.8825 27.0028 20.7752 27.1545 20.6779 27.2974C20.1558 28.0643 19.9237 28.8256 20.0154 29.642C20.1452 30.8044 21.3422 31.4438 21.3902 31.4692H21.3915L21.3946 31.4655C21.3977 31.4612 21.4027 31.455 21.4096 31.4463C21.9653 30.7518 23.0345 30.7518 23.5896 31.4463C23.5965 31.455 23.6015 31.4612 23.6046 31.4655L23.6077 31.4698H23.609C23.657 31.4438 24.854 30.8044 24.9838 29.642C25.0754 28.8256 24.8434 28.0649 24.3213 27.2974H24.3207Z" fill="#FAD407"/>
<path d="M24.2072 26.5492C23.9046 26.0906 23.6969 25.9005 23.3832 25.2964C22.979 24.5166 22.8336 23.8846 22.7825 23.6345C22.6977 23.2174 22.6708 22.8565 22.6646 22.5879C22.46 22.8287 22.1425 23.2694 21.9784 23.8995C21.8786 24.2826 21.8655 24.6212 21.8768 24.8712C21.8531 24.8502 21.8219 24.8267 21.7807 24.8056C21.7034 24.766 21.6304 24.758 21.5867 24.7561C21.6048 25.2915 21.4844 25.6808 21.3896 25.9111C21.2929 26.1469 21.1819 26.3251 21.0359 26.5461C20.89 26.7665 20.5718 27.1477 20.4452 27.3334C19.9231 28.1009 19.6624 28.7508 19.7653 29.6681C19.9106 30.9698 21.2187 31.6593 21.2742 31.6884L21.4651 31.7856C22.0071 30.937 22.9914 30.9395 23.531 31.7856L23.7219 31.6884C23.778 31.6593 25.0854 30.9698 25.2314 29.6681C25.3705 28.4253 24.6351 27.1997 24.2066 26.5486L24.2072 26.5492ZM24.7361 29.6137C24.6469 30.4115 23.9726 30.9426 23.6558 31.1505C23.0445 30.5266 22.0365 30.4548 21.3416 31.1505C21.0247 30.9426 20.351 30.4115 20.2618 29.6137C20.1757 28.8455 20.346 28.3788 20.7696 27.6788C20.8906 27.4783 21.18 27.1075 21.399 26.7436C21.6678 26.2961 21.7476 26.0751 21.9285 25.7254C22.0427 26.3177 22.382 26.9726 22.5642 27.8639C22.79 28.9718 21.9834 29.5932 22.2273 29.9411C22.3758 29.4775 23.0913 28.7242 22.9921 27.7178C22.9284 27.0673 22.445 26.2732 22.3097 25.5446C22.1581 24.7307 22.3115 24.1699 22.4481 23.9409C22.5766 24.7734 23.2484 25.9563 23.8285 26.7801C24.5521 27.8088 24.8478 28.6246 24.7374 29.613L24.7361 29.6137Z" fill="black"/>
<path d="M7.48585 14.0936L9.83746 15.1025L9.63411 15.5692L7.2825 14.5603L7.03549 15.1278L6.6001 14.9409L7.29685 13.3428L7.73224 13.5297L7.48647 14.0936H7.48585Z" fill="black"/>
<path d="M10.7345 13.5557C10.6154 13.7463 10.4863 13.8763 10.3478 13.9462C10.2093 14.0162 10.0509 14.0298 9.87309 13.9889C9.69532 13.9475 9.48262 13.8509 9.23623 13.6993L7.62939 12.7102L7.89949 12.2781L9.54686 13.292C9.65353 13.3576 9.75146 13.4071 9.84066 13.4405C9.92986 13.474 10.0141 13.4826 10.0933 13.4672C10.1731 13.4517 10.2399 13.4003 10.2941 13.313C10.3403 13.2394 10.3628 13.1707 10.3621 13.1069C10.3615 13.0432 10.3303 12.9763 10.2686 12.9052C10.2074 12.8346 10.107 12.7566 9.96853 12.6712L8.2962 11.6425L8.5663 11.2104L10.2648 12.2559C10.5817 12.4508 10.7776 12.6545 10.8524 12.8674C10.9273 13.0803 10.888 13.31 10.7339 13.5563L10.7345 13.5557Z" fill="black"/>
<path d="M10.0825 10.0789L12.0399 11.7191L11.7093 12.1078L9.75191 10.4676L9.3502 10.9398L8.98779 10.6359L10.1199 9.30518L10.4823 9.60846L10.0825 10.0783V10.0789Z" fill="black"/>
<path d="M14.7701 9.33217L13.0891 7.81573L13.9966 9.88428L13.555 10.1993L11.355 8.05836L11.7742 7.7594L13.2537 9.2449L12.3786 7.32737L12.8558 6.98632L14.3952 8.41673L13.4652 6.55182L13.8769 6.25781L15.2117 9.0165L14.7701 9.33155V9.33217Z" fill="black"/>
<path d="M16.7165 8.31712C16.5112 8.4112 16.3316 8.44957 16.1769 8.43224C16.0222 8.41491 15.8825 8.34002 15.7571 8.20818C15.6311 8.07634 15.5076 7.88013 15.386 7.61893L14.5925 5.91556L15.0579 5.70203L15.8713 7.4481C15.9243 7.56137 15.9785 7.65607 16.0341 7.7322C16.0902 7.80833 16.1551 7.86156 16.2305 7.89251C16.3054 7.92284 16.3902 7.91665 16.4838 7.87394C16.563 7.83743 16.6198 7.79286 16.6547 7.73901C16.689 7.68516 16.7009 7.61213 16.6884 7.5199C16.6765 7.42706 16.636 7.3076 16.568 7.16091L15.7421 5.38883L16.2075 5.17529L17.0458 6.97522C17.2024 7.31069 17.2529 7.58799 17.1974 7.80648C17.1419 8.02497 16.9816 8.19518 16.7165 8.31712Z" fill="black"/>
<path d="M18.982 5.2164C19.0369 5.4089 19.0413 5.58344 18.9951 5.73942C18.949 5.8954 18.8492 6.02909 18.6957 6.14051C18.7413 6.1436 18.7862 6.15412 18.8305 6.17207C18.8747 6.19002 18.9296 6.22902 18.9958 6.28782C19.0619 6.34724 19.1386 6.43451 19.2266 6.55087L19.7755 7.2342L19.2184 7.39018L18.7207 6.77989C18.6022 6.63815 18.5123 6.53726 18.4512 6.47846C18.3894 6.41966 18.3402 6.38499 18.3015 6.37385C18.2634 6.36333 18.2173 6.36581 18.1624 6.38066L18.0507 6.41223L18.3951 7.62043L17.9023 7.75908L17.0764 4.85988L17.9154 4.62468C18.2029 4.54422 18.4331 4.55536 18.6071 4.65934C18.7812 4.76271 18.9059 4.9484 18.982 5.2164ZM18.4874 5.3829C18.4493 5.24859 18.3863 5.16194 18.2984 5.12294C18.2104 5.08395 18.0963 5.08457 17.9559 5.12418L17.7039 5.19474L17.926 5.97401L18.1368 5.91459C18.2978 5.8694 18.4057 5.80256 18.4612 5.71466C18.5167 5.62677 18.5254 5.51598 18.4874 5.3829Z" fill="black"/>
<path d="M20.0468 7.22607L19.5696 4.25074L20.0755 4.1709L20.5526 7.14622L20.0468 7.22607Z" fill="black"/>
<path d="M23.3389 7.03352L23.3832 5.70029L22.6353 5.67615L22.591 7.00938L22.0789 6.99267L22.1787 3.98145L22.6908 3.99816L22.6515 5.18965L23.3994 5.21379L23.4387 4.0223L23.9508 4.03901L23.851 7.05023L23.3389 7.03352Z" fill="black"/>
<path d="M24.8442 6.59972L24.6072 7.16174L24.0857 7.06332L25.4143 4.24707L25.9614 4.35044L26.1466 7.45265L25.6233 7.35361L25.6127 6.74518L24.8448 6.60034L24.8442 6.59972ZM25.5821 4.84808L25.0407 6.13489L25.6058 6.24135L25.5821 4.84808Z" fill="black"/>
<path d="M27.5738 7.95591L27.4615 5.81928L27.4578 5.81804L26.809 7.68295L26.3687 7.52574L27.3966 4.69092L27.8894 4.8667L27.9742 6.91297L27.9774 6.91421L28.6248 5.12914L29.0739 5.28945L28.046 8.12427L27.5744 7.95591H27.5738Z" fill="black"/>
<path d="M30.8691 7.8133C30.6808 8.15001 30.5049 8.4044 30.3402 8.57709C30.1755 8.74978 30.0059 8.85005 29.8306 8.87852C29.6553 8.907 29.4607 8.86181 29.2467 8.74421L28.457 8.3097L29.9291 5.6748L30.6851 6.09074C30.9035 6.21082 31.05 6.3538 31.1249 6.5203C31.1997 6.6868 31.2141 6.87558 31.1679 7.08664C31.1218 7.29771 31.022 7.53972 30.8698 7.8133H30.8691ZM29.1369 8.14135L29.3821 8.27628C29.528 8.35674 29.6565 8.37779 29.7669 8.34003C29.8774 8.30228 29.9747 8.22738 30.0582 8.11597C30.1425 8.00456 30.2429 7.84363 30.3608 7.63256C30.5042 7.37632 30.5953 7.17577 30.6352 7.03156C30.6752 6.88734 30.672 6.77345 30.6271 6.68989C30.5816 6.60633 30.4918 6.52773 30.3577 6.45345L30.145 6.33647L29.1369 8.14135Z" fill="black"/>
<path d="M31.0344 9.16663L30.5672 9.56152L30.1467 9.24028L32.6131 7.32275L33.0541 7.66009L31.8085 10.511L31.3868 10.1885L31.6544 9.64075L31.035 9.16724L31.0344 9.16663ZM32.4896 7.93366L31.4211 8.8392L31.8764 9.18767L32.4896 7.93366Z" fill="black"/>
<path d="M33.63 9.79834L33.8402 9.69869L34.8114 9.25614L35.2269 9.66898L33.421 10.3492L32.5197 11.2424L32.1604 10.8852L33.0617 9.99208L33.7491 8.2002L34.1708 8.61985L33.7292 9.59223L33.63 9.79896V9.79834Z" fill="black"/>
<path d="M33.774 11.7483L33.2201 12.0107L32.897 11.5929L35.7769 10.3687L36.1156 10.8069L34.1738 13.2443L33.8495 12.8247L34.2499 12.3629L33.774 11.7477V11.7483ZM35.4993 10.9282L34.2318 11.5311L34.5818 11.9835L35.4987 10.9282H35.4993Z" fill="black"/>
<path d="M34.9036 14.5623L36.2509 12.8911L36.249 12.888L34.515 13.8536L34.291 13.4457L36.9576 12.0054L37.2078 12.4615L35.9003 14.0461L35.9022 14.0492L37.5814 13.1424L37.8097 13.5583L35.1431 14.9986L34.9036 14.5617V14.5623Z" fill="black"/>
<path d="M35.3142 15.446L38.133 14.3257L38.3233 14.7979L35.5045 15.9183L35.3142 15.446Z" fill="black"/>
<path d="M54.233 15.5498V5.36799H57.7926C58.5019 5.36799 59.0869 5.49062 59.5476 5.73588C60.0083 5.97783 60.3513 6.3043 60.5767 6.71529C60.8021 7.12296 60.9148 7.57537 60.9148 8.07253C60.9148 8.51003 60.8369 8.8713 60.6811 9.15634C60.5286 9.44138 60.3265 9.66676 60.0746 9.83248C59.826 9.99819 59.5559 10.1208 59.2642 10.2004V10.2998C59.5758 10.3197 59.889 10.4291 60.2038 10.6279C60.5187 10.8268 60.7822 11.1118 60.9943 11.483C61.2064 11.8543 61.3125 12.3083 61.3125 12.8453C61.3125 13.3557 61.1965 13.8147 60.9645 14.2224C60.7325 14.6301 60.3662 14.9532 59.8658 15.1919C59.3653 15.4305 58.714 15.5498 57.9119 15.5498H54.233ZM55.4659 14.4561H57.9119C58.7173 14.4561 59.2891 14.3003 59.6271 13.9887C59.9685 13.6739 60.1392 13.2927 60.1392 12.8453C60.1392 12.5006 60.0514 12.1824 59.8757 11.8907C59.7 11.5957 59.4498 11.3604 59.125 11.1847C58.8002 11.0058 58.4157 10.9163 57.9716 10.9163H55.4659V14.4561ZM55.4659 9.84242H57.7528C58.1241 9.84242 58.4588 9.7695 58.7571 9.62367C59.0587 9.47783 59.2973 9.27234 59.473 9.00719C59.652 8.74204 59.7415 8.43049 59.7415 8.07253C59.7415 7.62509 59.5857 7.24559 59.2741 6.93404C58.9626 6.61917 58.4688 6.46174 57.7926 6.46174H55.4659V9.84242ZM65.4265 15.7288C64.9426 15.7288 64.5034 15.6376 64.109 15.4553C63.7146 15.2697 63.4014 15.0029 63.1694 14.6549C62.9374 14.3036 62.8214 13.8794 62.8214 13.3822C62.8214 12.9447 62.9076 12.5901 63.0799 12.3183C63.2522 12.0432 63.4826 11.8277 63.771 11.672C64.0593 11.5162 64.3775 11.4002 64.7255 11.324C65.0768 11.2444 65.4298 11.1814 65.7844 11.135C66.2485 11.0754 66.6246 11.0306 66.913 11.0008C67.2047 10.9677 67.4168 10.913 67.5494 10.8367C67.6853 10.7605 67.7532 10.6279 67.7532 10.439V10.3992C67.7532 9.90871 67.619 9.52755 67.3505 9.25577C67.0853 8.98399 66.6826 8.8481 66.1424 8.8481C65.5823 8.8481 65.1431 8.97073 64.8249 9.216C64.5067 9.46126 64.283 9.7231 64.1538 10.0015L63.0401 9.60378C63.239 9.13977 63.5041 8.7785 63.8356 8.51998C64.1703 8.25814 64.5349 8.07585 64.9293 7.9731C65.3271 7.86704 65.7182 7.81401 66.1026 7.81401C66.3479 7.81401 66.6296 7.84384 66.9478 7.9035C67.2693 7.95984 67.5792 8.0775 67.8775 8.25648C68.1791 8.43546 68.4293 8.70558 68.6282 9.06685C68.8271 9.42812 68.9265 9.91202 68.9265 10.5186V15.5498H67.7532V14.5157H67.6935C67.614 14.6814 67.4814 14.8588 67.2958 15.0477C67.1102 15.2366 66.8633 15.3973 66.555 15.5299C66.2468 15.6625 65.8706 15.7288 65.4265 15.7288ZM65.6055 14.6748C66.0695 14.6748 66.4606 14.5837 66.7788 14.4014C67.1003 14.2191 67.3422 13.9838 67.5046 13.6954C67.6703 13.407 67.7532 13.1038 67.7532 12.7856V11.7117C67.7035 11.7714 67.5941 11.8261 67.4251 11.8758C67.2594 11.9222 67.0671 11.9636 66.8484 12.0001C66.6329 12.0332 66.4225 12.0631 66.217 12.0896C66.0148 12.1128 65.8507 12.1327 65.7248 12.1492C65.4199 12.189 65.1348 12.2536 64.8697 12.3431C64.6078 12.4293 64.3957 12.5602 64.2333 12.7359C64.0742 12.9082 63.9947 13.1436 63.9947 13.4419C63.9947 13.8495 64.1455 14.1578 64.4471 14.3666C64.752 14.5721 65.1381 14.6748 65.6055 14.6748ZM72.2413 5.36799V15.5498H71.068V5.36799H72.2413ZM76.6374 15.7288C76.1535 15.7288 75.7144 15.6376 75.32 15.4553C74.9255 15.2697 74.6123 15.0029 74.3803 14.6549C74.1483 14.3036 74.0323 13.8794 74.0323 13.3822C74.0323 12.9447 74.1185 12.5901 74.2908 12.3183C74.4632 12.0432 74.6935 11.8277 74.9819 11.672C75.2702 11.5162 75.5884 11.4002 75.9364 11.324C76.2878 11.2444 76.6407 11.1814 76.9954 11.135C77.4594 11.0754 77.8356 11.0306 78.1239 11.0008C78.4156 10.9677 78.6277 10.913 78.7603 10.8367C78.8962 10.7605 78.9641 10.6279 78.9641 10.439V10.3992C78.9641 9.90871 78.8299 9.52755 78.5614 9.25577C78.2963 8.98399 77.8936 8.8481 77.3533 8.8481C76.7932 8.8481 76.354 8.97073 76.0359 9.216C75.7177 9.46126 75.494 9.7231 75.3647 10.0015L74.2511 9.60378C74.4499 9.13977 74.7151 8.7785 75.0465 8.51998C75.3813 8.25814 75.7459 8.07585 76.1403 7.9731C76.538 7.86704 76.9291 7.81401 77.3136 7.81401C77.5588 7.81401 77.8406 7.84384 78.1587 7.9035C78.4802 7.95984 78.7901 8.0775 79.0884 8.25648C79.39 8.43546 79.6403 8.70558 79.8391 9.06685C80.038 9.42812 80.1374 9.91202 80.1374 10.5186V15.5498H78.9641V14.5157H78.9045C78.8249 14.6814 78.6924 14.8588 78.5067 15.0477C78.3211 15.2366 78.0742 15.3973 77.766 15.5299C77.4577 15.6625 77.0816 15.7288 76.6374 15.7288ZM76.8164 14.6748C77.2804 14.6748 77.6715 14.5837 77.9897 14.4014C78.3112 14.2191 78.5531 13.9838 78.7156 13.6954C78.8813 13.407 78.9641 13.1038 78.9641 12.7856V11.7117C78.9144 11.7714 78.805 11.8261 78.636 11.8758C78.4703 11.9222 78.2781 11.9636 78.0593 12.0001C77.8439 12.0332 77.6334 12.0631 77.4279 12.0896C77.2257 12.1128 77.0617 12.1327 76.9357 12.1492C76.6308 12.189 76.3458 12.2536 76.0806 12.3431C75.8188 12.4293 75.6067 12.5602 75.4442 12.7359C75.2852 12.9082 75.2056 13.1436 75.2056 13.4419C75.2056 13.8495 75.3564 14.1578 75.658 14.3666C75.9629 14.5721 76.3491 14.6748 76.8164 14.6748ZM82.2789 15.5498V7.91344H83.4522V15.5498H82.2789ZM82.8755 6.64071C82.6468 6.64071 82.4496 6.56283 82.2839 6.40705C82.1215 6.25127 82.0403 6.06401 82.0403 5.84526C82.0403 5.62651 82.1215 5.43925 82.2839 5.28347C82.4496 5.12769 82.6468 5.0498 82.8755 5.0498C83.1042 5.0498 83.2998 5.12769 83.4622 5.28347C83.6279 5.43925 83.7108 5.62651 83.7108 5.84526C83.7108 6.06401 83.6279 6.25127 83.4622 6.40705C83.2998 6.56283 83.1042 6.64071 82.8755 6.64071ZM89.6978 15.5498V5.36799H93.1381C93.9369 5.36799 94.5898 5.51216 95.0969 5.80051C95.6074 6.08555 95.9852 6.47168 96.2305 6.9589C96.4757 7.44611 96.5984 7.98967 96.5984 8.58958C96.5984 9.18948 96.4757 9.7347 96.2305 10.2252C95.9885 10.7158 95.614 11.1069 95.1069 11.3985C94.5998 11.6869 93.9502 11.8311 93.158 11.8311H90.6921V10.7373H93.1183C93.6651 10.7373 94.1043 10.6428 94.4357 10.4539C94.7672 10.265 95.0075 10.0098 95.1566 9.6883C95.3091 9.36349 95.3853 8.99725 95.3853 8.58958C95.3853 8.18191 95.3091 7.81732 95.1566 7.49583C95.0075 7.17433 94.7655 6.92244 94.4308 6.74015C94.096 6.55454 93.6519 6.46174 93.0984 6.46174H90.9308V15.5498H89.6978ZM101.545 15.7089C100.809 15.7089 100.175 15.5465 99.641 15.2217C99.1107 14.8936 98.7013 14.4362 98.413 13.8495C98.128 13.2596 97.9854 12.5735 97.9854 11.7913C97.9854 11.0091 98.128 10.3197 98.413 9.7231C98.7013 9.12319 99.1024 8.65587 99.6161 8.32111C100.133 7.98304 100.736 7.81401 101.426 7.81401C101.824 7.81401 102.216 7.8803 102.604 8.01287C102.992 8.14545 103.345 8.36088 103.663 8.65918C103.981 8.95416 104.235 9.34526 104.424 9.83248C104.613 10.3197 104.707 10.9196 104.707 11.6322V12.1294H98.8207V11.1151H103.514C103.514 10.6843 103.428 10.2998 103.255 9.96174C103.086 9.62367 102.844 9.35686 102.529 9.16131C102.218 8.96576 101.85 8.86799 101.426 8.86799C100.958 8.86799 100.554 8.98399 100.213 9.216C99.8746 9.44469 99.6145 9.74299 99.4322 10.1109C99.2499 10.4788 99.1587 10.8732 99.1587 11.2941V11.9703C99.1587 12.547 99.2582 13.0358 99.457 13.4369C99.6592 13.8346 99.9393 14.1379 100.297 14.3467C100.655 14.5522 101.071 14.6549 101.545 14.6549C101.853 14.6549 102.132 14.6118 102.38 14.5257C102.632 14.4362 102.849 14.3036 103.032 14.1279C103.214 13.949 103.355 13.7269 103.454 13.4617L104.588 13.7799C104.468 14.1644 104.268 14.5025 103.986 14.7941C103.704 15.0825 103.356 15.3079 102.942 15.4703C102.528 15.6294 102.062 15.7089 101.545 15.7089ZM107.665 10.9561V15.5498H106.492V7.91344H107.625V9.10662H107.725C107.904 8.71884 108.176 8.40729 108.54 8.17196C108.905 7.93333 109.375 7.81401 109.952 7.81401C110.469 7.81401 110.922 7.92007 111.309 8.13219C111.697 8.341 111.999 8.65918 112.214 9.08674C112.43 9.51098 112.537 10.0479 112.537 10.6975V15.5498H111.364V10.7771C111.364 10.1772 111.208 9.70984 110.897 9.37509C110.585 9.03702 110.158 8.86799 109.614 8.86799C109.239 8.86799 108.905 8.94919 108.61 9.11159C108.318 9.274 108.088 9.51098 107.919 9.82253C107.75 10.1341 107.665 10.5119 107.665 10.9561ZM114.681 7.91344H115.855V16.1066C115.855 16.5773 115.773 16.9849 115.611 17.3296C115.452 17.6743 115.21 17.9411 114.885 18.1301C114.564 18.319 114.158 18.4134 113.667 18.4134C113.627 18.4134 113.588 18.4134 113.548 18.4134C113.508 18.4134 113.468 18.4134 113.428 18.4134V17.3197C113.468 17.3197 113.505 17.3197 113.538 17.3197C113.571 17.3197 113.607 17.3197 113.647 17.3197C114.005 17.3197 114.267 17.2136 114.433 17.0015C114.598 16.7927 114.681 16.4944 114.681 16.1066V7.91344ZM115.258 6.64071C115.029 6.64071 114.832 6.56283 114.666 6.40705C114.504 6.25127 114.423 6.06401 114.423 5.84526C114.423 5.62651 114.504 5.43925 114.666 5.28347C114.832 5.12769 115.029 5.0498 115.258 5.0498C115.487 5.0498 115.682 5.12769 115.845 5.28347C116.01 5.43925 116.093 5.62651 116.093 5.84526C116.093 6.06401 116.01 6.25127 115.845 6.40705C115.682 6.56283 115.487 6.64071 115.258 6.64071ZM120.251 15.7288C119.767 15.7288 119.328 15.6376 118.933 15.4553C118.539 15.2697 118.226 15.0029 117.994 14.6549C117.762 14.3036 117.646 13.8794 117.646 13.3822C117.646 12.9447 117.732 12.5901 117.904 12.3183C118.076 12.0432 118.307 11.8277 118.595 11.672C118.884 11.5162 119.202 11.4002 119.55 11.324C119.901 11.2444 120.254 11.1814 120.609 11.135C121.073 11.0754 121.449 11.0306 121.737 11.0008C122.029 10.9677 122.241 10.913 122.374 10.8367C122.509 10.7605 122.577 10.6279 122.577 10.439V10.3992C122.577 9.90871 122.443 9.52755 122.175 9.25577C121.91 8.98399 121.507 8.8481 120.967 8.8481C120.406 8.8481 119.967 8.97073 119.649 9.216C119.331 9.46126 119.107 9.7231 118.978 10.0015L117.864 9.60378C118.063 9.13977 118.328 8.7785 118.66 8.51998C118.995 8.25814 119.359 8.07585 119.754 7.9731C120.151 7.86704 120.542 7.81401 120.927 7.81401C121.172 7.81401 121.454 7.84384 121.772 7.9035C122.094 7.95984 122.403 8.0775 122.702 8.25648C123.003 8.43546 123.254 8.70558 123.452 9.06685C123.651 9.42812 123.751 9.91202 123.751 10.5186V15.5498H122.577V14.5157H122.518C122.438 14.6814 122.306 14.8588 122.12 15.0477C121.934 15.2366 121.688 15.3973 121.379 15.5299C121.071 15.6625 120.695 15.7288 120.251 15.7288ZM120.43 14.6748C120.894 14.6748 121.285 14.5837 121.603 14.4014C121.924 14.2191 122.166 13.9838 122.329 13.6954C122.495 13.407 122.577 13.1038 122.577 12.7856V11.7117C122.528 11.7714 122.418 11.8261 122.249 11.8758C122.084 11.9222 121.891 11.9636 121.673 12.0001C121.457 12.0332 121.247 12.0631 121.041 12.0896C120.839 12.1128 120.675 12.1327 120.549 12.1492C120.244 12.189 119.959 12.2536 119.694 12.3431C119.432 12.4293 119.22 12.5602 119.058 12.7359C118.898 12.9082 118.819 13.1436 118.819 13.4419C118.819 13.8495 118.97 14.1578 119.271 14.3666C119.576 14.5721 119.962 14.6748 120.43 14.6748ZM125.892 15.5498V7.91344H127.026V9.10662H127.125C127.284 8.69895 127.541 8.38243 127.896 8.15705C128.25 7.92836 128.676 7.81401 129.173 7.81401C129.677 7.81401 130.097 7.92836 130.431 8.15705C130.769 8.38243 131.033 8.69895 131.222 9.10662H131.301C131.497 8.71221 131.79 8.399 132.181 8.16699C132.572 7.93167 133.041 7.81401 133.588 7.81401C134.271 7.81401 134.829 8.02779 135.264 8.45534C135.698 8.87959 135.915 9.54081 135.915 10.439V15.5498H134.742V10.439C134.742 9.87556 134.588 9.47286 134.279 9.23091C133.971 8.98896 133.608 8.86799 133.191 8.86799C132.654 8.86799 132.238 9.03039 131.943 9.3552C131.648 9.6767 131.5 10.0844 131.5 10.5782V15.5498H130.307V10.3197C130.307 9.88551 130.166 9.53584 129.884 9.27069C129.603 9.00222 129.24 8.86799 128.796 8.86799C128.491 8.86799 128.206 8.94919 127.941 9.11159C127.679 9.274 127.467 9.49938 127.304 9.78773C127.145 10.0728 127.066 10.4026 127.066 10.7771V15.5498H125.892ZM138.06 15.5498V7.91344H139.233V15.5498H138.06ZM138.657 6.64071C138.428 6.64071 138.231 6.56283 138.065 6.40705C137.903 6.25127 137.822 6.06401 137.822 5.84526C137.822 5.62651 137.903 5.43925 138.065 5.28347C138.231 5.12769 138.428 5.0498 138.657 5.0498C138.885 5.0498 139.081 5.12769 139.243 5.28347C139.409 5.43925 139.492 5.62651 139.492 5.84526C139.492 6.06401 139.409 6.25127 139.243 6.40705C139.081 6.56283 138.885 6.64071 138.657 6.64071ZM142.556 10.9561V15.5498H141.382V7.91344H142.516V9.10662H142.615C142.794 8.71884 143.066 8.40729 143.431 8.17196C143.795 7.93333 144.266 7.81401 144.843 7.81401C145.36 7.81401 145.812 7.92007 146.2 8.13219C146.588 8.341 146.889 8.65918 147.105 9.08674C147.32 9.51098 147.428 10.0479 147.428 10.6975V15.5498H146.255V10.7771C146.255 10.1772 146.099 9.70984 145.787 9.37509C145.476 9.03702 145.048 8.86799 144.505 8.86799C144.13 8.86799 143.795 8.94919 143.5 9.11159C143.209 9.274 142.978 9.51098 142.809 9.82253C142.64 10.1341 142.556 10.5119 142.556 10.9561ZM151.819 15.7288C151.335 15.7288 150.896 15.6376 150.502 15.4553C150.107 15.2697 149.794 15.0029 149.562 14.6549C149.33 14.3036 149.214 13.8794 149.214 13.3822C149.214 12.9447 149.3 12.5901 149.472 12.3183C149.645 12.0432 149.875 11.8277 150.164 11.672C150.452 11.5162 150.77 11.4002 151.118 11.324C151.469 11.2444 151.822 11.1814 152.177 11.135C152.641 11.0754 153.017 11.0306 153.306 11.0008C153.597 10.9677 153.809 10.913 153.942 10.8367C154.078 10.7605 154.146 10.6279 154.146 10.439V10.3992C154.146 9.90871 154.012 9.52755 153.743 9.25577C153.478 8.98399 153.075 8.8481 152.535 8.8481C151.975 8.8481 151.536 8.97073 151.218 9.216C150.899 9.46126 150.676 9.7231 150.546 10.0015L149.433 9.60378C149.632 9.13977 149.897 8.7785 150.228 8.51998C150.563 8.25814 150.927 8.07585 151.322 7.9731C151.72 7.86704 152.111 7.81401 152.495 7.81401C152.74 7.81401 153.022 7.84384 153.34 7.9035C153.662 7.95984 153.972 8.0775 154.27 8.25648C154.572 8.43546 154.822 8.70558 155.021 9.06685C155.22 9.42812 155.319 9.91202 155.319 10.5186V15.5498H154.146V14.5157H154.086C154.007 14.6814 153.874 14.8588 153.688 15.0477C153.503 15.2366 153.256 15.3973 152.948 15.5299C152.639 15.6625 152.263 15.7288 151.819 15.7288ZM151.998 14.6748C152.462 14.6748 152.853 14.5837 153.171 14.4014C153.493 14.2191 153.735 13.9838 153.897 13.6954C154.063 13.407 154.146 13.1038 154.146 12.7856V11.7117C154.096 11.7714 153.987 11.8261 153.818 11.8758C153.652 11.9222 153.46 11.9636 153.241 12.0001C153.026 12.0332 152.815 12.0631 152.61 12.0896C152.407 12.1128 152.243 12.1327 152.117 12.1492C151.812 12.189 151.527 12.2536 151.262 12.3431C151 12.4293 150.788 12.5602 150.626 12.7359C150.467 12.9082 150.387 13.1436 150.387 13.4419C150.387 13.8495 150.538 14.1578 150.84 14.3666C151.145 14.5721 151.531 14.6748 151.998 14.6748ZM158.634 10.9561V15.5498H157.461V7.91344H158.594V9.10662H158.694C158.873 8.71884 159.144 8.40729 159.509 8.17196C159.873 7.93333 160.344 7.81401 160.921 7.81401C161.438 7.81401 161.89 7.92007 162.278 8.13219C162.666 8.341 162.967 8.65918 163.183 9.08674C163.398 9.51098 163.506 10.0479 163.506 10.6975V15.5498H162.333V10.7771C162.333 10.1772 162.177 9.70984 161.865 9.37509C161.554 9.03702 161.126 8.86799 160.583 8.86799C160.208 8.86799 159.873 8.94919 159.578 9.11159C159.287 9.274 159.056 9.51098 158.887 9.82253C158.718 10.1341 158.634 10.5119 158.634 10.9561ZM169.747 5.36799H171.218L174.678 13.8197H174.798L178.258 5.36799H179.73V15.5498H178.576V7.81401H178.477L175.295 15.5498H174.181L170.999 7.81401H170.9V15.5498H169.747V5.36799ZM186.855 12.4276V7.91344H188.028V15.5498H186.855V14.2572H186.776C186.597 14.645 186.318 14.9748 185.94 15.2465C185.563 15.515 185.085 15.6492 184.509 15.6492C184.031 15.6492 183.607 15.5448 183.236 15.336C182.865 15.1239 182.573 14.8057 182.361 14.3815C182.149 13.9539 182.043 13.4153 182.043 12.7657V7.91344H183.216V12.6862C183.216 13.243 183.372 13.6871 183.683 14.0186C183.998 14.35 184.399 14.5157 184.886 14.5157C185.178 14.5157 185.475 14.4411 185.776 14.292C186.081 14.1428 186.336 13.9142 186.542 13.6059C186.751 13.2977 186.855 12.9049 186.855 12.4276ZM193.498 7.91344V8.90776H189.541V7.91344H193.498ZM190.694 6.0839H191.868V13.3623C191.868 13.6937 191.916 13.9423 192.012 14.108C192.111 14.2704 192.237 14.3798 192.39 14.4362C192.546 14.4892 192.71 14.5157 192.882 14.5157C193.011 14.5157 193.117 14.5091 193.2 14.4958C193.283 14.4793 193.349 14.466 193.399 14.4561L193.638 15.51C193.558 15.5399 193.447 15.5697 193.305 15.5995C193.162 15.6327 192.981 15.6492 192.763 15.6492C192.431 15.6492 192.106 15.578 191.788 15.4355C191.473 15.2929 191.211 15.0758 191.003 14.7842C190.797 14.4925 190.694 14.1246 190.694 13.6805V6.0839ZM200.076 12.4276V7.91344H201.249V15.5498H200.076V14.2572H199.996C199.817 14.645 199.539 14.9748 199.161 15.2465C198.783 15.515 198.306 15.6492 197.729 15.6492C197.252 15.6492 196.828 15.5448 196.456 15.336C196.085 15.1239 195.794 14.8057 195.581 14.3815C195.369 13.9539 195.263 13.4153 195.263 12.7657V7.91344H196.437V12.6862C196.437 13.243 196.592 13.6871 196.904 14.0186C197.219 14.35 197.62 14.5157 198.107 14.5157C198.399 14.5157 198.695 14.4411 198.997 14.292C199.302 14.1428 199.557 13.9142 199.763 13.6059C199.971 13.2977 200.076 12.9049 200.076 12.4276ZM207.495 15.5498V5.36799H210.935C211.734 5.36799 212.387 5.51216 212.894 5.80051C213.404 6.08555 213.782 6.47168 214.027 6.9589C214.273 7.44611 214.395 7.98967 214.395 8.58958C214.395 9.18948 214.273 9.7347 214.027 10.2252C213.785 10.7158 213.411 11.1069 212.904 11.3985C212.397 11.6869 211.747 11.8311 210.955 11.8311H208.489V10.7373H210.915C211.462 10.7373 211.901 10.6428 212.233 10.4539C212.564 10.265 212.804 10.0098 212.953 9.6883C213.106 9.36349 213.182 8.99725 213.182 8.58958C213.182 8.18191 213.106 7.81732 212.953 7.49583C212.804 7.17433 212.562 6.92244 212.228 6.74015C211.893 6.55454 211.449 6.46174 210.895 6.46174H208.728V15.5498H207.495ZM219.342 15.7089C218.606 15.7089 217.971 15.5465 217.438 15.2217C216.908 14.8936 216.498 14.4362 216.21 13.8495C215.925 13.2596 215.782 12.5735 215.782 11.7913C215.782 11.0091 215.925 10.3197 216.21 9.7231C216.498 9.12319 216.899 8.65587 217.413 8.32111C217.93 7.98304 218.533 7.81401 219.223 7.81401C219.62 7.81401 220.013 7.8803 220.401 8.01287C220.789 8.14545 221.142 8.36088 221.46 8.65918C221.778 8.95416 222.032 9.34526 222.221 9.83248C222.409 10.3197 222.504 10.9196 222.504 11.6322V12.1294H216.618V11.1151H221.311C221.311 10.6843 221.225 10.2998 221.052 9.96174C220.883 9.62367 220.641 9.35686 220.326 9.16131C220.015 8.96576 219.647 8.86799 219.223 8.86799C218.755 8.86799 218.351 8.98399 218.01 9.216C217.672 9.44469 217.411 9.74299 217.229 10.1109C217.047 10.4788 216.956 10.8732 216.956 11.2941V11.9703C216.956 12.547 217.055 13.0358 217.254 13.4369C217.456 13.8346 217.736 14.1379 218.094 14.3467C218.452 14.5522 218.868 14.6549 219.342 14.6549C219.65 14.6549 219.929 14.6118 220.177 14.5257C220.429 14.4362 220.646 14.3036 220.828 14.1279C221.011 13.949 221.152 13.7269 221.251 13.4617L222.385 13.7799C222.265 14.1644 222.065 14.5025 221.783 14.7941C221.501 15.0825 221.153 15.3079 220.739 15.4703C220.325 15.6294 219.859 15.7089 219.342 15.7089ZM225.462 10.9561V15.5498H224.289V7.91344H225.422V9.10662H225.522C225.701 8.71884 225.972 8.40729 226.337 8.17196C226.702 7.93333 227.172 7.81401 227.749 7.81401C228.266 7.81401 228.718 7.92007 229.106 8.13219C229.494 8.341 229.796 8.65918 230.011 9.08674C230.226 9.51098 230.334 10.0479 230.334 10.6975V15.5498H229.161V10.7771C229.161 10.1772 229.005 9.70984 228.694 9.37509C228.382 9.03702 227.954 8.86799 227.411 8.86799C227.036 8.86799 226.702 8.94919 226.407 9.11159C226.115 9.274 225.885 9.51098 225.716 9.82253C225.547 10.1341 225.462 10.5119 225.462 10.9561ZM235.362 15.7089C234.725 15.7089 234.164 15.5481 233.676 15.2267C233.189 14.9018 232.808 14.4445 232.533 13.8545C232.258 13.2612 232.12 12.5602 232.12 11.7515C232.12 10.9494 232.258 10.2534 232.533 9.66344C232.808 9.07348 233.191 8.61775 233.681 8.29625C234.172 7.97476 234.739 7.81401 235.382 7.81401C235.879 7.81401 236.271 7.89687 236.56 8.06259C236.852 8.22499 237.074 8.4106 237.226 8.61941C237.382 8.8249 237.503 8.99393 237.589 9.12651H237.688V5.36799H238.862V15.5498H237.728V14.3765H237.589C237.503 14.5157 237.38 14.6914 237.221 14.9035C237.062 15.1123 236.835 15.2996 236.54 15.4653C236.245 15.6277 235.852 15.7089 235.362 15.7089ZM235.521 14.6549C235.991 14.6549 236.389 14.5323 236.714 14.287C237.039 14.0384 237.286 13.6954 237.455 13.2579C237.624 12.8171 237.708 12.3083 237.708 11.7316C237.708 11.1615 237.625 10.6627 237.46 10.2352C237.294 9.8043 237.049 9.46955 236.724 9.23091C236.399 8.98896 235.998 8.86799 235.521 8.86799C235.024 8.86799 234.609 8.99559 234.278 9.2508C233.95 9.50269 233.703 9.84573 233.537 10.2799C233.375 10.7108 233.294 11.1947 233.294 11.7316C233.294 12.2752 233.376 12.769 233.542 13.2132C233.711 13.654 233.96 14.0053 234.288 14.2671C234.619 14.5257 235.03 14.6549 235.521 14.6549ZM241.173 15.5498V7.91344H242.347V15.5498H241.173ZM241.77 6.64071C241.541 6.64071 241.344 6.56283 241.178 6.40705C241.016 6.25127 240.935 6.06401 240.935 5.84526C240.935 5.62651 241.016 5.43925 241.178 5.28347C241.344 5.12769 241.541 5.0498 241.77 5.0498C241.999 5.0498 242.194 5.12769 242.357 5.28347C242.522 5.43925 242.605 5.62651 242.605 5.84526C242.605 6.06401 242.522 6.25127 242.357 6.40705C242.194 6.56283 241.999 6.64071 241.77 6.64071ZM247.379 15.7089C246.743 15.7089 246.181 15.5481 245.694 15.2267C245.207 14.9018 244.826 14.4445 244.55 13.8545C244.275 13.2612 244.138 12.5602 244.138 11.7515C244.138 10.9494 244.275 10.2534 244.55 9.66344C244.826 9.07348 245.208 8.61775 245.699 8.29625C246.189 7.97476 246.756 7.81401 247.399 7.81401C247.896 7.81401 248.289 7.89687 248.577 8.06259C248.869 8.22499 249.091 8.4106 249.244 8.61941C249.399 8.8249 249.52 8.99393 249.607 9.12651H249.706V5.36799H250.879V15.5498H249.746V14.3765H249.607C249.52 14.5157 249.398 14.6914 249.239 14.9035C249.08 15.1123 248.853 15.2996 248.558 15.4653C248.263 15.6277 247.87 15.7089 247.379 15.7089ZM247.538 14.6549C248.009 14.6549 248.407 14.5323 248.732 14.287C249.056 14.0384 249.303 13.6954 249.472 13.2579C249.641 12.8171 249.726 12.3083 249.726 11.7316C249.726 11.1615 249.643 10.6627 249.477 10.2352C249.312 9.8043 249.066 9.46955 248.741 9.23091C248.417 8.98896 248.016 8.86799 247.538 8.86799C247.041 8.86799 246.627 8.99559 246.295 9.2508C245.967 9.50269 245.72 9.84573 245.555 10.2799C245.392 10.7108 245.311 11.1947 245.311 11.7316C245.311 12.2752 245.394 12.769 245.56 13.2132C245.729 13.654 245.977 14.0053 246.305 14.2671C246.637 14.5257 247.048 14.6549 247.538 14.6549ZM253.191 15.5498V7.91344H254.364V15.5498H253.191ZM253.788 6.64071C253.559 6.64071 253.362 6.56283 253.196 6.40705C253.034 6.25127 252.952 6.06401 252.952 5.84526C252.952 5.62651 253.034 5.43925 253.196 5.28347C253.362 5.12769 253.559 5.0498 253.788 5.0498C254.016 5.0498 254.212 5.12769 254.374 5.28347C254.54 5.43925 254.623 5.62651 254.623 5.84526C254.623 6.06401 254.54 6.25127 254.374 6.40705C254.212 6.56283 254.016 6.64071 253.788 6.64071ZM257.607 12.7657L257.587 11.314H257.826L261.167 7.91344H262.618L259.059 11.5129H258.959L257.607 12.7657ZM256.513 15.5498V5.36799H257.687V15.5498H256.513ZM261.366 15.5498L258.383 11.7714L259.218 10.9561L262.857 15.5498H261.366ZM266.376 15.7288C265.892 15.7288 265.453 15.6376 265.058 15.4553C264.664 15.2697 264.351 15.0029 264.119 14.6549C263.887 14.3036 263.771 13.8794 263.771 13.3822C263.771 12.9447 263.857 12.5901 264.029 12.3183C264.201 12.0432 264.432 11.8277 264.72 11.672C265.009 11.5162 265.327 11.4002 265.675 11.324C266.026 11.2444 266.379 11.1814 266.734 11.135C267.198 11.0754 267.574 11.0306 267.862 11.0008C268.154 10.9677 268.366 10.913 268.499 10.8367C268.634 10.7605 268.702 10.6279 268.702 10.439V10.3992C268.702 9.90871 268.568 9.52755 268.3 9.25577C268.035 8.98399 267.632 8.8481 267.092 8.8481C266.531 8.8481 266.092 8.97073 265.774 9.216C265.456 9.46126 265.232 9.7231 265.103 10.0015L263.989 9.60378C264.188 9.13977 264.453 8.7785 264.785 8.51998C265.12 8.25814 265.484 8.07585 265.879 7.9731C266.276 7.86704 266.667 7.81401 267.052 7.81401C267.297 7.81401 267.579 7.84384 267.897 7.9035C268.219 7.95984 268.528 8.0775 268.827 8.25648C269.128 8.43546 269.379 8.70558 269.577 9.06685C269.776 9.42812 269.876 9.91202 269.876 10.5186V15.5498H268.702V14.5157H268.643C268.563 14.6814 268.431 14.8588 268.245 15.0477C268.059 15.2366 267.813 15.3973 267.504 15.5299C267.196 15.6625 266.82 15.7288 266.376 15.7288ZM266.555 14.6748C267.019 14.6748 267.41 14.5837 267.728 14.4014C268.049 14.2191 268.291 13.9838 268.454 13.6954C268.62 13.407 268.702 13.1038 268.702 12.7856V11.7117C268.653 11.7714 268.543 11.8261 268.374 11.8758C268.209 11.9222 268.016 11.9636 267.798 12.0001C267.582 12.0332 267.372 12.0631 267.166 12.0896C266.964 12.1128 266.8 12.1327 266.674 12.1492C266.369 12.189 266.084 12.2536 265.819 12.3431C265.557 12.4293 265.345 12.5602 265.183 12.7359C265.023 12.9082 264.944 13.1436 264.944 13.4419C264.944 13.8495 265.095 14.1578 265.396 14.3666C265.701 14.5721 266.087 14.6748 266.555 14.6748ZM273.191 10.9561V15.5498H272.017V7.91344H273.151V9.10662H273.25C273.429 8.71884 273.701 8.40729 274.066 8.17196C274.43 7.93333 274.901 7.81401 275.477 7.81401C275.994 7.81401 276.447 7.92007 276.835 8.13219C277.222 8.341 277.524 8.65918 277.74 9.08674C277.955 9.51098 278.063 10.0479 278.063 10.6975V15.5498H276.889V10.7771C276.889 10.1772 276.734 9.70984 276.422 9.37509C276.11 9.03702 275.683 8.86799 275.139 8.86799C274.765 8.86799 274.43 8.94919 274.135 9.11159C273.843 9.274 273.613 9.51098 273.444 9.82253C273.275 10.1341 273.191 10.5119 273.191 10.9561Z" fill="white"/>
<path d="M54.0114 38.5498V26.9134H58.6023C59.4848 26.9134 60.2367 27.082 60.858 27.4191C61.4792 27.7525 61.9527 28.2165 62.2784 28.8112C62.608 29.4021 62.7727 30.0839 62.7727 30.8566C62.7727 31.6294 62.6061 32.3112 62.2727 32.9021C61.9394 33.493 61.4564 33.9532 60.8239 34.2828C60.1951 34.6123 59.4337 34.7771 58.5398 34.7771H55.6136V32.8055H58.142C58.6155 32.8055 59.0057 32.724 59.3125 32.5612C59.6231 32.3945 59.8542 32.1653 60.0057 31.8737C60.161 31.5782 60.2386 31.2392 60.2386 30.8566C60.2386 30.4703 60.161 30.1331 60.0057 29.8453C59.8542 29.5536 59.6231 29.3282 59.3125 29.1691C59.0019 29.0062 58.608 28.9248 58.1307 28.9248H56.4716V38.5498H54.0114ZM64.3253 38.5498V29.8225H66.6719V31.3453H66.7628C66.9219 30.8036 67.1889 30.3945 67.5639 30.118C67.9389 29.8377 68.3707 29.6975 68.8594 29.6975C68.9806 29.6975 69.1113 29.7051 69.2514 29.7203C69.3916 29.7354 69.5147 29.7562 69.6207 29.7828V31.9305C69.5071 31.8964 69.3499 31.8661 69.1491 31.8396C68.9484 31.8131 68.7647 31.7998 68.598 31.7998C68.242 31.7998 67.9238 31.8775 67.6435 32.0328C67.367 32.1843 67.1473 32.3964 66.9844 32.6691C66.8253 32.9419 66.7457 33.2562 66.7457 33.6123V38.5498H64.3253ZM74.4091 38.7203C73.5265 38.7203 72.7633 38.5328 72.1193 38.1578C71.4792 37.779 70.9848 37.2525 70.6364 36.5782C70.2879 35.9002 70.1136 35.1142 70.1136 34.2203C70.1136 33.3187 70.2879 32.5309 70.6364 31.8566C70.9848 31.1786 71.4792 30.6521 72.1193 30.2771C72.7633 29.8983 73.5265 29.7089 74.4091 29.7089C75.2917 29.7089 76.053 29.8983 76.6932 30.2771C77.3371 30.6521 77.8333 31.1786 78.1818 31.8566C78.5303 32.5309 78.7045 33.3187 78.7045 34.2203C78.7045 35.1142 78.5303 35.9002 78.1818 36.5782C77.8333 37.2525 77.3371 37.779 76.6932 38.1578C76.053 38.5328 75.2917 38.7203 74.4091 38.7203ZM74.4205 36.8453C74.822 36.8453 75.1572 36.7316 75.4261 36.5044C75.6951 36.2733 75.8977 35.9589 76.0341 35.5612C76.1742 35.1634 76.2443 34.7108 76.2443 34.2032C76.2443 33.6956 76.1742 33.243 76.0341 32.8453C75.8977 32.4475 75.6951 32.1331 75.4261 31.9021C75.1572 31.671 74.822 31.5555 74.4205 31.5555C74.0152 31.5555 73.6742 31.671 73.3977 31.9021C73.125 32.1331 72.9186 32.4475 72.7784 32.8453C72.642 33.243 72.5739 33.6956 72.5739 34.2032C72.5739 34.7108 72.642 35.1634 72.7784 35.5612C72.9186 35.9589 73.125 36.2733 73.3977 36.5044C73.6742 36.7316 74.0152 36.8453 74.4205 36.8453ZM88.1335 29.8225L85.0824 38.5498H82.3551L79.304 29.8225H81.8608L83.6733 36.0669H83.7642L85.571 29.8225H88.1335ZM89.3722 38.5498V29.8225H91.7926V38.5498H89.3722ZM90.5881 28.6975C90.2282 28.6975 89.9195 28.5782 89.6619 28.3396C89.4081 28.0972 89.2812 27.8074 89.2812 27.4703C89.2812 27.1369 89.4081 26.8509 89.6619 26.6123C89.9195 26.3699 90.2282 26.2487 90.5881 26.2487C90.9479 26.2487 91.2547 26.3699 91.5085 26.6123C91.7661 26.8509 91.8949 27.1369 91.8949 27.4703C91.8949 27.8074 91.7661 28.0972 91.5085 28.3396C91.2547 28.5782 90.9479 28.6975 90.5881 28.6975ZM96.152 33.5044V38.5498H93.7315V29.8225H96.0384V31.3623H96.1406C96.3338 30.8547 96.6577 30.4532 97.1122 30.1578C97.5668 29.8585 98.1179 29.7089 98.7656 29.7089C99.3717 29.7089 99.9001 29.8415 100.351 30.1066C100.802 30.3718 101.152 30.7506 101.402 31.243C101.652 31.7316 101.777 32.315 101.777 32.993V38.5498H99.3565V33.4248C99.3603 32.8907 99.224 32.474 98.9474 32.1748C98.6709 31.8718 98.2902 31.7203 97.8054 31.7203C97.4796 31.7203 97.1918 31.7903 96.9418 31.9305C96.6955 32.0706 96.5024 32.2752 96.3622 32.5441C96.2259 32.8093 96.1558 33.1294 96.152 33.5044ZM110.946 32.3112L108.73 32.4475C108.692 32.2581 108.611 32.0877 108.486 31.9362C108.361 31.7809 108.196 31.6578 107.991 31.5668C107.791 31.4722 107.55 31.4248 107.27 31.4248C106.895 31.4248 106.579 31.5044 106.321 31.6634C106.063 31.8187 105.935 32.0271 105.935 32.2884C105.935 32.4968 106.018 32.6729 106.185 32.8169C106.351 32.9608 106.637 33.0763 107.043 33.1634L108.622 33.4816C109.471 33.6559 110.103 33.9362 110.52 34.3225C110.937 34.7089 111.145 35.2165 111.145 35.8453C111.145 36.4172 110.976 36.9191 110.639 37.3509C110.306 37.7828 109.848 38.1199 109.264 38.3623C108.685 38.6009 108.016 38.7203 107.259 38.7203C106.103 38.7203 105.183 38.4797 104.497 37.9987C103.815 37.5138 103.416 36.8547 103.298 36.0214L105.679 35.8964C105.751 36.2487 105.925 36.5176 106.202 36.7032C106.478 36.885 106.832 36.9759 107.264 36.9759C107.688 36.9759 108.029 36.8945 108.287 36.7316C108.548 36.565 108.681 36.3509 108.685 36.0896C108.681 35.8699 108.588 35.69 108.406 35.5498C108.224 35.4059 107.944 35.296 107.565 35.2203L106.054 34.9191C105.202 34.7487 104.567 34.4532 104.151 34.0328C103.738 33.6123 103.531 33.0763 103.531 32.4248C103.531 31.8642 103.683 31.3812 103.986 30.9759C104.293 30.5706 104.723 30.2581 105.276 30.0384C105.832 29.8187 106.484 29.7089 107.23 29.7089C108.332 29.7089 109.2 29.9419 109.832 30.4078C110.469 30.8737 110.84 31.5081 110.946 32.3112ZM112.669 38.5498V29.8225H115.089V38.5498H112.669ZM113.885 28.6975C113.525 28.6975 113.216 28.5782 112.959 28.3396C112.705 28.0972 112.578 27.8074 112.578 27.4703C112.578 27.1369 112.705 26.8509 112.959 26.6123C113.216 26.3699 113.525 26.2487 113.885 26.2487C114.245 26.2487 114.552 26.3699 114.805 26.6123C115.063 26.8509 115.192 27.1369 115.192 27.4703C115.192 27.8074 115.063 28.0972 114.805 28.3396C114.552 28.5782 114.245 28.6975 113.885 28.6975ZM127.089 30.26C127.044 29.8017 126.849 29.4456 126.504 29.1918C126.16 28.9381 125.692 28.8112 125.101 28.8112C124.699 28.8112 124.36 28.868 124.084 28.9816C123.807 29.0915 123.595 29.2449 123.447 29.4418C123.304 29.6388 123.232 29.8623 123.232 30.1123C123.224 30.3206 123.268 30.5025 123.362 30.6578C123.461 30.8131 123.595 30.9475 123.766 31.0612C123.936 31.171 124.133 31.2676 124.357 31.3509C124.58 31.4305 124.819 31.4987 125.072 31.5555L126.118 31.8055C126.625 31.9191 127.091 32.0706 127.516 32.26C127.94 32.4494 128.307 32.6824 128.618 32.9589C128.929 33.2354 129.169 33.5612 129.339 33.9362C129.514 34.3112 129.603 34.7411 129.607 35.2259C129.603 35.9381 129.421 36.5555 129.061 37.0782C128.705 37.5972 128.19 38.0006 127.516 38.2884C126.845 38.5725 126.036 38.7146 125.089 38.7146C124.15 38.7146 123.332 38.5706 122.635 38.2828C121.942 37.9949 121.4 37.5687 121.01 37.0044C120.624 36.4362 120.421 35.7335 120.402 34.8964H122.783C122.809 35.2865 122.921 35.6123 123.118 35.8737C123.319 36.1312 123.586 36.3263 123.919 36.4589C124.256 36.5877 124.637 36.6521 125.061 36.6521C125.478 36.6521 125.839 36.5915 126.146 36.4703C126.457 36.349 126.697 36.1805 126.868 35.9646C127.038 35.7487 127.124 35.5006 127.124 35.2203C127.124 34.9589 127.046 34.7392 126.891 34.5612C126.739 34.3831 126.516 34.2316 126.22 34.1066C125.929 33.9816 125.571 33.868 125.146 33.7657L123.879 33.4475C122.898 33.2089 122.124 32.8358 121.555 32.3282C120.987 31.8206 120.705 31.1369 120.709 30.2771C120.705 29.5725 120.893 28.957 121.271 28.4305C121.654 27.904 122.179 27.493 122.845 27.1975C123.512 26.9021 124.269 26.7543 125.118 26.7543C125.982 26.7543 126.735 26.9021 127.379 27.1975C128.027 27.493 128.531 27.904 128.891 28.4305C129.25 28.957 129.436 29.5668 129.447 30.26H127.089ZM136.812 34.8339V29.8225H139.233V38.5498H136.909V36.9646H136.818C136.621 37.4759 136.294 37.8869 135.835 38.1975C135.381 38.5081 134.826 38.6634 134.17 38.6634C133.587 38.6634 133.074 38.5309 132.631 38.2657C132.188 38.0006 131.841 37.6237 131.591 37.135C131.345 36.6464 131.22 36.0612 131.216 35.3793V29.8225H133.636V34.9475C133.64 35.4627 133.778 35.8699 134.051 36.1691C134.324 36.4684 134.689 36.618 135.148 36.618C135.439 36.618 135.712 36.5517 135.966 36.4191C136.22 36.2828 136.424 36.082 136.58 35.8168C136.739 35.5517 136.816 35.224 136.812 34.8339ZM141.169 38.5498V29.8225H143.476V31.3623H143.578C143.76 30.8509 144.063 30.4475 144.487 30.1521C144.911 29.8566 145.419 29.7089 146.01 29.7089C146.608 29.7089 147.118 29.8585 147.538 30.1578C147.959 30.4532 148.239 30.8547 148.379 31.3623H148.47C148.648 30.8623 148.97 30.4627 149.436 30.1634C149.906 29.8604 150.461 29.7089 151.101 29.7089C151.915 29.7089 152.576 29.9684 153.084 30.4873C153.595 31.0025 153.851 31.7335 153.851 32.6805V38.5498H151.436V33.1578C151.436 32.6729 151.307 32.3093 151.05 32.0669C150.792 31.8244 150.47 31.7032 150.084 31.7032C149.644 31.7032 149.302 31.8434 149.055 32.1237C148.809 32.4002 148.686 32.7657 148.686 33.2203V38.5498H146.339V33.1066C146.339 32.6786 146.216 32.3377 145.97 32.0839C145.728 31.8301 145.408 31.7032 145.01 31.7032C144.741 31.7032 144.499 31.7714 144.283 31.9078C144.071 32.0403 143.902 32.2278 143.777 32.4703C143.652 32.7089 143.589 32.9892 143.589 33.3112V38.5498H141.169ZM158.251 38.7146C157.695 38.7146 157.198 38.618 156.763 38.4248C156.327 38.2278 155.982 37.9381 155.729 37.5555C155.479 37.1691 155.354 36.6881 155.354 36.1123C155.354 35.6275 155.443 35.2203 155.621 34.8907C155.799 34.5612 156.041 34.296 156.348 34.0953C156.655 33.8945 157.003 33.743 157.393 33.6407C157.787 33.5384 158.2 33.4665 158.632 33.4248C159.14 33.3718 159.549 33.3225 159.859 33.2771C160.17 33.2278 160.395 33.1559 160.536 33.0612C160.676 32.9665 160.746 32.8263 160.746 32.6407V32.6066C160.746 32.2468 160.632 31.9684 160.405 31.7714C160.181 31.5744 159.863 31.4759 159.45 31.4759C159.015 31.4759 158.668 31.5725 158.411 31.7657C158.153 31.9551 157.982 32.1937 157.899 32.4816L155.661 32.2998C155.774 31.7695 155.998 31.3112 156.331 30.9248C156.664 30.5347 157.094 30.2354 157.621 30.0271C158.151 29.815 158.765 29.7089 159.462 29.7089C159.946 29.7089 160.411 29.7657 160.854 29.8793C161.301 29.993 161.696 30.1691 162.041 30.4078C162.39 30.6464 162.664 30.9532 162.865 31.3282C163.066 31.6994 163.166 32.1445 163.166 32.6634V38.5498H160.871V37.3396H160.803C160.662 37.6123 160.475 37.8528 160.24 38.0612C160.005 38.2657 159.723 38.4267 159.393 38.5441C159.064 38.6578 158.683 38.7146 158.251 38.7146ZM158.945 37.0441C159.301 37.0441 159.615 36.974 159.888 36.8339C160.161 36.69 160.375 36.4968 160.53 36.2544C160.685 36.0119 160.763 35.7373 160.763 35.4305V34.5044C160.687 34.5536 160.583 34.599 160.45 34.6407C160.321 34.6786 160.176 34.7146 160.013 34.7487C159.85 34.779 159.687 34.8074 159.524 34.8339C159.361 34.8566 159.214 34.8775 159.081 34.8964C158.797 34.9381 158.549 35.0044 158.337 35.0953C158.125 35.1862 157.96 35.3093 157.842 35.4646C157.725 35.6161 157.666 35.8055 157.666 36.0328C157.666 36.3623 157.786 36.6142 158.024 36.7884C158.267 36.9589 158.573 37.0441 158.945 37.0441ZM169.686 29.8225V31.6407H164.43V29.8225H169.686ZM165.624 27.7316H168.044V35.868C168.044 36.0915 168.078 36.2657 168.146 36.3907C168.214 36.5119 168.309 36.5972 168.43 36.6464C168.555 36.6956 168.699 36.7203 168.862 36.7203C168.976 36.7203 169.089 36.7108 169.203 36.6919C169.317 36.6691 169.404 36.6521 169.464 36.6407L169.845 38.4419C169.724 38.4797 169.554 38.5233 169.334 38.5725C169.114 38.6256 168.847 38.6578 168.533 38.6691C167.949 38.6919 167.438 38.6142 166.999 38.4362C166.563 38.2581 166.224 37.9816 165.982 37.6066C165.739 37.2316 165.62 36.7581 165.624 36.1862V27.7316ZM175.146 38.7203C174.249 38.7203 173.476 38.5384 172.828 38.1748C172.184 37.8074 171.688 37.2884 171.339 36.618C170.991 35.9437 170.817 35.1464 170.817 34.2259C170.817 33.3282 170.991 32.5403 171.339 31.8623C171.688 31.1843 172.179 30.6559 172.811 30.2771C173.447 29.8983 174.194 29.7089 175.05 29.7089C175.625 29.7089 176.161 29.8017 176.658 29.9873C177.158 30.1691 177.593 30.4437 177.964 30.8112C178.339 31.1786 178.631 31.6407 178.839 32.1975C179.048 32.7506 179.152 33.3983 179.152 34.1407V34.8055H171.783V33.3055H176.874C176.874 32.957 176.798 32.6483 176.646 32.3794C176.495 32.1104 176.285 31.9002 176.016 31.7487C175.75 31.5934 175.442 31.5157 175.089 31.5157C174.722 31.5157 174.396 31.6009 174.112 31.7714C173.832 31.9381 173.612 32.1634 173.453 32.4475C173.294 32.7278 173.213 33.0403 173.209 33.385V34.8112C173.209 35.243 173.288 35.6161 173.447 35.9305C173.61 36.2449 173.839 36.4873 174.135 36.6578C174.43 36.8282 174.781 36.9134 175.186 36.9134C175.455 36.9134 175.701 36.8756 175.925 36.7998C176.148 36.724 176.339 36.6104 176.499 36.4589C176.658 36.3074 176.779 36.1218 176.862 35.9021L179.101 36.0498C178.987 36.5877 178.754 37.0574 178.402 37.4589C178.054 37.8566 177.603 38.1672 177.05 38.3907C176.5 38.6104 175.866 38.7203 175.146 38.7203ZM180.732 38.5498V29.8225H183.078V31.3453H183.169C183.328 30.8036 183.595 30.3945 183.97 30.118C184.345 29.8377 184.777 29.6975 185.266 29.6975C185.387 29.6975 185.518 29.7051 185.658 29.7203C185.798 29.7354 185.921 29.7562 186.027 29.7828V31.9305C185.913 31.8964 185.756 31.8661 185.555 31.8396C185.355 31.8131 185.171 31.7998 185.004 31.7998C184.648 31.7998 184.33 31.8775 184.05 32.0328C183.773 32.1843 183.554 32.3964 183.391 32.6691C183.232 32.9419 183.152 33.2562 183.152 33.6123V38.5498H180.732ZM189.517 38.7146C188.96 38.7146 188.464 38.618 188.028 38.4248C187.593 38.2278 187.248 37.9381 186.994 37.5555C186.744 37.1691 186.619 36.6881 186.619 36.1123C186.619 35.6275 186.708 35.2203 186.886 34.8907C187.064 34.5612 187.307 34.296 187.614 34.0953C187.92 33.8945 188.269 33.743 188.659 33.6407C189.053 33.5384 189.466 33.4665 189.898 33.4248C190.405 33.3718 190.814 33.3225 191.125 33.2771C191.436 33.2278 191.661 33.1559 191.801 33.0612C191.941 32.9665 192.011 32.8263 192.011 32.6407V32.6066C192.011 32.2468 191.898 31.9684 191.67 31.7714C191.447 31.5744 191.129 31.4759 190.716 31.4759C190.28 31.4759 189.934 31.5725 189.676 31.7657C189.419 31.9551 189.248 32.1937 189.165 32.4816L186.926 32.2998C187.04 31.7695 187.263 31.3112 187.597 30.9248C187.93 30.5347 188.36 30.2354 188.886 30.0271C189.417 29.815 190.03 29.7089 190.727 29.7089C191.212 29.7089 191.676 29.7657 192.119 29.8793C192.566 29.993 192.962 30.1691 193.307 30.4078C193.655 30.6464 193.93 30.9532 194.131 31.3282C194.331 31.6994 194.432 32.1445 194.432 32.6634V38.5498H192.136V37.3396H192.068C191.928 37.6123 191.741 37.8528 191.506 38.0612C191.271 38.2657 190.989 38.4267 190.659 38.5441C190.33 38.6578 189.949 38.7146 189.517 38.7146ZM190.21 37.0441C190.566 37.0441 190.881 36.974 191.153 36.8339C191.426 36.69 191.64 36.4968 191.795 36.2544C191.951 36.0119 192.028 35.7373 192.028 35.4305V34.5044C191.953 34.5536 191.848 34.599 191.716 34.6407C191.587 34.6786 191.441 34.7146 191.278 34.7487C191.116 34.779 190.953 34.8074 190.79 34.8339C190.627 34.8566 190.479 34.8775 190.347 34.8964C190.063 34.9381 189.814 35.0044 189.602 35.0953C189.39 35.1862 189.225 35.3093 189.108 35.4646C188.991 35.6161 188.932 35.8055 188.932 36.0328C188.932 36.3623 189.051 36.6142 189.29 36.7884C189.532 36.9589 189.839 37.0441 190.21 37.0441ZM206.371 30.26C206.325 29.8017 206.13 29.4456 205.786 29.1918C205.441 28.9381 204.973 28.8112 204.382 28.8112C203.981 28.8112 203.642 28.868 203.365 28.9816C203.089 29.0915 202.876 29.2449 202.729 29.4418C202.585 29.6388 202.513 29.8623 202.513 30.1123C202.505 30.3206 202.549 30.5025 202.643 30.6578C202.742 30.8131 202.876 30.9475 203.047 31.0612C203.217 31.171 203.414 31.2676 203.638 31.3509C203.861 31.4305 204.1 31.4987 204.354 31.5555L205.399 31.8055C205.907 31.9191 206.373 32.0706 206.797 32.26C207.221 32.4494 207.589 32.6824 207.899 32.9589C208.21 33.2354 208.45 33.5612 208.621 33.9362C208.795 34.3112 208.884 34.7411 208.888 35.2259C208.884 35.9381 208.702 36.5555 208.342 37.0782C207.986 37.5972 207.471 38.0006 206.797 38.2884C206.126 38.5725 205.318 38.7146 204.371 38.7146C203.431 38.7146 202.613 38.5706 201.916 38.2828C201.223 37.9949 200.681 37.5687 200.291 37.0044C199.905 36.4362 199.702 35.7335 199.683 34.8964H202.064C202.09 35.2865 202.202 35.6123 202.399 35.8737C202.6 36.1312 202.867 36.3263 203.2 36.4589C203.537 36.5877 203.918 36.6521 204.342 36.6521C204.759 36.6521 205.121 36.5915 205.428 36.4703C205.738 36.349 205.979 36.1805 206.149 35.9646C206.32 35.7487 206.405 35.5006 206.405 35.2203C206.405 34.9589 206.327 34.7392 206.172 34.5612C206.02 34.3831 205.797 34.2316 205.501 34.1066C205.21 33.9816 204.852 33.868 204.428 33.7657L203.161 33.4475C202.179 33.2089 201.405 32.8358 200.837 32.3282C200.268 31.8206 199.986 31.1369 199.99 30.2771C199.986 29.5725 200.174 28.957 200.553 28.4305C200.935 27.904 201.46 27.493 202.126 27.1975C202.793 26.9021 203.551 26.7543 204.399 26.7543C205.263 26.7543 206.017 26.9021 206.661 27.1975C207.308 27.493 207.812 27.904 208.172 28.4305C208.532 28.957 208.717 29.5668 208.729 30.26H206.371ZM214.474 38.7203C213.577 38.7203 212.804 38.5384 212.156 38.1748C211.512 37.8074 211.016 37.2884 210.668 36.618C210.319 35.9437 210.145 35.1464 210.145 34.2259C210.145 33.3282 210.319 32.5403 210.668 31.8623C211.016 31.1843 211.507 30.6559 212.139 30.2771C212.776 29.8983 213.522 29.7089 214.378 29.7089C214.954 29.7089 215.49 29.8017 215.986 29.9873C216.486 30.1691 216.921 30.4437 217.293 30.8112C217.668 31.1786 217.959 31.6407 218.168 32.1975C218.376 32.7506 218.48 33.3983 218.48 34.1407V34.8055H211.111V33.3055H216.202C216.202 32.957 216.126 32.6483 215.974 32.3794C215.823 32.1104 215.613 31.9002 215.344 31.7487C215.079 31.5934 214.77 31.5157 214.418 31.5157C214.05 31.5157 213.724 31.6009 213.44 31.7714C213.16 31.9381 212.94 32.1634 212.781 32.4475C212.622 32.7278 212.541 33.0403 212.537 33.385V34.8112C212.537 35.243 212.616 35.6161 212.776 35.9305C212.938 36.2449 213.168 36.4873 213.463 36.6578C213.759 36.8282 214.109 36.9134 214.514 36.9134C214.783 36.9134 215.029 36.8756 215.253 36.7998C215.476 36.724 215.668 36.6104 215.827 36.4589C215.986 36.3074 216.107 36.1218 216.19 35.9021L218.429 36.0498C218.315 36.5877 218.082 37.0574 217.73 37.4589C217.382 37.8566 216.931 38.1672 216.378 38.3907C215.829 38.6104 215.194 38.7203 214.474 38.7203ZM222.48 26.9134V38.5498H220.06V26.9134H222.48ZM226.908 38.7146C226.351 38.7146 225.855 38.618 225.419 38.4248C224.983 38.2278 224.639 37.9381 224.385 37.5555C224.135 37.1691 224.01 36.6881 224.01 36.1123C224.01 35.6275 224.099 35.2203 224.277 34.8907C224.455 34.5612 224.697 34.296 225.004 34.0953C225.311 33.8945 225.66 33.743 226.05 33.6407C226.444 33.5384 226.857 33.4665 227.288 33.4248C227.796 33.3718 228.205 33.3225 228.516 33.2771C228.826 33.2278 229.052 33.1559 229.192 33.0612C229.332 32.9665 229.402 32.8263 229.402 32.6407V32.6066C229.402 32.2468 229.288 31.9684 229.061 31.7714C228.838 31.5744 228.519 31.4759 228.107 31.4759C227.671 31.4759 227.324 31.5725 227.067 31.7657C226.809 31.9551 226.639 32.1937 226.555 32.4816L224.317 32.2998C224.43 31.7695 224.654 31.3112 224.987 30.9248C225.321 30.5347 225.75 30.2354 226.277 30.0271C226.807 29.815 227.421 29.7089 228.118 29.7089C228.603 29.7089 229.067 29.7657 229.51 29.8793C229.957 29.993 230.353 30.1691 230.697 30.4078C231.046 30.6464 231.321 30.9532 231.521 31.3282C231.722 31.6994 231.822 32.1445 231.822 32.6634V38.5498H229.527V37.3396H229.459C229.319 37.6123 229.131 37.8528 228.896 38.0612C228.661 38.2657 228.379 38.4267 228.05 38.5441C227.72 38.6578 227.339 38.7146 226.908 38.7146ZM227.601 37.0441C227.957 37.0441 228.271 36.974 228.544 36.8339C228.817 36.69 229.031 36.4968 229.186 36.2544C229.341 36.0119 229.419 35.7373 229.419 35.4305V34.5044C229.343 34.5536 229.239 34.599 229.107 34.6407C228.978 34.6786 228.832 34.7146 228.669 34.7487C228.506 34.779 228.343 34.8074 228.18 34.8339C228.018 34.8566 227.87 34.8775 227.737 34.8964C227.453 34.9381 227.205 35.0044 226.993 35.0953C226.781 35.1862 226.616 35.3093 226.499 35.4646C226.381 35.6161 226.322 35.8055 226.322 36.0328C226.322 36.3623 226.442 36.6142 226.68 36.7884C226.923 36.9589 227.23 37.0441 227.601 37.0441ZM238.342 29.8225V31.6407H233.087V29.8225H238.342ZM234.28 27.7316H236.7V35.868C236.7 36.0915 236.734 36.2657 236.803 36.3907C236.871 36.5119 236.965 36.5972 237.087 36.6464C237.212 36.6956 237.356 36.7203 237.518 36.7203C237.632 36.7203 237.746 36.7108 237.859 36.6919C237.973 36.6691 238.06 36.6521 238.121 36.6407L238.501 38.4419C238.38 38.4797 238.21 38.5233 237.99 38.5725C237.77 38.6256 237.503 38.6578 237.189 38.6691C236.606 38.6919 236.094 38.6142 235.655 38.4362C235.219 38.2581 234.88 37.9816 234.638 37.6066C234.395 37.2316 234.276 36.7581 234.28 36.1862V27.7316ZM242.408 38.7146C241.851 38.7146 241.355 38.618 240.919 38.4248C240.483 38.2278 240.139 37.9381 239.885 37.5555C239.635 37.1691 239.51 36.6881 239.51 36.1123C239.51 35.6275 239.599 35.2203 239.777 34.8907C239.955 34.5612 240.197 34.296 240.504 34.0953C240.811 33.8945 241.16 33.743 241.55 33.6407C241.944 33.5384 242.357 33.4665 242.788 33.4248C243.296 33.3718 243.705 33.3225 244.016 33.2771C244.326 33.2278 244.552 33.1559 244.692 33.0612C244.832 32.9665 244.902 32.8263 244.902 32.6407V32.6066C244.902 32.2468 244.788 31.9684 244.561 31.7714C244.338 31.5744 244.019 31.4759 243.607 31.4759C243.171 31.4759 242.824 31.5725 242.567 31.7657C242.309 31.9551 242.139 32.1937 242.055 32.4816L239.817 32.2998C239.93 31.7695 240.154 31.3112 240.487 30.9248C240.821 30.5347 241.25 30.2354 241.777 30.0271C242.307 29.815 242.921 29.7089 243.618 29.7089C244.103 29.7089 244.567 29.7657 245.01 29.8793C245.457 29.993 245.853 30.1691 246.197 30.4078C246.546 30.6464 246.821 30.9532 247.021 31.3282C247.222 31.6994 247.322 32.1445 247.322 32.6634V38.5498H245.027V37.3396H244.959C244.819 37.6123 244.631 37.8528 244.396 38.0612C244.161 38.2657 243.879 38.4267 243.55 38.5441C243.22 38.6578 242.839 38.7146 242.408 38.7146ZM243.101 37.0441C243.457 37.0441 243.771 36.974 244.044 36.8339C244.317 36.69 244.531 36.4968 244.686 36.2544C244.841 36.0119 244.919 35.7373 244.919 35.4305V34.5044C244.843 34.5536 244.739 34.599 244.607 34.6407C244.478 34.6786 244.332 34.7146 244.169 34.7487C244.006 34.779 243.843 34.8074 243.68 34.8339C243.518 34.8566 243.37 34.8775 243.237 34.8964C242.953 34.9381 242.705 35.0044 242.493 35.0953C242.281 35.1862 242.116 35.3093 241.999 35.4646C241.881 35.6161 241.822 35.8055 241.822 36.0328C241.822 36.3623 241.942 36.6142 242.18 36.7884C242.423 36.9589 242.73 37.0441 243.101 37.0441ZM251.621 33.5044V38.5498H249.2V29.8225H251.507V31.3623H251.609C251.803 30.8547 252.126 30.4532 252.581 30.1578C253.036 29.8585 253.587 29.7089 254.234 29.7089C254.84 29.7089 255.369 29.8415 255.82 30.1066C256.27 30.3718 256.621 30.7506 256.871 31.243C257.121 31.7316 257.246 32.315 257.246 32.993V38.5498H254.825V33.4248C254.829 32.8907 254.693 32.474 254.416 32.1748C254.14 31.8718 253.759 31.7203 253.274 31.7203C252.948 31.7203 252.661 31.7903 252.411 31.9305C252.164 32.0706 251.971 32.2752 251.831 32.5441C251.695 32.8093 251.625 33.1294 251.621 33.5044Z" fill="white"/>
</svg>
