<svg width="316" height="56" viewBox="0 0 316 56" fill="none" xmlns="http://www.w3.org/2000/svg">
<path d="M27.9999 56C22.1074 56 16.3655 54.8523 10.9325 52.5893L10.7982 52.5331L10.7027 52.4237C6.85489 47.9963 3.98045 42.9318 2.15937 37.3713C0.339075 31.8101 -0.335484 26.0362 0.155104 20.21L0.167524 20.066L0.24282 19.942C3.29735 14.9422 7.2632 10.665 12.0301 7.22809C16.7963 3.79121 22.1221 1.37106 27.8578 0.0331211L27.9999 0L28.1419 0.0331211C33.8776 1.37106 39.2034 3.79121 43.9704 7.22809C48.7373 10.665 52.7031 14.9422 55.7577 19.942L55.833 20.066L55.8454 20.21C56.336 26.0362 55.6614 31.8101 53.8403 37.3706C52.0193 42.9311 49.1448 47.9955 45.297 52.4229L45.2015 52.5323L45.0672 52.5885C39.6342 54.8515 33.8923 55.9992 27.9999 55.9992V56Z" fill="white"/>
<path d="M55.226 20.2616C53.3327 17.1629 49.7255 12.1393 43.6048 7.72648C37.4841 3.31367 31.5551 1.46198 27.9999 0.633179C24.4447 1.46198 18.5157 3.31444 12.395 7.72648C6.27427 12.1393 2.66705 17.1621 0.773787 20.2616C0.469498 23.8734 0.412832 30.0408 2.75011 37.1803C5.08817 44.3199 8.78776 49.2765 11.1732 52.0209C14.5405 53.4235 20.4346 55.3838 27.9999 55.3838C35.5652 55.3838 41.4592 53.4235 44.8266 52.0209C47.212 49.2765 50.9116 44.3199 53.2496 37.1803C55.5877 30.0408 55.5302 23.8726 55.226 20.2616Z" fill="#0192D5"/>
<path d="M15.274 50.1291C15.4579 49.7825 15.6722 49.1247 15.7552 48.8582L15.7576 48.8512L15.7653 48.8351V48.8312L15.7816 48.8019V48.7665C15.9284 48.2335 16.0068 47.3777 16.0137 46.2224C17.4118 46.0144 18.6662 45.2518 19.5814 44.6949L19.5891 44.6903C19.9392 44.477 20.2412 44.2936 20.4849 44.1819C21.3225 43.7968 22.2338 43.6019 23.1948 43.6019C23.8368 43.6019 24.5105 43.689 25.1967 43.8607L25.449 43.3085C24.8257 42.8818 24.2761 42.3657 23.7754 41.8712L23.6085 41.7063L23.4036 41.8211C22.4589 42.3518 19.8507 43.4379 17.8162 43.6674C17.4343 43.7105 17.0632 43.7321 16.7139 43.7321C14.3922 43.7321 12.7993 42.7647 11.9788 40.856V40.8452L11.8996 40.6881L11.8073 40.6418C10.5932 40.038 10.0196 38.4528 9.98152 37.738L9.97454 37.6093L9.87751 37.5238C9.0019 36.7505 8.78378 35.24 8.91186 34.4621L8.91574 34.4374V34.3103L8.85441 34.2279C8.36615 33.5755 8.3483 32.6281 8.38711 31.8755L8.39488 31.7184L8.27145 31.6198C7.53014 31.0252 7.19092 29.8698 7.38653 28.6043C7.68228 26.6971 8.61766 25.3122 9.44281 24.0906L9.53751 23.9504C9.8092 23.5491 10.1391 23.0623 10.4527 22.4838C10.3712 23.1377 10.2144 23.8618 9.98152 24.4942C9.54372 25.6819 9.34112 26.5769 9.3256 27.3957C9.30541 28.4479 9.99783 29.5894 11.5915 29.7681C11.7708 29.7881 11.9524 29.7989 12.1294 29.7989C13.331 29.7989 14.3347 29.3298 15.3982 28.833L15.4059 28.8292C16.3957 28.3663 17.5181 27.8417 18.9138 27.6877H18.9239L18.934 27.6846L18.9511 27.683C19.0458 27.673 19.1428 27.6684 19.239 27.6684C19.971 27.6684 20.6852 27.9519 21.1991 28.4464C21.7098 28.937 21.9621 29.5732 21.9117 30.2387C21.8682 30.7918 21.7448 31.2632 21.6454 31.6429L21.6338 31.6884C21.6128 31.77 21.5918 31.8478 21.5748 31.9225C21.3706 32.7637 21.2852 33.51 22.3091 34.1093L22.6716 34.3211L22.7686 33.9152C22.9076 33.3336 23.2274 32.1667 23.8073 30.8835L23.8476 30.7949L23.829 30.6994C23.6505 29.7851 22.0692 21.6966 21.5352 19.1386C20.9483 16.3241 19.7545 14.6865 19.0947 14.4223C19.0776 14.4154 19.0605 14.4092 19.0442 14.4023C19.0535 14.3961 19.0621 14.3899 19.0706 14.3838C19.2685 14.2428 19.4215 14.1442 19.5984 14.0302L19.7413 13.9378C20.2885 13.5812 20.8552 13.2122 21.4824 13.2122C21.5329 13.2122 21.5849 13.2145 21.6353 13.2191C22.0343 13.2561 22.3782 13.3978 22.6561 13.6397L23.0846 14.0133L23.1676 13.4533C23.2189 13.1082 23.3431 12.844 23.5371 12.6684C23.8344 12.3988 24.3149 12.2771 24.7395 12.1701C25.1222 12.0722 25.3761 11.9998 25.6703 11.808C25.6912 11.7942 25.7122 11.7803 25.7316 11.7657L25.9233 12.6461L26.3231 11.9143C26.3782 11.8134 26.4349 11.7295 26.549 11.6216C26.7143 11.4653 26.9386 11.339 27.2142 11.2457C27.4121 11.1787 27.607 11.0632 27.791 10.9022C27.8631 10.8391 27.933 10.7705 27.9974 10.6973C28.0619 10.7697 28.131 10.8383 28.2031 10.9014C28.3879 11.0632 28.582 11.1787 28.7807 11.2457C29.0562 11.339 29.2806 11.4653 29.4467 11.6224C29.5585 11.7279 29.6159 11.8127 29.6726 11.9159L30.0731 12.6407L30.2633 11.7664C30.2827 11.7811 30.3037 11.7949 30.3246 11.8088C30.6204 12.0014 30.8734 12.0738 31.2553 12.1708C31.68 12.2779 32.1612 12.3996 32.4578 12.6692C32.6518 12.8448 32.776 13.109 32.8272 13.4541L32.9103 14.0141L33.3396 13.6405C33.6175 13.3986 33.9613 13.2569 34.3603 13.2199C34.4108 13.2153 34.462 13.213 34.5133 13.213C35.1397 13.213 35.6807 13.5658 36.2528 13.9386L36.4019 14.0349C36.5773 14.1481 36.7287 14.2459 36.9235 14.3845C36.932 14.3907 36.9414 14.3969 36.9499 14.403C36.9336 14.4092 36.9165 14.4161 36.8994 14.4223C36.2389 14.6865 35.0458 16.3241 34.4589 19.1386C33.987 21.4016 32.6968 27.9765 32.1643 30.6986L32.1457 30.7941L32.1861 30.8835C32.7659 32.1652 33.0857 33.3336 33.2255 33.916L33.3225 34.3219L33.685 34.1101C34.7089 33.5116 34.6235 32.7644 34.4193 31.9218C34.4015 31.8478 34.3805 31.7677 34.3588 31.6838L34.3487 31.6445C34.2493 31.2647 34.1251 30.7933 34.0824 30.2395C34.0312 29.5748 34.2843 28.9386 34.7943 28.4479C35.3081 27.9534 36.0223 27.6699 36.7543 27.6699C36.8505 27.6699 36.9476 27.6746 37.0423 27.6846H37.057L37.0671 27.6877L37.0803 27.6892C38.476 27.8433 39.5977 28.3678 40.5874 28.8307L40.5959 28.8346C41.6586 29.3314 42.6623 29.8005 43.8639 29.8005C44.0417 29.8005 44.2226 29.7905 44.4019 29.7697C45.9947 29.591 46.6879 28.4494 46.6677 27.3973C46.6522 26.5816 46.4496 25.6865 46.0118 24.4957C45.7782 23.8626 45.6221 23.1385 45.5398 22.4853C45.8527 23.0623 46.1818 23.5483 46.4535 23.9496L46.5497 24.0921C47.3749 25.3145 48.3103 26.6994 48.606 28.6058C48.8009 29.8659 48.4655 31.0167 47.7312 31.6129L47.718 31.6221L47.5985 31.7407L47.6054 31.8779C47.6443 32.6304 47.6264 33.5778 47.1381 34.2302L47.0768 34.3119V34.439L47.0807 34.4644C47.2088 35.2423 46.9899 36.7528 46.115 37.5262L46.018 37.6116L46.011 37.7403C45.9738 38.4551 45.3993 40.0403 44.1861 40.6442L44.0145 40.7297V40.8575C43.194 42.7662 41.6012 43.7337 39.2794 43.7337C38.9301 43.7337 38.5591 43.7121 38.1771 43.669C36.1426 43.4394 33.5336 42.3534 32.5897 41.8226L32.3848 41.7079L32.2179 41.8727C31.7157 42.368 31.1653 42.8848 30.5443 43.3108L30.7966 43.8631C31.4828 43.6913 32.1566 43.6042 32.7985 43.6042C33.7595 43.6042 34.6708 43.7991 35.5069 44.1843C35.7545 44.2975 36.0588 44.4831 36.412 44.698C37.3287 45.2557 38.5823 46.0182 39.9796 46.2262C39.9858 47.3608 40.0658 48.2381 40.2109 48.7681V48.8012L40.2326 48.842C40.2784 48.9891 40.5175 49.7501 40.7193 50.1322C38.521 50.0783 37.595 49.5375 36.5237 48.9113C36.5237 48.9113 36.2777 48.7681 36.221 48.7357C36.02 48.6202 35.8344 48.5069 35.6466 48.3914C34.6879 47.8052 33.862 47.2999 32.1907 47.2999C31.0939 47.2999 30.2796 47.6851 29.6935 48.0217C29.6113 48.0687 29.5282 48.118 29.4459 48.1665L29.3807 48.205C28.8878 48.4985 28.4259 48.7734 27.9928 48.7734C27.5596 48.7734 27.097 48.4977 26.6072 48.2065L26.5249 48.158C26.448 48.1126 26.3712 48.0664 26.2928 48.0224C25.7075 47.6866 24.8932 47.3015 23.7964 47.3015C22.1244 47.3015 21.2984 47.8068 20.3413 48.3922C20.1527 48.5077 19.9672 48.6209 19.7661 48.7372C19.69 48.7804 19.6147 48.8243 19.541 48.8674L19.4649 48.9121C18.3914 49.5391 17.4661 50.0798 15.2678 50.1337L15.274 50.1291Z" fill="white"/>
<path d="M48.9173 28.6589C48.6115 26.6863 47.6559 25.2698 46.8121 24.0205C46.3518 23.338 45.647 22.3444 45.1983 21.0465C45.092 21.8067 45.2511 23.4189 45.7238 24.7014C46.0809 25.6719 46.3441 26.6147 46.3611 27.5028C46.3774 28.3485 45.8659 29.3953 44.3708 29.5632C43.0031 29.7173 41.9497 29.2243 40.7287 28.6535C39.7157 28.1798 38.5676 27.6422 37.1184 27.482C37.1052 27.4797 37.092 27.4781 37.0788 27.4774C36.1659 27.3826 35.2329 27.6992 34.5824 28.3254C34.0041 28.8808 33.7184 29.604 33.7766 30.362C33.8216 30.9374 33.9489 31.4265 34.0522 31.8201C34.077 31.9156 34.1011 32.0065 34.1213 32.092C34.3161 32.8961 34.3743 33.4499 33.5313 33.9429C33.3893 33.349 33.0656 32.1651 32.4733 30.8557C32.9127 28.6104 34.2796 21.6357 34.7671 19.2995C35.3446 16.5282 36.5082 15.0108 37.019 14.8066C37.4754 14.6249 37.758 14.6395 37.758 14.6395C37.758 14.6395 37.3652 14.4146 37.1083 14.232C36.8521 14.0495 36.6658 13.9339 36.4267 13.7783C35.791 13.3639 35.1343 12.9365 34.3347 13.0104C33.8038 13.0597 33.4164 13.2638 33.1378 13.5064C33.0858 13.156 32.9554 12.797 32.6705 12.539C32.3173 12.2186 31.7956 12.0861 31.3353 11.9698C30.9868 11.8812 30.7586 11.818 30.4978 11.6486C30.2362 11.4784 30.0918 11.2049 30.0918 11.2049L29.9482 11.8658C29.8822 11.7464 29.8077 11.6332 29.6633 11.4968C29.4428 11.2896 29.1704 11.1495 28.8832 11.0524C28.7163 10.9962 28.5548 10.8945 28.4112 10.7689C28.2459 10.6241 28.103 10.4478 27.9998 10.2714C27.8973 10.4478 27.7545 10.6249 27.5884 10.7689C27.4448 10.8945 27.2833 10.9962 27.1164 11.0524C26.8292 11.1495 26.5568 11.2896 26.3371 11.4968C26.1927 11.6332 26.1174 11.7464 26.0522 11.8658L25.9086 11.2049C25.9086 11.2049 25.7634 11.4784 25.5026 11.6486C25.2418 11.818 25.0128 11.8812 24.665 11.9698C24.2047 12.0861 23.6831 12.2186 23.3299 12.539C23.045 12.797 22.9146 13.156 22.8626 13.5064C22.5839 13.2638 22.1966 13.0597 21.6656 13.0104C20.8661 12.9365 20.2086 13.3639 19.5729 13.7783C19.3338 13.9339 19.1483 14.0495 18.8913 14.232C18.6352 14.4146 18.2424 14.6395 18.2424 14.6395C18.2424 14.6395 18.5249 14.6249 18.9806 14.8066C19.4914 15.0108 20.6557 16.5282 21.2333 19.2995C21.7207 21.6357 23.0877 28.612 23.5263 30.8565C22.9348 32.1659 22.6111 33.349 22.469 33.9429C21.626 33.4499 21.6842 32.8961 21.8791 32.092C21.8993 32.0065 21.9233 31.9156 21.9482 31.8201C22.0514 31.4265 22.1787 30.9374 22.2237 30.362C22.282 29.604 21.9963 28.8808 21.418 28.3254C20.7675 27.6992 19.8345 27.3826 18.9216 27.4774C18.9084 27.4781 18.8952 27.4797 18.882 27.482C17.4327 27.6422 16.2847 28.1798 15.2717 28.6535C14.0506 29.2243 12.9973 29.7173 11.6295 29.5632C10.1345 29.3953 9.62293 28.3485 9.63923 27.5028C9.6563 26.6147 9.91868 25.6719 10.2765 24.7014C10.7493 23.4189 10.9076 21.8067 10.802 21.0465C10.3526 22.3444 9.64854 23.338 9.18823 24.0205C8.34445 25.2698 7.38889 26.6863 7.08305 28.6589C6.86803 30.05 7.24839 31.2948 8.07975 31.961C8.03395 32.8468 8.0813 33.8096 8.60759 34.5129C8.45467 35.4426 8.73335 37.0247 9.67338 37.855C9.7184 38.7139 10.386 40.3799 11.6699 41.0185C12.6643 43.3963 14.7438 44.4238 17.8527 44.0733C19.9354 43.8384 22.5886 42.7338 23.5581 42.1893C24.0339 42.6591 24.6091 43.2068 25.2744 43.662C23.8577 43.3077 22.1011 43.1999 20.3561 44.0025C20.0937 44.1226 19.7817 44.3129 19.4199 44.5332C18.5273 45.0762 17.3039 45.8203 15.968 46.019L15.7056 46.0583L15.704 46.3217C15.6971 47.4601 15.6179 48.3251 15.4727 48.8235C15.4727 48.8235 15.4727 48.8258 15.4719 48.8273C15.4712 48.8297 15.4704 48.832 15.4696 48.8358C15.4681 48.8389 15.4673 48.8435 15.4657 48.8481C15.4634 48.8535 15.4619 48.8605 15.4595 48.8682C15.4036 49.0461 15.1816 49.744 14.9992 50.0875L14.7547 50.552L15.2825 50.5389C17.5624 50.4826 18.5203 49.9227 19.6295 49.2749C19.7273 49.2179 19.8267 49.1593 19.9292 49.1008C20.1341 48.9829 20.3258 48.8659 20.5113 48.7519C21.4653 48.168 22.2191 47.7066 23.8034 47.7066C24.8265 47.7066 25.5927 48.0702 26.1453 48.3868C26.2494 48.4461 26.3518 48.5077 26.4535 48.5678C26.9814 48.882 27.4805 49.1794 27.9998 49.1794C28.5191 49.1794 29.0182 48.882 29.5461 48.5678C29.6478 48.5077 29.751 48.4461 29.855 48.3868C30.4077 48.0702 31.1731 47.7066 32.197 47.7066C33.7805 47.7066 34.5342 48.168 35.489 48.7519C35.6745 48.8659 35.8663 48.9829 36.0712 49.1008C36.1729 49.1593 36.2723 49.2179 36.3708 49.2749C37.4801 49.9227 38.438 50.4826 40.7178 50.5389L41.2449 50.552L41.0004 50.0875C40.7985 49.7054 40.5463 48.8859 40.5284 48.8273C40.5284 48.8258 40.5276 48.8243 40.5276 48.8243C40.3825 48.3251 40.3025 47.4601 40.2963 46.3217L40.2948 46.0583L40.0316 46.019C38.6957 45.8203 37.4731 45.0762 36.5804 44.5332C36.2187 44.3129 35.9059 44.1226 35.6435 44.0025C33.9 43.1999 32.1434 43.3077 30.7267 43.662C31.3912 43.206 31.9656 42.6591 32.4423 42.1893C33.4118 42.7338 36.065 43.8384 38.1477 44.0733C41.2565 44.4238 43.3361 43.3963 44.3305 41.0185C45.6144 40.3799 46.2812 38.7146 46.3262 37.8558C47.2662 37.0255 47.5449 35.4434 47.392 34.5144C47.9183 33.8104 47.9656 32.8476 47.9198 31.9618C48.7512 31.2955 49.1316 30.0508 48.9165 28.6597L48.9173 28.6589ZM32.6317 33.0278C32.3545 32.769 32.0619 32.5433 31.7739 32.3215C31.4541 32.0758 31.1529 31.8432 30.889 31.5774C30.2959 30.9813 29.6905 30.154 29.6905 28.5465V27.7947C30.2424 28.4155 31.1048 29.4731 31.6645 30.5969C32.103 31.4788 32.4182 32.3423 32.6317 33.0278ZM26.8936 24.6028C26.8936 24.6028 26.8905 24.5989 26.8898 24.5966C26.8812 24.5843 26.8735 24.5727 26.8657 24.5604C26.8634 24.5581 26.8618 24.5558 26.8603 24.5535C26.6778 24.2708 26.5575 23.9842 26.5575 23.6792C26.5575 22.8204 27.0838 22.2851 27.6419 21.7182C27.7623 21.5957 27.8834 21.4724 27.9998 21.3453C28.1162 21.4724 28.2381 21.5957 28.3584 21.7182C28.9158 22.2851 29.4428 22.8204 29.4428 23.6792C29.4428 23.9842 29.3225 24.2708 29.1401 24.5535C29.1385 24.5558 29.137 24.5581 29.1347 24.5604C29.1269 24.5727 29.1191 24.5843 29.1106 24.5966C29.1098 24.5989 29.1083 24.6012 29.1067 24.6028C28.9297 24.8647 28.7007 25.1235 28.4655 25.3884C28.3072 25.5679 28.1465 25.7489 27.9998 25.9361C27.8531 25.7489 27.6924 25.5679 27.534 25.3884C27.2996 25.1235 27.0706 24.8647 26.8936 24.6028ZM21.8411 19.1748C21.4506 17.2984 20.7823 15.1255 19.7141 14.423C19.7817 14.3799 19.8484 14.336 19.9136 14.2936C20.5098 13.9054 21.0252 13.5696 21.6074 13.6243C22.6367 13.7198 22.9061 14.6387 22.9162 14.6765H22.9177C22.9744 14.6988 23.5286 17.9601 23.8081 20.1761C23.8702 20.6737 23.9812 21.618 24.0603 22.2527C24.228 22.1118 24.419 21.9631 24.6317 21.8137C24.5595 21.2213 24.4756 20.5088 24.4244 20.0998C24.1465 17.8961 23.8834 15.808 23.5736 14.7073C23.5053 14.467 23.4619 14.2205 23.4587 13.9709C23.4533 13.6174 23.5123 13.2084 23.7483 12.9942C23.9874 12.7778 24.4097 12.6699 24.8187 12.5667C25.0695 12.5028 25.3124 12.4412 25.5228 12.3526L25.678 13.0659C25.7029 13.1822 25.7207 13.3 25.73 13.4186C25.81 14.3876 26.0995 18.1449 26.2067 20.9749C26.4038 20.9017 26.6088 20.837 26.8207 20.7854C26.6996 17.7267 26.3798 13.7036 26.334 13.1845C26.3378 13.0936 26.372 12.5506 26.6126 12.1331C26.6996 11.9829 27.0147 11.7402 27.3276 11.6316C27.5659 11.5492 27.7956 11.406 27.9998 11.2265C28.2047 11.406 28.4345 11.5492 28.6728 11.6316C28.9856 11.7402 29.3008 11.9829 29.3869 12.1331C29.6276 12.5506 29.6617 13.0936 29.6656 13.1845C29.6206 13.7036 29.3008 17.7267 29.1797 20.7854C29.3916 20.837 29.5965 20.9017 29.7937 20.9749C29.9 18.1449 30.1904 14.3876 30.2695 13.4186C30.2796 13.3 30.2967 13.1822 30.3223 13.0659L30.4776 12.3526C30.6879 12.4412 30.9309 12.5028 31.1816 12.5667C31.5899 12.6699 32.013 12.7778 32.2513 12.9942C32.4881 13.2084 32.5463 13.6174 32.5416 13.9709C32.5377 14.2205 32.4943 14.467 32.4267 14.7073C32.1162 15.808 31.8531 17.8961 31.576 20.0998C31.5247 20.5088 31.4409 21.2213 31.3687 21.8137C31.5814 21.9631 31.7724 22.1118 31.94 22.2527C32.0192 21.618 32.1302 20.6737 32.1923 20.1761C32.4718 17.9601 33.026 14.6988 33.0827 14.6765H33.0834C33.0943 14.6387 33.3637 13.7198 34.393 13.6243C34.9751 13.5696 35.4898 13.9054 36.086 14.2936C36.1519 14.336 36.2187 14.3799 36.2855 14.423C35.2181 15.1255 34.5498 17.2984 34.1585 19.1748C33.7184 21.2837 32.5649 27.1592 32.02 29.9437C31.2049 28.481 30.0297 27.2317 29.6905 26.8858V24.8408C29.9132 24.488 30.0638 24.1083 30.0638 23.6792C30.0638 22.5693 29.3939 21.8884 28.8024 21.2876C28.658 21.1412 28.5199 21.0003 28.3941 20.8585C28.2389 20.6852 28.1038 20.5104 28.0006 20.3224C27.8966 20.5104 27.7607 20.6852 27.6055 20.8593C27.4797 21.001 27.3408 21.1412 27.1972 21.2876C26.6064 21.8884 25.9365 22.5693 25.9365 23.6792C25.9365 24.1083 26.0871 24.488 26.3099 24.8408V26.885C25.9722 27.2293 24.7954 28.4787 23.9804 29.9422C23.4347 27.1569 22.2812 21.283 21.8411 19.1748ZM24.3351 30.5969C24.8956 29.4731 25.758 28.4148 26.3099 27.7939V28.5465C26.3099 30.154 25.7044 30.9813 25.1114 31.5774C24.8475 31.8432 24.5463 32.0758 24.2265 32.3215C23.9377 32.5441 23.645 32.7698 23.3672 33.0286C23.5814 32.3431 23.8958 31.4788 24.3351 30.5969ZM17.7828 43.461C15.1816 43.7552 13.4405 43.0427 12.4849 41.2873C13.4863 41.5076 14.7438 41.5184 14.972 41.5184H15.0054L15.2259 41.5168C15.2111 41.4991 15.1972 41.4806 15.184 41.4621C15.0543 41.285 14.927 41.0963 14.802 40.9006C14.2664 40.8914 12.7877 40.8352 12.0363 40.5086C11.1498 40.1227 10.5575 39.0428 10.3619 38.2694C11.3058 38.66 12.7124 38.8009 13.4149 38.8009C13.477 38.8009 13.5329 38.8001 13.5833 38.7978L13.6617 38.7948C13.5655 38.586 13.4747 38.3819 13.3901 38.1847C12.6324 38.1801 11.0295 37.9906 10.3021 37.5546C10.2556 37.5269 10.2121 37.4976 10.1733 37.4676C10.1492 37.4491 10.1252 37.4291 10.1019 37.4083C9.45681 36.8537 9.20686 35.827 9.19211 35.0852C9.98 35.676 11.1428 36.0203 12.6037 36.0896L12.7085 36.0942C12.6674 35.9024 12.6247 35.6929 12.5835 35.4719C11.503 35.4149 10.0933 35.1691 9.27905 34.3434C9.24256 34.308 9.20763 34.2703 9.17425 34.231C9.1533 34.2071 9.13311 34.1817 9.11448 34.1563C8.75974 33.6895 8.67979 33.0224 8.68755 32.3569C9.75023 32.9593 10.8098 33.148 12.2715 33.2551C12.2528 33.0417 12.2389 32.8337 12.2311 32.635C10.7803 32.5233 9.75954 32.3207 8.72015 31.6552C8.67125 31.6244 8.62312 31.5921 8.57422 31.559C8.5517 31.5436 8.52997 31.5281 8.50823 31.5112C7.83212 30.9998 7.51464 29.9291 7.69706 28.7529C7.98116 26.9151 8.89636 25.5594 9.70366 24.3632C9.72306 24.3347 9.74169 24.307 9.7611 24.2785C9.73548 24.3563 9.71064 24.4348 9.68502 24.5126C9.36676 25.4955 9.03764 26.5122 9.01823 27.4905C8.99494 28.682 9.77196 29.9745 11.5597 30.1756C13.1021 30.3489 14.2843 29.7966 15.5364 29.2112C16.5222 28.7498 17.5399 28.2738 18.8269 28.109C19.3796 28.672 19.746 29.2135 19.6264 30.4536C19.5535 31.21 19.1894 32.0681 18.837 32.8984C18.5622 33.5439 18.2781 34.2125 18.1236 34.8487C17.789 36.2275 17.8449 38.3819 19.1071 39.9139C20.2971 41.3589 21.581 41.8527 22.5094 42.0214C21.3388 42.5544 19.3835 43.28 17.7828 43.461ZM27.9493 40.1758H28.0037C28.0192 40.1751 28.0355 40.1751 28.051 40.1758C28.197 40.1812 28.3367 40.2243 28.4112 40.2613C28.4492 40.7173 28.6456 41.8034 29.1417 42.4473C29.0726 43.0219 28.4314 43.3963 27.9998 43.3963C27.5682 43.3963 26.9278 43.0219 26.8579 42.4473C27.3547 41.8034 27.5511 40.7173 27.5884 40.2613C27.6629 40.2243 27.8026 40.1812 27.9493 40.1758ZM27.9346 44.6888C27.8834 44.6633 27.829 44.6348 27.7677 44.6056C27.8445 44.6102 27.9222 44.6125 27.9998 44.6125C28.0782 44.6125 28.155 44.6102 28.2319 44.6056C28.1706 44.6348 28.1162 44.6633 28.065 44.6888C28.0417 44.7003 28.02 44.7111 27.999 44.7211C27.9781 44.7111 27.9563 44.7003 27.9338 44.6888H27.9346ZM16.3219 46.5828C17.6742 46.3179 18.8626 45.5946 19.7444 45.0585C20.0898 44.8482 20.3879 44.6672 20.6177 44.5609C23.5744 43.2014 26.646 44.735 27.6551 45.2395C27.6668 45.2449 27.6784 45.251 27.6893 45.2564V47.0789C26.7306 46.5636 25.6889 46.0529 24.7248 45.9581C22.9037 45.7794 21.81 45.9928 20.2234 46.8355C19.9284 46.9918 19.6427 47.159 19.3672 47.3207C18.4124 47.8799 17.5057 48.4106 16.1659 48.5693C16.273 47.9716 16.3118 47.2183 16.3219 46.5828ZM36.686 48.7442C36.5866 48.6864 36.4857 48.6271 36.3825 48.5678C36.1845 48.4545 35.9967 48.339 35.8143 48.2273C34.8595 47.6427 33.9567 47.0904 32.197 47.0904C31.0264 47.0904 30.164 47.4979 29.5445 47.853C29.4374 47.9138 29.3318 47.977 29.227 48.0394C28.7745 48.309 28.3475 48.5631 27.9998 48.5631C27.652 48.5631 27.2251 48.309 26.7733 48.0394C26.6685 47.977 26.563 47.9138 26.4558 47.853C25.8356 47.4979 24.974 47.0904 23.8034 47.0904C22.0429 47.0904 21.1409 47.6427 20.1853 48.2273C20.0037 48.339 19.815 48.4545 19.6179 48.5678C19.5146 48.6271 19.4137 48.6864 19.3144 48.7442C18.3239 49.3226 17.5251 49.7894 15.7576 49.9011C15.8562 49.6469 15.9462 49.3819 16.0029 49.2055H16.0037C17.6051 49.0684 18.66 48.4499 19.6831 47.8514C19.9532 47.6928 20.2327 47.5295 20.516 47.3785C21.9955 46.5928 22.9643 46.4049 24.6635 46.5713C25.6051 46.6637 26.7035 47.2445 27.6893 47.7813C27.7343 47.8052 27.7793 47.8299 27.8244 47.8545L27.9998 47.95L28.176 47.8545C28.2202 47.8306 28.2653 47.806 28.3103 47.7813C29.2961 47.2445 30.3937 46.6645 31.3369 46.5713C33.0361 46.4049 34.0048 46.5928 35.4836 47.3785C35.7677 47.5295 36.0471 47.6928 36.3173 47.8514C37.3396 48.4499 38.3945 49.0684 39.9967 49.2055H39.9975C40.0541 49.3819 40.1434 49.6469 40.242 49.9011C38.4745 49.7894 37.6757 49.3226 36.686 48.7442ZM35.3827 44.5609C35.6124 44.6672 35.9105 44.8482 36.2552 45.0585C37.1378 45.5946 38.3254 46.3179 39.6777 46.5828C39.6885 47.2183 39.7273 47.9716 39.8337 48.5693C38.4946 48.4106 37.588 47.8799 36.6324 47.3207C36.3569 47.159 36.072 46.9918 35.777 46.8355C34.1896 45.9928 33.0959 45.7794 31.2756 45.9581C30.3115 46.0529 29.269 46.5636 28.3103 47.0789V45.2564C28.3219 45.251 28.3328 45.2449 28.3444 45.2395C29.3536 44.735 32.4252 43.2014 35.3827 44.5609ZM32.176 41.5823C30.9767 42.7724 29.7766 43.8476 28.3103 43.9824V43.9786C28.9973 43.8345 29.7689 43.2391 29.7689 42.3449V42.2278L29.6905 42.14C29.2255 41.6201 29.026 40.4292 29.026 40.1227V40.0457L28.9895 39.9771C28.9313 39.8693 28.8288 39.7853 28.7077 39.7214C28.5672 39.6474 28.4461 39.6158 28.3142 39.5897C28.1566 39.5581 28.0355 39.5565 27.9998 39.5565C27.9641 39.5565 27.8438 39.5581 27.6862 39.5897C27.5535 39.6158 27.4331 39.6482 27.2926 39.7214C27.1715 39.7845 27.0691 39.8685 27.0109 39.9771L26.9744 40.0457V40.1227C26.9744 40.4292 26.7741 41.6201 26.3091 42.14L26.2315 42.2278V42.3449C26.2315 43.2391 27.0031 43.8345 27.6893 43.9786V43.9817C26.2237 43.8469 25.0229 42.7716 23.8244 41.5823L23.7762 41.5346L23.7335 41.493C23.711 41.4922 23.673 41.4922 23.6047 41.4922C23.576 41.4922 23.5449 41.4922 23.5115 41.4914C22.8416 41.486 21.1316 41.3982 19.5876 39.5242C18.4698 38.167 18.4256 36.2344 18.7275 34.9928C18.8704 34.4058 19.1444 33.7611 19.4091 33.1372C19.7793 32.2653 20.1628 31.3625 20.2451 30.5129C20.3569 29.3506 20.0728 28.6559 19.6528 28.1105C20.1527 28.1914 20.6247 28.4194 20.9864 28.7675C21.4289 29.1935 21.6485 29.7427 21.6043 30.315C21.5639 30.8357 21.4436 31.2955 21.3474 31.6653C21.321 31.7654 21.2961 31.8594 21.2752 31.9479C21.0376 32.93 20.9398 33.9498 22.5513 34.6762C22.5536 34.6777 22.556 34.6793 22.5591 34.68L22.8269 34.8002L22.9627 34.5414C22.9627 34.5414 22.9658 34.5352 22.9674 34.5329C23.3757 33.7565 24.0021 33.2751 24.6076 32.8083C24.929 32.5611 25.2612 32.3046 25.5538 32.0096C26.195 31.3649 26.9309 30.3874 26.9309 28.5465V25.6403C26.9759 25.6919 27.0217 25.7435 27.0675 25.7951C27.2732 26.0277 27.4743 26.2542 27.635 26.4799C27.843 26.7718 27.985 27.0614 27.985 27.3587C27.985 27.3911 27.9905 27.4227 27.9998 27.4527C28.0091 27.4227 28.0145 27.3911 28.0145 27.3587C28.0145 27.0622 28.1566 26.7726 28.3654 26.4807C28.5253 26.255 28.7271 26.0277 28.9328 25.7951C28.9786 25.7435 29.0244 25.6919 29.0695 25.6403V28.5465C29.0695 30.3874 29.8053 31.3649 30.4465 32.0096C30.7392 32.3046 31.0714 32.5611 31.3928 32.8083C31.9982 33.2751 32.6247 33.7565 33.033 34.5329C33.0345 34.5352 33.0361 34.5383 33.0376 34.5414L33.1735 34.8002L33.4234 34.6877C33.4351 34.6831 33.4459 34.6785 33.456 34.6731C35.0598 33.9468 34.9627 32.9285 34.7252 31.9479C34.7042 31.8594 34.6794 31.7654 34.653 31.6653C34.5568 31.2955 34.4364 30.8357 34.3961 30.315C34.3518 29.7427 34.5715 29.1935 35.014 28.7675C35.3757 28.4194 35.8476 28.1914 36.3476 28.1105C35.9276 28.6559 35.6435 29.3506 35.7553 30.5129C35.8376 31.3625 36.221 32.2653 36.5913 33.1372C36.856 33.7611 37.13 34.4058 37.2728 34.9928C37.5748 36.2344 37.5306 38.167 36.4128 39.5242C34.8688 41.3982 33.1587 41.486 32.4888 41.4914C32.4555 41.4922 32.4244 41.4922 32.3957 41.4922C32.3274 41.4922 32.2893 41.4922 32.2668 41.493L32.2241 41.5346L32.176 41.5823ZM45.8985 37.4083C45.8752 37.4291 45.8511 37.4491 45.8271 37.4676C45.7883 37.4976 45.7448 37.5269 45.6982 37.5546C44.9709 37.9906 43.3679 38.1801 42.6103 38.1847C42.5257 38.3819 42.4349 38.586 42.3386 38.7948L42.417 38.7978C42.4675 38.8001 42.5234 38.8009 42.5855 38.8009C43.288 38.8009 44.6945 38.66 45.6385 38.2694C45.4428 39.0428 44.8506 40.1227 43.9641 40.5086C43.2127 40.8352 41.7339 40.8914 41.1983 40.9006C41.0733 41.0963 40.946 41.285 40.8164 41.4621C40.8032 41.4806 40.7892 41.4991 40.7745 41.5168L40.9949 41.5184H41.0283C41.2565 41.5184 42.5141 41.5076 43.5146 41.2873C42.5599 43.0427 40.8187 43.7552 38.2175 43.461C36.6169 43.28 34.6615 42.5544 33.491 42.0214C34.4194 41.8527 35.7033 41.3589 36.8933 39.9139C38.1554 38.3819 38.2113 36.2275 37.8768 34.8487C37.7223 34.2125 37.4382 33.5439 37.1634 32.8984C36.811 32.0681 36.4469 31.21 36.3739 30.4536C36.2544 29.2135 36.6208 28.672 37.1735 28.109C38.4605 28.2738 39.4782 28.7498 40.464 29.2112C41.7161 29.7966 42.8983 30.3489 44.4407 30.1756C46.2284 29.9745 47.0054 28.682 46.9821 27.4905C46.9627 26.5122 46.6336 25.4955 46.3153 24.5126C46.2897 24.4348 46.2649 24.3563 46.2393 24.2785C46.2587 24.307 46.2773 24.3347 46.2967 24.3632C47.104 25.5594 48.0192 26.9151 48.3033 28.7529C48.4857 29.9291 48.1682 30.9998 47.4921 31.5112C47.4704 31.5281 47.4487 31.5436 47.4261 31.559C47.3772 31.5921 47.3291 31.6244 47.2802 31.6552C46.2408 32.3207 45.2201 32.5233 43.7692 32.635C43.7615 32.8337 43.7475 33.0417 43.7289 33.2551C45.1906 33.148 46.2501 32.9593 47.3128 32.3569C47.3206 33.0224 47.2406 33.6895 46.8859 34.1563C46.8672 34.1817 46.8471 34.2071 46.8261 34.231C46.7927 34.2703 46.7578 34.308 46.7213 34.3434C45.907 35.1691 44.4974 35.4149 43.4168 35.4719C43.3757 35.6929 43.333 35.9024 43.2919 36.0942L43.3966 36.0896C44.8575 36.0203 46.0204 35.676 46.8083 35.0852C46.7935 35.827 46.5436 36.8537 45.8985 37.4083Z" fill="black"/>
<path d="M30.2658 33.9083C30.1447 33.7303 30.0112 33.5416 29.8699 33.3413L29.7473 33.1673C29.0347 32.1536 28.8367 31.7415 28.5868 30.8226C28.5767 30.7864 28.5674 30.7502 28.5573 30.714L28.4455 30.181C28.4044 29.9376 28.3834 29.8898 28.2872 29.6403C28.1987 29.4107 28.0512 29.2074 27.9992 28.7444C27.9472 29.2074 27.7997 29.4107 27.7112 29.6403C27.6149 29.8898 27.594 29.9376 27.5528 30.181L27.441 30.714C27.431 30.7502 27.4209 30.7872 27.4115 30.8226C27.1616 31.7415 26.9644 32.1536 26.2511 33.1673L26.1284 33.3413C25.9871 33.5416 25.8536 33.7303 25.7325 33.9083C25.0828 34.8626 24.794 35.81 24.9081 36.826C25.0696 38.2725 26.5592 39.0682 26.619 39.0998H26.6205L26.6244 39.0952C26.6283 39.0898 26.6345 39.0821 26.6431 39.0713C27.3347 38.2071 28.6652 38.2071 29.356 39.0713C29.3646 39.0821 29.3708 39.0898 29.3747 39.0952L29.3786 39.1006H29.3801C29.4399 39.0682 30.9295 38.2725 31.091 36.826C31.2051 35.81 30.9163 34.8634 30.2666 33.9083H30.2658Z" fill="#FAD407"/>
<path d="M30.1245 32.977C29.7481 32.4062 29.4896 32.1698 29.0991 31.418C28.5961 30.4475 28.4153 29.6611 28.3516 29.3499C28.246 28.8307 28.2127 28.3817 28.2049 28.0474C27.9503 28.347 27.5552 28.8954 27.351 29.6795C27.2268 30.1563 27.2105 30.5777 27.2245 30.8888C27.195 30.8627 27.1562 30.8334 27.1049 30.8072C27.0087 30.7579 26.9179 30.7479 26.8635 30.7456C26.886 31.4118 26.7362 31.8963 26.6182 32.1829C26.4979 32.4763 26.3598 32.6982 26.1781 32.9732C25.9965 33.2474 25.6006 33.7218 25.443 33.9529C24.7933 34.908 24.4688 35.7168 24.5969 36.8583C24.7778 38.4782 26.4056 39.3363 26.4746 39.3725L26.7122 39.4934C27.3867 38.4374 28.6116 38.4404 29.2831 39.4934L29.5206 39.3725C29.5905 39.3363 31.2175 38.4782 31.3991 36.8583C31.5722 35.3117 30.6571 33.7865 30.1238 32.9762L30.1245 32.977ZM30.7828 36.7906C30.6718 37.7834 29.8327 38.4443 29.4383 38.7031C28.6776 37.9267 27.4232 37.8373 26.5585 38.7031C26.1641 38.4443 25.3258 37.7834 25.2148 36.7906C25.1077 35.8347 25.3196 35.2539 25.8467 34.3827C25.9972 34.1332 26.3574 33.6718 26.6299 33.2189C26.9644 32.662 27.0638 32.387 27.2889 31.9518C27.431 32.6889 27.8533 33.5039 28.0799 34.613C28.3609 35.9918 27.3572 36.7651 27.6607 37.198C27.8455 36.6211 28.7358 35.6837 28.6124 34.4313C28.5332 33.6217 27.9317 32.6335 27.7632 31.7269C27.5746 30.714 27.7655 30.0161 27.9355 29.7311C28.0954 30.7671 28.9315 32.2391 29.6534 33.2643C30.5538 34.5445 30.9218 35.5597 30.7844 36.7898L30.7828 36.7906Z" fill="black"/>
<path d="M9.31565 17.4764L12.2421 18.7319L11.989 19.3127L9.06259 18.0571L8.7552 18.7635L8.21338 18.5309L9.08045 16.5421L9.62227 16.7747L9.31643 17.4764H9.31565Z" fill="black"/>
<path d="M13.3583 16.8071C13.21 17.0443 13.0494 17.206 12.877 17.2931C12.7047 17.3801 12.5075 17.3971 12.2863 17.3462C12.0651 17.2946 11.8004 17.1745 11.4938 16.9858L9.49414 15.7549L9.83026 15.2172L11.8803 16.4789C12.0131 16.5606 12.1349 16.6222 12.2459 16.6638C12.3569 16.7054 12.4617 16.7162 12.5603 16.6969C12.6597 16.6777 12.7427 16.6137 12.8103 16.5051C12.8677 16.4135 12.8957 16.328 12.8949 16.2486C12.8941 16.1693 12.8553 16.0861 12.7784 15.9975C12.7024 15.9097 12.5774 15.8127 12.4051 15.7064L10.3239 14.4262L10.6601 13.8885L12.7738 15.1895C13.1681 15.4321 13.4119 15.6856 13.505 15.9505C13.5982 16.2155 13.5493 16.5013 13.3575 16.8078L13.3583 16.8071Z" fill="black"/>
<path d="M12.5474 12.4805L14.9832 14.5217L14.5718 15.0054L12.136 12.9642L11.6361 13.5519L11.1851 13.1738L12.5939 11.5177L13.0449 11.8951L12.5474 12.4798V12.4805Z" fill="black"/>
<path d="M18.3808 11.5516L16.2888 9.66445L17.4183 12.2386L16.8687 12.6307L14.1309 9.96639L14.6525 9.59435L16.4938 11.443L15.4047 9.05671L15.9985 8.6323L17.9143 10.4124L16.7569 8.09158L17.2692 7.72571L18.9304 11.1587L18.3808 11.5508V11.5516Z" fill="black"/>
<path d="M20.8028 10.2884C20.5474 10.4054 20.3238 10.4532 20.1313 10.4316C19.9388 10.4101 19.7649 10.3169 19.6089 10.1528C19.4521 9.98874 19.2984 9.74456 19.1471 9.41952L18.1597 7.29977L18.7387 7.03403L19.751 9.20692C19.817 9.34788 19.8845 9.46573 19.9536 9.56047C20.0234 9.65521 20.1042 9.72146 20.1981 9.75997C20.2912 9.79771 20.3968 9.79001 20.5132 9.73686C20.6118 9.69142 20.6825 9.63596 20.7259 9.56895C20.7686 9.50193 20.7834 9.41104 20.7679 9.29627C20.7531 9.18074 20.7027 9.03208 20.618 8.84952L19.5903 6.64428L20.1694 6.37854L21.2126 8.61845C21.4075 9.03593 21.4704 9.381 21.4013 9.6529C21.3322 9.9248 21.1327 10.1366 20.8028 10.2884Z" fill="black"/>
<path d="M23.6219 6.42934C23.6902 6.66889 23.6957 6.8861 23.6382 7.08021C23.5808 7.27431 23.4566 7.44069 23.2656 7.57933C23.3223 7.58318 23.3782 7.59628 23.4333 7.61862C23.4884 7.64095 23.5567 7.68948 23.639 7.76265C23.7213 7.8366 23.8168 7.9452 23.9262 8.09001L24.6093 8.94038L23.9161 9.13448L23.2967 8.37501C23.1492 8.19862 23.0374 8.07307 22.9613 7.99989C22.8845 7.92672 22.8232 7.88358 22.775 7.86972C22.7277 7.85662 22.6702 7.85971 22.6019 7.87819L22.463 7.91747L22.8915 9.42102L22.2782 9.59355L21.2505 5.98567L22.2945 5.69297C22.6524 5.59284 22.9388 5.6067 23.1554 5.73611C23.372 5.86474 23.5272 6.09582 23.6219 6.42934ZM23.0064 6.63654C22.959 6.46939 22.8806 6.36156 22.7712 6.31303C22.6617 6.2645 22.5196 6.26527 22.345 6.31457L22.0314 6.40238L22.3077 7.37213L22.5701 7.29819C22.7704 7.24196 22.9047 7.15877 22.9738 7.04939C23.0428 6.94002 23.0537 6.80214 23.0064 6.63654Z" fill="black"/>
<path d="M24.9469 8.93041L24.353 5.22778L24.9826 5.12842L25.5764 8.83104L24.9469 8.93041Z" fill="black"/>
<path d="M29.0441 8.69084L29.0992 7.0317L28.1685 7.00166L28.1134 8.6608L27.4761 8.64L27.6003 4.8927L28.2376 4.9135L28.1887 6.39624L29.1194 6.42628L29.1683 4.94354L29.8056 4.96433L29.6814 8.71163L29.0441 8.69084Z" fill="black"/>
<path d="M30.9171 8.15089L30.6221 8.85029L29.9731 8.72781L31.6265 5.22314L32.3073 5.35178L32.5379 9.21231L31.8866 9.08907L31.8734 8.3319L30.9178 8.15166L30.9171 8.15089ZM31.8354 5.97106L31.1616 7.57243L31.8649 7.70491L31.8354 5.97106Z" fill="black"/>
<path d="M34.3137 9.8385L34.1739 7.17957L34.1693 7.17803L33.362 9.49881L32.814 9.30317L34.0932 5.77539L34.7065 5.99414L34.812 8.54061L34.8159 8.54215L35.6216 6.32073L36.1805 6.52023L34.9013 10.048L34.3144 9.8385H34.3137Z" fill="black"/>
<path d="M38.4148 9.66136C38.1804 10.0804 37.9615 10.397 37.7566 10.6119C37.5516 10.8268 37.3405 10.9515 37.1224 10.987C36.9043 11.0224 36.6621 10.9662 36.3958 10.8198L35.4131 10.2791L37.245 7.00012L38.1858 7.51773C38.4575 7.66716 38.6399 7.84509 38.7331 8.05229C38.8262 8.25949 38.8441 8.49442 38.7867 8.75708C38.7292 9.01974 38.605 9.32091 38.4156 9.66136H38.4148ZM36.2592 10.0696L36.5643 10.2375C36.7459 10.3376 36.9058 10.3638 37.0432 10.3168C37.1806 10.2699 37.3017 10.1767 37.4057 10.038C37.5105 9.89937 37.6355 9.6991 37.7822 9.43645C37.9607 9.11756 38.0741 8.868 38.1237 8.68853C38.1734 8.50906 38.1695 8.36733 38.1136 8.26334C38.057 8.15936 37.9452 8.06154 37.7783 7.96911L37.5136 7.82353L36.2592 10.0696Z" fill="black"/>
<path d="M38.6207 11.3451L38.0393 11.8366L37.5161 11.4368L40.5854 9.05054L41.1342 9.47033L39.584 13.0181L39.0593 12.6168L39.3923 11.9351L38.6215 11.3459L38.6207 11.3451ZM40.4317 9.81078L39.102 10.9377L39.6686 11.3713L40.4317 9.81078Z" fill="black"/>
<path d="M41.8503 12.1316L42.1119 12.0076L43.3205 11.4568L43.8375 11.9706L41.5903 12.8171L40.4686 13.9286L40.0215 13.4841L41.1432 12.3727L41.9986 10.1428L42.5233 10.665L41.9737 11.8751L41.8503 12.1323V12.1316Z" fill="black"/>
<path d="M42.0299 14.5579L41.3406 14.8845L40.9385 14.3646L44.5224 12.841L44.9439 13.3863L42.5275 16.4196L42.1238 15.8974L42.6222 15.3228L42.0299 14.5571V14.5579ZM44.177 13.5373L42.5996 14.2875L43.0351 14.8506L44.1762 13.5373H44.177Z" fill="black"/>
<path d="M43.4356 18.0602L45.1123 15.9805L45.11 15.9767L42.952 17.1783L42.6733 16.6707L45.9918 14.8783L46.3031 15.446L44.6761 17.4178L44.6784 17.4217L46.768 16.2933L47.0522 16.8109L43.7337 18.6033L43.4356 18.0595V18.0602Z" fill="black"/>
<path d="M43.9463 19.1594L47.4541 17.7653L47.6909 18.353L44.183 19.7471L43.9463 19.1594Z" fill="black"/>
<path d="M65.128 17.5V9.1H69.064C70.072 9.1 70.84 9.3 71.368 9.7C71.896 10.092 72.16 10.62 72.16 11.284C72.16 11.732 72.056 12.116 71.848 12.436C71.64 12.748 71.36 12.992 71.008 13.168C70.664 13.336 70.288 13.42 69.88 13.42L70.096 12.988C70.568 12.988 70.992 13.076 71.368 13.252C71.744 13.42 72.04 13.668 72.256 13.996C72.48 14.324 72.592 14.732 72.592 15.22C72.592 15.94 72.316 16.5 71.764 16.9C71.212 17.3 70.392 17.5 69.304 17.5H65.128ZM66.688 16.276H69.208C69.792 16.276 70.24 16.18 70.552 15.988C70.864 15.796 71.02 15.488 71.02 15.064C71.02 14.648 70.864 14.344 70.552 14.152C70.24 13.952 69.792 13.852 69.208 13.852H66.568V12.64H68.896C69.44 12.64 69.856 12.544 70.144 12.352C70.44 12.16 70.588 11.872 70.588 11.488C70.588 11.096 70.44 10.804 70.144 10.612C69.856 10.42 69.44 10.324 68.896 10.324H66.688V16.276ZM73.0689 17.5L76.8489 9.1H78.3849L82.1769 17.5H80.5449L77.2929 9.928H77.9169L74.6769 17.5H73.0689ZM74.8089 15.556L75.2289 14.332H79.7649L80.1849 15.556H74.8089ZM83.2452 17.5V9.1H84.8052V16.18H89.1972V17.5H83.2452ZM89.2525 17.5L93.0325 9.1H94.5685L98.3605 17.5H96.7285L93.4765 9.928H94.1005L90.8605 17.5H89.2525ZM90.9925 15.556L91.4125 14.332H95.9485L96.3685 15.556H90.9925ZM99.4288 17.5V9.1H100.989V17.5H99.4288ZM106.577 17.5V9.1H110.033C110.777 9.1 111.413 9.22 111.941 9.46C112.477 9.7 112.889 10.044 113.177 10.492C113.465 10.94 113.609 11.472 113.609 12.088C113.609 12.704 113.465 13.236 113.177 13.684C112.889 14.132 112.477 14.476 111.941 14.716C111.413 14.956 110.777 15.076 110.033 15.076H107.441L108.137 14.344V17.5H106.577ZM108.137 14.512L107.441 13.756H109.961C110.649 13.756 111.165 13.612 111.509 13.324C111.861 13.028 112.037 12.616 112.037 12.088C112.037 11.552 111.861 11.14 111.509 10.852C111.165 10.564 110.649 10.42 109.961 10.42H107.441L108.137 9.652V14.512ZM116.607 12.592H120.783V13.876H116.607V12.592ZM116.727 16.192H121.467V17.5H115.167V9.1H121.299V10.408H116.727V16.192ZM123.206 17.5V9.1H124.49L129.758 15.568H129.122V9.1H130.67V17.5H129.386L124.118 11.032H124.754V17.5H123.206ZM134.229 17.62C133.693 17.62 133.197 17.516 132.741 17.308C132.293 17.1 131.925 16.8 131.637 16.408L132.525 15.34C132.757 15.66 133.009 15.9 133.281 16.06C133.561 16.22 133.865 16.3 134.193 16.3C135.065 16.3 135.501 15.784 135.501 14.752V10.408H132.513V9.1H137.061V14.668C137.061 15.66 136.817 16.4 136.329 16.888C135.849 17.376 135.149 17.62 134.229 17.62ZM137.885 17.5L141.665 9.1H143.201L146.993 17.5H145.361L142.109 9.928H142.733L139.493 17.5H137.885ZM139.625 15.556L140.045 14.332H144.581L145.001 15.556H139.625ZM148.062 17.5V9.1H149.346L153.018 15.232H152.346L155.958 9.1H157.242L157.254 17.5H155.778L155.766 11.416H156.078L153.006 16.54H152.31L149.19 11.416H149.55V17.5H148.062ZM159.523 17.5V9.1H161.083V17.5H159.523ZM163.355 17.5V9.1H164.639L169.907 15.568H169.271V9.1H170.819V17.5H169.535L164.267 11.032H164.903V17.5H163.355ZM171.881 17.5L175.661 9.1H177.197L180.989 17.5H179.357L176.105 9.928H176.729L173.489 17.5H171.881ZM173.621 15.556L174.041 14.332H178.577L178.997 15.556H173.621ZM182.058 17.5V9.1H183.342L188.61 15.568H187.974V9.1H189.522V17.5H188.238L182.97 11.032H183.606V17.5H182.058ZM195.089 17.5V9.1H196.373L200.045 15.232H199.373L202.985 9.1H204.269L204.281 17.5H202.805L202.793 11.416H203.105L200.033 16.54H199.337L196.217 11.416H196.577V17.5H195.089ZM210.162 17.62C209.01 17.62 208.106 17.296 207.45 16.648C206.802 16 206.478 15.064 206.478 13.84V9.1H208.038V13.78C208.038 14.644 208.222 15.272 208.59 15.664C208.966 16.056 209.494 16.252 210.174 16.252C210.854 16.252 211.378 16.056 211.746 15.664C212.114 15.272 212.298 14.644 212.298 13.78V9.1H213.834V13.84C213.834 15.064 213.506 16 212.85 16.648C212.202 17.296 211.306 17.62 210.162 17.62ZM217.57 17.5V10.42H214.786V9.1H221.914V10.42H219.13V17.5H217.57ZM226.545 17.62C225.393 17.62 224.489 17.296 223.833 16.648C223.185 16 222.861 15.064 222.861 13.84V9.1H224.421V13.78C224.421 14.644 224.605 15.272 224.973 15.664C225.349 16.056 225.877 16.252 226.557 16.252C227.237 16.252 227.761 16.056 228.129 15.664C228.497 15.272 228.681 14.644 228.681 13.78V9.1H230.217V13.84C230.217 15.064 229.889 16 229.233 16.648C228.585 17.296 227.689 17.62 226.545 17.62ZM235.718 17.5V9.1H239.174C239.918 9.1 240.554 9.22 241.082 9.46C241.618 9.7 242.03 10.044 242.318 10.492C242.606 10.94 242.75 11.472 242.75 12.088C242.75 12.704 242.606 13.236 242.318 13.684C242.03 14.132 241.618 14.476 241.082 14.716C240.554 14.956 239.918 15.076 239.174 15.076H236.582L237.278 14.344V17.5H235.718ZM237.278 14.512L236.582 13.756H239.102C239.79 13.756 240.306 13.612 240.65 13.324C241.002 13.028 241.178 12.616 241.178 12.088C241.178 11.552 241.002 11.14 240.65 10.852C240.306 10.564 239.79 10.42 239.102 10.42H236.582L237.278 9.652V14.512ZM245.748 12.592H249.924V13.876H245.748V12.592ZM245.868 16.192H250.608V17.5H244.308V9.1H250.44V10.408H245.868V16.192ZM252.347 17.5V9.1H253.631L258.899 15.568H258.263V9.1H259.811V17.5H258.527L253.259 11.032H253.895V17.5H252.347ZM262.062 17.5V9.1H265.734C266.646 9.1 267.446 9.276 268.134 9.628C268.822 9.98 269.358 10.468 269.742 11.092C270.126 11.716 270.318 12.452 270.318 13.3C270.318 14.14 270.126 14.876 269.742 15.508C269.358 16.132 268.822 16.62 268.134 16.972C267.446 17.324 266.646 17.5 265.734 17.5H262.062ZM263.622 16.18H265.662C266.294 16.18 266.838 16.06 267.294 15.82C267.758 15.58 268.114 15.244 268.362 14.812C268.618 14.38 268.746 13.876 268.746 13.3C268.746 12.716 268.618 12.212 268.362 11.788C268.114 11.356 267.758 11.02 267.294 10.78C266.838 10.54 266.294 10.42 265.662 10.42H263.622V16.18ZM271.976 17.5V9.1H273.536V17.5H271.976ZM275.808 17.5V9.1H279.48C280.392 9.1 281.192 9.276 281.88 9.628C282.568 9.98 283.104 10.468 283.488 11.092C283.872 11.716 284.064 12.452 284.064 13.3C284.064 14.14 283.872 14.876 283.488 15.508C283.104 16.132 282.568 16.62 281.88 16.972C281.192 17.324 280.392 17.5 279.48 17.5H275.808ZM277.368 16.18H279.408C280.04 16.18 280.584 16.06 281.04 15.82C281.504 15.58 281.86 15.244 282.108 14.812C282.364 14.38 282.492 13.876 282.492 13.3C282.492 12.716 282.364 12.212 282.108 11.788C281.86 11.356 281.504 11.02 281.04 10.78C280.584 10.54 280.04 10.42 279.408 10.42H277.368V16.18ZM285.722 17.5V9.1H287.282V17.5H285.722ZM290.946 15.52L290.862 13.672L295.266 9.1H297.018L293.358 12.988L292.494 13.936L290.946 15.52ZM289.554 17.5V9.1H291.114V17.5H289.554ZM295.41 17.5L292.194 13.672L293.226 12.532L297.234 17.5H295.41ZM296.745 17.5L300.525 9.1H302.061L305.853 17.5H304.221L300.969 9.928H301.593L298.353 17.5H296.745ZM298.485 15.556L298.905 14.332H303.441L303.861 15.556H298.485ZM306.921 17.5V9.1H308.205L313.473 15.568H312.837V9.1H314.385V17.5H313.101L307.833 11.032H308.469V17.5H306.921Z" fill="#2F3031"/>
<path d="M65.128 32.5V24.1H68.584C69.328 24.1 69.964 24.22 70.492 24.46C71.028 24.7 71.44 25.044 71.728 25.492C72.016 25.94 72.16 26.472 72.16 27.088C72.16 27.704 72.016 28.236 71.728 28.684C71.44 29.132 71.028 29.476 70.492 29.716C69.964 29.956 69.328 30.076 68.584 30.076H65.992L66.688 29.344V32.5H65.128ZM66.688 29.512L65.992 28.756H68.512C69.2 28.756 69.716 28.612 70.06 28.324C70.412 28.028 70.588 27.616 70.588 27.088C70.588 26.552 70.412 26.14 70.06 25.852C69.716 25.564 69.2 25.42 68.512 25.42H65.992L66.688 24.652V29.512ZM73.7178 32.5V24.1H77.1738C77.9178 24.1 78.5538 24.22 79.0818 24.46C79.6178 24.7 80.0298 25.044 80.3178 25.492C80.6058 25.94 80.7498 26.472 80.7498 27.088C80.7498 27.704 80.6058 28.236 80.3178 28.684C80.0298 29.124 79.6178 29.464 79.0818 29.704C78.5538 29.936 77.9178 30.052 77.1738 30.052H74.5818L75.2778 29.344V32.5H73.7178ZM79.2138 32.5L77.0898 29.452H78.7578L80.8938 32.5H79.2138ZM75.2778 29.512L74.5818 28.768H77.1018C77.7898 28.768 78.3058 28.62 78.6498 28.324C79.0018 28.028 79.1778 27.616 79.1778 27.088C79.1778 26.552 79.0018 26.14 78.6498 25.852C78.3058 25.564 77.7898 25.42 77.1018 25.42H74.5818L75.2778 24.652V29.512ZM86.4312 32.62C85.7752 32.62 85.1712 32.512 84.6192 32.296C84.0672 32.08 83.5872 31.78 83.1792 31.396C82.7712 31.004 82.4552 30.548 82.2312 30.028C82.0072 29.5 81.8952 28.924 81.8952 28.3C81.8952 27.676 82.0072 27.104 82.2312 26.584C82.4552 26.056 82.7712 25.6 83.1792 25.216C83.5872 24.824 84.0672 24.52 84.6192 24.304C85.1712 24.088 85.7712 23.98 86.4192 23.98C87.0752 23.98 87.6752 24.088 88.2192 24.304C88.7712 24.52 89.2512 24.824 89.6592 25.216C90.0672 25.6 90.3832 26.056 90.6072 26.584C90.8312 27.104 90.9432 27.676 90.9432 28.3C90.9432 28.924 90.8312 29.5 90.6072 30.028C90.3832 30.556 90.0672 31.012 89.6592 31.396C89.2512 31.78 88.7712 32.08 88.2192 32.296C87.6752 32.512 87.0792 32.62 86.4312 32.62ZM86.4192 31.252C86.8432 31.252 87.2352 31.18 87.5952 31.036C87.9552 30.892 88.2672 30.688 88.5312 30.424C88.7952 30.152 88.9992 29.84 89.1432 29.488C89.2952 29.128 89.3712 28.732 89.3712 28.3C89.3712 27.868 89.2952 27.476 89.1432 27.124C88.9992 26.764 88.7952 26.452 88.5312 26.188C88.2672 25.916 87.9552 25.708 87.5952 25.564C87.2352 25.42 86.8432 25.348 86.4192 25.348C85.9952 25.348 85.6032 25.42 85.2432 25.564C84.8912 25.708 84.5792 25.916 84.3072 26.188C84.0432 26.452 83.8352 26.764 83.6832 27.124C83.5392 27.476 83.4672 27.868 83.4672 28.3C83.4672 28.724 83.5392 29.116 83.6832 29.476C83.8352 29.836 84.0432 30.152 84.3072 30.424C84.5712 30.688 84.8832 30.892 85.2432 31.036C85.6032 31.18 85.9952 31.252 86.4192 31.252ZM94.8229 32.5L91.1509 24.1H92.8429L96.1189 31.696H95.1469L98.4589 24.1H100.019L96.3589 32.5H94.8229ZM100.905 32.5V24.1H102.465V32.5H100.905ZM104.737 32.5V24.1H106.021L111.289 30.568H110.653V24.1H112.201V32.5H110.917L105.649 26.032H106.285V32.5H104.737ZM117.056 32.62C116.4 32.62 115.772 32.528 115.172 32.344C114.572 32.152 114.096 31.908 113.744 31.612L114.284 30.4C114.62 30.664 115.036 30.884 115.532 31.06C116.028 31.236 116.536 31.324 117.056 31.324C117.496 31.324 117.852 31.276 118.124 31.18C118.396 31.084 118.596 30.956 118.724 30.796C118.852 30.628 118.916 30.44 118.916 30.232C118.916 29.976 118.824 29.772 118.64 29.62C118.456 29.46 118.216 29.336 117.92 29.248C117.632 29.152 117.308 29.064 116.948 28.984C116.596 28.904 116.24 28.812 115.88 28.708C115.528 28.596 115.204 28.456 114.908 28.288C114.62 28.112 114.384 27.88 114.2 27.592C114.016 27.304 113.924 26.936 113.924 26.488C113.924 26.032 114.044 25.616 114.284 25.24C114.532 24.856 114.904 24.552 115.4 24.328C115.904 24.096 116.54 23.98 117.308 23.98C117.812 23.98 118.312 24.044 118.808 24.172C119.304 24.3 119.736 24.484 120.104 24.724L119.612 25.936C119.236 25.712 118.848 25.548 118.448 25.444C118.048 25.332 117.664 25.276 117.296 25.276C116.864 25.276 116.512 25.328 116.24 25.432C115.976 25.536 115.78 25.672 115.652 25.84C115.532 26.008 115.472 26.2 115.472 26.416C115.472 26.672 115.56 26.88 115.736 27.04C115.92 27.192 116.156 27.312 116.444 27.4C116.74 27.488 117.068 27.576 117.428 27.664C117.788 27.744 118.144 27.836 118.496 27.94C118.856 28.044 119.18 28.18 119.468 28.348C119.764 28.516 120 28.744 120.176 29.032C120.36 29.32 120.452 29.684 120.452 30.124C120.452 30.572 120.328 30.988 120.08 31.372C119.84 31.748 119.468 32.052 118.964 32.284C118.46 32.508 117.824 32.62 117.056 32.62ZM121.999 32.5V24.1H123.559V32.5H121.999ZM131.752 32.62C131.096 32.62 130.468 32.528 129.868 32.344C129.268 32.152 128.792 31.908 128.44 31.612L128.98 30.4C129.316 30.664 129.732 30.884 130.228 31.06C130.724 31.236 131.232 31.324 131.752 31.324C132.192 31.324 132.548 31.276 132.82 31.18C133.092 31.084 133.292 30.956 133.42 30.796C133.548 30.628 133.612 30.44 133.612 30.232C133.612 29.976 133.52 29.772 133.336 29.62C133.152 29.46 132.912 29.336 132.616 29.248C132.328 29.152 132.004 29.064 131.644 28.984C131.292 28.904 130.936 28.812 130.576 28.708C130.224 28.596 129.9 28.456 129.604 28.288C129.316 28.112 129.08 27.88 128.896 27.592C128.712 27.304 128.62 26.936 128.62 26.488C128.62 26.032 128.74 25.616 128.98 25.24C129.228 24.856 129.6 24.552 130.096 24.328C130.6 24.096 131.236 23.98 132.004 23.98C132.508 23.98 133.008 24.044 133.504 24.172C134 24.3 134.432 24.484 134.8 24.724L134.308 25.936C133.932 25.712 133.544 25.548 133.144 25.444C132.744 25.332 132.36 25.276 131.992 25.276C131.56 25.276 131.208 25.328 130.936 25.432C130.672 25.536 130.476 25.672 130.348 25.84C130.228 26.008 130.168 26.2 130.168 26.416C130.168 26.672 130.256 26.88 130.432 27.04C130.616 27.192 130.852 27.312 131.14 27.4C131.436 27.488 131.764 27.576 132.124 27.664C132.484 27.744 132.84 27.836 133.192 27.94C133.552 28.044 133.876 28.18 134.164 28.348C134.46 28.516 134.696 28.744 134.872 29.032C135.056 29.32 135.148 29.684 135.148 30.124C135.148 30.572 135.024 30.988 134.776 31.372C134.536 31.748 134.164 32.052 133.66 32.284C133.156 32.508 132.52 32.62 131.752 32.62ZM140.306 32.62C139.154 32.62 138.25 32.296 137.594 31.648C136.946 31 136.622 30.064 136.622 28.84V24.1H138.182V28.78C138.182 29.644 138.366 30.272 138.734 30.664C139.11 31.056 139.638 31.252 140.318 31.252C140.998 31.252 141.522 31.056 141.89 30.664C142.258 30.272 142.442 29.644 142.442 28.78V24.1H143.978V28.84C143.978 30.064 143.65 31 142.994 31.648C142.346 32.296 141.45 32.62 140.306 32.62ZM146.163 32.5V24.1H147.447L151.119 30.232H150.447L154.059 24.1H155.343L155.355 32.5H153.879L153.867 26.416H154.179L151.107 31.54H150.411L147.291 26.416H147.651V32.5H146.163ZM156.436 32.5L160.216 24.1H161.752L165.544 32.5H163.912L160.66 24.928H161.284L158.044 32.5H156.436ZM158.176 30.556L158.596 29.332H163.132L163.552 30.556H158.176ZM167.895 32.5V25.42H165.111V24.1H172.239V25.42H169.455V32.5H167.895ZM174.849 27.592H179.025V28.876H174.849V27.592ZM174.969 31.192H179.709V32.5H173.409V24.1H179.541V25.408H174.969V31.192ZM181.448 32.5V24.1H184.904C185.648 24.1 186.284 24.22 186.812 24.46C187.348 24.7 187.76 25.044 188.048 25.492C188.336 25.94 188.48 26.472 188.48 27.088C188.48 27.704 188.336 28.236 188.048 28.684C187.76 29.124 187.348 29.464 186.812 29.704C186.284 29.936 185.648 30.052 184.904 30.052H182.312L183.008 29.344V32.5H181.448ZM186.944 32.5L184.82 29.452H186.488L188.624 32.5H186.944ZM183.008 29.512L182.312 28.768H184.832C185.52 28.768 186.036 28.62 186.38 28.324C186.732 28.028 186.908 27.616 186.908 27.088C186.908 26.552 186.732 26.14 186.38 25.852C186.036 25.564 185.52 25.42 184.832 25.42H182.312L183.008 24.652V29.512ZM189.038 32.5L192.818 24.1H194.354L198.146 32.5H196.514L193.262 24.928H193.886L190.646 32.5H189.038ZM190.778 30.556L191.198 29.332H195.734L196.154 30.556H190.778ZM205.134 32.62C204.478 32.62 203.85 32.528 203.25 32.344C202.65 32.152 202.174 31.908 201.822 31.612L202.362 30.4C202.698 30.664 203.114 30.884 203.61 31.06C204.106 31.236 204.614 31.324 205.134 31.324C205.574 31.324 205.93 31.276 206.202 31.18C206.474 31.084 206.674 30.956 206.802 30.796C206.93 30.628 206.994 30.44 206.994 30.232C206.994 29.976 206.902 29.772 206.718 29.62C206.534 29.46 206.294 29.336 205.998 29.248C205.71 29.152 205.386 29.064 205.026 28.984C204.674 28.904 204.318 28.812 203.958 28.708C203.606 28.596 203.282 28.456 202.986 28.288C202.698 28.112 202.462 27.88 202.278 27.592C202.094 27.304 202.002 26.936 202.002 26.488C202.002 26.032 202.122 25.616 202.362 25.24C202.61 24.856 202.982 24.552 203.478 24.328C203.982 24.096 204.618 23.98 205.386 23.98C205.89 23.98 206.39 24.044 206.886 24.172C207.382 24.3 207.814 24.484 208.182 24.724L207.69 25.936C207.314 25.712 206.926 25.548 206.526 25.444C206.126 25.332 205.742 25.276 205.374 25.276C204.942 25.276 204.59 25.328 204.318 25.432C204.054 25.536 203.858 25.672 203.73 25.84C203.61 26.008 203.55 26.2 203.55 26.416C203.55 26.672 203.638 26.88 203.814 27.04C203.998 27.192 204.234 27.312 204.522 27.4C204.818 27.488 205.146 27.576 205.506 27.664C205.866 27.744 206.222 27.836 206.574 27.94C206.934 28.044 207.258 28.18 207.546 28.348C207.842 28.516 208.078 28.744 208.254 29.032C208.438 29.32 208.53 29.684 208.53 30.124C208.53 30.572 208.406 30.988 208.158 31.372C207.918 31.748 207.546 32.052 207.042 32.284C206.538 32.508 205.902 32.62 205.134 32.62ZM211.517 27.592H215.693V28.876H211.517V27.592ZM211.637 31.192H216.377V32.5H210.077V24.1H216.209V25.408H211.637V31.192ZM218.116 32.5V24.1H219.676V31.18H224.068V32.5H218.116ZM224.124 32.5L227.904 24.1H229.44L233.232 32.5H231.6L228.348 24.928H228.972L225.732 32.5H224.124ZM225.864 30.556L226.284 29.332H230.82L231.24 30.556H225.864ZM235.582 32.5V25.42H232.798V24.1H239.926V25.42H237.142V32.5H235.582ZM239.487 32.5L243.267 24.1H244.803L248.595 32.5H246.963L243.711 24.928H244.335L241.095 32.5H239.487ZM241.227 30.556L241.647 29.332H246.183L246.603 30.556H241.227ZM249.663 32.5V24.1H250.947L256.215 30.568H255.579V24.1H257.127V32.5H255.843L250.575 26.032H251.211V32.5H249.663Z" fill="#2F3031"/>
<path d="M66.52 45.52L66.436 43.672L70.84 39.1H72.592L68.932 42.988L68.068 43.936L66.52 45.52ZM65.128 47.5V39.1H66.688V47.5H65.128ZM70.984 47.5L67.768 43.672L68.8 42.532L72.808 47.5H70.984ZM75.3102 42.592H79.4862V43.876H75.3102V42.592ZM75.4302 46.192H80.1702V47.5H73.8702V39.1H80.0022V40.408H75.4302V46.192ZM81.9093 47.5V39.1H83.1933L86.8653 45.232H86.1933L89.8053 39.1H91.0893L91.1013 47.5H89.6253L89.6133 41.416H89.9253L86.8533 46.54H86.1573L83.0373 41.416H83.3973V47.5H81.9093ZM94.8102 42.592H98.9862V43.876H94.8102V42.592ZM94.9302 46.192H99.6702V47.5H93.3702V39.1H99.5022V40.408H94.9302V46.192ZM101.409 47.5V39.1H102.693L107.961 45.568H107.325V39.1H108.873V47.5H107.589L102.321 41.032H102.957V47.5H101.409ZM111.124 47.5V39.1H114.796C115.708 39.1 116.508 39.276 117.196 39.628C117.884 39.98 118.42 40.468 118.804 41.092C119.188 41.716 119.38 42.452 119.38 43.3C119.38 44.14 119.188 44.876 118.804 45.508C118.42 46.132 117.884 46.62 117.196 46.972C116.508 47.324 115.708 47.5 114.796 47.5H111.124ZM112.684 46.18H114.724C115.356 46.18 115.9 46.06 116.356 45.82C116.82 45.58 117.176 45.244 117.424 44.812C117.68 44.38 117.808 43.876 117.808 43.3C117.808 42.716 117.68 42.212 117.424 41.788C117.176 41.356 116.82 41.02 116.356 40.78C115.9 40.54 115.356 40.42 114.724 40.42H112.684V46.18ZM121.038 47.5V39.1H122.598V47.5H121.038ZM126.262 45.52L126.178 43.672L130.582 39.1H132.334L128.674 42.988L127.81 43.936L126.262 45.52ZM124.87 47.5V39.1H126.43V47.5H124.87ZM130.726 47.5L127.51 43.672L128.542 42.532L132.55 47.5H130.726ZM133.612 47.5V39.1H137.284C138.196 39.1 138.996 39.276 139.684 39.628C140.372 39.98 140.908 40.468 141.292 41.092C141.676 41.716 141.868 42.452 141.868 43.3C141.868 44.14 141.676 44.876 141.292 45.508C140.908 46.132 140.372 46.62 139.684 46.972C138.996 47.324 138.196 47.5 137.284 47.5H133.612ZM135.172 46.18H137.212C137.844 46.18 138.388 46.06 138.844 45.82C139.308 45.58 139.664 45.244 139.912 44.812C140.168 44.38 140.296 43.876 140.296 43.3C140.296 42.716 140.168 42.212 139.912 41.788C139.664 41.356 139.308 41.02 138.844 40.78C138.388 40.54 137.844 40.42 137.212 40.42H135.172V46.18ZM142.221 47.5L146.001 39.1H147.537L151.329 47.5H149.697L146.445 39.928H147.069L143.829 47.5H142.221ZM143.961 45.556L144.381 44.332H148.917L149.337 45.556H143.961ZM155.002 47.62C154.346 47.62 153.718 47.528 153.118 47.344C152.518 47.152 152.042 46.908 151.69 46.612L152.23 45.4C152.566 45.664 152.982 45.884 153.478 46.06C153.974 46.236 154.482 46.324 155.002 46.324C155.442 46.324 155.798 46.276 156.07 46.18C156.342 46.084 156.542 45.956 156.67 45.796C156.798 45.628 156.862 45.44 156.862 45.232C156.862 44.976 156.77 44.772 156.586 44.62C156.402 44.46 156.162 44.336 155.866 44.248C155.578 44.152 155.254 44.064 154.894 43.984C154.542 43.904 154.186 43.812 153.826 43.708C153.474 43.596 153.15 43.456 152.854 43.288C152.566 43.112 152.33 42.88 152.146 42.592C151.962 42.304 151.87 41.936 151.87 41.488C151.87 41.032 151.99 40.616 152.23 40.24C152.478 39.856 152.85 39.552 153.346 39.328C153.85 39.096 154.486 38.98 155.254 38.98C155.758 38.98 156.258 39.044 156.754 39.172C157.25 39.3 157.682 39.484 158.05 39.724L157.558 40.936C157.182 40.712 156.794 40.548 156.394 40.444C155.994 40.332 155.61 40.276 155.242 40.276C154.81 40.276 154.458 40.328 154.186 40.432C153.922 40.536 153.726 40.672 153.598 40.84C153.478 41.008 153.418 41.2 153.418 41.416C153.418 41.672 153.506 41.88 153.682 42.04C153.866 42.192 154.102 42.312 154.39 42.4C154.686 42.488 155.014 42.576 155.374 42.664C155.734 42.744 156.09 42.836 156.442 42.94C156.802 43.044 157.126 43.18 157.414 43.348C157.71 43.516 157.946 43.744 158.122 44.032C158.306 44.32 158.398 44.684 158.398 45.124C158.398 45.572 158.274 45.988 158.026 46.372C157.786 46.748 157.414 47.052 156.91 47.284C156.406 47.508 155.77 47.62 155.002 47.62ZM159.944 47.5V39.1H161.228L164.9 45.232H164.228L167.84 39.1H169.124L169.136 47.5H167.66L167.648 41.416H167.96L164.888 46.54H164.192L161.072 41.416H161.432V47.5H159.944ZM172.845 42.592H177.021V43.876H172.845V42.592ZM172.965 46.192H177.705V47.5H171.405V39.1H177.537V40.408H172.965V46.192ZM179.444 47.5V39.1H180.728L185.996 45.568H185.36V39.1H186.908V47.5H185.624L180.356 41.032H180.992V47.5H179.444Z" fill="#2F3031"/>
</svg>
